<svg width="132" height="30" viewBox="0 0 132 30" fill="none" xmlns="http://www.w3.org/2000/svg">
<g clip-path="url(#clip0_179_2)">
<path d="M18.3021 14.207L18.3174 14.1107C18.386 13.5989 18.4218 13.0833 18.4245 12.567C18.4245 10.653 17.7484 7.59555 15.7968 5.75685C13.5514 3.65032 11.0767 2.86488 8.31438 2.86488H6.80322L7.85859 3.93018L18.3021 14.207Z" fill="#FF4713"/>
<path d="M13.1538 15.3867C12.5502 16.1951 11.7642 16.8547 10.8576 17.3137C9.95098 17.7727 8.94851 18.0185 7.92899 18.0319H5.01374V7.38489L0 2.4526V22.5007H8.07889C11.193 22.5007 13.5454 21.8206 15.8427 19.6569C16.1193 19.3861 16.3702 19.091 16.5922 18.7752L13.1538 15.3867Z" fill="#FF4713"/>
<path d="M55.292 12.1727V22.5008H60.3057V17.105L55.292 12.1727Z" fill="#FF4713"/>
<path d="M60.3057 10.8546V7.24345H62.5908C64.5517 7.24345 65.2889 7.2585 65.9894 7.95967C66.4939 8.49646 66.7755 9.19976 66.7786 9.93078C66.8082 10.2993 66.7575 10.6698 66.6298 11.0176C66.5022 11.3653 66.3005 11.6822 66.0384 11.947C65.1699 12.7396 64.0606 13.2292 62.8814 13.3404H62.8325L66.1424 16.5934H66.2066C67.6443 16.3467 68.7333 15.8832 69.6786 15.0015C71.4865 13.3163 71.8046 11.4806 71.8046 9.7412C71.783 7.84768 71.0037 6.03882 69.6358 4.70659C67.7055 2.90099 65.6804 2.8709 60.3057 2.8709H55.292V5.92236L60.3057 10.8546Z" fill="#FF4713"/>
<path d="M50.4249 23.4818V7.38489L45.4111 2.4526V18.5495L50.4249 23.4818Z" fill="#FF4713"/>
<path d="M99.25 4.08065L102.664 7.43906C103.342 7.12647 104.081 6.96415 104.83 6.96359C107.84 6.96359 110.281 9.52453 110.281 12.6813C110.275 13.335 110.162 13.9835 109.944 14.6013L113.615 18.2125C114.732 16.5711 115.329 14.6412 115.331 12.6663C115.331 7.04183 110.623 2.4827 104.814 2.4827C102.844 2.49463 100.917 3.04811 99.25 4.08065Z" fill="#FF4713"/>
<path d="M106.977 17.9356C106.305 18.2379 105.575 18.3949 104.836 18.396C101.826 18.396 99.3847 15.8381 99.3847 12.6783C99.3915 12.0331 99.503 11.393 99.7151 10.7824L96.0167 7.15318C94.9102 8.79159 94.3187 10.7143 94.3159 12.6813C94.3159 18.3027 99.0238 22.8619 104.83 22.8619C106.795 22.8585 108.72 22.3144 110.388 21.291L106.977 17.9356Z" fill="#FF4713"/>
<path d="M40.5811 2.84381H35.5459V8.84442L40.5811 13.7948V2.84381Z" fill="#FF4713"/>
<path d="M40.6146 20.0843L27.5128 7.1923L22.6948 2.4827V18.5254L27.7269 23.4788V13.8249L40.6391 26.3858L40.6146 20.0843Z" fill="#FF4713"/>
<path d="M80.0425 7.24345H82.6854C84.5209 7.24345 85.1939 7.24345 85.8485 7.91153C86.3118 8.40964 86.5692 9.06002 86.5704 9.73518C86.5903 10.0604 86.536 10.3859 86.4117 10.6879C86.2873 10.9898 86.0959 11.2607 85.8515 11.4806C85.5909 11.7288 85.2774 11.9169 84.9338 12.0313H84.8971L88.2682 15.3476L88.3171 15.3265C88.7647 15.0962 89.1767 14.8044 89.5407 14.4598C91.2691 12.8498 91.575 11.0954 91.575 9.43425C91.5552 7.6232 90.8099 5.89296 89.501 4.61932C87.6655 2.89497 85.7169 2.86488 80.5564 2.86488H75.5854L80.0425 7.24345Z" fill="#FF4713"/>
<path d="M90.8562 30H96.8152L75.093 8.63075V22.5007H79.911L79.8987 19.2206L90.8562 30Z" fill="#FF4713"/>
<path d="M132 0L125.429 6.46404L118.858 0V12.6813H122.379V8.01384L125.451 11.0322L128.479 8.05296V12.6813H132V0Z" fill="white"/>
</g>
<defs>
<clipPath id="clip0_179_2">
<rect width="132" height="30" fill="white"/>
</clipPath>
</defs>
</svg>
