<svg xmlns="http://www.w3.org/2000/svg" viewBox="0 0 447.06 535.87"><defs><style>.cls-1{fill:#fff;}</style></defs><g id="Слой_2" data-name="Слой 2"><path class="cls-1" d="M169,45.77a219.06,219.06,0,0,1,24.5-1.38c2,0,3.91,0,5.86.09l-3-14.75a15,15,0,1,0-29.39,6Z"/><path class="cls-1" d="M236.59,227.09l-24.8-121.67a154.51,154.51,0,0,0-17.77-1c-4.33,0-8.65.2-12.94.56l26.66,130.83C217.34,232.59,226.9,229.61,236.59,227.09Z"/><path class="cls-1" d="M394.76,248.28A200.25,200.25,0,0,0,345.15,128l-8.89,37.53a170.13,170.13,0,0,1,26.79,68.29A280.73,280.73,0,0,1,394.76,248.28Z"/><path class="cls-1" d="M60,366.73a171,171,0,0,1-20.32-32.4A15.07,15.07,0,0,0,11,343.62a6.88,6.88,0,0,0,.28.87,14.52,14.52,0,0,0,1.31,2.79,201.71,201.71,0,0,0,39,55Z"/><path class="cls-1" d="M360.93,298.23C343.71,374.5,275.42,431.63,194,431.63a170,170,0,0,1-82.73-21.38l-7.14,30.15A199.82,199.82,0,0,0,194,461.63c92.49,0,170.59-62.75,194-147.92A294.83,294.83,0,0,0,360.93,298.23Z"/><path class="cls-1" d="M79.94,282.16c-9.12-.16-17-1.38-23.59-3.67,0,0-60.62-17.39-52.77-76C-1.36,225.73-4,260.35,15,284.9c12.59,16.23,32,25.23,57.87,26.94Z"/><path class="cls-1" d="M441,295.75c-45-33.47-84.17-52.33-121.66-58.44l-6.93,29.25c30.71,4.46,65.5,19.67,110.69,53.27A15,15,0,0,0,441,295.75Z"/><path class="cls-1" d="M257.43,238.45c-21.07,4-41.23,10.87-62.08,18-16.44,5.66-33.22,11.42-51.44,16.15l-7.74,32.66c25.76-5.61,48.35-13.36,68.94-20.44,15.59-5.36,30.18-10.37,44.64-14Z"/><path class="cls-1" d="M223.3,474.65a217.76,217.76,0,0,1-29.28,2h-.94l6,29.52a15,15,0,0,0,29.4-6Z"/><path class="cls-1" d="M194,416.63a151.73,151.73,0,0,0,17.25-1L189,306.16c-9.16,3-18.75,6-28.85,8.72,10.55,51.72,16.85,82.65,20.63,101.17C185.15,416.42,189.58,416.63,194,416.63Z"/><path class="cls-1" d="M344.66.41a15,15,0,0,0-18.05,11.13L277.33,219.46h0L272,241.91l-7.68,32.4-2.1,8.86h0l-7.64,32.23-5.86-28.78c-9.37,2.54-18.92,5.66-28.78,9,18.84,92.45,18.84,92.46,18.84,92.46a15,15,0,0,0,14.46,12h.24a15,15,0,0,0,14.6-11.55L355.8,18.46A15,15,0,0,0,344.66.41Z"/><path class="cls-1" d="M216.92,280.82h0c6.83-2.31,13.51-4.48,20.11-6.45C231.19,276.09,223.4,278.48,216.92,280.82Z"/><path class="cls-1" d="M245.72,271.89l-1.34.37,1.35-.35Z"/><path class="cls-1" d="M241.68,273c.77-.22,1.53-.45,2.3-.66Z"/><path class="cls-1" d="M116.17,324.65l5.49-23.18,7.74-32.65,2.08-8.79h0l9.38-39.56L148,255.63c9.92-2.79,19.47-5.86,28.78-9l-20.15-98.86a15,15,0,0,0-29.29-.46L39.66,517.41A15,15,0,0,0,50.8,535.46a14.75,14.75,0,0,0,3.47.41,15,15,0,0,0,14.58-11.54l47.33-199.68Z"/><path class="cls-1" d="M194,59.39A200.22,200.22,0,0,0,63,108a138.26,138.26,0,0,0-37.09,49.59c-22.75,52.58,2.68,85.29,4.7,87.77-2.86-20.53,3.54-44.78,7.66-55.8C65.31,130.53,125,89.39,194,89.39a170.07,170.07,0,0,1,92.19,27l7.27-30.66A199.87,199.87,0,0,0,194,59.39Z"/></g></svg>