<svg id="Слой_1" data-name="Слой 1" xmlns="http://www.w3.org/2000/svg" xmlns:xlink="http://www.w3.org/1999/xlink" viewBox="0 0 132 33.69"><defs><style>.cls-1{fill:none;}.cls-2{fill:#fff;}.cls-3{fill:url(#Безымянный_градиент_15);}.cls-4{fill:url(#Безымянный_градиент_15-2);}.cls-5{fill:url(#Безымянный_градиент_18);}.cls-6{fill:url(#Безымянный_градиент_18-2);}.cls-7{fill:url(#Безымянный_градиент_18-3);}.cls-8{fill:url(#Безымянный_градиент_18-4);}.cls-9{clip-path:url(#clip-path);}</style><linearGradient id="Безымянный_градиент_15" x1="21.74" y1="1.6" x2="30.49" y2="15.98" gradientUnits="userSpaceOnUse"><stop offset="0" stop-color="#ffbb17"/><stop offset="0.88" stop-color="#ff761b"/></linearGradient><linearGradient id="Безымянный_градиент_15-2" x1="-813.5" y1="147.6" x2="-804.75" y2="161.97" gradientTransform="translate(-796.19 180.67) rotate(180)" xlink:href="#Безымянный_градиент_15"/><linearGradient id="Безымянный_градиент_18" x1="-572.67" y1="135.82" x2="-552.27" y2="150.39" gradientTransform="translate(-535.19 167.68) rotate(180)" gradientUnits="userSpaceOnUse"><stop offset="0" stop-color="#b3b3b3"/><stop offset="0.88" stop-color="#4d4d4d"/></linearGradient><linearGradient id="Безымянный_градиент_18-2" x1="1.56" y1="2.82" x2="21.97" y2="17.39" gradientTransform="matrix(1, 0, 0, 1, 0, 0)" xlink:href="#Безымянный_градиент_18"/><linearGradient id="Безымянный_градиент_18-3" x1="8.97" y1="4.01" x2="24.1" y2="14.82" gradientTransform="matrix(1, 0, 0, 1, 0, 0)" xlink:href="#Безымянный_градиент_18"/><linearGradient id="Безымянный_градиент_18-4" x1="-776.85" y1="-128.99" x2="-761.72" y2="-118.18" gradientTransform="translate(-746.85 -98.32) rotate(180)" xlink:href="#Безымянный_градиент_18"/><clipPath id="clip-path" transform="translate(-0.31 -0.49)"><path id="SVGID" class="cls-1" d="M4.43,29.71a10,10,0,0,1,10-10H24.64c6,0,10-3.4,10-9.94V4.72a10,10,0,0,1-10,9.93H14.41a10,10,0,0,0-10,10Z"/></clipPath></defs><path class="cls-2" d="M48.12,20.24a2.52,2.52,0,0,1,.8,2,3,3,0,0,1-.33,1.39,2.38,2.38,0,0,1-1,1,3.23,3.23,0,0,1-1.69.4H44.42v4h-.66V19.55H46A3.18,3.18,0,0,1,48.12,20.24Zm-.83,3.86a2,2,0,0,0,.76-.85,2.45,2.45,0,0,0,.22-1,2,2,0,0,0-.59-1.5A2.27,2.27,0,0,0,46,20.18H44.42v4.27H45.9A2.53,2.53,0,0,0,47.29,24.1Z" transform="translate(-0.31 -0.49)"/><path class="cls-2" d="M50.74,25a2.72,2.72,0,0,1,1-1,2.86,2.86,0,0,1,1.42-.37A2.9,2.9,0,0,1,54.6,24a2.77,2.77,0,0,1,1,1,2.88,2.88,0,0,1,0,2.79,2.91,2.91,0,0,1-3.87,1,2.57,2.57,0,0,1-1-1,2.8,2.8,0,0,1-.36-1.42A2.71,2.71,0,0,1,50.74,25Zm.55,2.52a2.14,2.14,0,0,0,3.74,0,2.25,2.25,0,0,0,.29-1.12A2.31,2.31,0,0,0,55,25.31a2.17,2.17,0,0,0-.78-.81,2.07,2.07,0,0,0-1.09-.29,2,2,0,0,0-1.1.31,2.3,2.3,0,0,0-.78.83A2.18,2.18,0,0,0,51,26.43,2.15,2.15,0,0,0,51.29,27.55Z" transform="translate(-0.31 -0.49)"/><path class="cls-2" d="M58.48,18.88v10.2h-.64V18.88Z" transform="translate(-0.31 -0.49)"/><path class="cls-2" d="M60.87,21.58a.51.51,0,0,1,.33-.13.46.46,0,0,1,.32.13.43.43,0,0,1,.14.32.42.42,0,0,1-.14.32.42.42,0,0,1-.32.13.46.46,0,0,1-.33-.13.45.45,0,0,1-.14-.32A.43.43,0,0,1,60.87,21.58Zm.63,2.25v5.25h-.64V23.83Z" transform="translate(-0.31 -0.49)"/><path class="cls-2" d="M65.4,26.21l-.88.77v2.1h-.63V18.88h.63V26.3l2.94-2.58.39.34-2,1.77,2.34,3.25h-.74Z" transform="translate(-0.31 -0.49)"/><path class="cls-2" d="M75,23.83v5.25h-.63V28a2.49,2.49,0,0,1-.94.87,2.7,2.7,0,0,1-1.37.36,2.73,2.73,0,0,1-1.36-.35,2.49,2.49,0,0,1-1-1,2.94,2.94,0,0,1-.35-1.43A2.84,2.84,0,0,1,69.76,25a2.49,2.49,0,0,1,1-1,3.18,3.18,0,0,1,1.47-.33,2.31,2.31,0,0,1,1.23.36,2.38,2.38,0,0,1,.9.94l.07-1.14Zm-1.3,4.27a2,2,0,0,0,.67-1.41v-.75a2,2,0,0,0-.78-1.24,2.18,2.18,0,0,0-1.41-.49,2.3,2.3,0,0,0-1.1.27,2,2,0,0,0-.78.78A2.29,2.29,0,0,0,70,26.42a2.15,2.15,0,0,0,.3,1.11,2.22,2.22,0,0,0,.79.82,2.12,2.12,0,0,0,1.1.3A2.15,2.15,0,0,0,73.71,28.1Z" transform="translate(-0.31 -0.49)"/><path class="cls-2" d="M85.11,24.11a1.65,1.65,0,0,1,.47,1.14v3.83H85V25.39a1.25,1.25,0,0,0-.32-.81,1.17,1.17,0,0,0-.84-.35,1.78,1.78,0,0,0-1,.27,2.07,2.07,0,0,0-.72.72,2,2,0,0,0-.3,1v2.87h-.63V25.39a1.26,1.26,0,0,0-.33-.81,1.17,1.17,0,0,0-.84-.35,1.88,1.88,0,0,0-1,.27,2,2,0,0,0-1,1.76v2.82H77.4V23.83H78L78,25a2.18,2.18,0,0,1,.88-.95,2.55,2.55,0,0,1,1.29-.35,1.81,1.81,0,0,1,1.09.34,1.38,1.38,0,0,1,.54.88,2.24,2.24,0,0,1,.88-.9,2.52,2.52,0,0,1,1.24-.32A1.62,1.62,0,0,1,85.11,24.11Z" transform="translate(-0.31 -0.49)"/><path class="cls-2" d="M99.47,29.08h-.65V24.59H93.07v4.49h-.66V19.55h.66V24h5.75V19.55h.65Z" transform="translate(-0.31 -0.49)"/><path class="cls-2" d="M102.19,21.58a.53.53,0,0,1,.33-.13.46.46,0,0,1,.32.13.43.43,0,0,1,.14.32.42.42,0,0,1-.14.32.42.42,0,0,1-.32.13.48.48,0,0,1-.33-.13.45.45,0,0,1-.14-.32A.43.43,0,0,1,102.19,21.58Zm.63,2.25v5.25h-.63V23.83Z" transform="translate(-0.31 -0.49)"/><path class="cls-2" d="M107.21,26.1v.56h-2.49V26.1Z" transform="translate(-0.31 -0.49)"/><path class="cls-2" d="M115.06,19.55v.63h-2.81v8.9h-.65v-8.9h-2.78v-.63Z" transform="translate(-0.31 -0.49)"/><path class="cls-2" d="M119.3,28.06l.32.45a3,3,0,0,1-.88.49,2.59,2.59,0,0,1-1,.19,2.92,2.92,0,0,1-1.45-.37,2.66,2.66,0,0,1-1-1,2.78,2.78,0,0,1-.35-1.41,2.71,2.71,0,0,1,.37-1.39,2.82,2.82,0,0,1,1-1,2.76,2.76,0,0,1,1.41-.38,2.35,2.35,0,0,1,1.56.54,3.08,3.08,0,0,1,.94,1.45l-4.49,1.73a2.19,2.19,0,0,0,.79.92,2.14,2.14,0,0,0,1.2.35A2.32,2.32,0,0,0,119.3,28.06Zm-2.66-3.57a2,2,0,0,0-.77.8,2.22,2.22,0,0,0-.29,1.12,1.83,1.83,0,0,0,.06.49l3.86-1.51a2.17,2.17,0,0,0-.71-.87,1.76,1.76,0,0,0-1.06-.33A2.08,2.08,0,0,0,116.64,24.49Z" transform="translate(-0.31 -0.49)"/><path class="cls-2" d="M125.24,29a2.79,2.79,0,0,1-.94.17,2.84,2.84,0,0,1-1.43-.36,2.55,2.55,0,0,1-1-1,2.66,2.66,0,0,1-.37-1.4,2.8,2.8,0,0,1,.37-1.41,2.76,2.76,0,0,1,1-1,2.82,2.82,0,0,1,1.37-.35,2.75,2.75,0,0,1,1.84.62l-.33.43a2.35,2.35,0,0,0-1.47-.53,2,2,0,0,0-1.08.3,2.22,2.22,0,0,0-.78.8,2.25,2.25,0,0,0-.29,1.12,2.18,2.18,0,0,0,.29,1.1,2.21,2.21,0,0,0,1.92,1.1,2.28,2.28,0,0,0,1.38-.47l.35.39A2.47,2.47,0,0,1,125.24,29Z" transform="translate(-0.31 -0.49)"/><path class="cls-2" d="M131.83,24.12a1.61,1.61,0,0,1,.48,1.13v3.83h-.64V25.43a1.31,1.31,0,0,0-.34-.86,1.25,1.25,0,0,0-.89-.34,1.93,1.93,0,0,0-1,.27,2.13,2.13,0,0,0-.73.73,2,2,0,0,0-.27,1v2.82h-.63V18.88h.61v6a2.37,2.37,0,0,1,.89-.89,2.55,2.55,0,0,1,1.32-.35A1.66,1.66,0,0,1,131.83,24.12Z" transform="translate(-0.31 -0.49)"/><path class="cls-3" d="M34.62.51H23.71c-3.27,0-5.92,3.14-5.92,7v9.85h10.9c3.27,0,5.93-3.15,5.93-7Z" transform="translate(-0.31 -0.49)"/><path class="cls-4" d="M4.43,34.17H15.34c3.27,0,5.92-3.14,5.92-7V17.31H10.36c-3.27,0-5.93,3.15-5.93,7Z" transform="translate(-0.31 -0.49)"/><path class="cls-5" d="M38.74,34.19H24.66A7.66,7.66,0,0,1,17,26.53V15.8H31.09a7.66,7.66,0,0,1,7.65,7.66Z" transform="translate(-0.31 -0.49)"/><path class="cls-6" d="M.31.49H14.39a7.66,7.66,0,0,1,7.66,7.66V18.88H8A7.66,7.66,0,0,1,.31,11.22Z" transform="translate(-0.31 -0.49)"/><path class="cls-7" d="M14.39.49H9.33A7.65,7.65,0,0,1,17,8.15V18.88h5.07V8.15A7.66,7.66,0,0,0,14.39.49Z" transform="translate(-0.31 -0.49)"/><path class="cls-8" d="M24.58,34.19h5.06A7.66,7.66,0,0,1,22,26.53V15.8H16.93V26.53A7.65,7.65,0,0,0,24.58,34.19Z" transform="translate(-0.31 -0.49)"/></svg>