<?xml version="1.0" encoding="utf-8"?>
<!-- Generator: Adobe Illustrator 26.0.1, SVG Export Plug-In . SVG Version: 6.00 Build 0)  -->
<svg version="1.1" id="Слой_1" xmlns="http://www.w3.org/2000/svg" xmlns:xlink="http://www.w3.org/1999/xlink" x="0px" y="0px"
	 viewBox="0 0 370 383.7" style="enable-background:new 0 0 370 383.7;" xml:space="preserve">
<style type="text/css">
	.st0{fill:#FFFFFF;}
	.st1{clip-path:url(#SVGID_00000180324910648778504830000011516382485960373663_);}
	.st2{fill:none;stroke:#1D1D1B;stroke-width:0.25;stroke-linecap:round;stroke-linejoin:round;}
	.st3{fill:none;stroke:#1D1D1B;stroke-width:0.25;stroke-linejoin:round;}
	.st4{fill:none;stroke:#1D1D1B;stroke-width:1;stroke-miterlimit:10;}
</style>
<rect class="st0" width="370" height="383.7"/>
<g>
	<defs>
		
			<rect id="SVGID_1_" x="50.3" y="-0.9" transform="matrix(3.839715e-03 -1 1 3.839715e-03 24.9033 343.0435)" width="268.6" height="319.9"/>
	</defs>
	<clipPath id="SVGID_00000127740546804162124100000005866423448346664617_">
		<use xlink:href="#SVGID_1_"  style="overflow:visible;"/>
	</clipPath>
	<g style="clip-path:url(#SVGID_00000127740546804162124100000005866423448346664617_);">
		<path class="st2" d="M62.3,140v-1.1c0-1.7,1.4-3.1,3.1-3.1c0,0,0,0,0,0h1c1.7,0,3.1,1.4,3.1,3.1v6.6"/>
		<path class="st2" d="M160.4,53.5l-0.8,104.1l0,0c0,0.9-6.8,1.7-15.1,1.8c-8.3,0.1-15.1-0.6-15.2-1.5l0,0l-0.5-104.5"/>
		<path class="st2" d="M175,226c-3.4,0-6.3-7.6-6.3-17.1c-0.1-9.1,2.4-16.5,5.5-17.2"/>
		
			<ellipse transform="matrix(1 -9.948213e-03 9.948213e-03 1 -2.1142 2.2547)" class="st2" cx="225.6" cy="213.6" rx="4.1" ry="11.3"/>
		<path class="st2" d="M225.9,228.9c-0.4,0.3-0.8,0.4-1.3,0.4c-3.2,0-5.9-7.2-6-16.3c-0.1-8.4,2.1-15.4,5-16.3"/>
		
			<ellipse transform="matrix(3.839736e-03 -1 1 3.839736e-03 99.9658 497.0227)" class="st2" cx="299.5" cy="198.3" rx="18.1" ry="5.3"/>
		<path class="st2" d="M279.1,180.2c-2.9,0-5.4,8.1-5.4,18.1c0,10,2.3,18.1,5.3,18.1l20.4,0.1"/>
		<path class="st2" d="M159.5,155.8c4.6,0.6,7.5,1.6,7.5,2.8c0,2.1-10.1,3.9-22.6,4c-12.6,0.1-22.7-1.5-22.7-3.6
			c0-1.1,2.9-2.2,7.5-2.9"/>
		<line class="st2" x1="60.1" y1="185" x2="59.9" y2="222.5"/>
		<path class="st2" d="M22.6,212.8l37.4,4.9c0,0,44.9-1.4,54.8-3.5l7.5-1.3"/>
		<path class="st2" d="M22.5,217.6l37.4,4.9c0,0,44.9-1.4,54.8-3.5l20.7-4.6"/>
		<path class="st2" d="M105,211c-11.2,0.9-20.5,1.3-20.5,1.3c-0.7-0.9-1.5-1.7-2.4-2.3l-15.9-3.8l0.1-20.7c0,0,15.1-5.4,15.9-5.5
			v9.3"/>
		<path class="st2" d="M80.4,189.2v-3.8l-10.7,4v15.1c0,0,12.8,3.8,13.4,4.1s1.6,1,2.3,3.2l-0.9,0.5"/>
		<line class="st2" x1="170.3" y1="196.9" x2="72.3" y2="188.5"/>
		<polyline class="st2" points="66.2,185.6 60.1,185 22.2,179.8 		"/>
		<path class="st2" d="M82,180.1c0,0,21.2,1.6,23.5,1.9c2.3,0.3,30,0.7,62.8-8.8c0,0,10.5-3.4,11.3-6.3c0.8-2.9-1.6-6-3-6.3
			c-1.4-0.3-9.5-0.6-9.5-0.6"/>
		<path class="st2" d="M167.1,158.6v12.3c0,0-1.7,1.8-21.5,1.7h-16.4c-1.4,0.1-2.8,0.4-4.1,0.9l-3.6,0.4l0.2-14.7"/>
		<line class="st2" x1="169.7" y1="218.2" x2="83.1" y2="208.6"/>
		<polyline class="st2" points="104.9,220.2 104.7,271.9 113.4,273.9 113.7,219.2 		"/>
		<polyline class="st2" points="133.4,260.8 133.4,265.3 113.4,273.9 		"/>
		<line class="st2" x1="133.6" y1="214.8" x2="133.5" y2="233.4"/>
		<line class="st2" x1="175" y1="226" x2="224.6" y2="229.4"/>
		<path class="st2" d="M173.9,191.8l77.9-28.4l40.9,3.8c0,0,5.6,0.3,5.6,13.2"/>
		<path class="st2" d="M167.2,139.9h-1.8c-1.3,0-2.6,0.4-3.8,1l-1.8,1.1v-12.8h2.2c1,0,1.8-0.8,1.8-1.8v-2.1
			c0.1-2.1,1.8-3.8,3.9-3.8l0,0c2.1,0,3.9,1.7,3.9,3.9c0,0,0,0,0,0v10.2C171.5,138,169.6,139.9,167.2,139.9z"/>
		<path class="st2" d="M159.7,128.1c0,0,3.5-0.3,3.5,0.6"/>
		<line class="st2" x1="299.5" y1="180.3" x2="279.1" y2="180.2"/>
		<path class="st2" d="M269.6,190.8c-1.3,0-2.2,3.3-2.2,7.5c0,4.1,1,7.5,2.2,7.5h4.6"/>
		<line class="st2" x1="274.2" y1="190.8" x2="269.6" y2="190.8"/>
		<line class="st2" x1="296.6" y1="183.2" x2="276.2" y2="183.2"/>
		<line class="st2" x1="295.5" y1="186.5" x2="275" y2="186.4"/>
		<line class="st2" x1="294.8" y1="189.8" x2="274.3" y2="189.7"/>
		<line class="st2" x1="294.4" y1="193.1" x2="273.9" y2="193"/>
		<line class="st2" x1="294.2" y1="196.4" x2="273.7" y2="196.3"/>
		<line class="st2" x1="294.1" y1="199.7" x2="273.7" y2="199.6"/>
		<line class="st2" x1="294.3" y1="202.9" x2="273.9" y2="202.8"/>
		<line class="st2" x1="294.6" y1="206.2" x2="274.2" y2="206.1"/>
		<line class="st2" x1="295.2" y1="209.5" x2="274.8" y2="209.4"/>
		<line class="st2" x1="296.2" y1="212.8" x2="275.8" y2="212.7"/>
		<path class="st2" d="M254.3,223c1.6-0.2,2.8-1.5,2.9-3.1l4.4-29.5l3.4-1.6l2.5,0.4l-3.4,1.7l-3.9,30.3c-0.4,3-2.9,5.2-5.9,5.2
			h-4.3"/>
		<polygon class="st2" points="272.7,186.3 269.4,188 267.3,187.7 270.1,186.1 		"/>
		<path class="st2" d="M223.6,196.9c0,0,66.7-29.5,69.2-29.8"/>
		<path class="st2" d="M257.1,220.4l-5.2,4.7c-1.2,1-2.7,1.6-4.2,1.6l-17.1-0.1"/>
		<path class="st2" d="M225.5,229.2l18.2-9.3c1.5-0.8,3.4-0.4,4.5,0.9l1.3,1.5c0.8,0.9,2.4,1.8,3.3,1l4.4-3.6"/>
		<line class="st2" x1="261.6" y1="190.4" x2="264.1" y2="190.9"/>
		<line class="st2" x1="267.4" y1="189.2" x2="267.4" y2="197.7"/>
		<line class="st2" x1="272.7" y1="186.3" x2="272.7" y2="190.8"/>
		<line class="st2" x1="269.4" y1="188" x2="269.4" y2="190.8"/>
		<line class="st2" x1="267.3" y1="187.7" x2="267.3" y2="189.2"/>
		<path class="st3" d="M205.6-29.4c-3.3,12-5,24.3-5,36.8c0.2,19,2.9,41.5,5.6,45.3c2.7,3.8,10.6,9.7,18.5,9.7s30.1-3.6,36.4-27.6
			s15.8-70.1,15.8-70.1"/>
		<path class="st3" d="M251.6-29.3c0,0,2.9,14.2-6.6,19.3c0,0-1.1,21.7,3.8,39.3c0,0,6.7-22.5,11.8-58.6"/>
		<path class="st3" d="M201,20.6l-25.2,0.5l-1.5,29.2c-0.1,1.9-1.6,3.3-3.5,3.3l-53.5-0.2c-1.9,0-3.5-1.6-3.5-3.5c0,0,0,0,0,0V35
			l-37-0.2"/>
		<path class="st3" d="M28.6-18l30.6-1.6l21,0.9l37.5-3.1c0,0,37.9-1.3,40.4-1.3s1.5,3,2.7,16.8c1.2,13.8,15.2,27.4,15.2,27.4
			s-2.4,3.3-9.5-2.2c-4.5-3.4-9.7-6-15.1-7.7L86.7,26c0,0-4,6.6-11.2,7.5"/>
		<line class="st2" x1="179.8" y1="165.9" x2="179.7" y2="189.7"/>
		<line class="st2" x1="179.7" y1="165" x2="236.9" y2="168.8"/>
		<line class="st2" x1="179.7" y1="180.8" x2="199.7" y2="182.4"/>
		<line class="st2" x1="257.2" y1="225.6" x2="276.9" y2="215"/>
		<line class="st2" x1="203.2" y1="166.6" x2="351.3" y2="119"/>
		<line class="st2" x1="-2.8" y1="232.7" x2="38.1" y2="219.6"/>
		<line class="st2" x1="289.1" y1="166.8" x2="352.5" y2="141.7"/>
		<line class="st2" x1="133.7" y1="228.4" x2="161.7" y2="217.3"/>
		<line class="st2" x1="123.7" y1="232.3" x2="127.1" y2="231"/>
		<line class="st2" x1="0.9" y1="281" x2="104.8" y2="239.8"/>
		<line class="st2" x1="302.3" y1="182.6" x2="355.8" y2="161.4"/>
		<line class="st2" x1="135.6" y1="248.7" x2="190.4" y2="227"/>
		<line class="st2" x1="123.6" y1="253.4" x2="125" y2="252.9"/>
		<line class="st2" x1="0.8" y1="302.1" x2="74.6" y2="272.9"/>
		<path class="st2" d="M123.7,249.8v10.6c-0.1,1.6,1.1,3,2.7,3.1c1.6,0.1,3-1.1,3.1-2.7c0-0.1,0-0.3,0-0.4v-2.9"/>
		<path class="st2" d="M129.6,237v-5.2c0.1-1.6-1.1-3-2.7-3.1s-3,1.1-3.1,2.7c0,0.1,0,0.3,0,0.4v12.4"/>
		<path class="st2" d="M127,239.1v-9.5c0-0.4-0.1-0.7-0.2-1"/>
		<path class="st2" d="M123.8,261.4h0.3c1.7-0.1,3-1.5,2.9-3.2v-2.9"/>
		<path class="st2" d="M99.4,271.2c0,1.5-6.4,2.6-14.3,2.6c-7.9,0-14.3-1.3-14.3-2.7"/>
		<path class="st2" d="M94.2,267.7c-3,0.4-6,0.6-9.1,0.6c-7.9,0-14.3-1.3-14.3-2.7c0-0.7,1.5-1.4,4-1.8"/>
		
			<ellipse transform="matrix(3.839736e-03 -1 1 3.839736e-03 -174.8847 343.8723)" class="st2" cx="85.2" cy="259.7" rx="1" ry="5.4"/>
		<path class="st2" d="M90.6,261.2c0,0.6-2.4,1-5.4,1c-3,0-5.4-0.5-5.4-1"/>
		<path class="st2" d="M104.8,258.5l-23.1,0.1c0,0-6,0.1-6.9,1.6c-1.1,1.8,1.5,3,4.1,3.3l25.9,3.9"/>
		<line class="st2" x1="79.7" y1="261.1" x2="79.7" y2="259.7"/>
		<line class="st2" x1="90.6" y1="261.2" x2="90.6" y2="259.7"/>
		<path class="st2" d="M74.5,260.8v2.2c0.1,1.3,2.3,2.1,4.3,2.4l26,3.9"/>
		<line class="st2" x1="99.4" y1="271.2" x2="99.4" y2="268.5"/>
		<line class="st2" x1="70.8" y1="271.1" x2="70.9" y2="265.5"/>
		<path class="st2" d="M205.5,228.1v9.8c0,4.3,3.5,7.9,7.8,7.9c0,0,0,0,0,0h0.3c2.7,0,4.9-2.2,4.9-4.9v-3.4l0,0
			c7.3,3.2,15.6,3.4,23.1,0.5l1.2-0.4v3.4c0,2.7,2.2,4.9,4.9,4.9h0.3c4.3,0,7.9-3.5,7.9-7.8c0,0,0,0,0,0v-12"/>
		<polygon class="st2" points="31.3,179.4 47.5,181.7 56.5,179.2 56.5,177.2 42.9,176 		"/>
		<line class="st2" x1="42.9" y1="176" x2="42.8" y2="181"/>
		<path class="st3" d="M107.1,34.9v14.8l-1.6,1.6V65c0,3.1-2.5,5.5-5.6,5.5c0,0-0.1,0-0.1,0c-6.6-0.1-16.8-0.3-16.8,0
			s-5.7-3.4-5.7-3.4"/>
		<path class="st3" d="M107.1,44h1.5c0,0,4.2,0.4,4.2,11.2s-4.2,11-4.2,11h-3.3"/>
		<path class="st3" d="M59.6-32.2c0,0-0.6,14.7-0.1,25C60,3,69,20.6,71.7,24.4"/>
		<path class="st3" d="M89.3-19.5L89.2,8.2c0,0-1.4,3,11.6,2.5S113.1,8,113.1,8s-4.1-9.4-4.6-13.5c-0.4-4.1,0.1-15.6,0.1-15.6"/>
		<path class="st3" d="M89.1,8.8c0-2.7,23.3-2.5,23.9-0.7"/>
		<path class="st3" d="M113.8,35h3.6c0,0,5.7-1.1,12.5-7.7c6.7-6.6,14.9-14.3,21.4-16.1"/>
		<path class="st2" d="M26,25.9c0,0,18.1,0.1,21,0.1c2.3,0,20.3,5,27.5,7c1.7,0.5,3,2.1,2.9,3.9l-0.3,79.3c0,3.1-2.5,5.6-5.6,5.6
			c0,0,0,0,0,0h-8.5c-9.9,0-18,8-18.1,17.9v8.9l7.7,8.1"/>
		<path class="st2" d="M129.2,150.5c0,0-29.3-2.5-53.7-1.9"/>
		<path class="st2" d="M53.1,149.5c0,0-3.9,0.5-6.5,0.8"/>
		<line class="st2" x1="222.8" y1="197.3" x2="173.2" y2="192.2"/>
		
			<ellipse transform="matrix(3.839736e-03 -1 1 3.839736e-03 -23.2941 407.5317)" class="st2" cx="192.9" cy="215.5" rx="3.8" ry="3.2"/>
		
			<ellipse transform="matrix(3.839736e-03 -1 1 3.839736e-03 -10.6095 345.487)" class="st2" cx="168.1" cy="178.1" rx="3.1" ry="2.2"/>
		
			<ellipse transform="matrix(3.839736e-03 -1 1 3.839736e-03 -114.799 379.0114)" class="st2" cx="132.8" cy="247.1" rx="4.8" ry="2.9"/>
		<path class="st2" d="M133,242.3l-5.2-1.1c-0.3-0.1-0.5-0.2-0.8-0.2c-2,0-3.7,2.7-3.7,6s1.6,6.1,3.6,6.1c0.3,0,0.6-0.1,0.9-0.2
			l5.5-1.1"/>
		<path class="st2" d="M123.4,245.6c0.1-2.3,1.2-4.5,3-6c3.9-3.4,9.9-8.7,10.4-8.9c0.7-0.4,1.7-0.5,3,1.1c0.9,1.2,1.7,2.6,2.2,4
			l-8.6,6.7"/>
		<polyline class="st2" points="136.7,230.8 139.7,235.4 132.3,242.2 		"/>
		<line class="st2" x1="139.7" y1="235.4" x2="142.1" y2="235.7"/>
		<path class="st2" d="M133.5,251.8l8.6,6.8c-0.6,1.4-1.4,2.7-2.3,3.9c-1.3,1.6-2.3,1.5-3,1.1c-0.5-0.3-6.3-5.4-10.2-8.9
			c-1.7-1.6-2.8-3.8-3.2-6.1"/>
		<polyline class="st2" points="137.1,263.8 140,259.1 132.3,252.1 		"/>
		<line class="st2" x1="140" y1="259.1" x2="142" y2="258.6"/>
		<path class="st2" d="M75.1,153.9c21.2,0.3,38.8,3.5,38.8,7.3s-18,7.1-40.3,7c-2,0-5,0-6.9,0"/>
		<path class="st2" d="M113.9,167.9L113.9,167.9c0,3.9-18,7.1-40.3,7h-6.9"/>
		<path class="st2" d="M75.1,160.6c14.6,0.2,27.7,1.8,34.1,4"/>
		<line class="st2" x1="113.9" y1="161.2" x2="113.9" y2="167.9"/>
		<path class="st2" d="M53.1,146.7v13.7c0,0.9,4.9,1.6,11,1.6s11-0.7,11-1.5v-13.7"/>
		<path class="st2" d="M66.7,175.4c2.8,0.2,4.8,0.6,4.8,1s-3.4,1.1-7.5,1s-7.5-0.5-7.5-1.1s2-0.8,4.8-1"/>
		<path class="st2" d="M61.4,162v14.2c0,0.2,1.3,0.4,2.7,0.4s2.7-0.2,2.7-0.4l0.1-14.2"/>
		<path class="st2" d="M71.5,176.4v4.2c0,0.6-3.4,1.1-7.5,1s-7.5-0.5-7.5-1.1v-4.2"/>
		
			<ellipse transform="matrix(3.839736e-03 -1 1 3.839736e-03 -82.8912 210.371)" class="st2" cx="64.1" cy="146.8" rx="1.6" ry="11"/>
		<path class="st2" d="M60.5,140l3.6,0c1,0,1.8,0.8,1.8,1.8l-0.1,15.8c0,1-0.8,1.8-1.8,1.8l-3.6,0c-1,0-1.8-0.8-1.8-1.8l0.1-15.8
			C58.7,140.7,59.5,140,60.5,140z"/>
		<polyline class="st2" points="57,176 40.3,175.9 25.4,175.1 		"/>
		<polyline class="st2" points="61.4,168.5 55,169.8 44.2,171 21.9,169.6 		"/>
		<polyline class="st3" points="105.5,51.3 82.6,63.8 24.7,63.5 		"/>
		
			<rect x="51.2" y="53.4" transform="matrix(3.839715e-03 -1 1 3.839715e-03 -12.639 123.664)" class="st3" width="9" height="29.6"/>
		<path class="st3" d="M68.5,103.8L42,103.7c-2.8,0-5.1-2.2-5.2-5L35.6,75c-0.1-1.3,0.9-2.3,2.2-2.4c0,0,0.1,0,0.1,0l35.5,0.1
			c1.3,0,2.3,1.1,2.3,2.3c0,0.1,0,0.1,0,0.2l-2,23.8C73.5,101.8,71.2,103.9,68.5,103.8z"/>
		<path class="st2" d="M25.9,154.9h3.3c0,0,6.8-0.3,6.8-1.1c0-0.5-0.5-4.6-0.9-7.4c-0.2-1.4-1.4-2.4-2.8-2.5c-2-0.1-4.9-0.2-7-0.1"
			/>
		
			<ellipse transform="matrix(3.839736e-03 -1 1 3.839736e-03 -114.799 379.0114)" class="st2" cx="132.8" cy="247.1" rx="3.3" ry="2"/>
		<path class="st2" d="M66.8,171.3v1.7c0.3,0,1.5,0.3,1.5,0.8c0,0.6-2.1,2-1.6,2.4l0.7,0.7c0.5,0.5,2.5-1.9,2.5-3.1
			C70,172,67.9,171.4,66.8,171.3z"/>
		<path class="st2" d="M59.1,175.7c-1.6,0-1.7-1-1.7-1.3c0-0.5,0.1-1.3,3.9-1.9v1c1.9-0.5,3.7-1.4,5.4-2.5c1-0.7,1.6-1.4,1.6-1.9
			c0-0.5-1.3-0.8-1.5-0.8v-1.7c1.2,0.1,3.2,0.7,3.2,2.5C70,172.7,61.6,175.7,59.1,175.7z"/>
		<path class="st2" d="M59.1,170.1c-1.6,0-1.6-1-1.6-1.3c0-0.5,0.1-1.3,3.9-1.9v1c1.9-0.5,3.7-1.4,5.4-2.5c1-0.7,1.6-1.4,1.6-1.9
			c0-0.5-1.3-0.8-1.5-0.8v-0.9c1.2,0,3.3-0.5,3.2,1.7C69.9,167.2,61.7,170.2,59.1,170.1z"/>
		<path class="st2" d="M61.4,173.6c0,0-3.3,1.1-3.5,0.6"/>
		<path class="st2" d="M61.4,168.1c0,0-3.1,1-3.2,0.7"/>
		<path class="st2" d="M66.8,175.6c0.2-0.3,0.7-0.1,1,0.2c0.3,0.3,0.5,0.7,0.3,0.9"/>
	</g>
</g>
<rect x="18" y="31.7" transform="matrix(2.443451e-03 -1 1 2.443451e-03 -7.1346 376.6965)" class="st4" width="334.5" height="320.4"/>
</svg>
