<?xml version="1.0" encoding="utf-8"?>
<!-- Generator: Adobe Illustrator 26.0.1, SVG Export Plug-In . SVG Version: 6.00 Build 0)  -->
<svg version="1.1" id="Слой_1" xmlns="http://www.w3.org/2000/svg" xmlns:xlink="http://www.w3.org/1999/xlink" x="0px" y="0px"
	 viewBox="0 0 370 383.7" style="enable-background:new 0 0 370 383.7;" xml:space="preserve">
<style type="text/css">
	.st0{fill:#FFFFFF;}
	.st1{fill:none;stroke:#1D1D1B;stroke-width:1;stroke-miterlimit:10;}
	.st2{fill:none;stroke:#1D1D1B;stroke-width:0.25;stroke-linecap:round;stroke-linejoin:round;}
	.st3{fill:none;stroke:#1D1D1B;stroke-width:0.25;stroke-linejoin:round;}
	.st4{fill:none;stroke:#1D1D1B;stroke-width:0.25;stroke-dasharray:2.04,0.54;}
	.st5{fill:none;stroke:#1D1D1B;stroke-width:0.25;}
	.st6{fill:#1D1D1B;}
	.st7{fill:none;stroke:#FFFFFF;stroke-width:0.4;stroke-linecap:round;stroke-linejoin:round;}
	.st8{font-family:'CeraPro-Medium';}
	.st9{font-size:8.3396px;}
	.st10{fill:none;stroke:#FFFFFF;stroke-width:2;}
	.st11{fill:none;stroke:#1D1D1B;}
	.st12{fill:none;stroke:#1D1D1B;stroke-width:0.5;stroke-miterlimit:10;}
</style>
<rect class="st0" width="370" height="383.7"/>
<rect x="17.8" y="31.6" transform="matrix(2.443451e-03 -1 1 2.443451e-03 -7.2779 376.3631)" class="st1" width="334.4" height="320.4"/>
<path class="st2" d="M95.6,142c-0.3-4.8-0.3-9.7,0-14.6 M298.8,150.9l4.8-9.7c0.1-0.2,0-0.4-0.2-0.5c0,0,0,0,0,0l-1.1-0.6
	c-0.2-0.1-0.4,0-0.5,0.1c0,0,0,0,0,0l-4.4,9.2c-0.1,0.1-0.1,0.3,0,0.4l0.8,1.1c0.1,0.2,0.3,0.2,0.5,0.1
	C298.7,151.1,298.7,151,298.8,150.9z M301.3,154.5l5.6-11.6c0.1-0.2,0-0.4-0.2-0.5c0,0,0,0,0,0l-1.1-0.6c-0.2-0.1-0.4,0-0.5,0.2
	l-5.3,11c-0.1,0.1-0.1,0.3,0,0.4l0.8,1.1c0.1,0.2,0.3,0.3,0.5,0.2C301.2,154.7,301.3,154.7,301.3,154.5L301.3,154.5z M304,157.9
	l6.5-13.4c0.1-0.2,0-0.4-0.2-0.5c0,0,0,0,0,0l-1.1-0.6c-0.2-0.1-0.4,0-0.5,0.2c0,0,0,0,0,0l-6.2,12.8c-0.1,0.1-0.1,0.3,0,0.4
	l0.8,1.1c0.1,0.2,0.3,0.3,0.5,0.2C303.9,158.1,303.9,158,304,157.9L304,157.9z M297.9,136.5l12.9,6.2c0.3,0.1,0.6,0,0.8-0.2
	c0.2-0.3,0.1-0.6-0.2-0.8c0,0,0,0-0.1,0l-13-6.3 M305.7,172.6l11.2-23.3c0.2-0.3,0.1-0.7-0.1-1l-3.3-4.1c-0.3-0.4-0.3-0.8-0.1-1.3
	l4.4-9.3 M122,134.2v1.9 M117.6,134.2v1.9 M116.8,134.2v1.9 M115.4,134.2v1.9 M232.4,125.3l4.6-1.8 M251.4,127.6l-1.7-2.7
	 M246.3,101l-9.4,22.5l12.8,1.4l13.2-11.6 M262.9,113.3l-11.4,14.3l-19.1-2.3l14-24.3C246.4,101,251.1,111.4,262.9,113.3z
	 M125.5,134.2c0.5-1.2,1.9-1.6,3.1-1.1c1.2,0.5,1.6,1.9,1.1,3.1c-0.5,1.2-1.9,1.6-3.1,1.1c-0.5-0.2-0.9-0.6-1.1-1.1 M125.5,136.2
	H95.3 M95.3,134.2h30.2 M128.2,141.1h-25.7c-0.7,0-1.2-0.5-1.2-1.2c0-0.7,0.5-1.2,1.2-1.2c0,0,0,0,0,0h25.7c0.7,0,1.2,0.5,1.2,1.2
	S128.9,141.1,128.2,141.1C128.2,141.1,128.2,141.1,128.2,141.1z M128.2,131.7h-25.7c-0.7,0-1.2-0.5-1.2-1.2c0-0.7,0.5-1.2,1.2-1.2
	h25.7c0.7,0,1.2,0.5,1.2,1.2C129.4,131.2,128.9,131.7,128.2,131.7z M129.6,143.4h-7.4 M129.6,123.6l-7.4,0.9 M100.8,153.5
	c-3.3-13.7-1.9-27,0-36 M229.1,88.2l3.2-4.2 M235.3,80.2l3.2-4.2 M227.5,87l3.3-4.2 M233.7,78.9l3.2-4.1 M223.6,83.9l3.3-4.2
	 M229.8,75.9l3.2-4.2 M221.9,82.5l3.3-4.2 M228.3,74.6l3.2-4.1 M218.3,79.7l3.4-4 M224.8,72l3.4-4 M232.9,91.2l3.1-4.3 M239,82.9
	l3.1-4.3 M222.8,132.8l5.6-9.2c0.3-0.5,0.2-1.2-0.4-1.5c-0.1-0.1-0.3-0.1-0.4-0.2l-2.8-0.4c-0.7-0.1-1.5,0.2-1.9,0.8l-6.1,8.3
	c-0.5,0.6-0.3,1.5,0.3,2c0.2,0.1,0.4,0.2,0.6,0.3l3.8,0.6C222,133.5,222.5,133.2,222.8,132.8L222.8,132.8z M226.2,118.2l3.4,0.4
	c0.5,0.1,1-0.2,1.3-0.7l6.1-11.5c0.1-0.1,0.1-0.3,0-0.4l-1.1-1.8c-0.1-0.2-0.4-0.3-0.6-0.1c-0.1,0-0.1,0.1-0.1,0.1l-9.3,13.3
	c-0.1,0.2-0.1,0.4,0.1,0.6C226.1,118.1,226.1,118.1,226.2,118.2L226.2,118.2z M227.4,67.3l15.8,12.3l1-1.4L228.5,66L227.4,67.3z
	 M221.2,75.3l15.4,12.1l3.1-3.8l-15.5-12.1L221.2,75.3z M216.3,80.4l16.8,13.2l1-1.4L217.4,79L216.3,80.4z M194.4,116.5h14.3
	 M193.1,118h14.4 M197,113.3l13.8,0.1 M195.5,115h14.2 M198.2,111.9L212,112 M199.4,110.4l13.7,0.1 M206.2,119.7l22.3-29.8
	 M191.3,120.2l30-35.9 M194.2,109.2l-8.3,9.9c-0.3,0.3-0.2,0.7,0.1,1c0.1,0.1,0.3,0.2,0.5,0.2l25.4-0.8 M207.7,125.3l23.9-32.9
	 M205,127l-45.9,0.1l1,15.3l33.8-0.2 M194.5,143.8l-0.5-1.5L205,127l2.8-1.7l-49.5,0.3l1.3,18.4L194.5,143.8l-0.6,0.8l16.2,3.2
	l4.4,5 M209.8,157.2l-12.7-6.6L168,151l-12.6-6.2l-2.4-19.7l9.5-8.3l-0.6-4.7 M178.3,120.1l-0.4-1.6 M165,120.6l1.4-1.6
	 M164.5,111.9l1.8,7l11.4-0.4l6.7-7.9 M163.8,111.9l1.1,8.6l13.3-0.5l6.8-9.5 M141.3,108.9c0,0,4.5,4.3,13.7,3.6s35.8-2.3,35.8-2.3
	 M218.6,64.9l1.2,1.9 M220,63.7l1.2,1.8 M217.7,64.9l1.6,2.4l2.4-2.4l-1.6-2.3 M213.9,69.4l1.3,2 M212.6,70.6l1.3,2.1 M211.7,70.4
	l1.7,2.8l2.5-2.5l-1.7-2.6 M221,62.5l2.1,3.3L192,99.4c-0.2,0.3-0.6,0.4-0.9,0.2l-7-2.6 M217.7,81.5L195,108.5l-0.8-0.4l-3.5,1.1
	l-10.6-5.3 M183.5,97.9l7.3,2.7c0.7,0.2,1.4,0.1,1.9-0.4l31.7-34.3l-2.7-4.1 M235.3,62.3l-2.3,4.4l8.5,6.6l3.8-3.2 M298.1,123.3
	c-4.1,2.1-8.4,3.9-12.9,5.2c-0.7,0.2-1.4,0.3-2.2,0.2l-24.5-3.3c-0.6-0.1-1.2,0.2-1.6,0.7l-3.1,4c-0.4,0.5-1,0.7-1.6,0.7l-22.4-2.5
	c-0.7-0.1-1.2-0.8-1-1.4c0-0.1,0.1-0.2,0.1-0.4l10.7-19.3c0.4-0.8,0.5-1.7,0.3-2.5l-4.3-17.2 M271.5,156.2l1.4-17l8.5,1.3l9.1,18.4
	l-2.5,5.7 M267.1,153.7l1.3-15.2l-9-1l-6.2,9.1 M288.7,164.8l2.5-5c0.2-0.5,0.2-1,0-1.5l-8.8-17.8c-0.3-0.5-0.8-0.9-1.4-1l-7.7-1
	c-0.6-0.1-1.2,0.3-1.2,0.9c0,0,0,0.1,0,0.1l-1.3,16.4 M267.9,154.2l1.2-15.3c0.1-0.6-0.4-1.2-1-1.3l-8.2-1c-0.5-0.1-1,0.2-1.3,0.6
	l-6.1,9.1 M248.9,145.9l8.2-12.1c0.3-0.4,0.8-0.6,1.3-0.5l22.4,2.9c0.6,0.1,1.1,0.4,1.4,0.9l15.7,22.7c0.3,0.5,0.4,1.1,0.1,1.6
	l-2.9,6.3 M141.7,99.5l-0.8,30.7l8.3,33.6 M235,88.7l4,16.2c0.1,0.5,0.1,1-0.2,1.5L228.1,126c-0.6,1.1-0.2,2.4,0.9,3
	c0.3,0.1,0.6,0.2,0.9,0.3l22.6,2.4c0.8,0.1,1.6-0.3,2.2-0.9l3.2-4c0.2-0.2,0.4-0.3,0.7-0.3l24.8,3.2c0.6,0.1,1.3,0,1.9-0.2
	c4.8-1.4,9.5-3.3,13.9-5.7 M301.4,124.5l-6.4,21.8c-0.5,1.7-0.2,3.5,0.8,5l5.2,7.9c0.7,1,0.8,2.3,0.3,3.4l-3.2,6.9 M296,168.2l3-6.9
	c0.2-0.5,0.2-1.2-0.2-1.7l-16.1-23.2c-0.4-0.6-1.1-1-1.9-1.1l-22.9-2.8c-0.7-0.1-1.3,0.2-1.7,0.8l-8.7,13 M244.1,145.5
	c-2.3-5-11.7-8.8-14.6-10c-3.4-1.3-6.1,1.9-7,3.3c-0.7,1-3.3,5.5-5.6,9.4 M139,143.4l-3.3-13.1l0.3-7.3 M178.7,104.2
	c3.8,2.4,7.8,4.4,12,6l3.4-1l1.1,0.4L218.5,82"/>
<path class="st2" d="M95.6,127.4H50l-14.9,11.5v2 M95.5,141.9l-0.9-0.9l-0.3,0.9l-1-1l-0.4,1 M92.8,141.9l-0.9-0.9l-0.3,0.9l-1-1
	l-0.4,1 M90.2,141.9l-0.9-0.9l-0.3,0.9l-1-1l-0.4,1 M87.6,141.9l-0.9-0.9l-0.3,0.9l-1-1l-0.4,1 M84.9,141.9l-0.9-0.9l-0.3,0.9l-1-1
	l-0.4,1 M82.3,141.9l-0.9-0.9l-0.3,0.9l-1-1l-0.4,1 M79.6,141.9l-0.9-0.9l-0.3,0.9l-1-1l-0.4,1 M77,141.9l-0.9-0.9l-0.3,0.9l-1-1
	l-0.4,1 M74.4,141.9l-0.9-0.9l-0.3,0.9l-1-1l-0.4,1 M71.7,141.9l-0.9-0.9l-0.3,0.9l-1-1l-0.4,1 M69.1,141.9l-0.9-0.9l-0.3,0.9l-1-1
	l-0.4,1 M66.5,141.9l-0.9-0.9l-0.3,0.9l-1-1l-0.4,1 M63.8,141.9l-0.9-0.9l-0.3,0.9l-1-1l-0.4,1 M61.2,141.9l-0.9-0.9l-0.3,0.9l-1-1
	l-0.4,1 M58.5,141.9l-0.9-0.9l-0.3,0.9l-1-1l-0.4,1 M55.9,141.9l-0.9-0.9l-0.3,0.9l-1-1l-0.4,1 M53.2,141.9l-0.9-0.9l-0.3,0.9l-1-1
	l-0.4,1 M50.6,141.9l-0.9-0.9l-0.3,0.9l-1-1l-0.4,1 M48,141.9l-0.9-0.9l-0.3,0.9l-1-1l-0.4,1 M45.3,141.9l-0.9-0.9l-0.3,0.9l-1-1
	l-0.4,1 M42.7,141.9l-0.9-0.9l-0.3,0.9l-1-1l-0.4,1 M40.1,141.9l-0.9-0.9l-0.3,0.9l-1.1-1l-0.4,1 M35.1,140.9l1,1l0.3-0.9l0.9,0.9
	 M298,169.5l12.2,4.9c1.5,0.6,3.3-0.1,4-1.5l14.3-29.1c0.7-1.4,0.2-3.2-1.1-4.1c-8.4-5.5-17.1-10.5-26-15.1 M298,169.6l-2.3-1
	l0.2-0.4l-0.9-0.4l-0.2,0.5l-6.3-2.9l0.2-0.5l-0.8-0.3l-0.2,0.5l-16.2-8.2v-0.4l-0.7-0.4v0.6l-3-1.7v-0.6l-0.8-0.5v0.6l-14.1-7.3
	l0.3-0.4l-0.7-0.3l-0.3,0.5c-1.1-0.5-2.4-0.7-3.6-0.5l0.3-0.5l-1.3,0.3L247,147l-1.6,1c-0.2,0.1-0.5,0.1-0.7-0.1
	c-0.1-0.1-0.1-0.2-0.1-0.3c0-0.7-0.2-1.5-0.5-2.2c-1.8,3.1-3.7,6-5.9,8.8c-0.5,0.7-1.5,0.8-2.1,0.3c-0.1-0.1-0.2-0.2-0.3-0.3
	c-4.4-6.1-12.2-9.1-14.5-7.2c-2.5,2-4.4,1.2-4.4,1.2c-1,1.7-1.9,3.3-2.6,4.5c-2.3,4-6.1,5.2-8.8,6.2c-2.8,1-8.5,1.5-15.6,1.5
	c-7.1-0.1-22.4-0.6-26.8-1.2c-4.4-0.5-4.8-3.8-8.6-2.7c-2.9,0.8-4.8,5.3-5.5,7.3c-0.2,0.6-0.7,0.9-1.3,1l-2,0.1
	c-0.8,0.1-1.5-0.5-1.7-1.3l-5.2-20.2l0,0h-9.4v1.3h-7.4v-1.3h-19.7c-1.3,0-2.3,1-2.3,2.3c0,0,0,0,0,0.1c0,1.6,0.4,4.1,0.6,7.5
	c0.7,2.8,1.5,5.6,2.6,8.3c0.2,0.5,0,1.1-0.5,1.3c-0.1,0.1-0.3,0.1-0.4,0.1h-1.3c-1.1,0-2.1-0.8-2.4-1.8c-1.7-6.3-2.8-12.7-3.2-19.1
	 M95.6,127.4c0.4-6.6,1.4-13.2,3.1-19.7c0.3-1.1,1.3-1.8,2.4-1.8h1.4c0.6,0,1,0.4,1,1c0,0.1,0,0.2-0.1,0.3c-1.1,3.3-2,6.7-2.7,10.1
	l0,0c-0.6,2.5-0.8,5-0.7,7.5c0.1,1.2,1.2,2.2,2.5,2.1c0,0,0,0,0.1,0l19.5-2.4v-1.7h7.4v0.8l6.3-0.8l0.8-21.2c0-0.5,0.4-1,0.9-1.3
	l2.5-1.2c0.5-0.2,1.1-0.1,1.5,0.4c1.3,1.6,4.4,5.3,6.7,6.4c3,1.4,4.7,1.3,13,0.2l17-2.3l0.5,0.3l1.4-0.2l-0.6-0.3l3.5-5.9l0.4,0.1
	l0.5-0.9l-0.3-0.2l0.6-1l27.4-25.3l1,0.1l1.3-1.3l0.1-1.3l3.6-3.3l0.9,0.1l1.4-1.3l0.2-1.1l0.5-0.5l0.2,0.4l0.7-0.7l-0.2-0.3
	c0,0,3-3.5,5.5-3.3c2.5,0.2,3.4,0.9,8.4,4l1.3-0.2c3,2,5.8,4.2,8.5,6.7l0.3,1.3l2.9,2.9c4.2,3.9,4.9,7.1,3.8,8.8
	c-1.1,1.7-3.2,5.2-3.3,12.7c-0.1,7.5,4.4,13.9,20.6,18.2c10.1,2.7,19.8,6.3,29.3,10.7l-0.3,0.2l1,0.6l0.5-0.3l1.7,0.9"/>
<polygon class="st3" points="129.1,316.7 129.4,317.3 130.1,316.2 130.4,316.7 131.1,315.6 131.4,316.2 132.1,315.1 132.4,315.5 
	133.1,314.5 133.4,315 134.1,313.9 134.4,314.4 135.1,313.3 135.3,313.8 136.1,312.8 136.4,313.2 137.1,312.2 137.3,312.7 
	138.1,311.6 138.3,312.1 139.1,311 139.3,311.5 140.1,310.5 140.3,310.9 141.1,309.8 141.3,310.4 142.1,309.3 142.3,309.8 
	143,308.7 143.3,309.2 144.1,308.2 144.3,308.6 145,307.5 145.3,308.1 146.1,307 146.3,307.5 147,306.4 147.3,306.9 148.1,305.9 
	148.3,306.3 149,305.3 149.3,305.8 150,304.7 150.3,305.2 151,304.1 151.3,304.7 152,303.6 152.3,304.1 153,303 153.3,303.5 
	154,302.4 154.3,302.9 155,301.8 155.3,302.4 156,301.3 156.3,301.7 157,300.7 157.2,301.2 158,300.1 158.3,300.6 159,299.5 
	159.2,300.1 160,299 160.2,299.4 160.9,298.3 161.2,298.9 162,297.8 162.2,298.3 163,297.2 163.2,297.7 164,296.7 164.2,297.1 
	164.9,296.1 165.2,296.6 166,295.5 166.2,296 166.9,294.9 167.2,295.4 168,294.4 168.2,294.8 168.9,293.7 169.2,294.3 169.9,293.2 
	170.2,293.7 170.9,292.6 171.2,293.1 171.6,292.6 171.6,290.7 179.3,285.9 179.3,284.3 177.4,285.5 177.4,282.1 171.6,285.4 
	171.6,284.7 132,308.3 127,318.4 128,317.4 128.2,317.9 "/>
<path class="st4" d="M197.7,280.2c0.3,3-0.3,5.6-1.9,7"/>
<path class="st4" d="M193.6,288.2c-1.5,0.2-3.1-0.2-4.4-1"/>
<path class="st5" d="M188.9,287.1c-0.3-0.2-0.5-0.3-0.8-0.5 M195.7,287.3c-0.2,0.2-0.4,0.3-0.7,0.4c-0.3,0.1-0.6,0.3-0.9,0.4
	 M197.5,279.1c0,0.3,0.1,0.5,0.1,0.8"/>
<path class="st4" d="M195.4,273.5c0,0,0,0.1,0,0.1c0.9,1.7,1.6,3.6,2,5.5"/>
<path class="st5" d="M181.9,267.5c0.2-0.2,0.4-0.4,0.6-0.6"/>
<path class="st4" d="M184.5,265.8c3-0.7,7,1.7,9.8,5.8"/>
<path class="st5" d="M194.4,271.8c0.2,0.2,0.3,0.5,0.5,0.7 M182.9,266.6c0.1-0.1,0.3-0.2,0.5-0.3c0.2-0.1,0.5-0.2,0.8-0.3"/>
<path class="st5" d="M195,272.7c0.2,0.2,0.3,0.5,0.5,0.8"/>
<path class="st5" d="M180.7,273.9c-0.4-2.2,0-4.5,1.3-6.4"/>
<path class="st5" d="M183.1,271.8c1.9,0,4.2,1.7,6,4.5"/>
<path class="st4" d="M190.2,278.2c1.4,3,1.5,6,0.3,7.4"/>
<path class="st5" d="M188.4,286.6c-1.4-0.2-2.7-0.8-3.7-1.9"/>
<path class="st5" d="M184.6,284.6l-0.6-0.6 M190.4,285.8c-0.2,0.2-0.4,0.4-0.6,0.5c-0.3,0.1-0.5,0.2-0.8,0.3 M189.2,276.5
	c0.1,0.2,0.3,0.5,0.4,0.7c0.1,0.2,0.3,0.5,0.4,0.7 M181.5,272.5c0.2-0.2,0.3-0.3,0.5-0.4c0.2-0.1,0.5-0.2,0.8-0.3"/>
<path class="st5" d="M180.8,278.2c-0.7-2.5-0.5-4.6,0.6-5.7"/>
<path class="st5" d="M181.1,277.1c0.1-0.2,0.3-0.4,0.5-0.5c0.4-0.2,1-0.2,1.4,0"/>
<path class="st5" d="M181.1,279.9c-0.4-0.9-0.3-1.9,0.1-2.8"/>
<path class="st5" d="M186.3,280.8c0.2,0.7,0.3,1.5,0.2,2.3"/>
<path class="st5" d="M184.2,284.1c-0.7-0.4-1.3-0.9-1.7-1.5"/>
<path class="st5" d="M182.2,282.3c-0.2-0.3-0.4-0.5-0.5-0.8c-0.3-0.5-0.5-1-0.6-1.5 M186.4,283.4c-0.1,0.3-0.3,0.6-0.6,0.7
	c-0.3,0.2-0.6,0.2-1,0.1 M185.2,278.5c0.2,0.2,0.3,0.5,0.5,0.8c0.2,0.3,0.3,0.6,0.4,0.9 M184.3,277.5c0.2,0.2,0.4,0.4,0.6,0.7"/>
<line class="st5" x1="184.3" y1="282.8" x2="184.3" y2="278.6"/>
<path class="st5" d="M185.4,275.7l0.6-1l1.4-0.7 M184.3,278.3v-0.9l0.6-1 M184.3,284.1v-0.9"/>
<line class="st5" x1="183.1" y1="278" x2="183.1" y2="282.2"/>
<path class="st5" d="M183.1,282.5v0.9 M183.5,275.7l-0.5,0.9v0.9 M185.2,273.7l-0.8,0.4l-0.5,0.9 M186.3,273.2l-0.8,0.4"/>
<path class="st5" d="M181.2,275.7c-0.2,0.7-0.3,1.5-0.4,2.2"/>
<line class="st5" x1="184" y1="272.7" x2="182.6" y2="273.6"/>
<path class="st5" d="M181.5,275c-0.1,0.2-0.2,0.5-0.3,0.7 M182.5,273.6l-0.6,0.4c-0.1,0.2-0.2,0.4-0.4,0.7 M184.8,272.2l-0.6,0.4"/>
<path class="st5" d="M186.1,284.7c0.6,0.2,1.2,0.3,1.8,0.4"/>
<path class="st5" d="M190.4,284l0.8-0.6 M188.1,285.1c0.3,0,0.6,0.1,0.8,0.1l0.8-0.6 M184.9,284.3c0.3,0.1,0.5,0.2,0.8,0.3"/>
<path class="st5" d="M194.8,262.2c2.7,0.9,5.7,3.7,7.8,7.5c0.8,1.4,1.4,3,1.8,4.5"/>
<path class="st4" d="M190.9,262.4c1.2-0.6,2.7-0.7,4-0.2"/>
<path class="st5" d="M194.5,260.5l1.4-0.7c3.4-1.8,8.8,1.5,12,7.4c0.6,1.1,1.1,2.3,1.5,3.5"/>
<line class="st4" x1="183.2" y1="266.3" x2="194.5" y2="260.5"/>
<line class="st4" x1="195.3" y1="262.4" x2="188.1" y2="266.2"/>
<line class="st4" x1="195.2" y1="264.4" x2="189.9" y2="267.2"/>
<line class="st5" x1="197.2" y1="263.4" x2="195.2" y2="264.4"/>
<line class="st4" x1="195.4" y1="266.3" x2="191.4" y2="268.4"/>
<line class="st5" x1="198.6" y1="264.5" x2="195.3" y2="266.3"/>
<line class="st4" x1="195.5" y1="268.3" x2="192.8" y2="269.8"/>
<line class="st5" x1="200.1" y1="265.9" x2="195.5" y2="268.4"/>
<line class="st4" x1="195.4" y1="270.3" x2="193.9" y2="271.1"/>
<path class="st3" d="M227.2,257.1c0.1,1.7,1,3.3,2.3,4.4 M241.6,221.8c0,0,2.8-2.9,5.1-3.2l5.5-1 M209.2,225.1
	c1.1,0.2,2.2,0.1,3.3-0.3c1.7-0.6,23.1-19.5,23.1-19.5 M209.7,229.4c-2.4-1.5-5-2.7-7.6-3.8c-1.3-0.5-2.7-0.8-4.1-0.9 M215.5,228.5
	c0,0-7.6-4.1-10.5-5.3c-2.9-1.2-3.2-0.4-4.3-0.1c-1.4,0.4-2.7,1.3-3.6,2.4c-0.6,1.1-4.1,7.4-3.9,9.9c0.2,2.6,0.4,7.1,0.4,7.1
	 M251.8,223.9c0,0-9.9-2.1-13.7-2.6c-3.2-0.4-6.5,0.4-9.2,2.2c-1.8,1.5-3.6,3.1-5.2,4.9 M249.7,234.8c0,0-2.3-3-4.8-3.1
	c-2.5-0.2-11-1.6-14.4-2.1s-5.6-1.3-7.2-1.3c-3.9,0-7.8,0.2-11.6,0.6c-2.2,0.5-4,1.3-7.1,4.4s-7.7,6.7-9.1,8.4 M184,251.8
	c1.7-2.3,3.6-4.4,5.8-6.3c3.6-3.1,7.9-5.3,12.6-6.5c3.3-0.7,7.2,1,18.6,1.4c11.4,0.4,14.3-0.5,17.7,2.1 M194.1,259.7
	c0.5-0.8,0.8-1.7,0.9-2.7 M222.9,283c0,0,6.3,0.5,8.4,0.4c2.1-0.1,4.8-1.2,5.6-3.4c1-2.3,1.1-4.9,0.1-7.2c-1.3-2.5-2-5.9-3.4-8
	c-1.2-1.7-3-3-5-3.7c-0.8-0.1-5.7,3.3-18.9-2.4c0,0-14.5,1.9-17.6-4.6 M175.9,263l4.7-2.9 M174.6,281.1l6-3.4 M174.6,288.9l2.1,14.7
	c0.1,0.7,0.5,1.4,1.1,1.7l4.5,2.8c0.3,0.2,0.7,0.1,0.8-0.2c0.1-0.1,0.1-0.3,0.1-0.5c-1.3-5.4-2.1-10.8-2.3-16.4
	c-0.4-9.3,0.2-18.5,1.8-27.7c0.2-1.1-0.2-2.2-1.1-2.8l-4-2.5c-0.3-0.2-0.8-0.1-1,0.2c-0.1,0.1-0.1,0.2-0.1,0.3
	c-0.2,1.9-0.7,6-1.3,12.2c-0.7,8.5-0.7,13-0.7,13 M167.6,295l2.8,6.6c0.7,1.7,2,3.1,3.5,4l14.6,8.5l1.4,0.8c0.8,0.4,1.7,0.4,2.5,0
	l1-0.6c1.1-0.6,1.7-1.7,1.8-2.9c0.1-1.5,0.2-3.6,0.2-5.6c0-1.2,0-2.4-0.1-3.5c-0.1-2.2,1.1-4.3,3-5.4c3.4-1.8,8.4-4.5,9.9-5.4
	c2.3-1.3,20.5-11.6,20.5-11.6s1-0.5,1.4,3.7 M165.6,288.5c0,0-0.3-8.6-0.3-13.9c0-5.4,0.3-9.4,0.5-11.5c0.4-2.3,1-4.6,1.8-6.8
	c0.8-2,1.7-3.9,2.9-5.7c0.7-1.2,1.8-2.2,3.1-2.8l0.7-0.3c0.5-0.3,1.1-0.3,1.6,0l0.7,0.4l15.4,8.9c1.1,0.6,1.8,1.6,2.1,2.8
	c0.7,3.3,1.1,6.6,1.2,10c0,0.3,0,0.7,0,1 M195.1,270.5c0,3.8-0.2,7.3-0.2,9.1c0,0.3,0.3,0.6,0.6,0.6c0.1,0,0.3,0,0.4-0.1l14.3-10.2
	l10.9-7.9 M203.9,273.9l-7.2,3.9 M203.4,272.2l-7.1,3.7 M202.7,270.3l-7.2,3.9 M201.7,268.8l-6.7,3.6 M200.8,267.3l-5.7,3.1"/>
<path class="st2" d="M218.6,285.4c0,0-0.4,0.2-0.4,1.1 M213.3,293.7c0.6,1.3,0.7,2.8,0.1,4.1 M204.6,293.3c1.4,0.4,2.6,1,3.8,1.8
	c1.6,1.3,2.8,2.9,4.5,3.5c1.6,0.6,6.6,0.5,10.3,1.5c3.3,0.6,6.5,1.6,9.6,2.8c3.7,1.6,7.8,3.1,11.6,3.3c2.8,0,5.6-0.4,8.3-1.3
	 M236.2,270.9c0,0,4.7,5,1.5,12.8"/>
<path class="st6" d="M206.9,253.8l9.8,3.8l-2.9,1.8c0,0,9,13.5,1.7,20.9l-6.3,3.6c0,0,8.6-5-1-21.2l-2.9,1.7L206.9,253.8z"/>
<path class="st7" d="M206.9,253.8l9.8,3.8l-2.9,1.8c0,0,9,13.5,1.7,20.9l-6.3,3.6c0,0,8.6-5-1-21.2l-2.9,1.7L206.9,253.8z"/>
<polygon class="st6" points="140,321 139.8,328.3 155.6,319.3 155.5,322.9 163.8,311.6 155.9,308.3 155.8,311.9 "/>
<polygon class="st7" points="140,321 139.8,328.3 155.6,319.3 155.5,322.9 163.8,311.6 155.9,308.3 155.8,311.9 "/>
<text transform="matrix(1 0 0 1 222.8674 273.4709)" class="st6 st8 st9">1</text>
<text transform="matrix(1 0 0 1 130.5529 328.3137)" class="st6 st8 st9">2</text>
<line class="st10" x1="125.2" y1="123.4" x2="125.2" y2="83.6"/>
<circle class="st0" cx="125.2" cy="123.4" r="2.8"/>
<line class="st10" x1="100.6" y1="110" x2="100.6" y2="83.4"/>
<circle class="st0" cx="100.6" cy="110" r="2.8"/>
<line class="st10" x1="221.6" y1="129.9" x2="221.6" y2="172.5"/>
<circle class="st0" cx="221.6" cy="129.9" r="2.8"/>
<line class="st10" x1="236.1" y1="148.3" x2="236.1" y2="172.5"/>
<circle class="st0" cx="236.1" cy="148.3" r="2.8"/>
<polyline class="st10" points="232.1,111.3 258.1,85.3 258.1,65.2 "/>
<path class="st0" d="M234.1,113.3c-1.1,1.1-2.9,1.1-4,0c-1.1-1.1-1.1-2.9,0-4c1.1-1.1,2.9-1.1,4,0c0,0,0,0,0,0
	C235.2,110.4,235.2,112.2,234.1,113.3z"/>
<line class="st10" x1="300.4" y1="144.9" x2="300.4" y2="96.7"/>
<path class="st0" d="M303.2,144.9c0,1.6-1.3,2.8-2.8,2.9s-2.8-1.3-2.9-2.8c0-1.6,1.3-2.8,2.8-2.9c0,0,0,0,0,0
	C302,142.1,303.2,143.4,303.2,144.9z"/>
<line class="st10" x1="319.8" y1="144.9" x2="319.8" y2="96.7"/>
<path class="st0" d="M322.7,144.9c0,1.6-1.3,2.8-2.8,2.9s-2.8-1.3-2.9-2.8c0-1.6,1.3-2.8,2.8-2.9c0,0,0,0,0,0
	C321.4,142.1,322.7,143.4,322.7,144.9z"/>
<line class="st11" x1="125.2" y1="123.4" x2="125.2" y2="83.6"/>
<circle class="st6" cx="125.2" cy="123.4" r="1.9"/>
<line class="st11" x1="100.6" y1="110" x2="100.6" y2="83.4"/>
<circle class="st6" cx="100.6" cy="110" r="1.9"/>
<line class="st11" x1="221.6" y1="129.9" x2="221.6" y2="172.5"/>
<circle class="st6" cx="221.6" cy="129.9" r="1.9"/>
<line class="st11" x1="236.1" y1="148.3" x2="236.1" y2="172.5"/>
<circle class="st6" cx="236.1" cy="148.3" r="1.9"/>
<polyline class="st11" points="232.1,111.3 258.1,85.3 258.1,65.2 "/>
<path class="st6" d="M233.4,112.6c-0.7,0.7-1.9,0.7-2.7,0c-0.7-0.7-0.7-1.9,0-2.7c0.7-0.7,1.9-0.7,2.7,0
	C234.2,110.7,234.2,111.9,233.4,112.6C233.5,112.6,233.5,112.6,233.4,112.6z"/>
<line class="st11" x1="300.4" y1="144.9" x2="300.4" y2="96.7"/>
<circle class="st6" cx="300.4" cy="144.9" r="1.9"/>
<line class="st11" x1="278.1" y1="130.7" x2="278.1" y2="96.7"/>
<circle class="st6" cx="278.1" cy="130.7" r="1.9"/>
<line class="st11" x1="319.8" y1="144.9" x2="319.8" y2="96.7"/>
<circle class="st6" cx="319.8" cy="144.9" r="1.9"/>
<text transform="matrix(1 0 0 1 98.6535 79.1315)" class="st6 st8 st9">1</text>
<text transform="matrix(1 0 0 1 122.4523 79.1315)" class="st6 st8 st9">2</text>
<text transform="matrix(1 0 0 1 219.2453 182.0876)" class="st6 st8 st9">3</text>
<text transform="matrix(1 0 0 1 233.1691 182.0876)" class="st6 st8 st9">4</text>
<text transform="matrix(1 0 0 1 255.6604 62.3137)" class="st6 st8 st9">5</text>
<text transform="matrix(1 0 0 1 298.2766 93.7853)" class="st6 st8 st9">6</text>
<text transform="matrix(1 0 0 1 275.6974 93.7853)" class="st6 st8 st9">8</text>
<text transform="matrix(1 0 0 1 317.6848 93.7853)" class="st6 st8 st9">7</text>
<rect x="117.1" y="205.5" transform="matrix(2.443451e-03 -1 1 2.443451e-03 -88.8654 457.3422)" class="st12" width="135.5" height="135.5"/>
</svg>
