<?xml version="1.0" encoding="utf-8"?>
<!-- Generator: Adobe Illustrator 26.0.1, SVG Export Plug-In . SVG Version: 6.00 Build 0)  -->
<svg version="1.1" id="Слой_1" xmlns="http://www.w3.org/2000/svg" xmlns:xlink="http://www.w3.org/1999/xlink" x="0px" y="0px"
	 viewBox="0 0 370 383.7" style="enable-background:new 0 0 370 383.7;" xml:space="preserve">
<style type="text/css">
	.st0{fill:#FFFFFF;}
	.st1{fill:none;stroke:#1D1D1B;stroke-width:1;stroke-miterlimit:10;}
	.st2{fill:none;stroke:#1D1D1B;stroke-width:0.25;stroke-linecap:round;stroke-linejoin:round;}
	.st3{fill:none;stroke:#1D1D1B;stroke-miterlimit:10;}
	.st4{fill:#1D1D1B;}
	.st5{font-family:'CeraPro-Medium';}
	.st6{font-size:11.3208px;}
	.st7{fill:none;stroke:#1D1D1B;stroke-width:0.25;stroke-miterlimit:10;}
	.st8{font-size:15.0189px;}
</style>
<rect class="st0" width="370" height="383.7"/>
<rect x="17.8" y="31.6" transform="matrix(2.443451e-03 -1 1 2.443451e-03 -7.2779 376.3631)" class="st1" width="334.4" height="320.4"/>
<path class="st2" d="M85.4,274.2c9.7,4.2,22.9,6.8,37.4,6.8s27.7-2.5,37.4-6.8"/>
<path class="st2" d="M79.5,296.9c11.2,14,26.4,22.6,43.3,22.6s32.1-8.7,43.3-22.6"/>
<path class="st2" d="M79.5,296.9c11.2,17.5,14.8,28.3,43.3,28.3c29.3,0,32.1-10.8,43.3-28.3"/>
<path class="st2" d="M85.4,296.9c9.7,12.2,22.9,19.7,37.4,19.7s27.7-7.5,37.4-19.7"/>
<path class="st2" d="M163.1,250.1c-22.8-20.7-57.7-20.7-80.5,0"/>
<path class="st2" d="M155.8,239.9c-18.5-17.6-47.5-17.6-66,0"/>
<path class="st2" d="M159.7,239.9c-9.6-11.2-22.6-18-37-18s-27.4,6.9-37,18"/>
<path class="st2" d="M161.1,239.9c-9.9-14-23.4-22.6-38.3-22.6s-28.4,8.6-38.3,22.6"/>
<path class="st2" d="M147.9,239.9H172l9,8.9l1.8,17.2c0,11.8-5.9,22.6-15.5,30.7h-12.7c-17.7,17.2-45.9,17.2-63.6,0H78.3
	c-9.6-8.1-15.5-18.9-15.5-30.7l2.2-17.2l9.8-8.9h22.8"/>
<polyline class="st2" points="77.3,239.9 82.6,231.4 97.8,226.1 "/>
<polyline class="st2" points="168.4,239.9 163.1,231.4 147.9,226.1 "/>
<polyline class="st2" points="63.8,258.2 86.6,258.2 88.5,250.3 64.8,250.3 "/>
<line class="st2" x1="64.7" y1="258.2" x2="65.9" y2="250.3"/>
<polyline class="st2" points="62.8,266.3 85.6,266.3 89.2,274.3 63.8,274.3 "/>
<line class="st2" x1="63.7" y1="266.3" x2="64.9" y2="274.3"/>
<polyline class="st2" points="181.8,258.2 159,258.2 157.1,250.3 181.2,250.3 "/>
<line class="st2" x1="180.9" y1="258.2" x2="179.7" y2="250.3"/>
<polyline class="st2" points="182.8,266.3 160,266.3 156.4,274.3 181.8,274.3 "/>
<line class="st2" x1="181.9" y1="266.3" x2="180.7" y2="274.3"/>
<polyline class="st2" points="78.3,296.8 86.4,276.4 88.1,296.8 "/>
<polyline class="st2" points="167.3,296.8 159.8,276.5 155.5,296.8 "/>
<rect x="102.3" y="244.7" class="st2" width="41.1" height="23.1"/>
<path class="st2" d="M116.3,283.7h13.1c1,0,1.8,0.8,1.8,1.8l0,0v3.3c0,1.5-1.3,2.8-2.8,2.8h-11c-1.5,0-2.8-1.2-2.8-2.8c0,0,0,0,0,0
	v-3.3C114.5,284.5,115.3,283.7,116.3,283.7C116.2,283.7,116.3,283.7,116.3,283.7z"/>
<path class="st2" d="M130.3,294.2h-15.1c-0.5,0-0.9,0.2-1.2,0.7l-3.8,6.5c-0.6,1.1-0.3,2.5,0.8,3.1c0.3,0.2,0.6,0.3,0.9,0.3
	l10.8,1.1l10.8-1.1c1.3-0.1,2.2-1.3,2-2.5c0-0.3-0.1-0.6-0.3-0.9l-3.8-6.5C131.3,294.5,130.8,294.2,130.3,294.2z"/>
<path class="st2" d="M105.7,282.5l5.5,0.8c0.5,0.1,0.9,0.5,0.9,1l0.5,8.8c0,0.2,0,0.4-0.2,0.6l-5,8.1c-0.6,0.9-1.7,1.2-2.7,0.8
	l-6.1-3.1c-1-0.5-1.4-1.8-0.9-2.8l6.9-13.6C104.7,282.6,105.2,282.4,105.7,282.5z"/>
<path class="st2" d="M140.5,282.5l-5.5,0.8c-0.5,0.1-0.9,0.5-0.9,1l-0.5,8.8c0,0.2,0,0.4,0.2,0.6l5,8.1c0.6,0.9,1.7,1.2,2.7,0.8
	l6-3.1c1-0.5,1.4-1.8,0.9-2.8l-6.9-13.6C141.4,282.6,141,282.4,140.5,282.5z"/>
<polygon class="st2" points="110,289.5 106.9,289.5 106.9,286.5 105.7,286.5 105.7,289.5 102.7,289.5 102.7,290.8 105.7,290.8 
	105.7,293.8 106.9,293.8 106.9,290.8 110,290.8 "/>
<rect x="134.7" y="289.5" class="st2" width="7.3" height="1.2"/>
<path class="st2" d="M102.2,297.7v-5.4h-1.1v5.4c-0.6,0.3-0.9,1-0.6,1.7c0.3,0.6,1,0.9,1.7,0.6c0.6-0.3,0.9-1,0.6-1.7
	C102.7,298.1,102.4,297.8,102.2,297.7z"/>
<path class="st2" d="M143.6,297.7v-5.4h-1.1v5.4c-0.6,0.3-0.9,1-0.6,1.7c0.3,0.6,1,0.9,1.7,0.6c0.6-0.3,0.9-1,0.6-1.7
	C144.1,298.1,143.8,297.8,143.6,297.7z"/>
<circle class="st2" cx="122.1" cy="301.2" r="0.9"/>
<path class="st2" d="M123.6,297.5c0.1-0.8-0.5-1.5-1.3-1.6c-0.8-0.1-1.5,0.5-1.6,1.3c0,0.1,0,0.2,0,0.3c0,0.1,0,0.2,0,0.3l0,0
	c0.4,2.3,2.1,2.2,2.1,2.2c-0.2-0.5-0.1-1,0.2-1.4l0,0C123.3,298.4,123.5,298,123.6,297.5z"/>
<path class="st2" d="M118.2,301.9c-0.7,0.4-0.9,1.3-0.5,2c0.4,0.7,1.3,0.9,2,0.5c0.1-0.1,0.2-0.1,0.3-0.2l0,0c1-0.6,1.3-1.9,0.8-2.9
	c-0.3,0.4-0.8,0.6-1.3,0.5l0,0C119.1,301.7,118.6,301.7,118.2,301.9z"/>
<path class="st2" d="M124.7,304.3c0.7,0.5,1.6,0.3,2-0.4c0.5-0.7,0.3-1.6-0.4-2c-0.1-0.1-0.2-0.1-0.3-0.1c-0.1-0.1-0.2-0.1-0.3-0.1
	c-1-0.5-2.3-0.2-2.9,0.8c0.5,0,1,0.4,1.1,0.9l0,0C124,303.7,124.3,304.1,124.7,304.3z"/>
<path class="st2" d="M115.9,287.2c0-0.2,0.1-0.4,0.2-0.5c0.1-0.1,0.3-0.2,0.5-0.2c0.2,0,0.4,0.1,0.5,0.2c0.3,0.3,0.3,0.8,0,1.1
	c-0.1,0.1-0.3,0.2-0.5,0.2c-0.2,0-0.4-0.1-0.5-0.2C116,287.6,115.9,287.4,115.9,287.2z M117.1,287.2c0-0.1,0-0.2-0.1-0.3
	c-0.1-0.1-0.2-0.1-0.3-0.1c-0.1,0-0.2,0-0.3,0.1c-0.1,0.1-0.1,0.2-0.1,0.3c0,0.1,0,0.2,0.1,0.3c0.1,0.1,0.2,0.1,0.3,0.1
	c0.1,0,0.2,0,0.3-0.1C117.1,287.5,117.1,287.4,117.1,287.2L117.1,287.2z"/>
<path class="st2" d="M117.8,288c0-0.5,0.2-0.9,0.5-1.3c0.5-0.5,1.4-0.7,2.1-0.3c0.2,0.1,0.4,0.3,0.6,0.6l-0.4,0.3
	c-0.3-0.6-1.1-0.7-1.6-0.4c-0.1,0.1-0.2,0.1-0.2,0.2c-0.5,0.5-0.5,1.3,0,1.7c0.5,0.5,1.2,0.5,1.7,0c0.1-0.1,0.1-0.2,0.2-0.2l0.4,0.3
	c-0.1,0.2-0.3,0.4-0.6,0.6c-0.7,0.4-1.5,0.3-2.1-0.2C117.9,288.9,117.7,288.4,117.8,288z"/>
<path class="st2" d="M120.9,290.2l2.6-4.5h0.6l-2.6,4.5H120.9z"/>
<path class="st2" d="M124.3,287.2c0-0.4,0.3-0.7,0.8-0.8c0.2,0,0.4,0.1,0.5,0.2c0.3,0.3,0.3,0.7,0,1c0,0,0,0,0,0
	c-0.1,0.1-0.3,0.2-0.5,0.2C124.6,288,124.3,287.6,124.3,287.2L124.3,287.2z M125.5,287.2c0-0.1,0-0.2-0.1-0.3
	c-0.1-0.1-0.2-0.1-0.3-0.1c-0.1,0-0.2,0-0.3,0.1c-0.1,0.1-0.1,0.2-0.1,0.3c0,0.1,0,0.2,0.1,0.3c0.1,0.1,0.2,0.1,0.3,0.1
	c0.1,0,0.2,0,0.3-0.1C125.5,287.5,125.5,287.4,125.5,287.2L125.5,287.2z"/>
<path class="st2" d="M126.3,289.6v-3.3h2.1v0.5h-1.6v1h1.3v0.5h-1.3v1.4H126.3z"/>
<polygon class="st2" points="120.7,263.3 120.7,264.4 124.9,264.4 124.9,263.2 "/>
<polygon class="st2" points="116,263.4 116,264.4 120.2,264.4 120.2,263.3 "/>
<polygon class="st2" points="125.4,263.1 125.4,264.4 129.6,264.4 129.6,263 "/>
<polygon class="st2" points="130.1,263 130.1,264.4 134.4,264.4 134.4,262.9 "/>
<polygon class="st2" points="115.5,263.5 111.3,263.6 111.3,264.4 115.5,264.4 "/>
<path class="st2" d="M107.6,261.3c-0.1-0.4-0.4-0.6-0.8-0.6c-0.3,0-0.5,0.3-0.6,0.6c-0.1,0.6,0.2,1.2,0.6,1.6c0.1-0.3,0.2-0.7,0.3-1
	l0,0C107.3,261.8,107.6,261.6,107.6,261.3z"/>
<path class="st2" d="M105.1,263.5c-0.3,0.2-0.3,0.7-0.1,0.9c0.2,0.3,0.7,0.3,0.9,0.1c0.5-0.3,0.9-0.9,0.9-1.5
	c-0.3,0.2-0.6,0.3-1,0.4l0,0C105.6,263.3,105.3,263.3,105.1,263.5z"/>
<path class="st2" d="M107.9,264.4c0.3,0.1,0.7,0,0.9-0.4c0.1-0.3,0-0.6-0.2-0.8c-0.5-0.4-1.1-0.5-1.7-0.3c0.3,0.2,0.5,0.5,0.7,0.8
	l0,0C107.6,264,107.7,264.3,107.9,264.4z"/>
<path class="st2" d="M137.1,249.5c0-0.2,0.1-0.4,0.2-0.5c0.1-0.1,0.3-0.2,0.5-0.2c0.2,0,0.4,0.1,0.5,0.2c0.3,0.3,0.3,0.7,0,1
	c0,0,0,0,0,0c-0.1,0.1-0.3,0.2-0.5,0.2c-0.2,0-0.4-0.1-0.5-0.2C137.2,249.9,137.1,249.7,137.1,249.5z M138.4,249.5
	c0-0.1,0-0.2-0.1-0.3c-0.1-0.1-0.2-0.1-0.3-0.1c-0.1,0-0.2,0-0.3,0.1c-0.1,0.1-0.1,0.2-0.1,0.3c0,0.1,0,0.2,0.1,0.3
	c0.1,0.1,0.2,0.1,0.3,0.1c0.1,0,0.2-0.1,0.3-0.1C138.3,249.8,138.4,249.6,138.4,249.5z"/>
<path class="st2" d="M139,250.3c0-0.5,0.2-0.9,0.5-1.3c0.3-0.3,0.8-0.5,1.3-0.5c0.3,0,0.6,0.1,0.8,0.2c0.2,0.1,0.5,0.3,0.6,0.6
	l-0.4,0.3c-0.3-0.6-1.1-0.7-1.6-0.4c-0.1,0-0.2,0.1-0.2,0.2c-0.2,0.2-0.4,0.5-0.3,0.9c0,0.3,0.1,0.6,0.3,0.9
	c0.2,0.2,0.5,0.4,0.9,0.4c0.4,0,0.8-0.2,1-0.6l0.4,0.3c-0.1,0.2-0.3,0.4-0.6,0.6c-0.3,0.1-0.5,0.2-0.8,0.2c-0.5,0-0.9-0.2-1.3-0.5
	C139.2,251.2,139,250.8,139,250.3z"/>
<polygon class="st2" points="113.9,252.2 114.5,248.3 114,247.6 113.2,248.3 112.6,252.2 113.1,252.9 "/>
<polygon class="st2" points="119.5,247.6 118.7,248.3 118,252.2 118.6,252.9 119.3,252.2 120,248.3 "/>
<polygon class="st2" points="118.6,248.1 119.3,247.4 118.8,246.7 114.9,246.7 114.2,247.4 114.7,248.1 "/>
<polygon class="st2" points="117.7,254 117.1,257.9 117.6,258.6 118.4,257.9 119,254 118.5,253.3 "/>
<polygon class="st2" points="113.6,254 113,253.3 112.3,254 111.6,257.9 112.1,258.6 112.9,257.9 "/>
<polygon class="st2" points="113,258.1 112.2,258.8 112.8,259.4 116.6,259.4 117.4,258.8 116.9,258.1 "/>
<polygon class="st2" points="130.4,252.2 131.1,248.3 130.6,247.6 129.8,248.3 129.1,252.2 129.7,252.9 "/>
<polygon class="st2" points="136,247.6 135.3,248.3 134.6,252.2 135.1,252.9 135.9,252.2 136.6,248.3 "/>
<polygon class="st2" points="135.1,248.1 135.9,247.4 135.4,246.7 131.5,246.7 130.7,247.4 131.3,248.1 "/>
<polygon class="st2" points="134.3,254 133.6,257.9 134.2,258.6 134.9,257.9 135.6,254 135.1,253.3 "/>
<polygon class="st2" points="130.1,254 129.6,253.3 128.8,254 128.2,257.9 128.7,258.6 129.4,257.9 "/>
<polygon class="st2" points="129.6,258.1 128.8,258.8 129.3,259.4 133.2,259.4 134,258.8 133.4,258.1 "/>
<polygon class="st2" points="122.7,248.1 122.1,247.5 121.4,248.1 120.7,252.1 121.2,252.7 122,252.1 "/>
<polygon class="st2" points="126.7,247.9 127.5,247.3 127,246.6 123.1,246.6 122.3,247.3 122.9,247.9 "/>
<polygon class="st2" points="122.1,252.4 121.3,253 121.9,253.7 125.7,253.7 126.5,253 126,252.4 "/>
<polygon class="st2" points="126.6,253.3 125.8,254 125.2,257.9 125.7,258.6 126.5,257.9 127.2,254 "/>
<polygon class="st2" points="121.1,258.1 120.4,258.8 120.9,259.4 124.8,259.4 125.5,258.8 125,258.1 "/>
<polyline class="st2" points="144.6,358.4 101.4,358.4 101.4,341.6 "/>
<path class="st2" d="M94.8,317.7c0,0,5.3,2.7,6.6,23.9"/>
<line class="st2" x1="144.6" y1="358.4" x2="144.6" y2="341.6"/>
<path class="st2" d="M151.2,317.7c0,0-5.3,2.7-6.6,23.9"/>
<line class="st3" x1="187.5" y1="292.9" x2="140.9" y2="292.9"/>
<path class="st4" d="M141,291c-1,0.1-1.8,1.1-1.7,2.1c0.1,0.9,0.8,1.6,1.7,1.7c1,0.1,2-0.6,2.1-1.7s-0.6-2-1.7-2.1
	C141.3,291,141.1,291,141,291z"/>
<line class="st3" x1="66.9" y1="294.1" x2="104.6" y2="294.1"/>
<path class="st4" d="M104.5,296c1,0.1,2-0.6,2.1-1.7s-0.6-2-1.7-2.1c-0.1,0-0.3,0-0.4,0c-1,0.1-1.8,1.1-1.7,2.1
	C102.9,295.2,103.6,295.9,104.5,296z"/>
<text transform="matrix(1 0 0 1 56.9055 296.176)" class="st4 st5 st6">9</text>
<text transform="matrix(1 0 0 1 53.9494 305.8859)" class="st4 st5 st6">10</text>
<text transform="matrix(1 0 0 1 102.5153 209.6096)" class="st4 st5 st6">7</text>
<text transform="matrix(1 0 0 1 129.4211 209.6096)" class="st4 st5 st6">8</text>
<text transform="matrix(1 0 0 1 190.8049 280.8928)" class="st4 st5 st6">11</text>
<text transform="matrix(1 0 0 1 190.0881 295.3205)" class="st4 st5 st6">12</text>
<text transform="matrix(1 0 0 1 190.2004 266.2892)" class="st4 st5 st6">13</text>
<line class="st3" x1="66.9" y1="301.9" x2="118.4" y2="301.9"/>
<path class="st4" d="M118.2,303.8c1,0,1.9-0.8,1.9-1.9c0-1-0.8-1.9-1.9-1.9c-1,0-1.9,0.8-1.9,1.9c0,0,0,0,0,0
	C116.4,302.9,117.2,303.8,118.2,303.8z"/>
<line class="st3" x1="187.5" y1="264.2" x2="135.3" y2="264.2"/>
<path class="st4" d="M135.4,262.3c-1,0.1-1.8,1.1-1.7,2.1c0.1,0.9,0.8,1.6,1.7,1.7c1,0.1,2-0.6,2.1-1.7c0.1-1-0.6-2-1.7-2.1
	C135.7,262.3,135.5,262.3,135.4,262.3z"/>
<polyline class="st3" points="187.5,279.3 181.8,279.3 125.3,286.4 "/>
<path class="st4" d="M125.2,284.5c-1,0.1-1.8,1.1-1.6,2.1c0.1,1,1.1,1.8,2.1,1.6s1.8-1.1,1.6-2.1c0,0,0,0,0,0
	C127.2,285.1,126.2,284.4,125.2,284.5z"/>
<line class="st3" x1="300" y1="187" x2="264.7" y2="187.1"/>
<path class="st4" d="M264.8,185.2c-1,0-1.9,0.8-1.9,1.9c0,1,0.8,1.9,1.9,1.9c1,0,1.9-0.8,1.9-1.9C266.7,186,265.8,185.2,264.8,185.2
	C264.8,185.2,264.8,185.2,264.8,185.2z"/>
<line class="st7" x1="276.2" y1="229.3" x2="287.1" y2="229.3"/>
<line class="st7" x1="159.6" y1="113" x2="158.1" y2="114.9"/>
<line class="st7" x1="161.6" y1="110.5" x2="159.6" y2="113"/>
<line class="st7" x1="158.1" y1="114.9" x2="156.9" y2="116.5"/>
<line class="st7" x1="161.6" y1="110.5" x2="156.9" y2="116.5"/>
<line class="st7" x1="157.4" y1="61.8" x2="157.4" y2="71.9"/>
<line class="st7" x1="238.6" y1="68.2" x2="237" y2="69.7"/>
<line class="st7" x1="234.4" y1="85.2" x2="210.1" y2="103.6"/>
<line class="st7" x1="147.2" y1="54.4" x2="154.7" y2="116.1"/>
<polyline class="st7" points="147.2,54.4 147.2,54.7 147.4,55.6 147.6,57 147.8,59 148.1,61.6 148.5,64.6 148.9,68.1 149.3,72.1 
	149.9,76.4 150.4,80.7 150.9,85 151.5,89.3 152,93.7 152.5,97.9 153,102.1 153.4,105.8 153.8,108.9 154.1,111.4 154.4,113.5 
	154.6,114.9 154.7,115.8 154.7,116.1 "/>
<line class="st7" x1="148.4" y1="54.4" x2="155.6" y2="116"/>
<line class="st7" x1="270.6" y1="73.6" x2="224.7" y2="108"/>
<line class="st7" x1="274" y1="76.2" x2="230.4" y2="108.8"/>
<line class="st7" x1="276.3" y1="77.8" x2="234.2" y2="109.3"/>
<line class="st7" x1="279.7" y1="80.3" x2="239.9" y2="110"/>
<line class="st7" x1="280.1" y1="83.9" x2="244.4" y2="110.6"/>
<line class="st7" x1="280.1" y1="89" x2="250.3" y2="111.2"/>
<line class="st7" x1="172.8" y1="84.4" x2="177" y2="99.9"/>
<line class="st7" x1="290.5" y1="103.7" x2="292.9" y2="103.6"/>
<line class="st7" x1="296.8" y1="103.6" x2="292.9" y2="103.7"/>
<line class="st7" x1="290.1" y1="103.7" x2="290.5" y2="103.7"/>
<line class="st7" x1="161.8" y1="110.3" x2="170" y2="111.1"/>
<line class="st7" x1="179" y1="101.6" x2="204.8" y2="105"/>
<line class="st7" x1="210.3" y1="106.8" x2="216.2" y2="107.6"/>
<line class="st7" x1="216.2" y1="107.6" x2="216.5" y2="107.7"/>
<line class="st7" x1="241.7" y1="82.6" x2="239.2" y2="83.1"/>
<line class="st7" x1="238.1" y1="78.8" x2="238.7" y2="82.9"/>
<line class="st7" x1="237" y1="69.7" x2="238.1" y2="78.8"/>
<line class="st7" x1="231" y1="72.4" x2="173.9" y2="82.7"/>
<line class="st7" x1="294.1" y1="83.1" x2="298.5" y2="83.1"/>
<line class="st7" x1="239.4" y1="105.4" x2="243.9" y2="107"/>
<line class="st7" x1="232.1" y1="102.4" x2="236.6" y2="104.1"/>
<line class="st7" x1="248.6" y1="107.5" x2="253" y2="109.2"/>
<line class="st7" x1="233.1" y1="73.7" x2="235.4" y2="82.3"/>
<line class="st7" x1="267.7" y1="70.2" x2="267.7" y2="71.9"/>
<line class="st7" x1="179.3" y1="75.2" x2="179" y2="75.3"/>
<polyline class="st7" points="258.1,65.1 251.5,66.1 245.1,67.1 "/>
<line class="st7" x1="258.1" y1="65.1" x2="238.9" y2="68.1"/>
<line class="st7" x1="299.2" y1="77.9" x2="294.1" y2="77.9"/>
<line class="st7" x1="294.1" y1="72.5" x2="298.5" y2="72.5"/>
<line class="st7" x1="279.1" y1="84.7" x2="279.1" y2="89.8"/>
<line class="st7" x1="167.7" y1="70.5" x2="157.4" y2="71.9"/>
<line class="st7" x1="218.1" y1="57.6" x2="157.4" y2="61.8"/>
<line class="st7" x1="290.8" y1="65.3" x2="290.1" y2="65.3"/>
<line class="st7" x1="292.9" y1="65.3" x2="290.8" y2="65.3"/>
<line class="st7" x1="292.9" y1="65.3" x2="299.2" y2="65.4"/>
<line class="st7" x1="261.7" y1="67.5" x2="264.2" y2="67.5"/>
<line class="st7" x1="262.4" y1="97.2" x2="266.2" y2="99.3"/>
<line class="st7" x1="255.6" y1="93.3" x2="259.4" y2="95.5"/>
<line class="st7" x1="249.1" y1="89.7" x2="253" y2="91.9"/>
<line class="st7" x1="251.5" y1="87.9" x2="255.3" y2="90.1"/>
<line class="st7" x1="257.9" y1="91.6" x2="261.7" y2="93.7"/>
<line class="st7" x1="264.7" y1="95.4" x2="268.6" y2="97.6"/>
<line class="st7" x1="292.9" y1="65.3" x2="292.9" y2="103.7"/>
<line class="st7" x1="274.3" y1="88.3" x2="275.4" y2="92.5"/>
<line class="st7" x1="293.4" y1="73.2" x2="293.4" y2="77.2"/>
<line class="st7" x1="293.6" y1="83.5" x2="293.6" y2="87.5"/>
<line class="st7" x1="296.5" y1="56.3" x2="296.4" y2="57.1"/>
<line class="st7" x1="270.1" y1="82.4" x2="273.2" y2="85.1"/>
<line class="st7" x1="264.9" y1="77.9" x2="268" y2="80.6"/>
<line class="st7" x1="264.9" y1="67.6" x2="267.6" y2="69.6"/>
<line class="st7" x1="293.1" y1="54.6" x2="296.4" y2="57.1"/>
<path class="st7" d="M289.9,69.9c-0.2-1.3-0.4-2.5-0.6-3.7"/>
<path class="st7" d="M246.8,135.3c-1.3-1.8-2.5-3.8-3.8-5.6"/>
<polyline class="st7" points="281.5,201.5 281.5,201.5 281.6,201.5 "/>
<path class="st7" d="M177,99.9c0.3,0.9,1,1.5,1.9,1.7"/>
<path class="st7" d="M173.9,82.7c-0.7,0.2-1.2,0.9-1.1,1.7"/>
<path class="st7" d="M204.8,105c1.9,0.2,3.8-0.3,5.3-1.4"/>
<path class="st7" d="M234.4,85.2c0.9-0.7,1.2-1.8,1-2.9"/>
<path class="st7" d="M233.1,73.7c-0.2-0.9-1.1-1.5-2-1.3"/>
<polyline class="st7" points="241.9,126.5 241.9,126.5 241.9,126.6 241.9,126.6 241.9,126.7 241.9,126.8 "/>
<polyline class="st7" points="241.9,126.2 241.9,126.3 241.9,126.3 241.9,126.4 241.9,126.5 241.9,126.5 "/>
<path class="st7" d="M250,110.7c0.3,0,0.6,0,0.9,0.1"/>
<polyline class="st7" points="290.5,103.7 290.5,103.7 290.5,103.7 "/>
<polyline class="st7" points="289.9,103.7 289.9,103.7 290,103.7 290.1,103.7 290.1,103.7 "/>
<polyline class="st7" points="299.2,77.9 299.2,77.9 299.2,77.9 "/>
<polyline class="st7" points="293.9,77.9 294,77.9 294.1,77.9 "/>
<path class="st7" d="M294.1,83.1c-0.2,0-0.4,0.1-0.5,0.3c0,0,0,0.1,0,0.1"/>
<path class="st7" d="M293.6,87.5c0,0.3,0.2,0.5,0.4,0.5c0,0,0,0,0,0"/>
<polyline class="st7" points="299.4,65.6 299.4,65.6 299.4,65.5 299.3,65.5 299.3,65.4 "/>
<path class="st7" d="M230.4,108.8c1.3,0.1,2.5,0.3,3.8,0.5"/>
<path class="st7" d="M239.9,110l4.5,0.6"/>
<polyline class="st7" points="299.2,65.4 299.2,65.4 299.3,65.4 "/>
<polyline class="st7" points="299.4,65.6 299.4,65.6 299.4,65.7 "/>
<path class="st7" d="M230.7,48.6c-3.2,0.1-6.3-0.7-9.1-2.3"/>
<polyline class="st7" points="299.4,65.8 299.4,65.7 299.4,65.6 299.4,65.6 "/>
<polyline class="st7" points="299.4,65.6 299.4,65.6 299.3,65.6 "/>
<line class="st7" x1="299.3" y1="77.9" x2="299.2" y2="77.9"/>
<path class="st7" d="M293.4,73.2c0-0.3,0.4-0.7,0.6-0.6"/>
<path class="st7" d="M293.4,77.2c0,0.1,0,0.2,0.1,0.3"/>
<path class="st7" d="M293.5,77.5c0.1,0.2,0.2,0.3,0.4,0.4"/>
<polyline class="st7" points="292.2,54.2 292.4,54.2 292.7,54.3 292.9,54.4 293.1,54.6 "/>
<polyline class="st7" points="230.7,48.6 234.6,48.6 238.4,48.6 242.3,48.7 246.1,48.9 253.8,49.3 261.5,49.9 265.4,50.3 
	269.3,50.7 273.1,51.2 276.9,51.8 284.5,52.9 292.2,54.2 "/>
<path class="st7" d="M261.4,54.6c1.4-0.1,2.7,0.2,4,0.7"/>
<path class="st7" d="M261.4,54.6c-14.4,1.1-28.8,2.1-43.3,3"/>
<line class="st7" x1="265.4" y1="55.3" x2="289.5" y2="65.5"/>
<path class="st7" d="M254.2,110.5c-1.2,0.6-2.6,0.9-3.9,0.7"/>
<line class="st7" x1="258.2" y1="108.4" x2="254.2" y2="110.5"/>
<line class="st7" x1="258.3" y1="108.4" x2="258.2" y2="108.4"/>
<line class="st7" x1="234.9" y1="108.8" x2="240.6" y2="109.5"/>
<path class="st7" d="M277.1,198.3c0.7,1.9,2.5,3.1,4.5,3.2"/>
<polyline class="st7" points="246.8,135.3 255.8,150.3 263.9,165.9 271,181.9 277.1,198.3 "/>
<line class="st7" x1="280.1" y1="81.4" x2="280.1" y2="83.9"/>
<path class="st7" d="M279.7,80.3c0.3,0.3,0.4,0.7,0.4,1.1"/>
<line class="st7" x1="227.1" y1="107.7" x2="231" y2="108.2"/>
<path class="st7" d="M275,110.5c1.5-0.5,3.1-0.3,4.4,0.6"/>
<line class="st7" x1="242.8" y1="129.3" x2="243.1" y2="129.7"/>
<path class="st7" d="M245.5,121.2c-2.1,0.8-3.5,2.8-3.6,5"/>
<path class="st7" d="M241.9,126.8c0.1,0.9,0.4,1.8,0.9,2.5"/>
<polyline class="st7" points="254.4,118.1 253.3,118.4 252.3,118.8 251.2,119.2 250,119.6 248.9,120 247.8,120.4 246.6,120.8 
	245.5,121.2 "/>
<line class="st7" x1="274" y1="76.2" x2="276.3" y2="77.8"/>
<polyline class="st7" points="278.4,80.5 278.6,80.7 278.8,81 "/>
<line class="st7" x1="275.4" y1="78.4" x2="278.4" y2="80.5"/>
<line class="st7" x1="295.2" y1="201.5" x2="294.9" y2="201.5"/>
<polyline class="st7" points="294.9,201.5 294.4,201.5 293.9,201.5 293.1,201.5 292.3,201.5 289,201.5 287.7,201.5 "/>
<line class="st7" x1="287.7" y1="201.5" x2="285.8" y2="201.5"/>
<line class="st7" x1="285.8" y1="201.5" x2="284" y2="201.5"/>
<line class="st7" x1="284" y1="201.5" x2="281.6" y2="201.5"/>
<polyline class="st7" points="170,111.1 170,111.1 170.1,111.1 170.1,111.1 "/>
<path class="st7" d="M222.9,105.1c3.3-2.4,6.6-4.9,9.9-7.4"/>
<line class="st7" x1="269.8" y1="74.2" x2="273.2" y2="76.7"/>
<polyline class="st7" points="259.8,57.9 254.5,58.6 249.3,59.3 244.2,60 238.9,60.7 228.5,62.1 218.1,63.5 "/>
<path class="st7" d="M290.1,65.3c-0.4,0-0.8,0.3-0.8,0.7c0,0.1,0,0.1,0,0.2"/>
<line class="st7" x1="245.1" y1="110.1" x2="250" y2="110.7"/>
<line class="st7" x1="258.8" y1="108.1" x2="258.3" y2="108.4"/>
<polyline class="st7" points="278.5,97.6 276,98.9 273.5,100.2 269.8,102.2 266.1,104.2 262.5,106.1 258.8,108.1 "/>
<path class="st7" d="M280.1,95.3c-0.1,1-0.7,1.9-1.6,2.3"/>
<line class="st7" x1="280.1" y1="89" x2="280.1" y2="95.3"/>
<path class="st7" d="M170.7,83.8c-0.3-1,0.2-2.2,1.3-2.5c0,0,0,0,0,0"/>
<polyline class="st7" points="172,81.4 175.6,80.7 179.2,80.1 182.8,79.5 186.4,78.8 "/>
<path class="st7" d="M175,98.3c-1.1-3.6-2.2-7.3-3.3-10.9"/>
<line class="st7" x1="170.7" y1="83.8" x2="171.8" y2="87.4"/>
<path class="st7" d="M289.8,99.2c0.1-0.4,0.1-0.8,0.1-1.3"/>
<polyline class="st7" points="289.9,71.1 289.9,70.7 289.9,69.9 "/>
<polyline class="st7" points="237,69.7 224.3,72 211.7,74.2 199,76.5 186.4,78.8 "/>
<polyline class="st7" points="238.9,68.1 238.8,68.1 238.6,68.2 "/>
<polyline class="st7" points="264.9,112.1 267.9,111 271,110 280.3,106.8 289.6,103.6 "/>
<path class="st7" d="M289.1,117.9c-3.2-2.2-6.6-4.7-9.8-6.9"/>
<polyline class="st7" points="275,110.5 272.4,111.4 269.8,112.4 267.2,113.3 264.6,114.3 263.3,114.7 262.1,115.2 260.8,115.7 
	259.5,116.1 257,117.1 254.4,118.1 "/>
<path class="st7" d="M183.6,119.5c-4.4-2.7-9.1-5.6-13.6-8.4"/>
<polyline class="st7" points="161.8,110.3 161.8,110.3 161.6,110.3 161.6,110.4 161.6,110.5 "/>
<line class="st7" x1="179" y1="75.3" x2="168" y2="77.2"/>
<path class="st7" d="M168,77.2c-1.7,0.8-2,2.3-1.1,4"/>
<polyline class="st7" points="177,102 184.6,103.1 192.2,104.2 199.8,105.3 207.4,106.4 "/>
<path class="st7" d="M207.4,106.4l2.9,0.4"/>
<polyline class="st7" points="220.8,110.1 224.5,110.7 228.3,111.3 232,111.8 235.8,112.3 239.6,112.7 243.3,113.1 247.1,113.4 
	250.9,113.7 "/>
<path class="st7" d="M250.9,113.7c1.4,0.1,2.8-0.2,4.1-0.8"/>
<line class="st7" x1="259.7" y1="110.7" x2="255" y2="113"/>
<line class="st7" x1="260.3" y1="110.3" x2="259.7" y2="110.7"/>
<line class="st7" x1="260.6" y1="110.3" x2="260.3" y2="110.3"/>
<line class="st7" x1="289.8" y1="99.2" x2="289.3" y2="102.8"/>
<path class="st7" d="M289.3,102.8c0,0.4,0.2,0.8,0.6,0.9"/>
<polyline class="st7" points="264.9,112.1 264.4,111.8 263.8,111.6 262.2,110.9 260.6,110.3 "/>
<polyline class="st7" points="260.6,110.3 263.3,108.9 266.1,107.7 268.1,106.7 270.1,105.7 272.2,104.7 274.2,103.7 276.3,102.8 
	278.3,101.7 280.3,100.8 282.4,99.8 "/>
<path class="st7" d="M282.4,99.8c1.1-0.4,1.9-1.4,2-2.5"/>
<polyline class="st7" points="284.3,97.2 284.3,95.1 284.3,93 284.3,91.3 284.3,89.6 284.3,88 284.3,86.3 284.3,83 284.3,79.6 "/>
<path class="st7" d="M284.3,79.6c0-0.7-0.4-1.3-1-1.7"/>
<path class="st7" d="M283.4,78c-7.6-5.2-15.2-10.6-22.8-15.9"/>
<path class="st7" d="M260.6,62.1c-0.6-0.4-1.2-0.6-1.9-0.4"/>
<polyline class="st7" points="258.7,61.6 248.7,63.3 238.9,65 228.9,66.7 219,68.4 209.1,70.1 199.1,71.8 189.3,73.5 179.3,75.2 "/>
<polyline class="st7" points="167.7,70.5 174.1,69.6 180.4,68.8 189.8,67.4 199.2,66.1 208.7,64.8 218.1,63.5 "/>
<polyline class="st7" points="259.8,57.9 260.6,57.9 261.4,57.9 262.6,58 263.8,58.3 264.9,58.6 266,59.1 "/>
<polyline class="st7" points="266,59.1 271.9,62.1 277.8,65 283.9,68.1 289.9,71.1 "/>
<polyline class="st7" points="289.9,71.1 290.1,77.8 290.1,84.6 290.1,91.2 289.9,98 "/>
<path class="st7" d="M220.8,110.1c-2-0.3-4.3-0.9-4.3-2.4"/>
<polyline class="st7" points="267.6,69.7 265.2,71.4 262.8,73.2 261.6,74.1 260.4,75 259.2,75.8 258,76.7 256.8,77.6 255.6,78.5 
	254.4,79.4 253.1,80.3 250.7,82.1 248.2,83.8 245.8,85.6 243.4,87.4 241,89.1 238.6,90.9 236.1,92.7 233.7,94.5 231.3,96.2 
	228.9,98 "/>
<polyline class="st7" points="228.9,98 227.5,99 226,100.1 221.7,103.2 217.5,106.3 "/>
<path class="st7" d="M217.6,106.3c-0.5,0.3-0.9,0.8-1.1,1.3"/>
<polyline class="st7" points="264.2,67.5 264.4,67.5 264.5,67.5 264.6,67.5 264.7,67.5 264.8,67.5 264.9,67.6 "/>
<polyline class="st7" points="241.7,82.6 241.9,82.6 242.1,82.5 "/>
<line class="st7" x1="261.7" y1="67.5" x2="242.1" y2="82.5"/>
<path class="st7" d="M239,68.1c0.9,4.9,1.9,9.7,2.8,14.6"/>
<path class="st7" d="M261.6,67.5c-0.7-1.3-2.1-2.2-3.6-2.4"/>
<path class="st7" d="M239.2,83.1c-0.2,0-0.4,0-0.5-0.2"/>
<polyline class="st7" points="239.2,83.1 235.6,85.8 232,88.4 230.2,89.8 228.4,91 226.6,92.4 224.8,93.7 223,95.1 221.2,96.3 
	219.5,97.7 217.6,99 214.1,101.6 210.5,104.1 "/>
<line class="st7" x1="210.5" y1="104.1" x2="207.4" y2="106.3"/>
<polyline class="st7" points="177.1,101.9 184.7,103 192.3,104.1 199.8,105.2 207.4,106.3 "/>
<line class="st7" x1="207.4" y1="106.3" x2="207.4" y2="106.4"/>
<path class="st7" d="M177.1,102c-3.3-0.7-7.8-15.7-10.2-20.8"/>
<path class="st7" d="M175,98.3c0.5,1.3,1.2,2.5,2.1,3.6"/>
<line class="st7" x1="177.1" y1="101.9" x2="177.1" y2="102"/>
<path class="st7" d="M222.9,105.1c-1.3,1.7-0.4,2.5,1.8,2.9"/>
<polyline class="st7" points="225.4,107.4 225.6,107.5 225.8,107.5 226.5,107.7 227.1,107.7 "/>
<polyline class="st7" points="267.7,71.9 267.8,71.8 268,71.8 268.1,71.8 268.2,71.9 "/>
<line class="st7" x1="268.2" y1="71.9" x2="270.6" y2="73.6"/>
<polyline class="st7" points="232.8,97.7 237.1,94.5 241.4,91.2 243.5,89.6 245.7,87.9 247.9,86.3 250,84.6 252.2,83 254.4,81.4 
	256.6,79.8 258.9,78.2 261.1,76.6 263.3,75.1 265.5,73.5 267.7,71.9 "/>
<path class="st7" d="M267.6,69.6c0.1,0.2,0.1,0.4,0.1,0.6"/>
<polyline class="st7" points="235.8,156.4 236,157.1 236.2,157.7 236.6,159.3 236.8,160.3 "/>
<path class="st7" d="M219.5,125.6c9,7,13.1,20.3,16.4,30.8"/>
<line class="st7" x1="298.5" y1="88.1" x2="294.1" y2="88.1"/>
<line class="st7" x1="279.1" y1="266.8" x2="284.2" y2="266.8"/>
<line class="st7" x1="80" y1="69.7" x2="80" y2="100.3"/>
<line class="st7" x1="98.9" y1="67.7" x2="98.9" y2="102.2"/>
<polyline class="st7" points="98.9,60.9 100.5,60 137.8,58 137.8,63 100.5,68.2 98.9,68.8 "/>
<polyline class="st7" points="98.9,69.9 100.5,69.3 141.3,63.7 141.3,55.9 100.4,59.4 "/>
<polyline class="st7" points="98.9,74.8 100.5,74.6 141.4,76.8 141.4,93.2 100.5,95.4 98.9,95.2 "/>
<polyline class="st7" points="98.9,76.4 100.5,76.3 138.2,79.1 138.2,91.1 100.5,93.8 98.9,93.6 "/>
<polyline class="st7" points="98.9,100.1 100.5,100.8 141.5,106.3 141.5,114.2 100.6,110.6 "/>
<polyline class="st7" points="98.9,109.2 100.5,109.9 138.3,111.5 138.3,106.4 100.5,101.7 98.9,101.2 "/>
<line class="st7" x1="114.4" y1="103.5" x2="114.4" y2="110.5"/>
<line class="st7" x1="114.4" y1="77.4" x2="114.4" y2="92.8"/>
<line class="st7" x1="114.4" y1="59.2" x2="114.4" y2="66.2"/>
<line class="st7" x1="117.1" y1="65.8" x2="117.1" y2="59.1"/>
<line class="st7" x1="117.1" y1="92.6" x2="117.1" y2="77.6"/>
<line class="st7" x1="117.1" y1="110.6" x2="117.1" y2="103.9"/>
<line class="st7" x1="121.2" y1="104.4" x2="121.2" y2="110.8"/>
<line class="st7" x1="121.2" y1="77.9" x2="121.2" y2="92.3"/>
<line class="st7" x1="121.2" y1="58.9" x2="121.2" y2="65.3"/>
<line class="st7" x1="123.9" y1="64.9" x2="123.9" y2="58.7"/>
<line class="st7" x1="123.9" y1="92.1" x2="123.9" y2="78.1"/>
<line class="st7" x1="123.9" y1="110.9" x2="123.9" y2="104.7"/>
<line class="st7" x1="128.6" y1="105.2" x2="128.6" y2="111"/>
<line class="st7" x1="128.6" y1="78.4" x2="128.6" y2="91.8"/>
<line class="st7" x1="128.6" y1="58.5" x2="128.6" y2="64.4"/>
<line class="st7" x1="131.3" y1="64" x2="131.3" y2="58.4"/>
<line class="st7" x1="131.3" y1="91.6" x2="131.3" y2="78.6"/>
<line class="st7" x1="131.3" y1="111.2" x2="131.3" y2="105.5"/>
<line class="st7" x1="137.8" y1="58" x2="141.3" y2="55.9"/>
<line class="st7" x1="137.8" y1="63" x2="141.3" y2="63.7"/>
<line class="st7" x1="138.2" y1="79.1" x2="141.4" y2="76.8"/>
<line class="st7" x1="138.2" y1="91.1" x2="141.4" y2="93.2"/>
<line class="st7" x1="138.3" y1="106.4" x2="141.5" y2="106.3"/>
<line class="st7" x1="138.3" y1="111.5" x2="141.5" y2="114.2"/>
<path class="st7" d="M266.5,134l-9.6,5c-0.8,0.4-1.1,1.4-0.7,2.1c0,0,0,0,0,0l4.4,7.8c0.4,0.7,1.3,1,2.1,0.6l10.1-5"/>
<path class="st7" d="M277.9,154.3l-10,5.4c-0.7,0.4-1,1.3-0.7,2.1l3.9,8c0.4,0.8,1.3,1.1,2.1,0.7c0,0,0,0,0,0l9.8-5"/>
<path class="st7" d="M287.3,175.8l-9.8,5.1c-0.7,0.4-1,1.2-0.8,1.9l3.2,8.6c0.3,0.8,1.2,1.2,2,0.9c0.1,0,0.1,0,0.2-0.1l9.4-4.8"/>
<line class="st7" x1="284.2" y1="266.8" x2="285.7" y2="266.8"/>
<line class="st7" x1="277.6" y1="266.8" x2="279.1" y2="266.8"/>
<line class="st7" x1="276.9" y1="256" x2="277.1" y2="266.3"/>
<line class="st7" x1="287.1" y1="229.3" x2="286.2" y2="266.3"/>
<path class="st7" d="M277.1,266.3c0,0.2,0.2,0.4,0.5,0.5"/>
<path class="st7" d="M285.7,266.8c0.2,0,0.4-0.2,0.4-0.5"/>
<line class="st7" x1="287.1" y1="229.3" x2="289.6" y2="229.3"/>
<line class="st7" x1="299.1" y1="219.5" x2="292.9" y2="223.9"/>
<line class="st7" x1="292.6" y1="224.2" x2="290.5" y2="228.8"/>
<path class="st7" d="M292.6,224.2c0-0.2,0.2-0.3,0.3-0.3"/>
<path class="st7" d="M290.5,228.8c-0.1,0.3-0.5,0.5-0.8,0.5"/>
<line class="st7" x1="299.4" y1="211.3" x2="299.4" y2="218.8"/>
<polyline class="st7" points="299.1,219.5 299.2,219.4 299.4,219.2 299.4,219 299.4,218.8 "/>
<polyline class="st7" points="299.4,218.8 299.4,218.8 299.4,218.7 299.4,218.7 299.4,218.6 299.4,218.5 "/>
<path class="st7" d="M227.2,156.8c5.6,4.3,9.7,3.5,9.7,3.5c2.9,11.3,12.3,28.4,19.4,39.1c0.8,1.2,1.5,2.3,2.2,3.3
	c2.4,3.4,2.1,8.1-0.7,11.1c-1.1,1.3-2.8,2-4.5,1.9h-1.8c-9-0.1-18-0.5-27-1"/>
<polyline class="st7" points="227,156.5 227,156.6 227,156.6 227,156.6 227,156.7 227.1,156.8 227.2,156.8 "/>
<path class="st7" d="M227,156.5c-1.1-8.8-4.4-17.1-9.7-24.3"/>
<path class="st7" d="M219.5,125.6c-1.2,1.9-2,4.1-2.3,6.3"/>
<polyline class="st7" points="217.2,131.9 217.2,131.9 217.2,132 217.2,132.1 217.2,132.1 217.2,132.2 217.3,132.3 "/>
<path class="st7" d="M218.7,125l-0.2-0.1"/>
<line class="st7" x1="218.7" y1="125" x2="219.5" y2="125.6"/>
<line class="st7" x1="183.7" y1="119.5" x2="192.7" y2="120.5"/>
<line class="st7" x1="183.7" y1="119.5" x2="192.7" y2="120.5"/>
<line class="st7" x1="179.6" y1="124.9" x2="190.4" y2="152.4"/>
<line class="st7" x1="179.3" y1="123.9" x2="179.6" y2="124.9"/>
<line class="st7" x1="179.3" y1="123.9" x2="179.6" y2="124.9"/>
<path class="st7" d="M179.3,123.9c-0.3-2.2,1.3-4.1,3.5-4.4c0.2,0,0.4,0,0.6,0"/>
<line class="st7" x1="183.7" y1="119.5" x2="183.4" y2="119.5"/>
<path class="st7" d="M216.4,208.5c1.7,3.3,4.3,5.8,8,6.3"/>
<path class="st7" d="M218.5,124.9c-2.4-1-5-1.8-7.6-2.2c-5.9-0.8-12.2-1.5-18.2-2.2"/>
<line class="st7" x1="268.1" y1="233.5" x2="275" y2="233.5"/>
<path class="st7" d="M268.1,233.5c-13.9,0.2-13.9,21.4,0,21.6"/>
<path class="st7" d="M275,233.5c0.7,0,1.3-0.7,1.3-1.4"/>
<line class="st7" x1="275.7" y1="255.1" x2="268.1" y2="255.1"/>
<path class="st7" d="M276.9,256c-0.2-0.5-0.6-0.9-1.1-0.9"/>
<line class="st7" x1="276.2" y1="229.3" x2="276.3" y2="232.2"/>
<line class="st7" x1="271.9" y1="229.3" x2="276.2" y2="229.3"/>
<line class="st7" x1="269.1" y1="224.5" x2="271.1" y2="228.8"/>
<polyline class="st7" points="271.9,229.3 271.6,229.3 271.4,229.2 271.2,229 271.1,228.8 "/>
<path class="st7" d="M268.2,224c0.1,0,0.3,0,0.4,0c0.2,0.1,0.4,0.2,0.4,0.5"/>
<path class="st7" d="M211.3,215.7c8.3,12,36,9.1,49.2,8.3c2.5-0.2,5.1,0,7.7,0"/>
<polyline class="st7" points="211.3,215.7 210.2,214.3 209.2,212.7 "/>
<polyline class="st7" points="209.2,212.7 208.4,211.5 207.6,210.2 "/>
<path class="st7" d="M216.4,208.5c-14-27.1-26.3-55-36.8-83.6"/>
<path class="st7" d="M166.2,131.4c9.4,21.2,20.1,41.8,31.6,62c3.2,5.6,6.4,11.2,9.8,16.8"/>
<polyline class="st7" points="163.7,126.8 162.9,125.5 162.1,124.2 161.3,123 160.4,121.7 159.6,120.4 158.8,119.1 157.9,117.8 
	157.1,116.6 "/>
<line class="st7" x1="163.7" y1="126.8" x2="166.2" y2="131.4"/>
<line class="st7" x1="156.9" y1="116.5" x2="157.1" y2="116.6"/>
<line class="st7" x1="155.7" y1="116.3" x2="156.9" y2="116.5"/>
<line class="st7" x1="155.6" y1="116" x2="155.7" y2="116.3"/>
<line class="st7" x1="155.1" y1="115.9" x2="155.6" y2="116"/>
<polyline class="st7" points="155.1,115.9 155.1,116 155,116.1 "/>
<polyline class="st7" points="155,116.1 155,116.1 155,116.1 154.9,116.1 154.9,116.1 "/>
<polyline class="st7" points="154.9,116.1 154.8,116.1 154.8,116.1 154.7,116.1 "/>
<line class="st7" x1="148.4" y1="54.4" x2="147.2" y2="54.6"/>
<line class="st7" x1="148.4" y1="54.2" x2="148.4" y2="54.4"/>
<line class="st7" x1="170.5" y1="51.9" x2="148.4" y2="54.2"/>
<line class="st7" x1="221.6" y1="46.3" x2="210.3" y2="48.8"/>
<line class="st7" x1="210.2" y1="48.8" x2="210.3" y2="48.8"/>
<line class="st7" x1="210.2" y1="48.8" x2="210.3" y2="48.8"/>
<path class="st7" d="M179.2,51.1c-2.9,0.3-5.8,0.5-8.7,0.8"/>
<path class="st7" d="M191.1,50c-4,0.4-8,0.7-12,1.1"/>
<polyline class="st7" points="191.1,50 200.6,49.3 210.2,48.8 "/>
<path class="st7" d="M293.2,53.5l-0.5-0.3l-0.5-0.1c-23.1-5.6-46.9-7.9-70.6-6.8"/>
<line class="st7" x1="299.4" y1="62.7" x2="299.4" y2="72.5"/>
<line class="st7" x1="299.4" y1="62.4" x2="299.4" y2="62.7"/>
<path class="st7" d="M299.4,62.4c-0.5-1.6-1.2-3.2-2-4.6"/>
<line class="st7" x1="293.2" y1="53.5" x2="296.5" y2="56.3"/>
<line class="st7" x1="297" y1="56.9" x2="297.4" y2="57.7"/>
<path class="st7" d="M297,56.9c-0.1-0.2-0.3-0.4-0.5-0.6"/>
<line class="st7" x1="296.8" y1="113" x2="293" y2="116.3"/>
<line class="st7" x1="296.8" y1="103.6" x2="296.8" y2="113"/>
<path class="st7" d="M269.9,123.5l4.5-0.8l4.5-1l4.5-1.3l4.3-1.5l0,0c1.1-1.1,2.5-1.3,4.1-2.1c0.4-0.1,0.9-0.3,1.3-0.6"/>
<path class="st7" d="M266.2,133.3c-2.7-4-1-9.2,3.7-9.8"/>
<line class="st7" x1="266.2" y1="133.3" x2="266.4" y2="133.6"/>
<path class="st7" d="M272,143.8c-1.7-3-3.4-5.9-5.2-8.8"/>
<path class="st7" d="M266.8,135c-0.2-0.5-0.3-1-0.4-1.5"/>
<line class="st7" x1="299.2" y1="88.3" x2="299.2" y2="103.5"/>
<line class="st7" x1="299.2" y1="88.1" x2="298.5" y2="88.1"/>
<line class="st7" x1="299.2" y1="88.1" x2="299.2" y2="88.3"/>
<line class="st7" x1="298.5" y1="83.1" x2="298.5" y2="88.1"/>
<line class="st7" x1="298.5" y1="83.1" x2="299.3" y2="83.1"/>
<line class="st7" x1="299.3" y1="77.7" x2="298.5" y2="77.7"/>
<line class="st7" x1="299.4" y1="77.9" x2="299.4" y2="82.9"/>
<polyline class="st7" points="299.4,77.9 299.4,77.9 299.4,77.8 299.4,77.7 299.4,77.7 299.4,77.7 299.3,77.7 "/>
<polyline class="st7" points="299.3,83.1 299.3,83.1 299.4,83.1 299.4,83 299.4,83 299.4,83 299.4,82.9 "/>
<line class="st7" x1="298.5" y1="72.5" x2="298.5" y2="77.7"/>
<line class="st7" x1="298.5" y1="72.5" x2="299.4" y2="72.5"/>
<path class="st7" d="M277.8,154c-1.5-3.1-3.1-6.1-4.8-9.1"/>
<polyline class="st7" points="272,143.8 272,143.9 272.1,144 272.1,144 272.2,144.1 272.2,144.2 272.3,144.2 272.4,144.3 
	272.4,144.3 272.5,144.4 272.6,144.5 272.7,144.5 272.8,144.5 "/>
<polyline class="st7" points="273.1,144.9 273,144.8 273,144.7 272.9,144.7 272.9,144.7 272.9,144.7 272.9,144.6 272.8,144.6 
	272.8,144.6 272.8,144.5 "/>
<polyline class="st7" points="277.9,154.4 277.9,154.5 277.9,154.5 277.9,154.7 277.9,154.7 277.9,154.9 277.9,154.9 277.9,155 
	278,155.1 278,155.2 278,155.3 278,155.4 278.1,155.4 "/>
<polyline class="st7" points="282.4,164.7 282.4,164.8 282.5,164.8 282.5,164.9 282.6,165 282.6,165.1 282.7,165.2 282.8,165.2 
	282.8,165.3 282.9,165.4 282.9,165.4 283,165.4 283.1,165.5 "/>
<polyline class="st7" points="277.9,154.4 277.9,154.3 277.9,154.3 277.9,154.2 277.9,154.2 277.9,154.1 277.8,154 277.8,154 "/>
<polyline class="st7" points="278.1,155.4 278.6,156.6 279.2,157.7 280.8,161.2 282.4,164.7 "/>
<polyline class="st7" points="287.3,175.8 287.3,175.9 287.3,176 287.3,176.1 287.3,176.2 287.3,176.3 287.3,176.4 287.3,176.4 
	287.3,176.5 287.3,176.6 287.3,176.7 287.3,176.8 287.4,176.9 "/>
<polyline class="st7" points="290.8,186.6 290.8,186.7 290.9,186.8 291,186.9 291,186.9 291,187 291.1,187.1 291.2,187.1 
	291.2,187.2 291.3,187.3 291.3,187.3 291.4,187.4 291.5,187.4 "/>
<polyline class="st7" points="291.7,187.8 291.7,187.8 291.7,187.7 291.6,187.6 291.6,187.6 291.5,187.6 291.5,187.5 291.5,187.5 
	291.5,187.4 "/>
<polyline class="st7" points="287.3,175.8 287.3,175.7 287.3,175.7 287.3,175.6 287.3,175.5 287.3,175.5 287.3,175.4 287.3,175.4 
	"/>
<polyline class="st7" points="283.4,165.8 283.9,167 284.4,168.2 285.9,171.8 287.3,175.4 "/>
<polyline class="st7" points="283.4,165.8 283.3,165.6 283.1,165.5 "/>
<polyline class="st7" points="287.4,176.9 287.8,178.1 288.3,179.3 289.6,182.9 290.8,186.6 "/>
<path class="st7" d="M296.3,205.7c-1.6-6.3-2.4-10.8-4.6-17.9"/>
<path class="st7" d="M299.4,211c-1.5-1.4-2.6-3.3-3.1-5.3"/>
<polyline class="st7" points="299.4,211.3 299.4,211.3 299.4,211.2 299.4,211.1 299.4,211.1 299.4,211 "/>
<polyline class="st7" points="299.4,211.8 299.4,211.7 299.4,211.6 299.4,211.5 299.4,211.5 299.4,211.4 299.4,211.3 299.4,211.3 
	"/>
<line class="st7" x1="279.1" y1="358.4" x2="279.1" y2="266.8"/>
<line class="st7" x1="284.2" y1="266.8" x2="284.2" y2="358.4"/>
<path class="st7" d="M147.2,54.4l-46.8,5l-1.5,0.8v7.4h-17c-1,0-1.9,0.9-1.9,1.9v0.1h-6.8c-0.7,0-1.3,0.6-1.3,1.3c0,0,0,0,0,0V99
	c0,0.7,0.6,1.3,1.3,1.3H80c0,1,0.8,1.9,1.9,1.9c0,0,0,0,0,0h17v7.5l1.8,1l53.8,5.7l0,0l0.2-0.2"/>
<line class="st7" x1="299.2" y1="103.5" x2="296.8" y2="103.6"/>
<path class="st7" d="M261,244.3c0,3.9,3.2,7.1,7.1,7.1s7.1-3.2,7.1-7.1c0-3.9-3.2-7.1-7.1-7.1C264.2,237.2,261,240.4,261,244.3
	C261,244.3,261,244.3,261,244.3L261,244.3"/>
<line class="st3" x1="86" y1="133" x2="86" y2="91.8"/>
<circle class="st4" cx="86" cy="91.9" r="1.9"/>
<line class="st3" x1="105.7" y1="212.4" x2="105.7" y2="247.3"/>
<circle class="st4" cx="105.7" cy="247.2" r="1.9"/>
<text transform="matrix(1 0 0 1 306.2004 191.509)" class="st4 st5 st8">4</text>
<polyline class="st3" points="303.8,131.8 290.6,131.8 269.2,99.7 "/>
<path class="st4" d="M270.8,98.7c-0.6-0.9-1.8-1.1-2.6-0.5c-0.9,0.6-1.1,1.8-0.5,2.6c0.6,0.9,1.8,1.1,2.6,0.5c0,0,0,0,0,0
	C271.1,100.7,271.4,99.6,270.8,98.7z"/>
<text transform="matrix(1 0 0 1 308.3019 134.7038)" class="st4 st5 st8">3</text>
<polyline class="st3" points="169.9,172.3 208.6,172.3 226.1,146.8 "/>
<path class="st4" d="M227.6,147.9c0.6-0.9,0.4-2-0.5-2.6c-0.9-0.6-2-0.4-2.6,0.5c-0.6,0.9-0.4,2,0.5,2.6
	C225.8,149,227,148.8,227.6,147.9C227.6,148,227.6,148,227.6,147.9z"/>
<text transform="matrix(1 0 0 1 156.5529 176.5026)" class="st4 st5 st8">5</text>
<text transform="matrix(1 0 0 1 81.8864 146.1882)" class="st4 st5 st8">2</text>
<polyline class="st3" points="119.5,142.6 134.2,142.6 176.6,108.5 "/>
<path class="st4" d="M177.7,110c0.8-0.7,0.9-1.8,0.3-2.7c-0.7-0.8-1.8-0.9-2.7-0.3c-0.8,0.7-0.9,1.8-0.3,2.7
	C175.7,110.6,176.9,110.7,177.7,110z"/>
<text transform="matrix(1 0 0 1 105.9113 146.1882)" class="st4 st5 st8">1</text>
<line class="st3" x1="133.3" y1="212.4" x2="133.3" y2="247.3"/>
<circle class="st4" cx="133.3" cy="247.2" r="1.9"/>
</svg>
