<?xml version="1.0" encoding="utf-8"?>
<!-- Generator: Adobe Illustrator 26.0.1, SVG Export Plug-In . SVG Version: 6.00 Build 0)  -->
<svg version="1.1" id="Слой_1" xmlns="http://www.w3.org/2000/svg" xmlns:xlink="http://www.w3.org/1999/xlink" x="0px" y="0px"
	 viewBox="0 0 370 383.7" style="enable-background:new 0 0 370 383.7;" xml:space="preserve">
<style type="text/css">
	.st0{fill:#FFFFFF;}
	.st1{fill:none;stroke:#1D1D1B;stroke-width:1;stroke-miterlimit:10;}
	.st2{fill:#1D1D1B;}
	.st3{font-family:'CeraPro-Medium';}
	.st4{font-size:11.3208px;}
	.st5{clip-path:url(#SVGID_00000114780811745313434590000015378072466838089913_);}
	.st6{fill:none;stroke:#1D1D1B;stroke-width:0.25;stroke-linecap:round;stroke-linejoin:round;}
	.st7{clip-path:url(#SVGID_00000147910408028222689120000016282007922108044707_);}
	.st8{clip-path:url(#SVGID_00000134250822811263311600000016339998830475549886_);}
	.st9{clip-path:url(#SVGID_00000061452985204094773900000002232789038255129788_);}
	.st10{clip-path:url(#SVGID_00000148627058891378693520000016857622160545200021_);}
	.st11{clip-path:url(#SVGID_00000160910545734597290580000010442184010501910461_);}
	.st12{clip-path:url(#SVGID_00000061431301888308220870000000894257853099635899_);}
	.st13{clip-path:url(#SVGID_00000008113044597629326860000017780632782074877828_);}
	.st14{clip-path:url(#SVGID_00000103236564647733871420000013770088741421263548_);}
	.st15{clip-path:url(#SVGID_00000162344411769640672640000012458690695260006827_);}
	.st16{clip-path:url(#SVGID_00000070805569126922982410000003547632000497912451_);}
	.st17{clip-path:url(#SVGID_00000142169981795484487490000012647436733994309267_);}
	.st18{clip-path:url(#SVGID_00000083793926747305760070000015801006663008576668_);}
	.st19{clip-path:url(#SVGID_00000088820025302054143820000007104612101551007151_);}
	.st20{fill:#E3E3E3;}
	.st21{fill:none;stroke:#1D1D1B;stroke-width:0.5;stroke-linecap:round;stroke-linejoin:round;}
	.st22{fill:none;stroke:#FFFFFF;stroke-width:2;stroke-miterlimit:10;}
	.st23{fill:none;stroke:#1D1D1B;stroke-miterlimit:10;}
</style>
<rect x="-0.1" class="st0" width="370" height="383.7"/>
<rect x="17.8" y="31.6" transform="matrix(2.443451e-03 -1 1 2.443451e-03 -7.2586 376.3824)" class="st1" width="334.4" height="320.4"/>
<text transform="matrix(1 0 0 1 142.4968 280.2131)" class="st2 st3 st4">9</text>
<text transform="matrix(1 0 0 1 303.1379 190.5026)" class="st2 st3 st4">6</text>
<text transform="matrix(1 0 0 1 286.3205 105.6725)" class="st2 st3 st4">5</text>
<text transform="matrix(1 0 0 1 223.9309 105.6725)" class="st2 st3 st4">4</text>
<g>
	<defs>
		<path id="SVGID_1_" d="M209.2,226.6c-8.5-5-10.7-9.9-14.4-14.2c-1,1.1-2.3,1.9-3.6,2.5l-12.6,4.3c-1.6,0.4-3.3-0.4-4.2-1.8
			c-1.1-1.9-4.3-9.9-5.2-10.4l-1.2,0.4l-0.6,1.8l-0.1,1.5c-0.6,1-1.7,1.5-2.9,1.4c-0.9,0-1.7-0.2-2.4-0.8c-0.7,0.5-1.4,0.9-2.2,1.2
			v2c0,0-2.6,4.5-4.6,5.3l-2.3,0.6c0,0-10.3,3.6-11.6,3.9l-1.3,0.3c0,0-7.7,0.4-11.2-1.4v-1.8v-0.2c-1.6,1.3-3.8,1.6-5.6,0.7
			c-2-1.4-3.8-3-5.4-4.8l-5.8-6.9c-1.5-1.1-35.2,8.6-35.2,8.6v61.5h132.8L209.2,226.6"/>
	</defs>
	<clipPath id="SVGID_00000129883881041195371170000003113585284784733342_">
		<use xlink:href="#SVGID_1_"  style="overflow:visible;"/>
	</clipPath>
	<g style="clip-path:url(#SVGID_00000129883881041195371170000003113585284784733342_);">
		<path class="st6" d="M127.5,219.6v1c0,0.9,1.3,1.7,2.7,1.7s2.7-0.8,2.7-1.7v-0.3"/>
	</g>
</g>
<path class="st6" d="M142.7,228.6H141c-3.1,0-6.1-0.2-9.2-0.8"/>
<g>
	<defs>
		<path id="SVGID_00000004513175262699603580000004231685932386551728_" d="M209.2,226.6c-8.5-5-10.7-9.9-14.4-14.2
			c-1,1.1-2.3,1.9-3.6,2.5l-12.6,4.3c-1.6,0.4-3.3-0.4-4.2-1.8c-1.1-1.9-4.3-9.9-5.2-10.4l-1.2,0.4l-0.6,1.8l-0.1,1.5
			c-0.6,1-1.7,1.5-2.9,1.4c-0.9,0-1.7-0.2-2.4-0.8c-0.7,0.5-1.4,0.9-2.2,1.2v2c0,0-2.6,4.5-4.6,5.3l-2.3,0.6c0,0-10.3,3.6-11.6,3.9
			l-1.3,0.3c0,0-7.7,0.4-11.2-1.4v-1.8v-0.2c-1.6,1.3-3.8,1.6-5.6,0.7c-2-1.4-3.8-3-5.4-4.8l-5.8-6.9c-1.5-1.1-35.2,8.6-35.2,8.6
			v61.5h132.8L209.2,226.6"/>
	</defs>
	<clipPath id="SVGID_00000035498247334975449450000008866605585273102997_">
		<use xlink:href="#SVGID_00000004513175262699603580000004231685932386551728_"  style="overflow:visible;"/>
	</clipPath>
	<g style="clip-path:url(#SVGID_00000035498247334975449450000008866605585273102997_);">
		<path class="st6" d="M114.3,212.1v6.5c0,1.3,1.4,7,12.4,10.3c1.5,0.9,3.3,1,4.8,0.2V222"/>
		<path class="st6" d="M146.8,219.7l3.9,3.8c0.5,0.4,0.8,0.9,0.9,1.5c0.1,0.9,0.4,6.3,0.4,6.3l-1.4,0.7l-2.8-1.6"/>
		<path class="st0" d="M148,227c0.4,2.2,0,4.2-1.1,4.4c-1.1,0.2-2.2-1.4-2.5-3.6c-0.4-2.2,0-4.2,1-4.4
			C146.5,223.1,147.6,224.7,148,227"/>
		<path class="st6" d="M148,227c0.4,2.2,0,4.2-1.1,4.4c-1.1,0.2-2.2-1.4-2.5-3.6c-0.4-2.2,0-4.2,1-4.4
			C146.5,223.1,147.5,224.7,148,227z"/>
		<path class="st0" d="M143.3,231.8c-0.9,0.2-2-1.3-2.4-3.3c-0.4-2.1,0-3.8,1-4l2.7-0.5c0.9-0.2,2,1.3,2.4,3.3c0.4,2.1,0,3.8-1,4
			L143.3,231.8"/>
		<path class="st6" d="M143.3,231.8c-0.9,0.2-2-1.3-2.4-3.3c-0.4-2.1,0-3.8,1-4l2.7-0.5c0.9-0.2,2,1.3,2.4,3.3c0.4,2.1,0,3.8-1,4
			L143.3,231.8z"/>
		<path class="st6" d="M141.9,224.5c0.9-0.2,2,1.3,2.4,3.3s0,3.8-1,4"/>
		<polygon class="st6" points="142.4,230.2 141.7,228.4 141.7,226.3 142.4,226.2 143.1,228.1 143.1,230.1 		"/>
		<line class="st6" x1="150.6" y1="231.6" x2="150" y2="225.4"/>
		<path class="st6" d="M149.1,224.2l-3.6-3.1c-1-0.4-2.2-0.6-3.3-0.3c-3,0.1-6.1,0-9.1-0.4"/>
		<polyline class="st6" points="151.1,218.7 156.1,222.3 156.1,231 		"/>
		<polyline class="st6" points="149.5,219.2 154.5,222.8 154.5,231.5 		"/>
		<path class="st6" d="M169.2,222.6c0,3.5-5.1,6.7-12.9,8.5"/>
	</g>
</g>
<path class="st6" d="M168.5,254.4c-8.7,2.4-17.6,3.6-26.6,3.5c-28.4,0-51.4-10.9-51.4-24.4"/>
<path class="st6" d="M152.4,232.7c-3.4,1-7,1.5-10.6,1.5c-8.4,0-15.4-2.5-17-5.7"/>
<g>
	<defs>
		<path id="SVGID_00000083767340822156401230000000245342972772371599_" d="M209.2,226.6c-8.5-5-10.7-9.9-14.4-14.2
			c-1,1.1-2.3,1.9-3.6,2.5l-12.6,4.3c-1.6,0.4-3.3-0.4-4.2-1.8c-1.1-1.9-4.3-9.9-5.2-10.4l-1.2,0.4l-0.6,1.8l-0.1,1.5
			c-0.6,1-1.7,1.5-2.9,1.4c-0.9,0-1.7-0.2-2.4-0.8c-0.7,0.5-1.4,0.9-2.2,1.2v2c0,0-2.6,4.5-4.6,5.3l-2.3,0.6c0,0-10.3,3.6-11.6,3.9
			l-1.3,0.3c0,0-7.7,0.4-11.2-1.4v-1.8v-0.2c-1.6,1.3-3.8,1.6-5.6,0.7c-2-1.4-3.8-3-5.4-4.8l-5.8-6.9c-1.5-1.1-35.2,8.6-35.2,8.6
			v61.5h132.8L209.2,226.6"/>
	</defs>
	<clipPath id="SVGID_00000121999860470929346550000002615222998857036715_">
		<use xlink:href="#SVGID_00000083767340822156401230000000245342972772371599_"  style="overflow:visible;"/>
	</clipPath>
	<g style="clip-path:url(#SVGID_00000121999860470929346550000002615222998857036715_);">
		<path class="st6" d="M169.3,257.7c-8.9,2.6-18.2,3.8-27.5,3.8c-28.4,0-51.4-10.9-51.4-24.4v-3.5c0-8.7,9.6-16.4,24-20.7"/>
	</g>
</g>
<path class="st6" d="M196.6,233c-1.4,7-11.1,13.1-25.2,16.6"/>
<g>
	<defs>
		<path id="SVGID_00000044167062685150147900000003762046116946332814_" d="M209.2,226.6c-8.5-5-10.7-9.9-14.4-14.2
			c-1,1.1-2.3,1.9-3.6,2.5l-12.6,4.3c-1.6,0.4-3.3-0.4-4.2-1.8c-1.1-1.9-4.3-9.9-5.2-10.4l-1.2,0.4l-0.6,1.8l-0.1,1.5
			c-0.6,1-1.7,1.5-2.9,1.4c-0.9,0-1.7-0.2-2.4-0.8c-0.7,0.5-1.4,0.9-2.2,1.2v2c0,0-2.6,4.5-4.6,5.3l-2.3,0.6c0,0-10.3,3.6-11.6,3.9
			l-1.3,0.3c0,0-7.7,0.4-11.2-1.4v-1.8v-0.2c-1.6,1.3-3.8,1.6-5.6,0.7c-2-1.4-3.8-3-5.4-4.8l-5.8-6.9c-1.5-1.1-35.2,8.6-35.2,8.6
			v61.5h132.8L209.2,226.6"/>
	</defs>
	<clipPath id="SVGID_00000080923322638657259720000009073366274920578741_">
		<use xlink:href="#SVGID_00000044167062685150147900000003762046116946332814_"  style="overflow:visible;"/>
	</clipPath>
	<g style="clip-path:url(#SVGID_00000080923322638657259720000009073366274920578741_);">
		<path class="st6" d="M162.4,215.8c4.3,2,6.8,4.5,6.8,7.3c0,3.8-4.6,7.1-11.8,9.2l-0.6,0.2c-1.1,0.3-2.2-0.1-2.8-1l-2-2.4"/>
		<path class="st6" d="M151.4,231.7l7.4,5.6l9.8,12.2c0.6,1.1,0.9,2.3,0.8,3.6c0.1,2.6,0,11.1,0,11.1c0,1.4,0.9,3,2.6,2.7
			s23.5-8.6,25.1-21.9l0.3-10.5c0.1-5.7-5-14.5-14.8-16.5"/>
	</g>
</g>
<path class="st6" d="M152.1,231.4l7.4,5.6l9.8,12.2c0.6,1.1,0.9,2.3,0.8,3.6c0.1,2.6,0,11.1,0,11.1c0,1.3,0.9,3,2.6,2.7"/>
<g>
	<defs>
		<path id="SVGID_00000183215089464558315610000006344433160306342798_" d="M209.2,226.6c-8.5-5-10.7-9.9-14.4-14.2
			c-1,1.1-2.3,1.9-3.6,2.5l-12.6,4.3c-1.6,0.4-3.3-0.4-4.2-1.8c-1.1-1.9-4.3-9.9-5.2-10.4l-1.2,0.4l-0.6,1.8l-0.1,1.5
			c-0.6,1-1.7,1.5-2.9,1.4c-0.9,0-1.7-0.2-2.4-0.8c-0.7,0.5-1.4,0.9-2.2,1.2v2c0,0-2.6,4.5-4.6,5.3l-2.3,0.6c0,0-10.3,3.6-11.6,3.9
			l-1.3,0.3c0,0-7.7,0.4-11.2-1.4v-1.8v-0.2c-1.6,1.3-3.8,1.6-5.6,0.7c-2-1.4-3.8-3-5.4-4.8l-5.8-6.9c-1.5-1.1-35.2,8.6-35.2,8.6
			v61.5h132.8L209.2,226.6"/>
	</defs>
	<clipPath id="SVGID_00000163074953670369262620000001583803041497456530_">
		<use xlink:href="#SVGID_00000183215089464558315610000006344433160306342798_"  style="overflow:visible;"/>
	</clipPath>
	<g style="clip-path:url(#SVGID_00000163074953670369262620000001583803041497456530_);">
		<path class="st6" d="M156.4,230.2l3.1-0.9c0,0,3.5-4.4,0.4-7.7c-1.2-1.3-2.7-2.3-4.4-3"/>
		<line class="st6" x1="155" y1="222.8" x2="155.8" y2="222.5"/>
		<line class="st6" x1="156.7" y1="222.3" x2="159.2" y2="221.5"/>
	</g>
</g>
<line class="st6" x1="149.9" y1="224.5" x2="150.7" y2="224.2"/>
<g>
	<defs>
		<path id="SVGID_00000127735595742002508800000015764167733713285289_" d="M209.2,226.6c-8.5-5-10.7-9.9-14.4-14.2
			c-1,1.1-2.3,1.9-3.6,2.5l-12.6,4.3c-1.6,0.4-3.3-0.4-4.2-1.8c-1.1-1.9-4.3-9.9-5.2-10.4l-1.2,0.4l-0.6,1.8l-0.1,1.5
			c-0.6,1-1.7,1.5-2.9,1.4c-0.9,0-1.7-0.2-2.4-0.8c-0.7,0.5-1.4,0.9-2.2,1.2v2c0,0-2.6,4.5-4.6,5.3l-2.3,0.6c0,0-10.3,3.6-11.6,3.9
			l-1.3,0.3c0,0-7.7,0.4-11.2-1.4v-1.8v-0.2c-1.6,1.3-3.8,1.6-5.6,0.7c-2-1.4-3.8-3-5.4-4.8l-5.8-6.9c-1.5-1.1-35.2,8.6-35.2,8.6
			v61.5h132.8L209.2,226.6"/>
	</defs>
	<clipPath id="SVGID_00000036216733551215052640000012823285136694567569_">
		<use xlink:href="#SVGID_00000127735595742002508800000015764167733713285289_"  style="overflow:visible;"/>
	</clipPath>
	<g style="clip-path:url(#SVGID_00000036216733551215052640000012823285136694567569_);">
		<path class="st6" d="M156,236.5c-5,1.9-10.3,2.8-15.6,2.7c-12.6,0-22.7-4.5-22.7-10c0-1.1,0.4-2.1,1-2.9"/>
	</g>
</g>
<g>
	<defs>
		<path id="SVGID_00000091718762896876181800000002523960665611193501_" d="M113.3,191c-2.1-4.2-54.4-12-59.8-14.2l-28-20.8
			c-1.7,0.4,2.3-45.2,0.7-45.8c-5.2-2,122,32.7,122.7,39.8c0,0-0.9,1.8-1.3,2.7c0,0-1.3,0.7-1.3,1.7c0,1.1,0.1,2.2,0.2,3.3l-4.6,12
			l-3.7,2.4c0,0-7.4-0.5-8.3,2.8v2.1c-0.4-0.2-0.8-0.4-1.1-0.7c-0.4-0.3-1.1-0.3-1.5,0c-0.2,0.3-0.3,0.6-0.3,0.9v2.9l-12.4,9.8
			L113.3,191"/>
	</defs>
	<clipPath id="SVGID_00000180368168067971984390000008081294210357610920_">
		<use xlink:href="#SVGID_00000091718762896876181800000002523960665611193501_"  style="overflow:visible;"/>
	</clipPath>
	<g style="clip-path:url(#SVGID_00000180368168067971984390000008081294210357610920_);">
		<g>
			<defs>
				<rect id="SVGID_00000088128411724462148960000002300759927616486787_" x="25.1" y="110" width="377.6" height="173.4"/>
			</defs>
			<clipPath id="SVGID_00000155836809934119833900000008529086277875310989_">
				<use xlink:href="#SVGID_00000088128411724462148960000002300759927616486787_"  style="overflow:visible;"/>
			</clipPath>
			<g style="clip-path:url(#SVGID_00000155836809934119833900000008529086277875310989_);">
				<path class="st6" d="M139.7,171.6c0.1-0.2,0.2-0.5,0.4-0.7c2.1-3.1,5.1-4.5,6.9-3.5"/>
				<path class="st6" d="M139.1,174.1c0,0.3-0.6,0.5-1.4,0.5s-1.4-0.2-1.4-0.5c0-0.3,0.6-0.5,1.4-0.5
					C138.5,173.6,139.1,173.8,139.1,174.1z"/>
				<path class="st6" d="M131.4,173.6c0.1-1.1,0.3-2.1,0.7-3.1c1.5-3.9,4.7-6.3,7.2-5.4l0.3,0.1"/>
				<path class="st6" d="M113.1,191.7c-3.8-6-4.2-16.4-0.2-26.8c5.3-14,16.2-22.8,24.6-19.9l0.7,0.3l0.3,0.1
					c6.4,2.4,9.4,11.2,8,21.6"/>
			</g>
		</g>
	</g>
</g>
<path class="st6" d="M49.6,155c-3.1,2.2-6.3,2.9-9.2,1.9l-0.5-0.2c-3-1.3-5.2-3.9-6-7l0.8-13.4c0.2-0.8,0.7-1.4,1-2.2
	c3.8-10.1,11.8-16.4,17.9-14.3l0.5,0.2l0.2,0.1c2.9,1.1,4.8,3.8,5.7,7.5"/>
<path class="st6" d="M41.7,157.2c-2.3-1.5-4-3.8-4.5-6.5"/>
<path class="st6" d="M37.8,137.3c0.2-0.8,0.5-1.5,0.8-2.3c3.5-9.2,10.4-15.2,16.2-14.7"/>
<path class="st6" d="M41.7,129.6c0.7,0.7,1.5,1.4,2.4,1.9c0.6,0.2,1.3-0.6,1.8-1.3c2.8-3.9,6.4-6.2,9.7-5.9c1.7,0.3,3.2,1.4,4.1,2.9
	"/>
<g>
	<defs>
		<path id="SVGID_00000121964531978818226220000009708477830528849565_" d="M113.3,191c-2.1-4.2-54.4-12-59.8-14.2l-28-20.8
			c-1.7,0.4,2.3-45.2,0.7-45.8c-5.2-2,122,32.7,122.7,39.8c0,0-0.9,1.8-1.3,2.7c0,0-1.3,0.7-1.3,1.7c0,1.1,0.1,2.2,0.2,3.3l-4.6,12
			l-3.7,2.4c0,0-7.4-0.5-8.3,2.8v2.1c-0.4-0.2-0.8-0.4-1.1-0.7c-0.4-0.3-1.1-0.3-1.5,0c-0.2,0.3-0.3,0.6-0.3,0.9v2.9l-12.4,9.8
			L113.3,191"/>
	</defs>
	<clipPath id="SVGID_00000121279601656610707900000018297894686460098492_">
		<use xlink:href="#SVGID_00000121964531978818226220000009708477830528849565_"  style="overflow:visible;"/>
	</clipPath>
	<g style="clip-path:url(#SVGID_00000121279601656610707900000018297894686460098492_);">
		<g>
			<defs>
				<rect id="SVGID_00000055705119939647926820000009368644246218502286_" x="25.1" y="110" width="377.6" height="173.4"/>
			</defs>
			<clipPath id="SVGID_00000081627045405181126440000001314235581138789517_">
				<use xlink:href="#SVGID_00000055705119939647926820000009368644246218502286_"  style="overflow:visible;"/>
			</clipPath>
			<g style="clip-path:url(#SVGID_00000081627045405181126440000001314235581138789517_);">
				<path class="st6" d="M113.8,189.2c-2-6-1.6-14.6,1.7-23.3c5.3-14,15.9-22.9,23.7-19.9c6,2.3,8.6,10.8,7.1,21"/>
				<path class="st6" d="M117.1,188.1c-2.6-4.9-2.5-13.1,0.6-21.4c4.4-11.6,13.2-19,19.7-16.6c4.6,1.7,6.8,7.9,6.1,15.5"/>
			</g>
		</g>
	</g>
</g>
<path class="st6" d="M124.7,169.8c-0.4,0.5-1,0.7-1.6,0.4c-0.7-0.3-1.1-0.9-0.9-1.3c0.4-0.5,1-0.7,1.6-0.4
	C124.4,168.7,124.9,169.3,124.7,169.8z"/>
<path class="st6" d="M125.6,170.1c-0.3,0.9-1.6,1.2-2.8,0.7c-1.2-0.5-1.9-1.5-1.6-2.4s1.6-1.2,2.8-0.7
	C125.2,168.2,125.9,169.3,125.6,170.1z"/>
<g>
	<defs>
		<path id="SVGID_00000106827939715573695900000017253248674719847304_" d="M113.3,191c-2.1-4.2-54.4-12-59.8-14.2l-28-20.8
			c-1.7,0.4,2.3-45.2,0.7-45.8c-5.2-2,122,32.7,122.7,39.8c0,0-0.9,1.8-1.3,2.7c0,0-1.3,0.7-1.3,1.7c0,1.1,0.1,2.2,0.2,3.3l-4.6,12
			l-3.7,2.4c0,0-7.4-0.5-8.3,2.8v2.1c-0.4-0.2-0.8-0.4-1.1-0.7c-0.4-0.3-1.1-0.3-1.5,0c-0.2,0.3-0.3,0.6-0.3,0.9v2.9l-12.4,9.8
			L113.3,191"/>
	</defs>
	<clipPath id="SVGID_00000171678889588926132610000000423978710074196149_">
		<use xlink:href="#SVGID_00000106827939715573695900000017253248674719847304_"  style="overflow:visible;"/>
	</clipPath>
	<g style="clip-path:url(#SVGID_00000171678889588926132610000000423978710074196149_);">
		<g>
			<defs>
				<rect id="SVGID_00000108307898400920330890000012955260650479590792_" x="25.1" y="110" width="377.6" height="173.4"/>
			</defs>
			<clipPath id="SVGID_00000155115494809830117410000001776776832007841423_">
				<use xlink:href="#SVGID_00000108307898400920330890000012955260650479590792_"  style="overflow:visible;"/>
			</clipPath>
			<g style="clip-path:url(#SVGID_00000155115494809830117410000001776776832007841423_);">
				<path class="st6" d="M123.5,182.9c0.2,0.4-0.1,1-0.7,1.3s-1.3,0.2-1.5-0.2c-0.2-0.4,0.1-1,0.7-1.3
					C122.5,182.4,123.2,182.5,123.5,182.9z"/>
				<path class="st6" d="M121.6,185.1c-0.4,0-0.8-0.3-1-0.7c-0.4-0.7,0.2-1.8,1.3-2.3c0.8-0.5,1.9-0.4,2.5,0.4
					c0.1,0.3,0.1,0.6,0,0.8"/>
			</g>
		</g>
	</g>
</g>
<path class="st6" d="M133.2,158.9c-0.4,0.1-0.9-0.3-1.2-0.9s0-1.3,0.4-1.4c0.4-0.2,1,0.3,1.2,0.9
	C133.8,158.2,133.6,158.8,133.2,158.9z"/>
<path class="st6" d="M133.5,159.7c-0.8,0.3-1.7-0.5-2-1.6c-0.4-1.1,0-2.2,0.7-2.5s1.7,0.5,2,1.6
	C134.5,158.4,134.2,159.5,133.5,159.7z"/>
<path class="st6" d="M141.1,162.3c-0.2,0-0.5-0.5-0.5-1.2c0-0.7,0.2-1.2,0.4-1.2c0.3,0,0.5,0.5,0.5,1.2
	C141.6,161.7,141.4,162.3,141.1,162.3z"/>
<path class="st6" d="M141.2,163.2c-0.4,0-0.8-0.9-0.8-2c0-1.1,0.3-2.1,0.7-2.1s0.8,0.9,0.8,2C141.9,162.2,141.6,163.2,141.2,163.2z"
	/>
<line class="st6" x1="128.1" y1="153.1" x2="132" y2="163.5"/>
<line class="st6" x1="129.3" y1="167.1" x2="119.4" y2="163.4"/>
<line class="st6" x1="132.8" y1="150.5" x2="137" y2="161.3"/>
<line class="st6" x1="131.8" y1="163.9" x2="129.5" y2="166.9"/>
<line class="st6" x1="126.3" y1="174.8" x2="126" y2="178.9"/>
<line class="st6" x1="131.4" y1="162.7" x2="129.2" y2="165.7"/>
<line class="st6" x1="128.7" y1="165.6" x2="119.7" y2="163.2"/>
<line class="st6" x1="129.1" y1="165.9" x2="129.3" y2="166.9"/>
<line class="st6" x1="126.1" y1="174.6" x2="116.7" y2="170.7"/>
<line class="st6" x1="126.1" y1="174.9" x2="125.4" y2="175.4"/>
<line class="st6" x1="125.4" y1="175.7" x2="124.9" y2="179.3"/>
<line class="st6" x1="125" y1="175.3" x2="116.9" y2="171.1"/>
<line class="st6" x1="125.5" y1="179" x2="115.8" y2="184"/>
<line class="st6" x1="133.1" y1="150.7" x2="138" y2="160.1"/>
<line class="st6" x1="137.9" y1="160.5" x2="137.3" y2="161.4"/>
<polyline class="st6" points="139.4,162.3 140,160.8 140.8,153.1 "/>
<line class="st6" x1="138.9" y1="162.2" x2="137.6" y2="161.6"/>
<line class="st6" x1="139.6" y1="160.7" x2="138.5" y2="160.3"/>
<path class="st6" d="M110,187.2c-1,0-1.9-0.2-2.8-0.6c-7.2-2.7-9.5-14.3-5.1-25.9c4.4-11.6,13.8-18.7,21-16c0.8,0.3,1.6,0.7,2.3,1.3
	"/>
<path class="st6" d="M111.1,187.6l-0.3-0.1c-6.3-2.4-7.9-13.5-3.7-24.8s12.9-18.6,19.2-16.2l0.4,0.1"/>
<path class="st6" d="M110.7,186c-3.2-4.6-3.5-13.2-0.1-22c3.3-8.8,9.2-15.1,14.6-16.4"/>
<path class="st6" d="M35.5,136.7c0,0,1.9,0.9,2.1,2.2c0.4,3.8,0.2,7.5-0.5,11.2"/>
<line class="st6" x1="36.7" y1="150.5" x2="34.6" y2="149.7"/>
<path class="st6" d="M38.8,136.3c1.7,0.6,5.6,4.1,6.4,6.3l-0.5,5c0,0-6.4,3.1-7.2,3.8"/>
<path class="st6" d="M40,155.4c0,0,2.1-2.3,3.5-1.7c1.4,0.6,1.9,2.2,4.8,1.7"/>
<path class="st6" d="M109.8,148.6c-20.1-11.5-49.3-21.1-49.3-21.1s-7.1,0.2-10.2,6.6c-0.1,0.3-0.1,0.5,0,0.8c0,0.6,1.6,5.6,1.6,6.1
	s-1.8,7.8-1,11.5c0,0-1.9,1.3-1.9,1.8c0,0,42.2,18.5,50.8,19.8"/>
<path class="st6" d="M64.6,129.4c0,0-4.2,2-5,3.2l-0.3,4.5"/>
<line class="st6" x1="59.7" y1="137.1" x2="70.2" y2="141"/>
<polyline class="st6" points="70.7,141 72.6,139.8 87.1,145.9 "/>
<line class="st6" x1="87.4" y1="145.5" x2="87.2" y2="148.1"/>
<path class="st6" d="M87.6,148.3l8.7,4l4.7-1.2c0,0,3-3.5,6.8-3.8"/>
<polygon class="st6" points="55.5,134.1 54.1,134.4 55.1,140.5 69.8,146.3 73.7,144.1 81.6,147.4 82,151.3 95.7,157.6 102.4,154.4 
	101.8,153.1 96.3,155.2 84.6,149.8 84.2,146.6 73.2,141.8 70.1,143.7 56.4,138.4 "/>
<polyline class="st6" points="52.7,155.8 54.1,155.2 69.5,161.7 71.5,164.1 "/>
<polyline class="st6" points="79.8,167.5 81.4,166.5 95.2,171.1 99.2,174.1 "/>
<polyline class="st6" points="103,157.8 97.6,160.6 96.7,170.3 99.6,173.2 "/>
<path class="st6" d="M104.1,145.8c-2.6,0.4-5,1.6-6.9,3.5c-0.4,0.3-1.6-0.3-1.4-0.7"/>
<path class="st6" d="M95.8,148.3c0,0,3.4-3.8,7.3-3.4"/>
<path class="st6" d="M99.4,143.3c-2.6,0.4-5,1.6-6.9,3.5c-0.4,0.3-1.6-0.3-1.4-0.7"/>
<path class="st6" d="M91.1,145.8c0,0,3.4-3.8,7.3-3.4"/>
<path class="st6" d="M94.4,141c-2,0.5-3.9,1.5-5.4,2.9c-0.4,0.2-1.6-0.3-1.4-0.7"/>
<path class="st6" d="M87.5,142.9c1.4-1.4,3.1-2.4,5-2.9"/>
<path class="st6" d="M90,138.9c-2.1,0.4-4.1,1.4-5.8,2.8c-0.5,0.2-1.6-0.3-1.4-0.7"/>
<path class="st6" d="M82.8,140.7c1.6-1.3,3.4-2.3,5.4-2.7"/>
<path class="st6" d="M84.8,136.8c-2.1,0.5-4.1,1.4-5.8,2.8c-0.5,0.2-1.6-0.3-1.4-0.7"/>
<path class="st6" d="M77.7,138.6c1.6-1.4,3.4-2.3,5.4-2.7"/>
<path class="st6" d="M79.9,134.8c-2.1,0.4-4.1,1.4-5.8,2.8c-0.5,0.2-1.6-0.3-1.4-0.7"/>
<path class="st6" d="M72.8,136.6c1.6-1.3,3.4-2.3,5.4-2.7"/>
<path class="st6" d="M69.8,131c-2.3,0.8-4.4,2.1-6.2,3.8c-0.5,0.3-1.6-0.2-1.3-0.6"/>
<path class="st6" d="M62.3,133.8c1.7-1.6,3.7-2.9,5.8-3.7"/>
<path class="st6" d="M74.6,132.9c-2.3,0.8-4.4,2.1-6.2,3.8c-0.5,0.3-1.6-0.2-1.3-0.6"/>
<path class="st6" d="M67.2,135.7c1.7-1.6,3.6-2.9,5.8-3.6"/>
<g>
	<defs>
		<path id="SVGID_00000183217601115556418070000011468883011544938160_" d="M113.3,191c-2.1-4.2-54.4-12-59.8-14.2l-28-20.8
			c-1.7,0.4,2.3-45.2,0.7-45.8c-5.2-2,122,32.7,122.7,39.8c0,0-0.9,1.8-1.3,2.7c0,0-1.3,0.7-1.3,1.7c0,1.1,0.1,2.2,0.2,3.3l-4.6,12
			l-3.7,2.4c0,0-7.4-0.5-8.3,2.8v2.1c-0.4-0.2-0.8-0.4-1.1-0.7c-0.4-0.3-1.1-0.3-1.5,0c-0.2,0.3-0.3,0.6-0.3,0.9v2.9l-12.4,9.8
			L113.3,191"/>
	</defs>
	<clipPath id="SVGID_00000172423093150371799790000009567131829445351327_">
		<use xlink:href="#SVGID_00000183217601115556418070000011468883011544938160_"  style="overflow:visible;"/>
	</clipPath>
	<g style="clip-path:url(#SVGID_00000172423093150371799790000009567131829445351327_);">
		<g>
			<defs>
				<rect id="SVGID_00000005249907403304995160000010302325351649746349_" x="25.1" y="110" width="377.6" height="173.4"/>
			</defs>
			<clipPath id="SVGID_00000169560061269327009840000007759654883597372297_">
				<use xlink:href="#SVGID_00000005249907403304995160000010302325351649746349_"  style="overflow:visible;"/>
			</clipPath>
			<g style="clip-path:url(#SVGID_00000169560061269327009840000007759654883597372297_);">
				<line class="st6" x1="138.8" y1="165.1" x2="145.9" y2="167"/>
			</g>
		</g>
	</g>
</g>
<polyline class="st6" points="345,137.2 329.3,141.7 327.9,136.4 345.4,132 "/>
<path class="st0" d="M302.5,139.3l21.7-3.4c0.7-2.4,3.4-1.3,3.4-1.3c2.8,1.6,4.1,4.8,3.3,7.9c-0.2,1.2-1.3,2-2.4,1.8
	c-0.3,0-0.5-0.1-0.8-0.3l-22.4,6.3"/>
<path class="st6" d="M302.5,139.3l21.7-3.4c0.7-2.4,3.4-1.3,3.4-1.3c2.8,1.6,4.1,4.8,3.3,7.9c-0.2,1.2-1.3,2-2.4,1.8
	c-0.3,0-0.5-0.1-0.8-0.3l-22.4,6.3"/>
<path class="st0" d="M184.5,153.6l110.7-23.9c2.3-0.4,4.8-0.4,7.1,0.2c2,0.6,4,1.4,5.8,2.4c2.1,1,8.1,4.6,9.3,5.3
	c1.2,0.7,3.1,2,2.6,6.2s-2,10.5-2,10.5c-0.6,2.7-2.3,4.6-5.6,6.3l-59.7,21.4l-50.8,16.4c-1.9,0.7-3.3,2.1-3.9,4
	c-0.8,2-0.8,6.3-2,8.5c-1.2,2.3-2.8,3.3-5.4,4.4c-2.6,1.1-11.1,3.6-11.1,3.6c-1.9,0.6-4,0.7-5.5-1.8c-1.5-2.5-3.6-8.9-4.6-9.9"/>
<path class="st6" d="M184.5,153.6l110.7-23.9c2.3-0.4,4.8-0.4,7.1,0.2c2,0.6,4,1.4,5.8,2.4c2.1,1,8.1,4.6,9.3,5.3
	c1.2,0.7,3.1,2,2.6,6.2s-2,10.5-2,10.5c-0.6,2.7-2.3,4.6-5.6,6.3l-59.7,21.4l-50.8,16.4c-1.9,0.7-3.3,2.1-3.9,4
	c-0.8,2-0.8,6.3-2,8.5c-1.2,2.3-2.8,3.3-5.4,4.4c-2.6,1.1-11.1,3.6-11.1,3.6c-1.9,0.6-4,0.7-5.5-1.8c-1.5-2.5-3.6-8.9-4.6-9.9"/>
<path class="st6" d="M324.8,135.8c0.7-0.1,1.4,0,2.1,0.4c1.3,1.1,2.1,2.7,2.3,4.4c0.2,2.4-1.3,2.8-1.3,2.8"/>
<path class="st2" d="M215.5,188.3c-0.3,0.2-0.6,0.2-0.9,0c-0.2-0.2-0.4-0.5-0.3-0.8c0-0.3,0.1-0.5,0.2-0.8c0.1-0.2,0.3-0.5,0.5-0.7
	c0.2-0.2,0.4-0.3,0.7-0.4c0.2-0.1,0.4-0.1,0.7-0.1c0.2,0,0.3,0.1,0.4,0.3c0.1,0.2,0.1,0.4,0.1,0.6c0,0.5-0.3,1-0.7,1.4
	C215.9,188.1,215.7,188.2,215.5,188.3 M215.5,187.9c0.3-0.1,0.5-0.3,0.7-0.6c0.2-0.2,0.3-0.5,0.3-0.8c0-0.2-0.1-0.4-0.2-0.6
	c-0.2-0.1-0.5-0.1-0.7,0c-0.2,0.1-0.4,0.2-0.5,0.3c-0.1,0.1-0.3,0.3-0.4,0.5c-0.1,0.2-0.1,0.4-0.2,0.6c0,0.2,0.1,0.4,0.2,0.6
	C214.9,188.1,215.1,188.1,215.5,187.9L215.5,187.9z"/>
<polyline class="st2" points="216.8,184.7 214.4,185.7 214.5,183.8 214.7,183.7 214.7,185.2 215.4,184.9 215.5,183.6 215.8,183.4 
	215.7,184.8 216.8,184.3 216.8,184.7 "/>
<polyline class="st2" points="216.9,182.3 214.5,183.3 214.6,181.4 214.8,181.3 214.8,182.8 215.5,182.5 215.6,181.2 215.9,181.1 
	215.8,182.4 216.9,181.9 216.9,182.3 "/>
<path class="st2" d="M215.5,177.1c0.3-0.1,0.6-0.1,0.9-0.1c0.2,0,0.4,0.1,0.5,0.3c0.1,0.2,0.2,0.4,0.2,0.6c0,0.2-0.1,0.4-0.1,0.6
	c-0.1,0.2-0.2,0.3-0.3,0.5c-0.1,0.1-0.3,0.3-0.5,0.4c-0.2,0.1-0.5,0.2-0.8,0.3c-0.3,0.1-0.6,0.1-0.9,0.1c-0.2,0-0.4-0.1-0.5-0.3
	c-0.1-0.2-0.2-0.4-0.2-0.6c0-0.4,0.1-0.7,0.4-1C214.5,177.5,215,177.3,215.5,177.1 M215.5,177.6c-0.4,0.1-0.8,0.3-1.1,0.5
	c-0.2,0.2-0.3,0.4-0.3,0.6c0,0.2,0.1,0.4,0.3,0.5c0.4,0.1,0.7,0.1,1.1-0.1c0.4-0.1,0.8-0.3,1.1-0.5c0.2-0.2,0.3-0.4,0.3-0.6
	c0-0.2-0.1-0.4-0.2-0.4C216.2,177.5,215.8,177.5,215.5,177.6L215.5,177.6z"/>
<path class="st0" d="M143.1,176.5v-1.6c-0.2-1.6-3.1-2.8-6.6-2.8c-3.5,0-6.6,1.3-6.6,3v1.8c2,1.3,4.3,1.8,6.6,1.7
	C138.8,178.5,141.1,177.8,143.1,176.5"/>
<path class="st0" d="M197.2,194v1.3c0.3,0.4,0.7,0.8,1.1,1.1c0.8,0.4,1.7,0.4,2.5,0.1l7.4-2.6l0.3-0.4c0.8-0.3,5-1.3,6.2-1.6
	c1.3-0.3,1.5-0.8,1.5-0.8c2.5-4.6,1.3-9.7,0.3-12c-0.8-1.8-2.6-1.9-4.7-1.2l-5.6,2l-9.5,2.9v0.7l1.3,0.6v9.5L197.2,194"/>
<path class="st2" d="M215.5,188.3c-0.3,0.2-0.6,0.2-0.9,0c-0.2-0.2-0.4-0.5-0.3-0.8c0-0.3,0.1-0.5,0.2-0.8c0.1-0.2,0.3-0.5,0.5-0.7
	c0.2-0.2,0.4-0.3,0.7-0.4c0.2-0.1,0.4-0.1,0.7-0.1c0.2,0,0.3,0.1,0.4,0.3c0.1,0.2,0.1,0.4,0.1,0.6c0,0.5-0.3,1-0.7,1.4
	C215.9,188.1,215.7,188.2,215.5,188.3 M215.5,187.9c0.3-0.1,0.5-0.3,0.7-0.6c0.2-0.2,0.3-0.5,0.3-0.8c0-0.2-0.1-0.4-0.2-0.6
	c-0.2-0.1-0.5-0.1-0.7,0c-0.2,0.1-0.4,0.2-0.5,0.3c-0.1,0.1-0.3,0.3-0.4,0.5c-0.1,0.2-0.1,0.4-0.2,0.6c0,0.2,0.1,0.4,0.2,0.6
	C214.9,188.1,215.1,188.1,215.5,187.9L215.5,187.9z"/>
<polyline class="st2" points="216.8,184.7 214.4,185.7 214.5,183.8 214.7,183.7 214.7,185.2 215.4,184.9 215.5,183.6 215.8,183.4 
	215.7,184.8 216.8,184.3 216.8,184.7 "/>
<polyline class="st2" points="216.9,182.3 214.5,183.3 214.6,181.4 214.8,181.3 214.8,182.8 215.5,182.5 215.6,181.2 215.9,181.1 
	215.8,182.4 216.9,181.9 216.9,182.3 "/>
<path class="st2" d="M215.5,177.1c0.3-0.1,0.6-0.1,0.9-0.1c0.2,0,0.4,0.1,0.5,0.3c0.1,0.2,0.2,0.4,0.2,0.6c0,0.2-0.1,0.4-0.1,0.6
	c-0.1,0.2-0.2,0.3-0.3,0.5c-0.1,0.1-0.3,0.3-0.5,0.4c-0.2,0.1-0.5,0.2-0.8,0.3c-0.3,0.1-0.6,0.1-0.9,0.1c-0.2,0-0.4-0.1-0.5-0.3
	c-0.1-0.2-0.2-0.4-0.2-0.6c0-0.4,0.1-0.7,0.4-1C214.5,177.5,215,177.3,215.5,177.1 M215.5,177.6c-0.4,0.1-0.8,0.3-1.1,0.5
	c-0.2,0.2-0.3,0.4-0.3,0.6c0,0.2,0.1,0.4,0.3,0.5c0.4,0.1,0.7,0.1,1.1-0.1c0.4-0.1,0.8-0.3,1.1-0.5c0.2-0.2,0.3-0.4,0.3-0.6
	c0-0.2-0.1-0.4-0.2-0.4C216.2,177.5,215.8,177.5,215.5,177.6L215.5,177.6z"/>
<path class="st0" d="M143.1,176.5v-1.6c-0.2-1.6-3.1-2.8-6.6-2.8c-3.5,0-6.6,1.3-6.6,3v1.8c2,1.3,4.3,1.8,6.6,1.7
	C138.8,178.5,141.1,177.8,143.1,176.5"/>
<path class="st0" d="M197.2,194v1.3c0.3,0.4,0.7,0.8,1.1,1.1c0.8,0.4,1.7,0.4,2.5,0.1l7.4-2.6l0.3-0.4c0.8-0.3,5-1.3,6.2-1.6
	c1.3-0.3,1.5-0.8,1.5-0.8c2.5-4.6,1.3-9.7,0.3-12c-0.8-1.8-2.6-1.9-4.7-1.2l-5.6,2l-9.5,2.9v0.7l1.3,0.6v9.5L197.2,194"/>
<path class="st6" d="M171.9,159.7v9.1c0,3.1,1.4,5.2,3,5.7"/>
<path class="st0" d="M175.6,169.2c0.3,2-0.2,3.8-1.2,3.9c-1,0.1-2-1.4-2.3-3.4s0.2-3.8,1.3-3.9C174.4,165.7,175.4,167.2,175.6,169.2
	"/>
<path class="st6" d="M175.6,169.2c0.3,2-0.2,3.8-1.2,3.9c-1,0.1-2-1.4-2.3-3.4s0.2-3.8,1.3-3.9C174.4,165.7,175.3,167.2,175.6,169.2
	z"/>
<path class="st0" d="M172.6,173.1c-0.9,0.1-1.8-1.3-2.1-3s0.2-3.4,1.1-3.5l1.1-0.2c0.9-0.1,1.8,1.3,2,3c0.3,1.8-0.2,3.4-1,3.5
	L172.6,173.1"/>
<path class="st6" d="M172.6,173.1c-0.9,0.1-1.8-1.3-2.1-3s0.2-3.4,1.1-3.5l1.1-0.2c0.9-0.1,1.8,1.3,2,3c0.3,1.8-0.2,3.4-1,3.5
	L172.6,173.1z"/>
<path class="st6" d="M172,166.9c0.9,0.6,1.5,1.6,1.5,2.7c0.2,1,0.1,2-0.5,2.8"/>
<path class="st6" d="M171.5,168.3c0,0.4,0.2,2.4,0.3,3"/>
<line class="st6" x1="170.7" y1="169.9" x2="172.5" y2="169.8"/>
<path class="st6" d="M185.3,216.7c1.1-1.5,2-12.1,2.3-22.6c0.1-8.4-0.5-16.7-1.8-25c-0.3-2-0.8-3.9-1.7-5.6c-1-1.4-7.2-6.5-8.7-7.9
	c-4.5-3.2-9.6-5.5-14.9-6.9c-1.1-0.4-2.1-0.9-3-1.5c-0.7-0.5-1.6-0.8-2.5-0.9c-1.3,0.3-2.5,0.7-3.8,1.1c-2.8,2.7-4.4,6.4-4.4,10.2"
	/>
<path class="st6" d="M151.1,148.1c-0.2,0.4-0.3,0.8-0.3,1.3c-0.1,1.1,0.2,2.3,0.9,3.1c3.5,2.2,7.2,4,11,5.4c1.5,0.6,6.6,0.3,8.9-0.3
	l3.6-0.9"/>
<path class="st6" d="M172.5,158.8c0,0,4.3,7.5,4.7,13.6"/>
<path class="st6" d="M171.1,158.8c-0.5,0.5-0.8,1.1-1.1,1.8c-0.7,1.4-3.6,7.8-3.6,7.8c-1,2.2-0.1,4.7,2,5.8c2.7,1.6,7,1,8.5-1.3"/>
<path class="st6" d="M177.9,173.7c0,0,1.3,9.2,1.3,11.3c0,2.1,0.3,4-3.8,5.4"/>
<path class="st6" d="M164.5,194.9c-10.7,4.2-27.3,10.5-40.5,12.5"/>
<path class="st6" d="M124.3,201.3c12.6-1.9,24.9-5.3,36.6-10.2c6.3-2.6,14.3-3.8,15.2-3.4"/>
<path class="st6" d="M122.5,207c0,0-9.8-8.2-10.7-12.6"/>
<path class="st6" d="M126.9,180.1c-6.9,5.2-12.8,10.1-13.1,10.5c-1.2,1.3-2.7,3.2-2.9,4.2c0,3.9,0.2,7.9,0.7,11.8
	c0.2,1.7,0.7,3.4,1.6,4.9c1.3,2.5,7.9,9.4,9.9,10.3c2.4,1,5.2,0.3,6.7-1.8"/>
<path class="st6" d="M141.9,169.5c-1.1,0.7-2.4,1.5-3.7,2.4"/>
<path class="st6" d="M127.1,183.3c0,0,0-5.9-0.1-6.3c0-0.5,0.2-0.9,0.6-1.1c0.5-0.2,1.1,0,1.4,0.4c1.5,1.5,8.5,4,15.3-0.4"/>
<path class="st6" d="M127.8,177.2c2,2.4,9.4,4.5,16.2,0.2"/>
<path class="st6" d="M128.1,184.3c2.9,1.9,13.8-0.9,15.8-5.9"/>
<path class="st6" d="M124.2,194c0.4,0.2,0.8,0.4,1.3,0.6l1.7-1.7c-0.3-0.1-0.6-0.3-0.9-0.4L124.2,194z"/>
<path class="st6" d="M129.1,193.4c-0.4-0.1-0.7-0.2-1.1-0.3l-1.7,1.7c0.5,0.1,0.9,0.3,1.4,0.4L129.1,193.4z"/>
<path class="st6" d="M125.7,192.1c-0.5-0.3-0.9-0.7-1.3-1.1c-0.6-0.7-0.8-1.6-0.7-2.5l1.7-0.3l-2.1-2L120,189l1.4-0.2
	c-0.1,1.3,0.2,2.7,1.1,3.7c0.4,0.4,0.8,0.7,1.3,1L125.7,192.1z"/>
<path class="st6" d="M129.8,193.5l-1.4,1.8c0.7,0.1,1.5,0.2,2.3,0.3l1.6-1.8C131.5,193.7,130.7,193.7,129.8,193.5z"/>
<path class="st6" d="M167.8,199.9c-0.8-2,0.6-4.3,3-5.3c2.4-0.9,5-0.1,5.8,1.9"/>
<path class="st6" d="M176.6,196.5c0.8,2-0.6,4.3-3,5.3s-5,0.1-5.8-1.9"/>
<path class="st6" d="M176.3,197.4c-0.5,1.4-1.6,2.5-3,3c-1.6,0.7-3.5,0.5-4.9-0.6"/>
<path class="st6" d="M175.8,196.4c-0.6,1.2-1.6,2.1-2.9,2.5c-1.6,0.7-3.4,0.5-4.8-0.6"/>
<path class="st6" d="M175.2,195.6c-0.6,0.8-1.5,1.5-2.4,1.8c-1.3,0.5-2.8,0.5-4.1-0.1"/>
<path class="st6" d="M178.3,195.8c1.1,2.7-0.8,6-4.2,7.3s-7,0.1-8.1-2.6c-1.1-2.7,0.8-6,4.2-7.3S177.3,193.1,178.3,195.8z"/>
<path class="st6" d="M178.4,194.4v0.1c1,3.8-1.2,7.8-5,8.8c-3.2,0.9-6.6-0.6-8.2-3.5"/>
<path class="st6" d="M164.7,197.4c0.2-2.9,2.1-5.5,4.8-6.5c3.2-1.3,6.8-0.1,8.5,2.9"/>
<path class="st6" d="M114,191.6c2.6,3.7,5.8,7,9.5,9.7"/>
<path class="st6" d="M152.9,186.6c8.2-1.4,19.5-2.1,25.2,0.3"/>
<path class="st6" d="M254.3,175.2c-0.4,0.9-0.7,1.3-1.2,1.4l-34.4,10.6c-0.4,0.1-0.8-0.1-0.9-0.4c0-0.1,0-0.2,0-0.3l0.3-10.3
	c0-0.6,0.4-1.1,0.9-1.3l37.1-11.1c0.4-0.1,0.8,0.1,0.9,0.4c0,0.1,0,0.2,0,0.3L254.3,175.2z"/>
<path class="st2" d="M190.7,198.2c-0.3,0.1-0.7,0.1-1-0.1c-0.2-0.2-0.4-0.6-0.4-0.9c0-0.3,0.1-0.5,0.2-0.8c0.1-0.2,0.3-0.5,0.5-0.6
	c0.2-0.2,0.4-0.3,0.7-0.3c0.2-0.1,0.5-0.1,0.7,0c0.2,0.1,0.4,0.2,0.5,0.4c0.1,0.2,0.2,0.4,0.2,0.7c0,0.3-0.1,0.5-0.2,0.8
	c-0.1,0.2-0.3,0.4-0.5,0.6C191.1,198.1,190.9,198.2,190.7,198.2 M190.7,197.8c0.3-0.1,0.6-0.2,0.8-0.5c0.2-0.2,0.3-0.5,0.3-0.8
	c0-0.2-0.1-0.5-0.3-0.7c-0.2-0.2-0.5-0.2-0.8-0.1c-0.2,0-0.4,0.1-0.6,0.3c-0.2,0.1-0.3,0.3-0.4,0.4c-0.1,0.2-0.1,0.4-0.1,0.6
	c0,0.2,0.1,0.5,0.2,0.7C190.1,197.9,190.4,198,190.7,197.8L190.7,197.8z"/>
<polyline class="st2" points="192,194.6 189.4,195.3 189.4,194.9 191.5,192.8 189.4,193.3 189.4,192.9 192.1,192.3 192.1,192.7 
	190,194.8 192,194.3 192,194.6 "/>
<line class="st6" x1="140.4" y1="223.5" x2="140.4" y2="219.2"/>
<line class="st6" x1="155.2" y1="218.7" x2="155.2" y2="215"/>
<path class="st6" d="M128.7,222.3v0.8c-0.3,0.8-1.6,1.4-3.2,1.4c-1.8,0-3.3-0.8-3.3-1.7v-1.1"/>
<path class="st6" d="M167.2,209.3l-0.1,1.4c-0.6,1-1.7,1.5-2.9,1.4c-0.9,0-1.7-0.2-2.4-0.8"/>
<polyline class="st2" points="189.4,190 189,190.1 189,188.6 189.4,188.5 189.4,189 192.2,188.3 192.2,187.8 192.6,187.7 
	192.6,189.2 192.2,189.3 192.2,188.8 189.4,189.5 189.4,190 "/>
<line class="st6" x1="209.8" y1="180.3" x2="209.7" y2="192.6"/>
<line class="st6" x1="206.7" y1="181.9" x2="206.6" y2="194.3"/>
<line class="st6" x1="205.2" y1="182.5" x2="205.1" y2="194.9"/>
<line class="st6" x1="203.6" y1="183.1" x2="203.6" y2="195.5"/>
<line class="st6" x1="202.1" y1="183.7" x2="202.1" y2="196.1"/>
<path class="st6" d="M207.8,180.7l6-1.8c1.4-0.3,2.8,0.4,3.2,1.8"/>
<path class="st6" d="M207,180.3c0.6,0.2,1,0.7,1.1,1.3c0,1-0.1,12.6-0.1,12.6"/>
<path class="st0" d="M146.7,157.8c-0.2-0.5-0.3-0.9-0.4-1.4c-0.3-1.9,0.2-3.5,1.1-3.6l1.1-0.2c0.1,0,0.2,0,0.3,0"/>
<path class="st6" d="M146.7,157.8c-0.2-0.5-0.3-0.9-0.4-1.4c-0.3-1.9,0.2-3.5,1.1-3.6l1.1-0.2c0.1,0,0.2,0,0.3,0"/>
<path class="st6" d="M164.6,165.3l-6,13.5c-1.1,2.4-3.1,5.3-6.5,5.9"/>
<path class="st6" d="M151.8,160.1l-5.1,14.6c0,0-0.3,1.1-1.1,1.3"/>
<path class="st6" d="M154,161.1l-5.6,14.6c-0.5,1.3-1.7,4-3.1,4.9"/>
<path class="st6" d="M163.3,167.2c-2.9-1-5.7-2.2-8.4-3.6c0,0-0.3,0-0.3,0.3c0.1,0.9,0.2,1.7,0.5,2.5"/>
<path class="st6" d="M155.5,166.7c2.3,1.1,4.6,2,6.9,2.8"/>
<path class="st6" d="M151.2,161.2c-1.2-0.8-2.2-1.8-3-3c0,0.8,0,1.6,0.2,2.4c0.7,0.9,1.4,1.7,2.2,2.5"/>
<path class="st6" d="M160.7,174c-2.9-1-5.6-2.3-8.3-3.8"/>
<line class="st6" x1="152.2" y1="170.5" x2="151.3" y2="173.3"/>
<path class="st6" d="M151.3,173.6c2.6,1.4,5.3,2.5,8.2,3.3"/>
<path class="st6" d="M149.7,179.3c2,1.2,4.1,2.2,6.3,2.9"/>
<path class="st6" d="M150,174.8c2.6,1.6,5.4,2.9,8.3,3.8"/>
<path class="st6" d="M153,166.9c2.8,1.4,5.7,2.7,8.7,3.8"/>
<path class="st6" d="M149.1,167.9c-1.1-1-2-2.1-2.8-3.4"/>
<path class="st6" d="M147.8,170.6c-1.1-0.8-2-1.9-2.7-3.1"/>
<line class="st6" x1="145.1" y1="167.6" x2="145.9" y2="164.6"/>
<line class="st6" x1="149.7" y1="175" x2="149.5" y2="179"/>
<line class="st6" x1="149.1" y1="179.4" x2="146.2" y2="180.7"/>
<line class="st6" x1="151.1" y1="173.7" x2="149.8" y2="174.4"/>
<line class="st6" x1="144.7" y1="167.7" x2="143.6" y2="167.9"/>
<line class="st6" x1="152.5" y1="167.2" x2="152.4" y2="169.7"/>
<line class="st6" x1="154.4" y1="166.4" x2="153.2" y2="166.6"/>
<path class="st6" d="M149.8,165.1c-1.4-1-2.4-2.3-3-3.9"/>
<path class="st6" d="M147.2,172.4c-1.5-1.2-2.8-2.6-3.8-4.3"/>
<path class="st6" d="M146.3,174.8c-1.3-1.1-2.4-2.4-3.3-3.8"/>
<line class="st6" x1="148.1" y1="160.8" x2="147" y2="161"/>
<path class="st6" d="M163.9,165.2c-3.2-1.2-6.3-2.6-9.4-4.2"/>
<path class="st6" d="M142.8,174.7c0,1.5-2.8,2.7-6.2,2.7s-6.2-1.3-6.2-2.7s2.8-2.7,6.2-2.7S142.8,173.2,142.8,174.7z"/>
<path class="st6" d="M141.8,174.3c0,1-2.3,1.9-5.2,1.9s-5.1-0.8-5.1-1.9c0-1,2.3-1.9,5.1-1.9S141.8,173.3,141.8,174.3z"/>
<path class="st6" d="M139.9,174.1c0,0.7-1.5,1.3-3.3,1.3s-3.3-0.6-3.3-1.3c0-0.7,1.5-1.3,3.3-1.3
	C138.5,172.8,139.9,173.4,139.9,174.1z"/>
<path class="st6" d="M130,176.8v-1.9c0-1.6,3-3,6.6-3s6.4,1.3,6.6,2.8v1.6"/>
<path class="st20" d="M138.4,173.8c0,0.3-0.8,0.6-1.7,0.6s-1.7-0.3-1.7-0.6c0-0.3,0.8-0.6,1.7-0.6S138.4,173.5,138.4,173.8"/>
<path class="st6" d="M138.4,173.8c0,0.3-0.8,0.6-1.7,0.6s-1.7-0.3-1.7-0.6c0-0.3,0.8-0.6,1.7-0.6S138.4,173.5,138.4,173.8z"/>
<path class="st6" d="M128.9,223.2c3.8,1.3,7.8,1.7,11.7,1.1l14.7-4.6c2.6-1.5,4.3-4.3,4.3-7.3"/>
<path class="st6" d="M150.2,150.4c0,0-0.9,2.1-1.8,3.5s-7.4,18.2-7.4,18.2"/>
<path class="st6" d="M128,219.9c5.5-0.1,10.9-0.9,16.2-2.4c9.3-2.5,19.2-5.9,21.9-9.5"/>
<path class="st6" d="M164.7,209.5c0.8,0.1,1.5,0,2.2-0.2c0.5-0.6,0.9-1.3,1.1-2"/>
<path class="st6" d="M144.1,215.4c0,0,6.4-2.5,13.6-4.9c7.2-2.4,12.4-3.8,12.4-3.8c2.1-0.9,4.5-0.5,6.3,0.9"/>
<path class="st6" d="M151.2,159.7c-1.1-1-2.1-2-3-3.1"/>
<path class="st6" d="M160.4,148.8l4.3-0.8c2.3-0.2,4.6,0,6.8,0.6c2.7,0.5,5.4,1.4,8,2.4c5.7,3,11.2,6.5,13.1,7.7s4.2,3.3,4,6.9
	l-0.5,9.5"/>
<path class="st6" d="M189.2,155.3c4.8,2.9,14,7.5,14.5,10.7"/>
<line class="st6" x1="202.8" y1="171" x2="198.6" y2="178.9"/>
<path class="st6" d="M203.7,170.6l6.5-1.6c1.9-0.3,3.8,1,4.1,2.9c0,0.1,0,0.2,0,0.3"/>
<path class="st6" d="M214.8,175.3c-1.3,1.5-3,2.6-4.8,3.3c-3.4,1.3-16.6,5.4-16.6,5.4s0.1,11.4-0.2,15.7"/>
<path class="st6" d="M214.8,173c-1.3,1.5-3,2.6-4.8,3.3c-1.5,0.6-5.2,1.8-8.6,2.9"/>
<line class="st6" x1="194" y1="199.3" x2="210.2" y2="193.7"/>
<path class="st0" d="M177.1,214.8c0.3,2.1-0.2,3.9-1.2,4c-1,0.1-2-1.4-2.3-3.5c-0.3-2.1,0.2-3.9,1.3-4.1S176.8,212.7,177.1,214.8"/>
<path class="st6" d="M177.1,214.8c0.3,2.1-0.2,3.9-1.2,4c-1,0.1-2-1.4-2.3-3.5c-0.3-2.1,0.2-3.9,1.3-4.1S176.8,212.7,177.1,214.8z"
	/>
<path class="st0" d="M174,218.9c-0.9,0.1-1.8-1.3-2.1-3.2c-0.3-1.9,0.2-3.5,1.1-3.6l1.1-0.2c0.9-0.1,1.8,1.3,2,3.2
	c0.3,1.9-0.2,3.5-1,3.6L174,218.9"/>
<path class="st6" d="M174,218.9c-0.9,0.1-1.8-1.3-2.1-3.2c-0.3-1.9,0.2-3.5,1.1-3.6l1.1-0.2c0.9-0.1,1.8,1.3,2,3.2
	c0.3,1.9-0.2,3.5-1,3.6L174,218.9z"/>
<path class="st6" d="M173.5,212.4c0.7,0.2,1.3,1.4,1.5,2.8c0.2,1,0.1,2.1-0.5,2.9"/>
<path class="st6" d="M173,213.8c0,0.4,0.2,2.5,0.3,3.1"/>
<line class="st6" x1="172.1" y1="215.5" x2="173.9" y2="215.5"/>
<path class="st6" d="M174.9,206.7c3.1,1.9,4.6,3.3,4.6,4.8s0,5.4-1,7"/>
<path class="st6" d="M243.7,140.8c5.8-0.1,11.8,1.1,15.9,9c3.4,5.9,4,13.1,1.6,19.5c-1.9,5.6-3.8,9.9-8.5,12.5"/>
<path class="st6" d="M262.1,139.1c0,0,4.1,2,5.3,2.9"/>
<path class="st6" d="M268.1,142.3c0,0,39.9-6.9,40.8-7c1.1,0,2.1,0.2,3.1,0.6c1,0.3,5.3,2.5,5.3,2.5"/>
<line class="st6" x1="263.1" y1="138.8" x2="297.7" y2="130.5"/>
<path class="st6" d="M274.3,147.3l36.3-4.1c0.5,0.1,1,0.3,1.4,0.7c0.6,0.6,3.4,2.4,3.4,3.3"/>
<path class="st6" d="M315.4,148.2c0,0-1.5,9.9-6.1,12.8"/>
<line class="st6" x1="279.1" y1="146.6" x2="311.4" y2="141.8"/>
<path class="st6" d="M306.9,146l4.8-0.9c0,0,0.4,10.4-4.6,16.1"/>
<path class="st6" d="M301.1,147.2l4.5-0.9c0,0,0.7,10.9-5.3,17.5"/>
<path class="st6" d="M294.6,148.4l5.1-1c0,0,0.8,10.7-5.8,18.9"/>
<path class="st6" d="M287.3,149.8l6-1.2c0,0,2,8.9-6,19.9"/>
<path class="st6" d="M280.7,151.1l5.1-1c2,7.9-0.5,16.3-6.5,21.7"/>
<path class="st6" d="M273.4,152.3l5.9-1.1c0,0,3.6,10.1-6.5,22.6"/>
<path class="st6" d="M318.6,140.4c0,0-0.9-1.6-1.4-1.4l-5,1.4c-0.7,0.3-0.3,1.5,0.1,1.7l1.1,0.6"/>
<path class="st6" d="M319.2,142.8c0,0-0.3-0.5-0.6-0.4c-0.3,0.1-3,1.1-3,1.1c-0.4,0.2-0.6,0.5-0.4,0.8c0.3,0.4,0.7,0.7,1.2,1"/>
<path class="st6" d="M319.2,145.5c0,0-0.1-0.3-0.5-0.1l-1.6,0.7c-0.2,0.2-0.3,0.4-0.3,0.7v0.9"/>
<polyline class="st6" points="318.4,148.2 316.8,149 316.5,150.5 "/>
<polyline class="st6" points="317.6,151 316,151.8 315.7,153.3 "/>
<polyline class="st6" points="316.8,153.8 315,154.5 314.6,155.8 "/>
<polyline class="st6" points="315.5,156.4 313.7,157.1 312.8,158.5 "/>
<polyline class="st6" points="311.4,145.2 309,145.7 308.8,147.2 "/>
<polyline class="st6" points="305.6,146.4 302.7,146.9 302.6,148.3 "/>
<polyline class="st6" points="299.6,148.3 296.5,149 296.4,150.5 "/>
<polyline class="st6" points="293.3,149.9 290.2,150.6 290.1,152 "/>
<path class="st6" d="M305,160.3c-0.3,0.5-0.6,0.9-0.9,1.4"/>
<path class="st6" d="M306.3,157.6c-0.2,0.5-0.4,1-0.7,1.4"/>
<path class="st6" d="M307.4,154.7c-0.2,0.5-0.3,1-0.5,1.5"/>
<path class="st6" d="M308.2,151.8c-0.1,0.5-0.3,1-0.4,1.6"/>
<path class="st6" d="M311.4,148l-2.7,0.8c0,0-0.1,0.6-0.3,1.7"/>
<path class="st6" d="M298.9,162.3c-0.3,0.5-0.6,0.9-0.9,1.3"/>
<path class="st6" d="M300.2,159.4c-0.2,0.5-0.4,0.9-0.6,1.4"/>
<path class="st6" d="M301.3,156.5c-0.1,0.5-0.3,0.9-0.5,1.4"/>
<path class="st6" d="M302.1,153.6c-0.1,0.5-0.3,1-0.4,1.6"/>
<path class="st6" d="M305.7,149.6l-2.9,0.8c0,0-0.1,0.6-0.3,1.7"/>
<path class="st6" d="M292.7,164.2c-0.3,0.7-0.7,1.3-1.1,1.9"/>
<path class="st6" d="M294,161.3c-0.2,0.6-0.4,1.1-0.7,1.7"/>
<path class="st6" d="M295,158.4c-0.2,0.6-0.4,1.1-0.6,1.7"/>
<path class="st6" d="M295.8,155.4c-0.1,0.5-0.2,1-0.4,1.5"/>
<path class="st6" d="M299.7,151.3l-3.2,0.9c0,0-0.1,0.7-0.4,1.8"/>
<path class="st6" d="M286.5,166.1c-0.4,0.8-0.8,1.6-1.4,2.2"/>
<path class="st6" d="M287.7,163.2c-0.2,0.6-0.4,1.3-0.7,1.8"/>
<path class="st6" d="M288.6,160.4c-0.2,0.6-0.3,1.1-0.5,1.7"/>
<path class="st6" d="M289.4,157.2c-0.2,0.6-0.3,1.3-0.5,2"/>
<path class="st6" d="M293.4,153.2l-3.3,0.8c0,0-0.2,0.8-0.4,2"/>
<line class="st6" x1="308.3" y1="151.7" x2="311.2" y2="150.9"/>
<line class="st6" x1="302.3" y1="153.4" x2="305.2" y2="152.6"/>
<line class="st6" x1="296" y1="155.3" x2="299.3" y2="154.3"/>
<line class="st6" x1="289.4" y1="157.1" x2="293" y2="156.1"/>
<line class="st6" x1="307.5" y1="154.6" x2="310.6" y2="153.7"/>
<line class="st6" x1="301.5" y1="156.4" x2="304.6" y2="155.5"/>
<line class="st6" x1="295.2" y1="158.3" x2="298.6" y2="157.2"/>
<line class="st6" x1="288.7" y1="160.2" x2="292.1" y2="159.2"/>
<line class="st6" x1="306.5" y1="157.4" x2="309.7" y2="156.5"/>
<line class="st6" x1="300.4" y1="159.3" x2="303.7" y2="158.3"/>
<line class="st6" x1="294" y1="161.2" x2="297.6" y2="160.1"/>
<line class="st6" x1="287.7" y1="163.1" x2="290.9" y2="162.2"/>
<line class="st6" x1="304.8" y1="160.3" x2="308.4" y2="159.2"/>
<line class="st6" x1="298.9" y1="162.2" x2="302.2" y2="161.2"/>
<line class="st6" x1="292.8" y1="164.1" x2="296.2" y2="163"/>
<line class="st6" x1="286.5" y1="166.1" x2="289.4" y2="165.2"/>
<path class="st6" d="M111.5,206.6c2.5,4.7,6.1,8.8,10.5,11.8c1.1,0.8,4.2,0.6,6,0.6c1.8,0,28.4-3.1,36.5-10.6"/>
<line class="st6" x1="123.3" y1="208.9" x2="123.3" y2="217.6"/>
<line class="st6" x1="207.4" y1="181.4" x2="201.1" y2="183.6"/>
<line class="st6" x1="211.1" y1="179.9" x2="211.1" y2="192.3"/>
<line class="st6" x1="212.5" y1="179.7" x2="212.4" y2="192.1"/>
<line class="st6" x1="213.8" y1="179.6" x2="213.8" y2="191.9"/>
<line class="st6" x1="215.2" y1="179.4" x2="215.1" y2="191.8"/>
<line class="st6" x1="195.2" y1="183.8" x2="195.2" y2="197.2"/>
<path class="st6" d="M211.8,177.9c2.1-0.7,3.9-0.7,4.7,1.2c1,2.3,2.3,7.4-0.3,12c0,0-0.3,0.5-1.5,0.8c-1.3,0.3-5.5,1.3-6.2,1.6
	l-0.3,0.4l-7.4,2.6c-0.8,0.3-1.7,0.3-2.4-0.1c-0.4-0.3-0.8-0.7-1.1-1.1V194"/>
<polyline class="st6" points="197.7,187.1 196,187.5 195.2,187.1 "/>
<polyline class="st6" points="197.7,193.7 196,194.1 195.2,193.6 "/>
<polyline class="st6" points="197.7,184.5 196,184.9 195.2,184.4 "/>
<polyline class="st6" points="197.7,191.4 196,191.8 195.2,191.3 "/>
<polyline class="st6" points="198,194.6 198,184.3 196.6,183.7 196.6,183.3 "/>
<path class="st6" d="M199.5,151.6c0,0,6.4,2.7,8.9,5l47.3-6.1"/>
<path class="st0" d="M303.8,214.8c-2.7-2-5.7-3.8-8.8-5.2c-2.3-0.9-30.4-10.2-30.4-10.2h-16.1l0.7,23l26.4,19.3l2.5,1.3
	c2,1,4.3,1.5,6.6,1.5c4.5,0.1,8.2-1.3,12.1-3.5l8-10.2c0,0,0.7-12.4,0.7-12.8C305.3,216.8,304.7,215.7,303.8,214.8L303.8,214.8z"/>
<path class="st0" d="M282.8,234.3l-0.6,0.2l0.3,0.6l-0.1,1l-1.1,0.4v0.6l-3.2,0.9c0.4-1.5,0.6-2.9,0.7-4.5c-0.1-2-0.6-3.9-1.3-5.7
	c-0.2-0.5,0.1-1,0.6-1.2c0,0,0.1,0,0.1,0l3.7-0.9v0.2v0.5l-0.4,0.1l0.4,1l0.3,0.1c0.2,0.4,0.4,0.9,0.4,1.4l-0.3,0.2v0.8l0.5,0.4
	C283,231.7,283.1,233,282.8,234.3z"/>
<path class="st6" d="M291.5,208.9c-3.5-0.7-10.1,0.4-13.5,4.3"/>
<line class="st6" x1="277.8" y1="214" x2="277" y2="220.8"/>
<path class="st6" d="M263.3,199.8c-2.1,0.2-4.1,0.8-6.1,1.6c-0.2,0.1-0.6,0.4,0.3,1c0.9,0.6,18.6,11,18.6,11s0.5,0.2,0.4,1
	c-0.6,2.4-0.9,4.8-0.8,7.3"/>
<path class="st6" d="M303.3,215.4c-4.9-1.8-13.8-1.8-25.8,6.1"/>
<path class="st6" d="M275.4,223.2c-0.7,1.1-1.1,2.4-1.4,3.7c-0.4,3.4-0.6,6.9-0.7,10.3c0.2,1.7,0.8,3.8,2.5,4.7"/>
<path class="st6" d="M283.2,225.6l-5,1.2c-0.5,0.1-0.9,0.6-0.8,1.1c0,0,0,0.1,0,0.1c0.7,1.8,1.1,3.8,1.3,5.7c0,1.5-0.3,3-0.7,4.5
	c0,0.4,0.1,0.8,0.2,1.3"/>
<path class="st6" d="M276.6,227.5c-0.1,0.2-0.1,0.4,0,0.6c0.7,1.8,1.1,3.8,1.3,5.7c0,1.5-0.3,3-0.7,4.5c0,0.4,0.1,0.8,0.2,1.3"/>
<line class="st6" x1="283.6" y1="226" x2="283.6" y2="237.1"/>
<line class="st6" x1="278.4" y1="239" x2="283.4" y2="237.5"/>
<path class="st6" d="M284.6,244.4c-3.4-0.3-7.3-1.2-7.9-5.2c-0.5-4.1-0.8-8.2-0.9-12.3c-0.1-1.6,0.1-3.2,0.6-4.7"/>
<path class="st6" d="M281.9,226v0.5l-0.4,0.1l0.4,1l0.3,0.1c0.2,0.4,0.4,0.9,0.4,1.4l-0.3,0.2v0.8l0.5,0.4c0.3,1.3,0.3,2.6,0,3.9
	l-0.6,0.2l0.3,0.6l-0.1,1l-1.1,0.4v0.6l-3.2,0.9"/>
<line class="st6" x1="278.7" y1="235.4" x2="282.8" y2="234.4"/>
<line class="st6" x1="278.4" y1="236.4" x2="282.5" y2="235.4"/>
<line class="st6" x1="278.2" y1="237.3" x2="282.3" y2="236.3"/>
<line class="st6" x1="278.8" y1="231.4" x2="282.6" y2="230.6"/>
<line class="st6" x1="278.6" y1="229.9" x2="282.6" y2="229.1"/>
<line class="st6" x1="278.3" y1="228.6" x2="282.2" y2="227.7"/>
<line class="st6" x1="277.6" y1="227.5" x2="281.7" y2="226.5"/>
<line class="st6" x1="278.6" y1="230.9" x2="282.1" y2="230.1"/>
<path class="st2" d="M281.2,234.3h-0.3v-1.7c-0.1,0.1-0.2,0.1-0.3,0.2l-0.3,0.2v-0.2c0.2-0.1,0.3-0.2,0.5-0.3
	c0.1-0.1,0.2-0.2,0.3-0.3h0.2V234.3L281.2,234.3z"/>
<path class="st6" d="M285.2,222.9c-0.6,0.8-1.8,0.9-2.6,0.3c-0.8-0.6-0.9-1.8-0.3-2.6c0.5-0.7,1.5-0.9,2.3-0.5
	C285.6,220.8,285.8,222,285.2,222.9z"/>
<path class="st6" d="M297.5,223.1c-1,1.9-3,2.9-4.4,2.1c-1.4-0.7-1.7-2.9-0.7-4.8c1-1.9,3-2.9,4.4-2.2
	C298.1,219,298.5,221.2,297.5,223.1z"/>
<path class="st6" d="M302.6,235.6c-1.6,3.1-4.7,4.7-6.9,3.6c-2.2-1.1-2.6-4.6-1-7.7s4.7-4.7,6.9-3.6S304.2,232.5,302.6,235.6z"/>
<path class="st6" d="M296,239.3c2.1,0.9,5-0.7,6.6-3.7c1.5-3,1.2-6.5-1-7.7"/>
<path class="st6" d="M295.1,240.3c-2.6-1.4-3.1-5.5-1.2-9.2c1.9-3.7,5.6-5.6,8.2-4.3c2.6,1.4,3.1,5.5,1.2,9.2
	C301.4,239.8,297.7,241.7,295.1,240.3"/>
<path class="st6" d="M293.2,225.3L293.2,225.3c-1.5-0.7-1.8-2.9-0.8-4.8c1-1.9,3-2.9,4.4-2.2l0,0"/>
<path class="st6" d="M295.8,218.2c0.6,1.2,0.6,2.7-0.1,3.9c-0.6,1.2-1.7,2.1-3,2.3"/>
<path class="st6" d="M283.2,220.2c0.3-0.1,0.6,0,0.9,0.1c0.8,0.6,0.9,1.8,0.2,2.5c-0.5,0.5-1.2,0.8-1.9,0.6
	c-0.3-0.2-0.5-0.4-0.6-0.7"/>
<path class="st6" d="M288.1,229.5c0,0.2-0.1,0.3-0.3,0.4l-1.3,0.3c-0.1,0-0.2,0-0.3-0.1c0,0,0-0.1,0-0.1v-10.6
	c0-0.2,0.1-0.3,0.3-0.4l1.4-0.5c0.1,0,0.2,0,0.3,0.2c0,0,0,0.1,0,0.1L288.1,229.5z"/>
<path class="st6" d="M290.9,228.9c0,0.2-0.1,0.3-0.3,0.4l-1.3,0.3c-0.1,0-0.3,0-0.3-0.2c0,0,0,0,0-0.1v-10.9c0-0.2,0.1-0.3,0.3-0.4
	l1.4-0.4c0.1,0,0.2,0,0.3,0.2c0,0,0,0.1,0,0.1L290.9,228.9z"/>
<path class="st6" d="M299.4,225.2c-0.3-0.2-0.6-0.6-0.6-1l0.2-7.5c0-0.2,0.1-0.3,0.3-0.3l1.1,0.1c0.2,0,0.3,0.2,0.2,0.4l-0.2,7.8
	c0,0.2,0,0.4,0.2,0.6"/>
<path class="st6" d="M301.6,225.8c-0.4-0.4-0.6-0.9-0.5-1.4l0.2-7.5c0-0.2,0.1-0.3,0.2-0.3l0.9,0.1c0.2,0,0.3,0.2,0.3,0.3l-0.3,8.3"
	/>
<path class="st6" d="M288.1,242.1c0,0.2-0.1,0.3-0.3,0.4h-1.3c-0.2,0-0.3-0.1-0.3-0.3v-10.3c0-0.2,0.1-0.3,0.3-0.4l1.3-0.3
	c0.2,0,0.3,0.1,0.3,0.3V242.1z"/>
<path class="st6" d="M291.2,234c-0.2-0.7-0.3-1.5-0.3-2.2v-0.9c0-0.2-0.1-0.3-0.3-0.3l-1.3,0.3c-0.2,0.1-0.3,0.2-0.3,0.4v10.6
	c0,0.2,0.1,0.3,0.3,0.3h1.3c0.2-0.1,0.3-0.2,0.3-0.4v-3c0-1,0.1-2,0.4-3"/>
<path class="st0" d="M295.9,222.3c-0.7,0.8-1.9,1-2.8,0.3c-0.8-0.7-1-1.9-0.3-2.8c0.6-0.7,1.6-1,2.4-0.5
	C296.3,220,296.6,221.3,295.9,222.3z"/>
<path class="st6" d="M295.9,222.3c-0.7,0.8-1.9,1-2.8,0.3c-0.8-0.7-1-1.9-0.3-2.8c0.6-0.7,1.6-1,2.4-0.5
	C296.3,220,296.6,221.3,295.9,222.3z"/>
<path class="st6" d="M295.8,221l-0.3-0.4c-0.2,0.3-0.5,0.6-0.7,0.8c-0.2-0.5-0.4-0.9-0.4-0.9l-0.5,0.4c0,0,0.2,0.4,0.5,0.9
	c-0.3,0.2-0.5,0.4-0.8,0.6l0.3,0.4c0.3-0.2,0.5-0.4,0.8-0.6c0.1,0.2,0.2,0.4,0.3,0.6l0.5-0.4l-0.3-0.7
	C295.3,221.6,295.6,221.3,295.8,221z"/>
<path class="st6" d="M302.3,225.6c0,0.2-0.1,0.4-0.2,0.6"/>
<path class="st6" d="M304,217.3c-0.2-0.2-0.5,0.2-0.5,0.5c0,0.3-0.5,8-0.5,8c-0.1,0.5,0,1,0.2,1.5"/>
<path class="st6" d="M304.2,217.5c0.2,0.7,0.4,1.5,0.5,2.3c0,0.7-0.4,8.9-0.4,8.9"/>
<path class="st6" d="M293.5,239.7c-2.5-1.4-3-5.6-1-9.3c2-3.8,5.7-5.8,8.3-4.5"/>
<path class="st6" d="M301.6,226.1c3.5,1.7,3.8,6.2,1.8,10c-2,3.8-5.4,6.1-9.6,4"/>
<path class="st6" d="M268.7,219c0,0,0.5-1.2,1.1-1s4.5,2.1,4.5,2.1c0.5,0.3,0.8,0.9,0.6,1.5c-0.2,0.4-0.5,1.3-0.9,1.3"/>
<path class="st6" d="M269.4,222.6c0,0,0.1-0.4,0.7-0.2s3.3,1.6,3.3,1.6c0.3,0.2,0.5,0.5,0.4,0.9c0,0.4,0,1.1-0.6,1"/>
<path class="st6" d="M268.7,219.4c0,0.4,0.1,0.8,0.2,1.1l4.8,2.4"/>
<path class="st6" d="M269.4,223c0,0.5,0.1,0.9,0.3,1.4l3.3,1.5"/>
<path class="st6" d="M269.6,226.3c0,0,0.1-0.4,0.6-0.2s2.8,1.3,2.8,1.3c0.3,0.2,0.4,0.5,0.4,0.8c0,0.3,0.1,1.2-0.4,1.1"/>
<path class="st6" d="M269.6,226.7c0,0.4,0.1,0.8,0.3,1.2l2.9,1.3"/>
<path class="st6" d="M269.6,229.1c0,0,0.1-0.4,0.6-0.2c0.5,0.2,2.7,1.2,2.7,1.2c0.3,0.2,0.4,0.5,0.4,0.8c0,0.3,0.1,1-0.3,0.9"/>
<path class="st6" d="M269.4,231.7c0,0,0.1-0.4,0.6-0.2c0.5,0.2,2.7,1.3,2.7,1.3c0.3,0.2,0.4,0.4,0.4,0.7c0,0.3,0.1,1-0.3,0.9"/>
<path class="st6" d="M269.4,234.2c0,0,0.1-0.3,0.6-0.2s2.6,1.2,2.6,1.2c0.2,0.2,0.4,0.4,0.3,0.7c0,0.3,0.1,1-0.3,0.9"/>
<path class="st6" d="M269.6,229.2c0,0.4,0.1,0.8,0.2,1.2l2.8,1.3"/>
<path class="st6" d="M269.4,231.9c0,0.4,0.1,0.8,0.2,1.2l2.8,1.3"/>
<path class="st6" d="M269.4,234.4c0,0.4,0.1,0.8,0.2,1.1l2.8,1.3"/>
<path class="st6" d="M269.9,236.3l2.6,1.3c0.3,0.3,0.6,0.7,0.6,1.1"/>
<path class="st6" d="M270,237.5c-2-3-1.1-8.5-0.7-11.6"/>
<path class="st6" d="M269.2,225.3c-0.6-1.8-1-3.7-1.1-5.6"/>
<line class="st6" x1="267.8" y1="219.2" x2="249.8" y2="203.7"/>
<line class="st6" x1="250.7" y1="204.9" x2="267" y2="219.8"/>
<path class="st6" d="M267.3,220.2c0.1,2,0.4,3.9,0.9,5.9"/>
<path class="st6" d="M268.1,226.8c0,0-1.3,8.2,1.3,10.4"/>
<line class="st6" x1="257.9" y1="214.8" x2="250.3" y2="209.2"/>
<line class="st6" x1="259.1" y1="215.6" x2="257.9" y2="214.8"/>
<line class="st6" x1="262.6" y1="218.2" x2="261.3" y2="217.2"/>
<path class="st6" d="M266.5,235c-2.6-5-0.1-14-0.1-14l-1.3-1"/>
<path class="st6" d="M262.6,218.2c0,0-2.5,9,0.1,13.9"/>
<path class="st6" d="M259,215.7c0,0-2.5,9,0.1,13.9"/>
<path class="st6" d="M255.9,213.6c-1.6,4.6-1.5,9.6,0.4,14.1"/>
<line class="st6" x1="255.1" y1="216.7" x2="254" y2="216"/>
<line class="st6" x1="255.8" y1="214" x2="254.6" y2="213.3"/>
<line class="st6" x1="258.4" y1="218.7" x2="257.2" y2="217.9"/>
<line class="st6" x1="261.9" y1="220.8" x2="260.5" y2="220"/>
<line class="st6" x1="265.8" y1="223.2" x2="264.6" y2="222.4"/>
<line class="st6" x1="254.7" y1="218.9" x2="253.5" y2="218.1"/>
<line class="st6" x1="258" y1="221.1" x2="256.8" y2="220.3"/>
<line class="st6" x1="261.6" y1="223.4" x2="260.2" y2="222.5"/>
<line class="st6" x1="265.4" y1="225.9" x2="264.1" y2="225.1"/>
<line class="st6" x1="254.9" y1="221.3" x2="253.9" y2="220.6"/>
<line class="st6" x1="257.9" y1="223.3" x2="256.8" y2="222.6"/>
<line class="st6" x1="261.5" y1="225.8" x2="260.1" y2="224.8"/>
<line class="st6" x1="265.3" y1="228.3" x2="264" y2="227.5"/>
<line class="st6" x1="255" y1="223.4" x2="254.1" y2="222.8"/>
<line class="st6" x1="258" y1="225.5" x2="257.1" y2="224.9"/>
<line class="st6" x1="261.6" y1="228" x2="260.4" y2="227.2"/>
<line class="st6" x1="265.3" y1="230.6" x2="264.1" y2="229.8"/>
<line class="st6" x1="255.5" y1="225.2" x2="254.5" y2="224.5"/>
<line class="st6" x1="258.2" y1="227.2" x2="257.5" y2="226.7"/>
<line class="st6" x1="261.9" y1="229.8" x2="260.7" y2="229"/>
<line class="st6" x1="265.6" y1="232.5" x2="264.7" y2="231.9"/>
<polygon class="st6" points="285.8,230.4 285.8,232.3 284.1,231.6 "/>
<path class="st6" d="M264.6,199.4c0,0,28.2,9.3,30.4,10.2c3.1,1.4,6.1,3.2,8.8,5.2c0.9,0.9,1.4,2,1.6,3.1c0,0.4-0.7,12.8-0.7,12.8"
	/>
<path class="st6" d="M296.7,240.9c-3.9,2.2-7.5,3.6-12.1,3.5c-2.3,0.1-4.6-0.4-6.6-1.5l-2.5-1.3l-26.4-19.3"/>
<path class="st0" d="M317.6,251.7l6.1-8.4l-3.6-2.5l-15.4-10.7l-0.2-0.2l-0.1-0.1l-2.2-1.5l-0.6-0.4c-2.2-1.1-5.2,0.5-6.9,3.6
	c-0.1,0.2-0.2,0.3-0.2,0.5c-0.1,0.2-0.1,0.3-0.2,0.5c-0.1,0.2-0.1,0.3-0.2,0.5s-0.1,0.4-0.2,0.6l-0.1,0.4l-0.1,0.4v0.4
	c0,0.2,0,0.4,0,0.6c0,0.1,0,0.2,0,0.3c0,0.1,0,0.2,0,0.3c0,0.2,0,0.3,0.1,0.5c0,0.1,0,0.2,0,0.3l0,0c0,0.2,0.1,0.3,0.2,0.5
	c0.1,0.2,0,0,0,0l0,0l0,0l0,0l0,0l0,0l0,0l0,0c0,0,0,0.1,0,0.1c0,0.1,0,0.1,0.1,0.2c0.1,0.2,0.2,0.3,0.3,0.5
	c0.1,0.1,0.2,0.2,0.3,0.3c0.1,0.1,0.1,0.1,0.2,0.2c0,0,0.1,0.1,0.1,0.1l0,0l0,0l0,0h0.1c0.1,0.1,0.2,0.2,0.4,0.2l0,0l1.2,0.7
	l0.3,0.2l0.2,0.1l0.7,0.4c0,0,0,0,0.1,0.1l0,0l0,0l2.8,1.6c0.2,0.1,0.4,0.2,0.5,0.3l5.1,2.9l1,0.6l1.5,0.8l0.5,0.3l5.6,3.2l1.5,0.8
	L317.6,251.7z"/>
<path class="st6" d="M320.1,240.9l-15.4-10.7l-0.2-0.2l-0.1-0.1l-2.2-1.5l-0.6-0.4c-2.2-1.1-5.2,0.5-6.9,3.6
	c-0.1,0.2-0.2,0.3-0.2,0.5c-0.1,0.2-0.1,0.3-0.2,0.5s-0.1,0.3-0.2,0.5s-0.1,0.4-0.2,0.6l-0.1,0.4l-0.1,0.4v0.4c0,0.2,0,0.4,0,0.6
	c0,0.1,0,0.2,0,0.3c0,0.1,0,0.2,0,0.3c0,0.2,0,0.3,0.1,0.5c0,0.1,0,0.2,0,0.3l0,0l0.1,0.3l0.1,0.2l0,0l0,0l0,0l0,0l0,0l0,0l0,0l0,0
	c0,0,0,0.1,0,0.1c0,0.1,0,0.1,0.1,0.2c0.1,0.2,0.2,0.3,0.3,0.5c0.1,0.1,0.2,0.2,0.3,0.3c0.1,0.1,0.1,0.1,0.2,0.2
	c0,0,0.1,0.1,0.1,0.1l0,0l0,0l0,0h0.1c0.1,0.1,0.2,0.2,0.4,0.2l0,0l1.2,0.7l0.3,0.2l0.2,0.1l0.7,0.4c0,0,0,0,0.1,0.1l0,0l0,0
	l2.8,1.6c0.2,0.1,0.4,0.2,0.5,0.3l5.1,2.9l1,0.6l1.5,0.8l0.5,0.3l5.6,3.2"/>
<circle class="st21" cx="282.1" cy="227.4" r="40.4"/>
<line class="st22" x1="315.9" y1="150.5" x2="298" y2="189.9"/>
<path class="st0" d="M313.4,149.3c0.7-1.4,2.3-2,3.8-1.4c1.4,0.7,2,2.3,1.4,3.8c-0.7,1.4-2.3,2-3.7,1.4
	C313.3,152.5,312.7,150.8,313.4,149.3C313.4,149.4,313.4,149.4,313.4,149.3z"/>
<line class="st23" x1="315.9" y1="150.5" x2="298" y2="189.9"/>
<path class="st2" d="M314.2,149.7c0.4-1,1.6-1.4,2.5-0.9c1,0.4,1.4,1.6,0.9,2.5c-0.4,1-1.6,1.4-2.5,0.9
	C314.2,151.8,313.8,150.6,314.2,149.7C314.2,149.7,314.2,149.7,314.2,149.7z"/>
<line class="st22" x1="289.4" y1="135.9" x2="289.4" y2="108.3"/>
<path class="st0" d="M292.2,135.9c0,1.6-1.3,2.8-2.8,2.8c-1.6,0-2.8-1.3-2.8-2.8c0-1.6,1.3-2.8,2.8-2.8l0,0
	C290.9,133.1,292.2,134.3,292.2,135.9z"/>
<line class="st23" x1="289.4" y1="135.9" x2="289.4" y2="108.3"/>
<path class="st2" d="M291.3,135.9c0,1-0.9,1.9-1.9,1.9c-1,0-1.9-0.9-1.9-1.9c0-1,0.9-1.9,1.9-1.9l0,0
	C290.4,134,291.3,134.9,291.3,135.9z"/>
<text transform="matrix(1 0 0 1 133.6916 105.6725)" class="st2 st3 st4">3</text>
<line class="st22" x1="136.6" y1="174" x2="136.6" y2="111.1"/>
<path class="st0" d="M139.5,174c0,1.6-1.3,2.8-2.8,2.8c-1.6,0-2.8-1.3-2.8-2.8c0-1.6,1.3-2.8,2.8-2.8l0,0
	C138.2,171.2,139.5,172.4,139.5,174z"/>
<line class="st23" x1="136.6" y1="174" x2="136.6" y2="111.1"/>
<circle class="st2" cx="136.6" cy="174" r="1.9"/>
<line class="st22" x1="133" y1="189" x2="70.1" y2="189"/>
<circle class="st0" cx="133" cy="189" r="2.8"/>
<line class="st23" x1="133" y1="189" x2="70.1" y2="189"/>
<circle class="st2" cx="133" cy="189" r="1.9"/>
<line class="st22" x1="145.3" y1="228.6" x2="145.3" y2="268.9"/>
<circle class="st0" cx="145.3" cy="228.6" r="2.8"/>
<line class="st23" x1="145.3" y1="228.6" x2="145.3" y2="268.9"/>
<circle class="st2" cx="145.3" cy="228.6" r="1.9"/>
<text transform="matrix(1 0 0 1 206.2961 238.7033)" class="st2 st3 st4">7</text>
<line class="st22" x1="208.8" y1="187.1" x2="208.8" y2="227.4"/>
<path class="st0" d="M206,187.1c0-1.6,1.2-2.9,2.8-2.9c1.6,0,2.9,1.2,2.9,2.8c0,1.6-1.2,2.9-2.8,2.9c0,0-0.1,0-0.1,0
	C207.3,189.9,206,188.7,206,187.1z"/>
<line class="st23" x1="208.8" y1="187.1" x2="208.8" y2="227.4"/>
<path class="st2" d="M207,187.1c0-1,0.8-1.9,1.9-1.9c1,0,1.9,0.8,1.9,1.9c0,1-0.8,1.9-1.9,1.9c0,0,0,0,0,0
	C207.8,189,207,188.2,207,187.1z"/>
<text transform="matrix(1 0 0 1 185.0378 280.2131)" class="st2 st3 st4">8</text>
<line class="st22" x1="188" y1="243.7" x2="188" y2="268.9"/>
<circle class="st0" cx="188" cy="243.7" r="2.8"/>
<line class="st23" x1="188" y1="243.7" x2="188" y2="268.9"/>
<circle class="st2" cx="188" cy="243.7" r="1.9"/>
<text transform="matrix(1 0 0 1 88.2453 105.6725)" class="st2 st3 st4">2</text>
<text transform="matrix(1 0 0 1 62.195 192.6789)" class="st2 st3 st4">1</text>
<line class="st22" x1="91.4" y1="143.8" x2="91.4" y2="111.1"/>
<path class="st0" d="M94.2,143.8c0,1.6-1.3,2.8-2.8,2.8c-1.6,0-2.8-1.3-2.8-2.8c0-1.6,1.3-2.8,2.8-2.8S94.2,142.3,94.2,143.8
	C94.2,143.8,94.2,143.8,94.2,143.8z"/>
<line class="st23" x1="91.4" y1="143.8" x2="91.4" y2="111.1"/>
<circle class="st2" cx="91.4" cy="143.8" r="1.9"/>
<polyline class="st22" points="294.9,151.8 227.6,110.6 160.2,164.3 "/>
<path class="st0" d="M296.2,149.3c1.3,0.8,1.8,2.6,0.9,3.9s-2.6,1.8-3.9,0.9c-1.3-0.8-1.8-2.6-0.9-3.9c0,0,0,0,0,0
	C293.1,148.9,294.9,148.5,296.2,149.3z"/>
<path class="st0" d="M158.5,162c-1.2,1-1.4,2.8-0.5,4c1,1.2,2.8,1.4,4,0.5c1.2-1,1.4-2.8,0.5-4c0,0,0,0,0,0
	C161.5,161.2,159.7,161,158.5,162C158.5,162,158.5,162,158.5,162z"/>
<polyline class="st23" points="295.6,152.3 227.6,110.6 159.5,164.8 "/>
<path class="st2" d="M296.5,150.6c0.9,0.5,1.2,1.7,0.6,2.6c-0.5,0.9-1.7,1.2-2.6,0.6c-0.9-0.5-1.2-1.7-0.6-2.6
	C294.5,150.4,295.6,150.1,296.5,150.6C296.5,150.6,296.5,150.6,296.5,150.6z"/>
<path class="st2" d="M158.4,163.3c-0.8,0.6-0.9,1.8-0.3,2.7c0.6,0.8,1.8,0.9,2.7,0.3c0.8-0.6,0.9-1.8,0.3-2.6
	C160.4,162.8,159.2,162.7,158.4,163.3C158.4,163.3,158.4,163.3,158.4,163.3z"/>
</svg>
