<?xml version="1.0" encoding="utf-8"?>
<!-- Generator: Adobe Illustrator 26.0.1, SVG Export Plug-In . SVG Version: 6.00 Build 0)  -->
<svg version="1.1" id="Слой_1" xmlns="http://www.w3.org/2000/svg" xmlns:xlink="http://www.w3.org/1999/xlink" x="0px" y="0px"
	 viewBox="0 0 370 383.7" style="enable-background:new 0 0 370 383.7;" xml:space="preserve">
<style type="text/css">
	.st0{fill:#FFFFFF;}
	.st1{fill:none;stroke:#1D1D1B;stroke-width:0.25;stroke-miterlimit:10;}
	.st2{fill:none;stroke:#1D1D1B;stroke-width:0.25;stroke-linecap:round;stroke-linejoin:round;}
	.st3{fill:none;stroke:#1D1D1B;stroke-width:0.25;stroke-linecap:round;stroke-linejoin:round;stroke-dasharray:5.28,3.17;}
	.st4{fill:none;stroke:#1D1D1B;stroke-width:0.25;stroke-linecap:round;stroke-linejoin:round;stroke-dasharray:5.41,3.24;}
	.st5{fill:none;stroke:#FFFFFF;stroke-width:2;stroke-miterlimit:10;}
	.st6{fill:none;stroke:#1D1D1B;stroke-miterlimit:10;}
	.st7{fill:#1D1D1B;}
	.st8{font-family:'CeraPro-Medium';}
	.st9{font-size:6.8428px;}
	.st10{font-size:7.7987px;}
	.st11{fill:none;stroke:#1D1D1B;stroke-width:3;stroke-miterlimit:10;}
	.st12{clip-path:url(#SVGID_00000018222740702624956310000016593281275190788799_);}
</style>
<rect class="st0" width="370" height="383.7"/>
<line class="st1" x1="84.1" y1="102.7" x2="84.4" y2="102"/>
<line class="st1" x1="84.4" y1="101.7" x2="84.4" y2="102"/>
<line class="st1" x1="83.8" y1="104.4" x2="83.8" y2="103.3"/>
<path class="st1" d="M110.9,153.1c0,0-0.2,0.1-0.2,0s-0.1-0.5-0.2-0.7c-0.1-0.1-0.2,0-0.2,0s0.1,0.6,0,0.7s-0.5,0.1-0.6,0.2
	c-0.1-0.1-0.1-0.6-0.2-0.6c-0.2,0-0.4,0.1-0.5,0.2c-0.1,0.1,0.1,0.5,0,0.7c-0.3,0.1-0.7,0.2-1,0.3c-0.1-0.1-0.1-0.6-0.2-0.7
	c-0.2,0-0.4,0-0.6,0.1c-0.1,0.1,0,0.5,0,0.7c-0.4,0.1-0.8,0.1-1.3,0.1c-0.1-0.1-0.1-0.6-0.2-0.7c-0.2-0.1-0.4-0.1-0.7,0
	c-0.1,0.1,0,0.5-0.1,0.7h-1.3c-0.1-0.1,0-0.6-0.1-0.7c-0.2-0.1-0.5-0.1-0.7,0c-0.1,0-0.1,0.5-0.3,0.7c-0.4,0-0.8-0.1-1.2-0.2
	c0-0.2,0-0.6-0.1-0.7c-0.2-0.1-0.4-0.1-0.6-0.1c-0.1,0-0.1,0.5-0.2,0.7c-0.3,0-0.7-0.1-1-0.2c0-0.2,0-0.6,0-0.7
	c0-0.1-0.4-0.1-0.5-0.1s-0.1,0.6-0.2,0.6c-0.2,0-0.4-0.1-0.6-0.2c-0.1-0.1,0.1-0.6,0-0.7s-0.2-0.1-0.2-0.1s-0.1,0.5-0.2,0.6
	c-0.1,0.2-0.2,0-0.2,0"/>
<polyline class="st1" points="113.6,119 110.4,119 110.5,111.5 113.6,111.5 "/>
<polyline class="st1" points="113.6,118.2 111.1,118.2 111.1,112.3 113.6,112.3 "/>
<path class="st1" d="M113.5,107.8l-9.7-3.6l-5.6,5.6c-1.3,1.3-3.3,1.5-4.8,0.4l-9.7-7"/>
<path class="st1" d="M111.3,104.6l-7.4-2.7l-5.4,6.3c-1.2,1.3-3.3,1.5-4.7,0.4l-9.4-6.7"/>
<polyline class="st1" points="110.7,84.9 108.2,83 108.2,81.6 110.6,83.3 "/>
<polyline class="st1" points="110.4,81.6 108.2,80 108.2,78.6 110.2,80.1 "/>
<polyline class="st1" points="109.8,76.9 108.2,75.7 108.2,77 110.1,78.5 "/>
<polyline class="st1" points="109,73.3 108.2,72.7 108.2,74.1 109.5,75.1 "/>
<path class="st1" d="M111.5,94.2l-7.5,7.7l-3.1-23.1c-0.1-1-0.8-1.9-1.8-2.2L93.5,75c-1-0.3-2.1,0.3-2.4,1.3c0,0.1-0.1,0.3-0.1,0.4
	l-1.4,12.5"/>
<line class="st1" x1="105.6" y1="68" x2="106.6" y2="99.2"/>
<line class="st1" x1="45.3" y1="63.8" x2="46.7" y2="58.7"/>
<path class="st1" d="M77.1,74.3l1.8-6.2c0.1-0.4-0.1-0.7-0.4-0.9c0,0,0,0-0.1,0l-4.2-0.9c-0.4-0.1-0.7,0.2-0.8,0.5c0,0,0,0,0,0.1
	l-0.9,6.5c-0.1,0.4,0.2,0.7,0.5,0.8l3.3,0.6C76.7,74.9,77.1,74.7,77.1,74.3z"/>
<path class="st1" d="M76.4,73.1l1.2-4.1c0.1-0.3-0.1-0.7-0.4-0.8c0,0,0,0,0,0l-1.9-0.4c-0.3-0.1-0.7,0.2-0.7,0.5c0,0,0,0,0,0
	l-0.6,4.2c-0.1,0.3,0.2,0.7,0.5,0.7l1.3,0.2C75.9,73.6,76.3,73.4,76.4,73.1z"/>
<path class="st1" d="M67.7,74.2c1.9-4.9,4.3-9.7,7.1-14.2"/>
<path class="st1" d="M103.9,101.9l-1.2-23.6c-0.1-1.6-1.1-3-2.7-3.5l-7.5-2.1c-1.2-0.3-2.5,0.5-2.8,1.7c0,0.2-0.1,0.4-0.1,0.6
	l-0.3,30.5"/>
<path class="st1" d="M89.7,77.3l-1.6,0.9l0,0c-1.1-1.8-2.7-3.1-4.7-3.8l-5.7-1.8"/>
<path class="st1" d="M76.2,66.8c0.9-2,2-3.9,3.3-5.8"/>
<path class="st1" d="M82.3,83.7V83L81.6,82l0.2-1.6c0.2-1.8-1-3.5-2.9-3.9L69.6,75L69.4,76"/>
<path class="st1" d="M101.2,102.4l0.1-10.1c0-0.7-0.5-1.4-1.2-1.6l-6.8-1.9c-0.7-0.2-1.5,0.3-1.6,1c0,0.1,0,0.2,0,0.4l-0.1,14.3
	c0,0.8,0.4,1.5,1,1.9l1.8,1.3c0.8,0.6,1.9,0.4,2.6-0.3l3.7-3.9C101.1,103.2,101.2,102.8,101.2,102.4z"/>
<polygon class="st1" points="91.4,78.1 91.6,76.5 100.3,78.5 100.5,80.2 "/>
<polygon class="st1" points="100.7,81.8 100.9,83.6 91.1,81.4 91.3,79.6 "/>
<polygon class="st1" points="101.1,85.2 101.3,87.2 90.8,84.7 91,82.9 "/>
<path class="st1" d="M80.9,83.3L80.9,83.3c0.2-1.9-1-3.7-2.9-4.1l-8.8-1.7"/>
<line class="st1" x1="77.5" y1="79.8" x2="77.7" y2="79.1"/>
<line class="st1" x1="71.8" y1="78.9" x2="71.9" y2="78"/>
<line class="st1" x1="80.9" y1="82.2" x2="81.6" y2="82"/>
<polyline class="st2" points="97.5,142.9 97.5,143.1 97.5,152.5 97.5,153.2 99.2,153.9 99.2,159.9 100.1,162 "/>
<path class="st2" d="M112.6,130.8L112.6,130.8l0.5-4.2l0.1-0.7l0.4-6.9v-0.8h0.2l0.2-0.2v-0.3l-0.2-0.2h-0.1v-1h0.2l0.2-0.2V116
	l-0.2-0.3h-0.2v-1h0.2l0.2-0.2v-0.3l-0.2-0.2h-0.2v-1h0.2l0.2-0.2v-0.3l-0.2-0.2h-0.2v-0.8l-0.1-3.8l-2.2-3.2V104l-0.7-7.5l0.9-2.3
	l-0.5-8.7v-0.5l-0.1-0.1l-0.2-0.1l-0.1-1.5l0.2,0.2l-0.1-1.7l-0.3-0.3l-0.1-1.5l0.2,0.2l-0.2-1.6l-0.2-0.2l-0.3-1.5l0.2,0.1
	l-0.4-1.7l-0.3-0.2l-0.5-1.8l0,0l0,0l0.3,0.3l-1-2.5l-1.1-2.4l-1.5-0.8v0.2l-0.3,0.3v-0.3l-0.6,0.4c-1.2,0.8-2.7,1-4,0.4l-1.9-0.9
	l-1.3-0.6c-5.1-2.4-10.3-4.3-15.7-5.8l-0.5-0.2c-7.6-2.3-15.5-3.7-23.4-4.3l-1.6-0.1c-2.2-0.1-4.4,0-6.6,0.2
	c-0.9,0.1-1.8,0.2-2.7,0.4l-0.3,1.1l0,0c-4-2.7-7-6.7-8.6-11.2"/>
<polyline class="st2" points="108.2,162 109.2,159.9 109.2,157.7 109.2,155.1 109.2,153.9 110.8,153.2 110.8,152.6 110.8,152.5 
	110.8,143.1 110.8,142.8 "/>
<path class="st2" d="M35.1,48.2C39,59,45.3,63.8,45.3,63.8L45,65.1l2.3,1.8l-1,4.2l2.8,2.3l3.4-2.9L62.8,72c1.8,0.3,3.4,1.1,4.7,2.4
	l0,0l0.2-0.2c0.6,1.7,1.7,1.7,1.7,1.7l-0.3,2.5l2.7,0.5c0.8,0.6,1.7,1,2.6,1.3c1.1,0.2,2.2,0.1,3.1-0.3h0.2c1.3,0.2,2.4,1.2,2.7,2.5
	l0.1,0.5l0.4,0.3l-0.3,2.4l3.3,3.8l0.2-3.2l-1.8-1.8v-0.8l2.4,2.5v3.1l-0.2,12.6l-0.3,0.8l-0.3,0.6l0.1,11.3
	c0.3,1.8,0.7,4.2,0.7,4.2s3.1,4.4,4.5,6.5c1.4,2,2.8,3.8,4.4,5.6c0,0,5.3,2,19,0"/>
<path class="st2" d="M33.4,24.6c-0.3,7.6,0.3,15.3,1.8,22.8l-0.3,0.1c-0.2,0-0.3,0.2-0.2,0.4l0.1,0.4h0.4"/>
<line class="st1" x1="37.7" y1="46.8" x2="35.2" y2="47.4"/>
<path class="st2" d="M38.1,47.5l0.3-0.1l-0.1-0.5c0-0.2-0.2-0.3-0.4-0.3c0,0,0,0,0,0l-0.3,0.1c0,0-2-7.9-1.9-22.2"/>
<path class="st1" d="M87.6,115.8v-1.2c0-0.1,0.1-0.2,0.2-0.2h15.8c0.1,0,0.2,0.1,0.2,0.2v1.2c0,0.1-0.1,0.2-0.2,0.2H87.7
	C87.6,115.9,87.6,115.9,87.6,115.8z"/>
<path class="st1" d="M87.6,113.2v-1.2c0-0.1,0.1-0.2,0.2-0.2h15.8c0.1,0,0.2,0.1,0.2,0.2v1.2c0,0.1-0.1,0.2-0.2,0.2H87.7
	C87.6,113.4,87.6,113.3,87.6,113.2z"/>
<line class="st1" x1="52.4" y1="70.4" x2="57.8" y2="57.2"/>
<line class="st1" x1="49.1" y1="73.3" x2="56.2" y2="57.1"/>
<line class="st1" x1="47.3" y1="66.9" x2="49.7" y2="57.3"/>
<path class="st1" d="M113.1,126.6c0,0-16.8,0.1-28.4-7.7"/>
<polyline class="st1" points="111.1,112.3 112,113.2 112,117.3 111.1,118.2 "/>
<line class="st1" x1="102.2" y1="88.7" x2="89.9" y2="86"/>
<polyline class="st1" points="102.5,162.9 103.2,165.8 105,165.8 105.8,162.9 "/>
<path class="st1" d="M109.2,159.8c0,0.4-2.2,0.7-5,0.7s-5-0.3-5-0.7"/>
<path class="st1" d="M108.2,162c0,0.5-1.8,0.9-4.1,0.9s-4.1-0.4-4.1-0.9"/>
<path class="st1" d="M109.5,142.3c0.8,0.1,1.3,0.3,1.3,0.5c0,0.5-3,0.8-6.7,0.8c-3.7,0-6.7-0.4-6.7-0.8c0-0.2,0.5-0.4,1.3-0.5"/>
<path class="st1" d="M109.5,142.5c0,0.3-2.4,0.6-5.4,0.6s-5.4-0.3-5.4-0.6"/>
<line class="st2" x1="134" y1="233.5" x2="134" y2="293.8"/>
<line class="st2" x1="125.3" y1="233.5" x2="125.3" y2="293.7"/>
<path class="st2" d="M134,293.8c0,0.9-1.9,1.6-4.4,1.6c-2.4,0-4.4-0.7-4.4-1.6"/>
<path class="st2" d="M134,292.1c1.3,0.5,2.1,1.2,2.1,2c0,1.5-2.9,2.7-6.5,2.7c-3.6,0-6.4-1.3-6.4-2.7c0-0.8,0.8-1.5,2.1-2"/>
<path class="st2" d="M123.2,294.1v3.3c0,1.5,2.9,2.7,6.4,2.7c3.5,0,6.5-1.3,6.5-2.7v-3.3"/>
<path class="st2" d="M70.7,322.2v2.2c0,0.2,0.1,0.4,0.3,0.5l8.1,4.5l0.8-0.5l19.7,10.5l0.4,1.3l10.7,5.5c1.5,0.8,3.4,0.5,4.6-0.8
	l8.2-8.6l0.1-0.7l13.2-13.4l0.5,0.2l5.6-5.6v-2.5l-3.2-5.9v-4.7l-3.5-6.8"/>
<polyline class="st2" points="79,316.3 79,316.6 79,319.3 103.6,331.8 109.2,331.2 "/>
<polyline class="st2" points="135.8,310.7 136.7,312.9 118.6,330.2 113.3,330.7 "/>
<line class="st2" x1="79.1" y1="311.8" x2="79" y2="314.4"/>
<polyline class="st2" points="114.2,333.9 114.6,333.8 119.8,333.3 138.9,315.1 138.9,318.6 142.8,314.6 "/>
<line class="st2" x1="119.8" y1="338" x2="103.3" y2="340"/>
<path class="st2" d="M118.6,330.2l1.3,3.1v4.7l-5,4.8c-1.1,1.1-2.8,1.4-4.3,0.7l-7.2-3.4v-5l0.3-3.2"/>
<ellipse transform="matrix(0.994 -0.1096 0.1096 0.994 -36.7342 14.3588)" class="st2" cx="112.3" cy="341.5" rx="1.5" ry="1.1"/>
<path class="st2" d="M76.9,316.2l2.1-1.8l19.5-2h0.1c0.6,0,1,0.5,1,1c0,0.4-0.2,0.8-0.5,1c-0.1,0.1-0.3,0.2-0.5,0.2L79,316.5
	l-2.3,2.1"/>
<path class="st2" d="M79,316.3l19.6-2h0.1c0.1,0,0.3,0,0.4,0.1"/>
<path class="st2" d="M76.6,321.9v4.2l-5.4-3c-0.5-0.3-0.7-1-0.4-1.5c0.1-0.1,0.2-0.2,0.3-0.3l5.7-4"/>
<path class="st2" d="M73.7,320.8c0.8,0,1.4,0.4,1.4,0.8c0,0.5-0.6,0.8-1.4,0.8c-0.8,0-1.4-0.4-1.4-0.8
	C72.3,321.2,72.9,320.8,73.7,320.8z"/>
<path class="st2" d="M111.4,312.2c-0.1,0.7-0.5,1.3-1.1,1.6c-1.5,0.8-3.4,0.8-4.9,0c-0.6-0.3-1-0.9-1.1-1.6c0-1.3,1.6-2.2,3.5-2.2
	S111.4,311,111.4,312.2z"/>
<path class="st2" d="M110.3,313.8c-1.5,0.8-3.4,0.8-4.9,0C106.7,312.5,108.9,312.4,110.3,313.8C110.3,313.8,110.3,313.8,110.3,313.8
	z"/>
<path class="st2" d="M136.8,311.5l-0.9-0.8h-0.5l-0.4-0.3l-18.1,1.7c-0.1,0-0.2,0-0.3,0.1c-0.3-0.2-0.6-0.5-0.6-0.9v-0.1
	c0-0.5,0.4-1,0.9-1.1l18.1-1.7l1.5,1L136.8,311.5z"/>
<polyline class="st2" points="136.7,312.9 138.9,315.1 137.8,312.5 136.8,311.5 "/>
<path class="st2" d="M116.6,312.2c0.2,0.1,0.3,0.1,0.5,0.1l18.3-1.6"/>
<polyline class="st2" points="134,305.8 135.7,307.3 136.5,309.5 "/>
<path class="st2" d="M135,308.5l-1-2.7l-22.8-7.9l-4,0.3c-0.3,0-0.4,0.3-0.4,0.5c0,0,0,0,0,0.1l0.2,1.2l0.3,1.5l0.1,0.5l0.3,1.6
	l0.4,2.1c0.2,1-0.4,1.9-1.3,2.1c0,0-0.1,0-0.1,0h-0.2c-0.8,0-1.5-0.6-1.7-1.5l-0.4-2.5l-0.3-1.7l-0.1-0.5l-0.3-1.5l-0.2-1.3
	c0-0.2-0.2-0.4-0.5-0.4l-3.3,0.3l-20.7,13.1l-2,1.5l-0.2,2.8l-0.1,1.1l-0.1,1.3l-0.2,3.2l26.7,13.2l5.2-0.5"/>
<path class="st2" d="M114.8,336.8l-6.3,0.7v-3v-1.9l0.7-1.4l0,0l-2-11.4l0,0c0.2-0.6,0.7-1,1.4-1.1h0.4c0.9-0.1,1.7,0.5,1.9,1.4
	l2.3,10.8v0.3l1,0.8l0.1,2l0.1,1.4L114.8,336.8z"/>
<polygon class="st2" points="114.8,336.8 114.2,335.3 114.2,333.9 114.1,331.9 113.1,331.1 113.3,330.7 114.5,331.8 114.6,333.8 "/>
<path class="st2" d="M113.3,330.7l-0.2,0.3v-0.3l-2.3-10.8c-0.2-0.9-1-1.5-1.9-1.4h-0.4c-0.6,0.1-1.1,0.5-1.4,1.1v-0.4
	c-0.2-1,0.4-1.9,1.4-2.1c0,0,0,0,0.1,0h0.4c0.9-0.1,1.7,0.5,1.9,1.4L113.3,330.7z"/>
<line class="st2" x1="108.6" y1="335.9" x2="114.2" y2="335.3"/>
<path class="st2" d="M139.6,304.1l-0.6,0.5c-0.2,0.2-0.3,0.4-0.3,0.7c0,0.4-0.1,0.9-0.4,1.3c-0.5,0.6-0.6-0.8-1.3-0.3
	c-0.6,0.5-0.3,1.4-0.7,1.8l-0.3,0.3"/>
<path class="st2" d="M123.2,294.7c0,0-8.3,0.4-8.7,0.5c-0.5,0.3-1,0.6-1.4,1l25.6,8.6"/>
<path class="st2" d="M113.1,296.2c-0.1,0.2-0.2,0.4-0.2,0.6c0,0.2-0.1,0.3-0.3,0.4"/>
<path class="st2" d="M110.9,297.9c0.1-0.5,0.6-0.9,1.1-0.9c0,0,0,0,0,0l25.3,9"/>
<ellipse class="st2" cx="140.1" cy="314.4" rx="1.1" ry="0.7"/>
<line class="st2" x1="107" y1="299.9" x2="103.7" y2="300.1"/>
<line class="st2" x1="104.1" y1="302.2" x2="107.4" y2="302"/>
<line class="st2" x1="104" y1="301.7" x2="107.3" y2="301.4"/>
<line class="st2" x1="104.4" y1="303.9" x2="107.7" y2="303.6"/>
<line class="st2" x1="139.6" y1="308.8" x2="136.7" y2="311.1"/>
<ellipse class="st2" cx="99.1" cy="230.4" rx="1.5" ry="2.2"/>
<path class="st2" d="M92.4,232.1c-0.8,0-1.4-0.9-1.4-2.1c0-1.1,0.6-2,1.4-2"/>
<path class="st2" d="M99.1,228.2h-1.9c-0.8,0-1.5,1-1.5,2.2c0,1.2,0.7,2.2,1.5,2.2h1.9"/>
<polygon class="st2" points="98.4,229.5 98.4,231.2 99.1,232.1 99.8,231.2 99.8,229.5 99.1,228.7 "/>
<path class="st2" d="M98.1,225.8l-5.6-0.2c0,0-1,0.2-1,2.2h0.9v4.4h-0.6c-0.1,0.7,0.3,1.4,1,1.6c1.7,0.4,3.5,0.6,5.3,0.6
	c0.7,0,1.6-0.3,2.7-0.3c3.4,0.2,6.7,0.1,10.1-0.5c5-0.9,7.5-1.5,7.5-1.5l1.3-0.1c0,0,3.6,0.2,4.2,0.2s10.3-2,10.3-2V228
	c0,0-10.2,1.8-10.4,1.8c-0.3,0-5.6-0.7-5.6-0.7l0-4.9"/>
<path class="st2" d="M95.4,225.7c0,0-1.1,0-1.3,1.7c-0.1,1.7-0.1,4.9-0.1,4.9s-0.1,1.9,1.6,2"/>
<line class="st2" x1="113.4" y1="225.1" x2="113.4" y2="233.2"/>
<polyline class="st2" points="120,167.2 123.9,169.4 124.7,171.1 124.5,182.5 "/>
<path class="st2" d="M124.7,171.1l-4.6-2.4c-1.9-1-4.1-1.4-6.3-1.1c-4.2,0.4-5.5,2.5-5.5,2.5l0.4,52.3c0,0.4-0.3,0.8-0.7,1
	c-2,0.3-4,0.4-6,0.4c-4.6,0.2-7.6,0.6-7.7,2"/>
<polyline class="st2" points="108.3,182.6 105.5,183.9 105.7,223.5 "/>
<path class="st2" d="M123.8,232.2v0.6c0,0.5,2.4,1.1,6.3,1.1c2.9-0.2,5.7-0.7,8.5-1.5v-5.3l-3.3,0.5"/>
<polyline class="st2" points="134.4,228 135.3,227.8 135.3,225.7 138.6,225.1 141.9,222.9 139.9,220.3 "/>
<ellipse transform="matrix(0.9998 -1.745241e-02 1.745241e-02 0.9998 -3.9082 1.8558)" class="st2" cx="104.4" cy="224.8" rx="7.4" ry="0.7"/>
<path class="st2" d="M95.3,225.8c0.8-0.1,2.1-0.4,2.1-0.4c0.2-0.1,0.5-0.1,0.7,0"/>
<line class="st2" x1="96.8" y1="227" x2="91.7" y2="226.8"/>
<path class="st2" d="M91.8,232.2l4.7,0.4c0,0,0.1,1.8,1.6,1.8"/>
<path class="st2" d="M91.5,227.8l5.3,0.3l1.7-1.3l2.7,1.6v3.6l-2.6,1.9l-1.9-1.3l-1-0.1v-4.5l1.3,0.1V227c0.3-0.6,0.8-1,1.4-1.2
	c0.9,0,1.9,0.1,2.8,0.2c1,0.1,6.3-0.1,9.6-0.3c1.5-0.2,2.9-0.6,4.4-1l2.1-0.2c0.8-0.1,1.5-0.4,2.1-0.9l0.2-0.2
	c0.4-0.4,0.7-1,0.7-1.6v-54.6c-2.1-0.8-4.3-1-6.5-0.7c-3.9,0.6-5,2.1-5,2.1l-0.4,1.5"/>
<line class="st2" x1="101.1" y1="228.5" x2="99.8" y2="228.5"/>
<line class="st2" x1="101.1" y1="232" x2="100.1" y2="232"/>
<polyline class="st2" points="99,228.2 98.5,228 98,228.2 "/>
<polyline class="st2" points="97.9,232.6 98.5,232.9 98.9,232.6 "/>
<line class="st2" x1="108.8" y1="224.2" x2="108.8" y2="225.3"/>
<line class="st2" x1="109.1" y1="224.3" x2="109.1" y2="225.3"/>
<ellipse class="st2" cx="109.1" cy="224.1" rx="0.3" ry="0.1"/>
<path class="st2" d="M141.7,215.6c0,0.5-0.2,0.8-0.4,0.8s-0.4-0.4-0.4-0.8s0.2-0.8,0.4-0.8C141.5,214.8,141.7,215.2,141.7,215.6z"/>
<path class="st2" d="M141.7,215.6c0,0.5-0.2,0.8-0.4,0.8s-0.4-0.4-0.4-0.8s0.2-0.8,0.4-0.8C141.5,214.8,141.7,215.2,141.7,215.6z"/>
<path class="st2" d="M136.8,220.3h1.7c-0.4,0.7-1.2,1.2-2,1.3c-1.2-0.2-2.2-1-2.6-2.2c-1-2.4-1-5,0-7.4c0.4-1.2,1.4-2,2.6-2.2
	c0.8,0.1,1.6,0.5,2,1.3h-1.7c-1.1,0-2.1,1.5-2.3,3.6c-0.1,0.3-0.1,0.7-0.1,1c0,0.3,0,0.7,0.1,1C134.7,218.8,135.6,220.3,136.8,220.3
	z"/>
<path class="st2" d="M138.7,220.3h-0.1c-0.4,0.7-1.2,1.2-2,1.3"/>
<path class="st2" d="M136.5,209.8c0.8,0.1,1.6,0.5,2,1.3h0.1"/>
<path class="st2" d="M141.4,211c-0.7,0-1.4,0.6-1.8,1.6c0,0.1-0.1,0.2-0.1,0.3c-0.2,0.4-0.3,0.9-0.4,1.3c-0.1,0.5-0.1,0.9-0.1,1.4
	c0,0.5,0,1,0.1,1.4c0.1,0.5,0.2,0.9,0.4,1.3c0,0.1,0.1,0.2,0.1,0.3c0.4,1,1.1,1.6,1.8,1.6c1.3,0,2.4-2.1,2.4-4.7
	C143.8,213.1,142.7,211,141.4,211z M141.4,216.5c-0.2,0-0.4-0.4-0.4-0.8s0.2-0.8,0.4-0.8s0.4,0.4,0.4,0.8
	C141.8,216.1,141.5,216.5,141.4,216.5L141.4,216.5z"/>
<path class="st2" d="M141.4,220.3h-4.6c-1.1,0-2.1-1.5-2.3-3.6c-0.1-0.3-0.1-0.7-0.1-1c0-0.3,0-0.7,0.1-1c0.2-2.1,1.3-3.6,2.3-3.6
	h4.6c-0.7,0-1.4,0.6-1.8,1.6c0,0.1-0.1,0.2-0.1,0.3c-0.2,0.4-0.3,0.9-0.4,1.3c-0.1,0.5-0.1,0.9-0.1,1.4c0,0.5,0,1,0.1,1.4
	c0.1,0.5,0.2,0.9,0.4,1.3c0,0.1,0.1,0.2,0.1,0.3C140,219.7,140.6,220.3,141.4,220.3z"/>
<polyline class="st2" points="139.2,211 139.2,195.3 143.8,186.1 123.7,182.4 120.9,182 120.9,229.2 123.9,229.6 135.3,227.5 "/>
<path class="st2" d="M131.9,222.4c0.7,0.3,1.4,0.5,2.1,0.5h-3.5c-2.2,0-4-3.2-4-7.2c0-4,1.8-7.2,4-7.2h3.5c-0.7,0-1.5,0.2-2.1,0.5
	c-0.5,0.2-1,0.5-1.4,0.8c-3.3,2.9-3.5,7.9-0.6,11.2c0.2,0.2,0.4,0.4,0.6,0.6C130.9,221.9,131.4,222.2,131.9,222.4z"/>
<path class="st2" d="M133.9,219.4c-1-2.4-1-5,0-7.4c0.4-1.2,1.4-2,2.6-2.2h-1.3c-0.1-0.6-0.6-1.2-1.3-1.3c-0.7,0-1.5,0.2-2.1,0.5
	c-0.5,0.2-1,0.5-1.4,0.8c-3.3,2.9-3.5,7.9-0.6,11.2c0.2,0.2,0.4,0.4,0.6,0.6c0.4,0.3,0.9,0.6,1.4,0.8c0.7,0.3,1.4,0.5,2.1,0.5
	c0.7,0,1.4-0.5,1.5-1.3h1C135.3,221.4,134.3,220.5,133.9,219.4z M133.9,209c0.5,0,0.9,0.3,0.9,0.8h-3.2
	C132.3,209.3,133.1,209.1,133.9,209L133.9,209z"/>
<path class="st2" d="M128.4,215.6c-0.1-2.4,1.1-4.7,3.2-5.9"/>
<path class="st2" d="M134.8,221.6c-0.1,0.5-0.5,0.8-0.9,0.8c-3.3-0.5-5.6-3.4-5.4-6.7"/>
<line class="st2" x1="135.5" y1="221.5" x2="131.5" y2="221.5"/>
<line class="st2" x1="134.8" y1="209.8" x2="135.3" y2="209.8"/>
<polyline class="st2" points="126.5,215 127.8,215.7 126.5,216.5 "/>
<path class="st2" d="M160.1,179.6L160.1,179.6l-0.3,0.5l-19.9,31"/>
<polyline class="st2" points="162.5,181.3 162.2,181.6 142.8,211.9 "/>
<path class="st2" d="M162.5,181.3c0.2-0.3-0.2-1-0.9-1.4s-1.3-0.6-1.6-0.3l0,0"/>
<path class="st2" d="M169.8,175.8c0.1,3.3-2.5,6.1-5.9,6.2c0,0,0,0,0,0c-0.6,0-1.2-0.1-1.7-0.3l0.3-0.4c0.2-0.3-0.2-1-0.9-1.4
	c-0.7-0.5-1.3-0.6-1.6-0.3l0,0l-0.3,0.5c-1.1-1.2-1.7-2.7-1.6-4.3c-0.2-3.2,2.4-6,5.6-6.1c3.2-0.2,6,2.4,6.1,5.6
	C169.8,175.4,169.8,175.6,169.8,175.8L169.8,175.8z"/>
<line class="st2" x1="138.6" y1="227.1" x2="135.3" y2="226.8"/>
<polygon class="st2" points="135.6,229.2 135.6,231.1 136.9,232 138.1,231.1 138.1,229.2 136.9,228.3 "/>
<ellipse class="st2" cx="136.7" cy="230.1" rx="1" ry="1.3"/>
<line class="st2" x1="136.7" y1="228.9" x2="136.1" y2="228.9"/>
<line class="st2" x1="136.7" y1="231.4" x2="136.1" y2="231.4"/>
<polygon class="st2" points="137.3,230.1 137,231 136.4,231 136.4,230.9 136.1,230.1 136.4,229.4 136.4,229.3 137,229.3 "/>
<polygon class="st2" points="136.6,230.1 136.4,230.9 136.1,230.1 136.4,229.4 "/>
<line class="st2" x1="136.6" y1="230.1" x2="137.3" y2="230.1"/>
<polyline class="st2" points="99.8,229.5 98.7,229.5 98.7,231.2 99.8,231.2 "/>
<line class="st2" x1="98.7" y1="229.5" x2="98.6" y2="229.3"/>
<line class="st2" x1="98.7" y1="231.2" x2="98.6" y2="231.5"/>
<line class="st2" x1="135.3" y1="209.8" x2="135" y2="184.4"/>
<line class="st2" x1="135.3" y1="225.7" x2="135.3" y2="222.2"/>
<line class="st2" x1="123.9" y1="229.8" x2="123.9" y2="232.2"/>
<path class="st2" d="M128.3,183.2c0,0,0.2-0.6,0.4-0.6h4.8c0.3,0,0.6,0.2,0.6,0.5l0.3,1.3"/>
<path class="st2" d="M129,182.6v-1.9c0-0.3,0.2-0.5,0.5-0.5c0,0,0,0,0,0h2.8c0.3,0,0.5,0.2,0.5,0.5c0,0,0,0,0,0v1.9"/>
<ellipse class="st2" cx="126.1" cy="190.9" rx="1" ry="1.1"/>
<path class="st2" d="M126.1,189.8h-0.6c-0.6,0-1.1,0.5-1,1.1c0,0,0,0,0,0c0,0.6,0.4,1.1,1,1.1h0.6"/>
<polygon class="st2" points="126.4,190.2 125.7,190.2 125.3,190.9 125.7,191.6 126.4,191.6 126.8,190.9 "/>
<polyline class="st2" points="125.5,189.8 124.7,189.8 124.2,190.9 124.7,192 125.5,192 "/>
<polyline class="st2" points="125.4,189.8 124.4,189.8 123.8,190.9 124.4,192 125.4,192 "/>
<line class="st2" x1="124.2" y1="190.9" x2="123.8" y2="190.9"/>
<ellipse class="st2" cx="126.1" cy="207.5" rx="1" ry="1.1"/>
<path class="st2" d="M126.1,206.4h-0.6c-0.6,0.1-1.1,0.6-1,1.3c0.1,0.5,0.5,1,1,1h0.6"/>
<polygon class="st2" points="126.4,206.8 125.7,206.8 125.3,207.5 125.7,208.2 126.4,208.2 126.8,207.5 "/>
<polyline class="st2" points="125.5,206.4 124.7,206.4 124.2,207.5 124.7,208.6 125.5,208.6 "/>
<polyline class="st2" points="125.4,206.4 124.4,206.4 123.8,207.5 124.4,208.6 125.4,208.6 "/>
<line class="st2" x1="124.2" y1="207.5" x2="123.8" y2="207.5"/>
<ellipse class="st2" cx="126.1" cy="222" rx="1" ry="1.1"/>
<path class="st2" d="M126.1,220.9h-0.6c-0.6,0-1.1,0.5-1,1.1c0,0,0,0,0,0c0,0.6,0.4,1.1,1,1.1h0.6"/>
<polygon class="st2" points="126.5,221.3 125.8,221.3 125.4,222 125.8,222.7 126.5,222.7 126.9,222 "/>
<polyline class="st2" points="125.6,220.9 124.8,220.9 124.2,222 124.8,223.1 125.6,223.1 "/>
<polyline class="st2" points="125.4,220.9 124.4,220.9 123.9,222 124.4,223.1 125.4,223.1 "/>
<line class="st2" x1="124.2" y1="222" x2="123.9" y2="222"/>
<line class="st2" x1="123.7" y1="182.4" x2="123.9" y2="229.6"/>
<line class="st2" x1="128.4" y1="215.7" x2="129.8" y2="215.7"/>
<line class="st2" x1="128.9" y1="213" x2="130.3" y2="213"/>
<line class="st2" x1="128.5" y1="214.3" x2="129.2" y2="214.3"/>
<line class="st2" x1="129.4" y1="212" x2="130" y2="212"/>
<line class="st2" x1="130.7" y1="210.5" x2="131.4" y2="210.5"/>
<line class="st2" x1="130" y1="211.1" x2="131.4" y2="211.1"/>
<line class="st2" x1="131.3" y1="210" x2="132.7" y2="210"/>
<ellipse class="st2" cx="104.8" cy="300.7" rx="1" ry="0.3"/>
<line class="st2" x1="104.2" y1="165.9" x2="104.2" y2="169"/>
<line class="st3" x1="104.2" y1="173" x2="104.2" y2="192.3"/>
<line class="st2" x1="104.2" y1="194.3" x2="104.2" y2="197.4"/>
<line class="st2" x1="104.2" y1="203.7" x2="104.2" y2="206.9"/>
<line class="st4" x1="104.2" y1="210.9" x2="104.2" y2="219.8"/>
<line class="st2" x1="104.2" y1="221.8" x2="104.2" y2="225"/>
<line class="st1" x1="109.5" y1="142.5" x2="109.5" y2="138.9"/>
<line class="st1" x1="98.8" y1="142.5" x2="98.8" y2="138.9"/>
<path class="st1" d="M110.8,131v7.4l0,0c0,0.4-3,0.8-6.7,0.8c-3.7,0-6.7-0.3-6.7-0.8v-6.9"/>
<polygon class="st0" points="108.7,196.7 105.4,196.6 105.3,203.7 107.5,203.6 108.8,203.5 "/>
<ellipse class="st2" cx="104.2" cy="197.4" rx="6.9" ry="0.6"/>
<path class="st2" d="M111.5,198.5v4.5c0,0.4-3.3,0.7-7.3,0.7s-7.3-0.4-7.3-0.7v-4.5"/>
<ellipse class="st2" cx="104.2" cy="197.5" rx="8.1" ry="0.9"/>
<path class="st2" d="M112.2,197.5v0.6c0,0.5-3.6,0.9-8.1,0.9c-4.5,0-8.1-0.4-8.1-0.9v-0.6"/>
<ellipse class="st1" cx="101.2" cy="135.7" rx="0.9" ry="0.8"/>
<ellipse class="st1" cx="109.9" cy="135.7" rx="0.4" ry="0.8"/>
<line class="st5" x1="83.7" y1="134.9" x2="98" y2="134.9"/>
<circle class="st0" cx="98" cy="134.9" r="2.8"/>
<line class="st6" x1="83.7" y1="134.9" x2="98" y2="134.9"/>
<circle class="st7" cx="98" cy="134.9" r="1.9"/>
<text transform="matrix(0.95 0 0 1 79.5095 136.9562)" class="st7 st8 st9">1</text>
<line class="st5" x1="83.7" y1="200.9" x2="98" y2="200.9"/>
<circle class="st0" cx="98" cy="200.9" r="2.8"/>
<line class="st6" x1="83.7" y1="200.9" x2="98" y2="200.9"/>
<circle class="st7" cx="98" cy="200.9" r="1.9"/>
<text transform="matrix(0.95 0 0 1 79.1442 202.9055)" class="st7 st8 st9">2</text>
<line class="st5" x1="83.7" y1="157" x2="101.3" y2="157"/>
<circle class="st0" cx="101.3" cy="157" r="2.8"/>
<line class="st6" x1="83.7" y1="157" x2="101.3" y2="157"/>
<circle class="st7" cx="101.3" cy="157" r="1.9"/>
<text transform="matrix(0.95 0 0 1 79.1442 159.006)" class="st7 st8 st9">3</text>
<line class="st5" x1="87.4" y1="242.2" x2="96.1" y2="233.1"/>
<path class="st0" d="M98.1,235.1c1.1-1.1,1-2.9-0.1-4c-1.1-1.1-2.9-1-4,0.1c-1.1,1.1-1,2.9,0.1,4C95.2,236.3,97,236.2,98.1,235.1z"
	/>
<line class="st6" x1="87.4" y1="242.2" x2="96.1" y2="233.1"/>
<path class="st7" d="M97.4,234.4c0.7-0.7,0.7-1.9,0-2.7c-0.7-0.7-1.9-0.7-2.7,0c-0.7,0.7-0.7,1.9,0,2.7
	C95.5,235.2,96.7,235.2,97.4,234.4z"/>
<line class="st5" x1="106.1" y1="242.5" x2="106.1" y2="229.6"/>
<circle class="st0" cx="106.1" cy="229.6" r="2.8"/>
<line class="st6" x1="106.1" y1="242.5" x2="106.1" y2="229.6"/>
<circle class="st7" cx="106.1" cy="229.6" r="1.9"/>
<text transform="matrix(0.95 0 0 1 83.1315 247.6603)" class="st7 st8 st9">5</text>
<text transform="matrix(0.95 0 0 1 104.2634 248.8928)" class="st7 st8 st9">4</text>
<rect x="25.5" y="24.6" class="st6" width="162.7" height="334.4"/>
<rect x="205" y="24.6" class="st6" width="139.5" height="158"/>
<rect x="205" y="197.7" class="st6" width="139.5" height="161.4"/>
<line class="st2" x1="287.2" y1="182.6" x2="287.2" y2="141.6"/>
<line class="st2" x1="304.5" y1="143.7" x2="304.5" y2="182.6"/>
<path class="st2" d="M287.2,73.5v41.1c1.1,0.5,2.2,0.8,3.4,0.8c2.9,0.2,4.7,0.4,4.7,0.4l4.7,1.6"/>
<line class="st2" x1="287.2" y1="130.4" x2="287.2" y2="128.6"/>
<path class="st2" d="M304.5,73.1v41c0,0,0.1,0.8-2,1.1c-1.2,0.1-2.1,1-2.3,2.2"/>
<line class="st2" x1="287.2" y1="58.5" x2="287.2" y2="57"/>
<line class="st2" x1="304.5" y1="57" x2="304.5" y2="57.6"/>
<path class="st2" d="M240.3,105.5c0,2.5-0.9,5-2.4,7l0,0c-1.9,2.4-4.8,3.8-7.8,3.8c-6,0.3-11-4.3-11.3-10.3c-0.3-6,4.3-11,10.3-11.3
	c6-0.3,11,4.3,11.3,10.3C240.3,105.1,240.3,105.3,240.3,105.5L240.3,105.5z"/>
<path class="st2" d="M265.7,127.6c-0.4,0-0.7-0.2-1-0.4c-0.1-0.1-0.2-0.2-0.3-0.3L265.7,127.6z"/>
<path class="st2" d="M267.9,123.7l-1.3-0.7c0.4,0,0.7,0.2,1,0.4C267.8,123.5,267.9,123.6,267.9,123.7z"/>
<path class="st2" d="M267.7,126.6c-0.5,0.6-1.2,1-2,1l-1.3-0.7l0,0l-2.6-1.4l-23.9-13c1-1.3,1.8-2.8,2.1-4.4l24.7,14l1.9,1l1.3,0.7
	C268.5,124.7,268.4,125.8,267.7,126.6z"/>
<line class="st2" x1="268" y1="123.7" x2="268" y2="123.7"/>
<line class="st2" x1="237.9" y1="112.5" x2="237.9" y2="112.5"/>
<line class="st2" x1="265.7" y1="127.6" x2="265.7" y2="127.6"/>
<path class="st2" d="M269.9,134.6L269.9,134.6c-1.6-1.2-3.1-2.5-4.5-4c-1.5-1.3-2.9-2.8-4.2-4.4c1.6,1.2,3.1,2.5,4.5,4
	C267.2,131.6,268.6,133,269.9,134.6z"/>
<path class="st2" d="M277.5,128.8c-0.2,0.2-1.2-0.5-2.6-1.7l0,0c-0.8-0.8-2-2.1-3.5-3.5s-2.8-2.6-3.6-3.3l0,0
	c-1.3-1.4-2-2.4-1.9-2.6s3.1,1.9,6.3,5C275.4,125.8,277.8,128.5,277.5,128.8z"/>
<path class="st2" d="M271.6,116.4c-1.6-1.3-2.7-2.1-2.9-1.9l-2.9,3.3"/>
<line class="st2" x1="277.5" y1="128.8" x2="279.9" y2="126"/>
<path class="st2" d="M285.6,128c-2.2-1.2-4.4-2.5-6.5-3.9c-2.5-4.1-5.7-16.8-5.7-16.8s-0.5-9-0.5-13.4s0.3-10.3,0.3-10.7
	s1.3-6.2,1.7-8c0.4-1.8,0.5-5.2,0.6-5.6c0.1-0.4,1.9-6.2,2.4-7.1c0.4-0.8,0.6-1.6,0.9-2.4c0,0,8.3-1.1,11.9-1.5
	c2.3-0.3,6.5-0.7,9.3-1c1.5-0.1,2.7,1,2.8,2.5c0,0.1,0,0.2,0,0.3v10.6c0,1.2-0.9,2.2-2.1,2.2h-2.9v-2.4l1.8-0.1V61l-1.9,0.1
	c0,0,0-0.9,0-1.1c0-0.3-0.4-0.5-0.7-0.5c-0.4,0-16.1,2.3-17,2.4c-0.8,0.1-2.8,5.9-3.1,7c-0.3,1.1-0.6,4.9-1,6.6
	c-0.4,1.7-1.3,6.7-1.4,7.5s-0.4,7-0.5,10.6c0,3.6,0.4,11.6,0.5,13c0.7,2.9,1.7,5.8,2.8,8.6c0.8,2,2.7,7.5,3.2,8.1
	c2.6,1.9,5.5,3.4,8.5,4.5c2.5,0.9,5,1.6,7.6,2.2v-2.7l2.3-0.1v-6.3l-2.3,0.1v-3.6"/>
<path class="st2" d="M277.4,114.9l7.4-0.1c0,0,1.8,0.7,3.5,1.1c1.5,0.3,3,0.5,4.6,0.4l4.2,1.1l2.3-0.1c1.2,0,2.2,0.9,2.2,2.1
	c0,0,0,0.1,0,0.1v5.9v4.1c0,1.2-0.9,2.2-2.1,2.2h-0.3c-0.9,0-1.7-0.1-2.6-0.3c-2.6-0.6-5.1-1.3-7.5-2.2c-1.5-0.5-6.4-2.4-7-2.7
	c-0.7-0.2-6.8-1.8-7-1.9c-0.2-0.1-3.7-3.2-3.7-3.2l7.8,2.6"/>
<path class="st2" d="M271.4,121.4c0,0,0.2-3.7,0.3-4.9c0.1-3.3-0.1-6.5-0.6-9.7c0,0-0.6-7.8-0.6-12.9c0-5.1,0.4-11.6,0.5-12.7
	c0.1-1.1,0.7-3.4,0.8-4.8s-0.3-1.8-0.3-1.8c0.2-0.6,0.2-1.2,0.2-1.7c-0.1-1.1-0.7-2.7-0.7-3.8c0.1-3.1,0.5-6.3,1-9.3
	c2.3,0,4.6,0.1,6.9,0.3"/>
<polyline class="st2" points="271.4,74.1 273.6,74.6 271.5,75.1 "/>
<line class="st2" x1="271.3" y1="74.7" x2="273.6" y2="74.6"/>
<path class="st2" d="M271.9,59.7c0,0,14.5-2.2,15.4-2.3"/>
<path class="st2" d="M297.9,73.2c0,0-7,0.2-11.4,0.4c-4.4,0.2-10.1,0.3-10.1,0.3"/>
<polyline class="st2" points="276.6,72.5 283.5,72.3 281.8,71.6 281.8,61.7 "/>
<line class="st2" x1="283.5" y1="72.3" x2="283.5" y2="73.7"/>
<line class="st2" x1="281.8" y1="71.6" x2="276.7" y2="71.7"/>
<polygon class="st2" points="293.8,134.2 312.1,132.8 312.1,142.8 293.7,145 "/>
<path class="st2" d="M304.2,130.8c-1,0.7-4.4,1.1-8.3,1.1c-4.8,0-8.6-0.8-8.6-1.6"/>
<path class="st2" d="M293.8,134.2l-8.1-2.9c0,0-0.6-0.2-0.7-0.7c0-0.5,0.8-0.9,2.1-1.4"/>
<path class="st2" d="M285.1,130.6v9.6c0,0.2,0.1,0.4,0.3,0.5l8.3,4.3"/>
<polygon class="st2" points="293.1,137.6 293.1,141 293,141.1 291.8,142.3 290.4,140.2 290.4,136.8 291.8,135.5 292.5,136.6 "/>
<path class="st2" d="M293.1,137.6v3.4l-0.1,0.1c-0.5-0.2-0.9-1.3-0.9-2.5c0-0.7,0.1-1.3,0.4-2L293.1,137.6z"/>
<path class="st2" d="M301.5,129.9c0,0,3.2,1.1,3.8,1.3c1.4,0.1,2.8-0.3,4-1c1.7-0.8,6.9-3.3,8.3-8.8c0.1-0.2,0.1-0.3,0-0.5l-3.7-6.8
	c-1.4-2.5-1.9-5.4-1.5-8.3c0.2-2,0.5-4.2,0.6-5.8c0.2-3.4,0.3-5.2,0.2-9.5s-0.5-8.6-0.6-9.8c0-0.4-0.1-0.9-0.2-1.4
	c-0.3-1.9-0.2-3.8,0.5-5.6c0.5-1.3,1.1-2.7,1.9-3.9"/>
<path class="st2" d="M287.2,58.5c0,0,10.8-1.1,13.1-0.9"/>
<ellipse class="st2" cx="295.9" cy="57" rx="8.6" ry="0.4"/>
<path class="st2" d="M301.4,57.9c0,0,3.5-0.3,6.1-0.2c2.5,0,10.1,1.5,10.1,3.4"/>
<path class="st2" d="M308.4,57.6h-0.9c-1.1,0-2,0.9-2,2c0,0,0,0,0,0.1c0,1.2,0,2.7,0,4c0,1,0,2,0,2.6v1.6c0,2.4,0,5.2,0,5.2h3.1v-2
	h-0.5V60.6h1.1v-1c0,0,5.5,0.8,6.4,1.5"/>
<path class="st2" d="M305.4,73.1c0,0-2.3,0-4-0.1"/>
<path class="st2" d="M305.3,94.5L305.3,94.5c-0.1,1.6-0.3,3.1-0.8,4.6V88.7c0.4,1.4,0.7,2.8,0.8,4.2l0,0
	C305.1,93.4,305.1,93.9,305.3,94.5L305.3,94.5z"/>
<path class="st2" d="M276.8,93.7c0,0.9,0.5,1.8,1.3,2.2l0.3,0.1h0.2h-1.3c-1.3-0.2-2.2-1.4-2-2.7c0.2-1,1-1.9,2-2h1.2h-0.2l-0.3,0.1
	C277.3,91.8,276.7,92.8,276.8,93.7z"/>
<path class="st2" d="M282.6,107.7c-0.7,0.8-2,0.8-2.8,0.1c-0.1-0.1-0.1-0.1-0.2-0.2c-3-3.5-4.7-8-4.8-12.6c0.4,1.2,1.5,2,2.7,2.1
	c0.3,0,0.6-0.1,0.9-0.2c0.2-0.1,0.3-0.1,0.5-0.3c0.5,3,1.8,5.7,3.8,8C283.4,105.5,283.4,106.8,282.6,107.7z"/>
<path class="st2" d="M282.7,83c-2,2.2-3.3,5-3.8,7.9c-0.2-0.1-0.4-0.2-0.6-0.3c-0.3-0.1-0.6-0.1-0.9-0.1c-1.2,0-2.3,0.8-2.7,2
	c0.3-4.5,2-8.9,4.9-12.4c0.7-0.8,2-0.9,2.8-0.2c0,0,0.1,0.1,0.1,0.1l0,0C283.4,80.8,283.5,82.1,282.7,83z"/>
<path class="st2" d="M309,96.9c-0.5,3.9-2.1,7.6-4.5,10.6V80.3c2.4,2.9,3.9,6.4,4.5,10.1c-0.3-0.1-0.6-0.1-0.8-0.1
	c-1.4,0.1-2.6,1.1-2.9,2.5l0,0c-0.1,0.5-0.1,1.1,0,1.6l0,0c0.2,1.4,1.4,2.4,2.8,2.5C308.4,96.9,308.7,96.9,309,96.9z"/>
<path class="st2" d="M293.7,65.8c0,1-0.4,1.8-1,1.8c-0.5,0-0.9-0.8-0.9-1.8s0.4-1.8,0.9-1.8C293.2,64,293.7,64.8,293.7,65.8z"/>
<path class="st2" d="M304.6,65.8c0,1.5-0.6,2.7-1.4,2.7c-0.1,0-0.2,0-0.3,0v-5.4c0.1,0,0.2,0,0.3,0
	C303.9,63.1,304.6,64.3,304.6,65.8z"/>
<path class="st2" d="M309.4,65.8c0.1,1.5-0.4,2.9-1.5,3.9v-7.9C309,62.9,309.6,64.4,309.4,65.8z"/>
<path class="st2" d="M296.3,65.8c0,1.3-0.5,2.3-1.2,2.3c-0.3,0-0.6-0.2-0.7-0.5h0.7c0.5,0,0.9-0.8,0.9-1.8s-0.4-1.8-0.9-1.8h-0.7
	c0.1-0.3,0.4-0.5,0.7-0.5C295.8,63.5,296.3,64.6,296.3,65.8z"/>
<path class="st2" d="M296.1,65.8c0,1-0.4,1.8-0.9,1.8h-2.5c0.5,0,1-0.8,1-1.8s-0.4-1.8-1-1.8h2.5C295.7,64,296.1,64.8,296.1,65.8z"
	/>
<path class="st2" d="M296.9,63.7v4.2l-1.5,2.1l-1.4-2.1v-0.3h1.3c0.5,0,0.9-0.8,0.9-1.8c0-1-0.4-1.8-0.9-1.8h-1.3v-0.3l1.5-2.1
	L296.9,63.7z"/>
<polyline class="st2" points="295.4,61.6 297.9,61.6 299.4,63.7 299.4,68 297.9,70.1 295.4,70.1 "/>
<line class="st2" x1="299.4" y1="68" x2="296.9" y2="68"/>
<line class="st2" x1="299.4" y1="63.7" x2="296.9" y2="63.7"/>
<polygon class="st2" points="311,93.7 310.3,95.1 308.9,95.1 308.2,93.7 308.9,92.2 310.3,92.2 "/>
<path class="st2" d="M309.6,96c0.3,0,0.5,0,0.7-0.2c-0.3,0.4-0.8,0.8-1.3,1c-0.3,0.1-0.6,0.2-0.9,0.2c-1.4-0.1-2.6-1.1-2.8-2.5l0,0
	c-0.1-0.5-0.1-1.1,0-1.6l0,0c0.3-1.4,1.4-2.4,2.9-2.5c0.3,0,0.6,0,0.8,0.1c0.5,0.2,1,0.5,1.4,1c-0.2-0.1-0.5-0.2-0.7-0.2h-1.4
	c-1.3,0.2-2.2,1.4-2.1,2.7c0.1,1.1,1,1.9,2.1,2.1L309.6,96z"/>
<path class="st2" d="M310.3,91.5c-0.2-0.1-0.5-0.2-0.7-0.2c-0.2,0-0.3,0-0.5,0.1c-0.1,0-0.2,0-0.2,0.1c-0.8,0.4-1.4,1.3-1.3,2.2
	c0,0.9,0.5,1.8,1.3,2.2l0.3,0.1c0.1,0,0.3,0,0.4,0c0.3,0,0.5,0,0.7-0.2c0.8-0.4,1.4-1.3,1.3-2.2C311.7,92.7,311.1,91.9,310.3,91.5z
	 M310.3,95.1h-1.4l-0.7-1.5l0.7-1.5h1.4l0.7,1.5L310.3,95.1z"/>
<path class="st2" d="M309.1,96c0.1,0,0.3,0,0.4,0h-1.4c-1.3-0.2-2.2-1.4-2.1-2.7c0.1-1.1,1-1.9,2.1-2.1h1.5c-0.2,0-0.3,0-0.5,0.1
	c-0.1,0-0.2,0-0.2,0.1c-0.8,0.4-1.4,1.3-1.3,2.2c0,0.9,0.5,1.8,1.3,2.2L309.1,96z"/>
<path class="st2" d="M278.9,96.1c0.3,0,0.5-0.1,0.7-0.2c-0.2,0.3-0.5,0.5-0.8,0.7c-0.2,0.1-0.3,0.2-0.5,0.3
	c-0.3,0.1-0.6,0.2-0.9,0.2c-1.2,0-2.3-0.9-2.7-2.1c-0.1-0.1-0.1-0.3-0.1-0.4l0,0c-0.1-0.5-0.1-1.1,0-1.6l0,0c0-0.2,0.1-0.4,0.2-0.6
	l0,0c0.4-1.1,1.5-1.9,2.7-2c0.3,0,0.6,0,0.9,0.1c0.2,0.1,0.4,0.2,0.6,0.3c0.3,0.2,0.5,0.4,0.7,0.7c-0.2-0.1-0.5-0.2-0.7-0.2h-1.5
	c-1.3,0.2-2.2,1.4-2,2.7c0.2,1,1,1.9,2,2L278.9,96.1z"/>
<path class="st2" d="M279.6,91.5c-0.2-0.1-0.5-0.2-0.7-0.2h-0.3h-0.2l-0.3,0.1c-1.2,0.7-1.7,2.2-1,3.4c0.2,0.4,0.6,0.8,1,1l0.3,0.1
	h0.2h0.2c0.3,0,0.5-0.1,0.7-0.2c1.2-0.7,1.7-2.2,1-3.4c-0.2-0.4-0.6-0.8-1-1V91.5z M279.6,95.2h-1.4l-0.7-1.5l0.7-1.5h1.4l0.7,1.5
	L279.6,95.2z"/>
<polygon class="st2" points="280.3,93.7 279.6,95.2 278.2,95.2 277.5,93.7 278.2,92.3 279.6,92.3 "/>
<path class="st2" d="M278.8,96.1h-1.3c-1.3-0.2-2.2-1.4-2-2.7c0.2-1,1-1.9,2-2h1.2h-0.2l-0.3,0.1c-1.2,0.7-1.7,2.2-1,3.4
	c0.2,0.4,0.6,0.8,1,1l0.3,0.1h0.2L278.8,96.1z"/>
<path class="st2" d="M275.6,127.9l-5.6,6.6c-1.3-1.6-2.7-3-4.2-4.4c-1.4-1.5-2.9-2.8-4.5-4l0.6-0.7l2.6,1.4l0,0
	c0.1,0.1,0.2,0.2,0.3,0.3c0.3,0.2,0.6,0.4,1,0.4c0.8,0,1.5-0.3,2-1c0.7-0.8,0.8-2,0.2-2.9c-0.1-0.1-0.2-0.2-0.3-0.3
	c-0.3-0.2-0.6-0.4-1-0.4l-1.8-1l2-2.4c0,0,0.4,0.2,0.9,0.7l0,0c0.8,0.7,2.2,1.9,3.6,3.3s2.7,2.7,3.5,3.5l0,0
	C275.3,127.6,275.6,127.9,275.6,127.9z"/>
<line class="st2" x1="269.9" y1="134.5" x2="269.9" y2="134.5"/>
<path class="st7" d="M267,81.7c0.1,0,0.2,0.1,0.2,0.2c0,0.1,0,0.2,0,0.3c0,0.1-0.1,0.1-0.1,0.2c-0.1,0-0.1,0-0.2,0v-0.1
	c0.2,0,0.3-0.1,0.3-0.3c0,0,0,0,0,0c0-0.1-0.1-0.1-0.1-0.1c0,0-0.1,0-0.1,0c-0.1,0-0.1,0.1-0.1,0.2V82l0,0l-0.2-0.4l-0.2,0.4h-0.1
	l0.3-0.6l0,0l0.1,0.4c0-0.1,0.1-0.1,0.2-0.1C266.9,81.6,267,81.6,267,81.7z"/>
<path class="st7" d="M266.9,81.4c-0.1,0-0.2-0.1-0.3-0.3c-0.1-0.1-0.1-0.2,0-0.3c0-0.1,0.1-0.2,0.3-0.2c0.1,0,0.3,0,0.4,0.1
	c0.1,0.1,0.2,0.1,0.3,0.3c0.1,0.1,0.1,0.2,0,0.4c0,0.1-0.1,0.2-0.3,0.2C267.2,81.5,267.1,81.5,266.9,81.4z M267.2,80.8
	c-0.2-0.1-0.4-0.1-0.4,0s0,0.3,0.3,0.4c0.3,0.1,0.4,0.1,0.4,0S267.4,80.9,267.2,80.8z"/>
<path class="st7" d="M264.4,88.7L264.4,88.7l1,0.2v0.2l-0.8-0.2v0.2h-0.1L264.4,88.7z"/>
<path class="st7" d="M265.2,87.8c0.1,0,0.2,0.1,0.2,0.2c0,0.1,0,0.2,0,0.3c0,0.1-0.1,0.2-0.1,0.2c0,0.1-0.1,0.1-0.2,0.1v-0.1
	c0.1,0,0.2-0.1,0.2-0.2c0-0.1,0-0.1,0-0.2c0,0-0.1-0.1-0.1-0.1c0,0-0.1,0-0.2,0c0,0-0.1,0.1-0.1,0.2v0.2l-0.5-0.1l0.1-0.6h0.1
	l-0.1,0.4h0.2c0,0,0-0.1,0-0.1c0-0.1,0.1-0.2,0.1-0.2C265.1,87.8,265.2,87.8,265.2,87.8z"/>
<path class="st7" d="M270.4,75.6l0.1,0.1l-0.1,0.1l0.2,0.1l-0.1,0.1l-0.2-0.1l-0.3,0.4l0,0l-0.4-0.8l0.1-0.1l0.4,0.7l0.2-0.3
	l-0.2-0.2l0.1-0.1l0.3,0.2L270.4,75.6z"/>
<path class="st7" d="M270.9,74.9c0.1,0.1,0.1,0.2,0.1,0.3c0,0.1,0,0.2-0.1,0.3c0,0.1-0.1,0.1-0.2,0.2c-0.1,0-0.2,0-0.2,0v-0.1
	c0.1,0,0.2,0,0.3-0.1c0-0.1,0-0.1,0-0.2c0-0.1,0-0.1-0.1-0.1c0,0-0.1,0-0.1,0c-0.1,0-0.1,0.1-0.2,0.1l-0.2,0.2l-0.4-0.3l0.4-0.5
	l0.1,0.1l-0.3,0.4l0.2,0.2l0.1-0.1c0.1-0.1,0.1-0.1,0.2-0.2C270.7,74.8,270.8,74.8,270.9,74.9z"/>
<path class="st2" d="M271.1,65c-3.2,3.3-6.1,6.8-8.9,10.4c-2.3,3-4.3,6.1-6.2,9.4c0,0.5,5,7.2,5.2,7.3c1.9,0.9,3.5,2.2,4.9,3.8
	c1.4,2.1,2.6,4.4,2.8,4.7c0.2,0.3,1.8,2.4,1.8,2.4"/>
<path class="st2" d="M270.8,69c-2.5,2.4-4.7,5-6.7,7.8c-2.1,2.8-4,5.7-5.6,8.8c0,0.3,3.5,5.2,3.6,5.2c1.3,0.8,2.6,1.7,3.8,2.7
	c1.4,1.4,3.3,4.9,3.6,5.1c0.3,0.2,0.7,0.3,1,0.4"/>
<line class="st2" x1="269.4" y1="114.7" x2="270.3" y2="113.5"/>
<path class="st2" d="M271.3,109.6l-2.1,2.9c0,0-0.2,0.3,1.1,1c1.3,0.7,1.3,0.7,1.3,0.7"/>
<path class="st2" d="M269.3,112.5c0.2-0.4,2.3,0.9,2.3,0.9"/>
<path class="st2" d="M284.8,114.7c0,0-0.2,1.3-0.5,1.4l-6.4,0.1"/>
<path class="st2" d="M284.3,116.2c-1.8,1.8-2.1,5.4-2.1,7.2h-1.4"/>
<path class="st2" d="M296.9,129.4c0,0-10.6-3.3-14.7-5.9"/>
<polyline class="st2" points="296.9,121.1 295.1,120.6 295.1,120.9 "/>
<polyline class="st2" points="296.9,127.3 295.1,126.7 295.1,126.6 "/>
<polyline class="st2" points="299.8,131.8 303.1,133.5 303.1,143.9 "/>
<line class="st2" x1="307.9" y1="130.9" x2="312.1" y2="132.8"/>
<path class="st2" d="M307.5,125.7c0,0.8,0,1.5,0,2.1c0,0.5,0.4,0.9,0.9,0.9c0.1,0,0.2,0,0.3,0c2.2-0.6,6.8-2.5,8.6-7.3
	c-2-2.8-3.7-5.8-5-9c-1.4-3.8-0.5-6.7-0.3-10.5s0.4-5.7,0.4-9.4c0-3.8-0.2-7.7-0.6-11.5c-0.3-1.5-1-5.4,0.6-8.3
	c1.6-3.1,1.6-3.2,1.6-3.2"/>
<path class="st2" d="M304.5,113.4c0,0,1.5,0.6,1.5,1.3s-2.1,0.9-1.7,1.3c0.3,0.4,3.1,0.5,3.2,1.3c0,0.3,0,1.6,0,3.2"/>
<path class="st2" d="M307.4,117H306c-1.3,0-2.3,1.1-2.3,2.4c0,0,0,0,0,0v9.6c0,1.2,0.9,2.2,2.2,2.2c0.1,0,0.2,0,0.4,0l0,0"/>
<path class="st2" d="M310.4,122.9c0,1.4-0.5,2.6-1.1,2.6l-1.9,0.2c0-1.6,0-3.6,0-5.3l1.9-0.2C309.9,120.3,310.4,121.5,310.4,122.9z"
	/>
<path class="st2" d="M302.8,123.7c0,0.9-0.3,1.7-0.7,1.7h-0.6V122h0.6C302.5,122,302.8,122.8,302.8,123.7z"/>
<polyline class="st2" points="305.9,114.8 311.1,114.6 311.1,113.1 304.5,113.3 "/>
<polyline class="st2" points="304.5,73.6 310.7,73.7 311.1,72.5 308.5,72.5 "/>
<path class="st2" d="M271.3,71.8c-4.9,5.4-7.9,12.2-8.4,19.5"/>
<path class="st2" d="M271.7,76.1c0,0-5.3,6.4-5.6,17.5"/>
<path class="st2" d="M271.3,109.5c0,0-0.6-0.8-2-2.3l-0.6-0.6l-1.1-1.1l-0.1-0.1l-0.5-0.6c-2.9-3.2-8.2-10.3-8.9-11
	c-0.4-0.4-1.3-1.1-2-1.8c-0.5-0.4-1-0.8-1.3-1.2c-0.3-0.3-0.5-0.6-0.9-1.1l0,0c-1.7-2-4.8-5.7-4.8-5.7l0.2-2.1l1.6-2.7l0.3,0.3
	l-0.2,1.6l0.5-0.2l0.8-1.3"/>
<path class="st2" d="M312.4,109.2c0.5-0.7,1-1.4,1.6-2.1c1.2-0.8,2.4-1.7,3.5-2.7l0.1-0.1l0,0c1.1-1.3,1.9-2.8,2.2-2.9
	c0.6,0,1.2,0,1.8,0.1l0.6-0.5l0.4-0.4c0,0-2-3-2.2-3.2s-1.3-1.3-3.2-2.9c-1.5-1.5-2.9-3.1-4.1-4.9"/>
<path class="st2" d="M313.2,94.6c0,0,5.9,5.3,6.6,6.8"/>
<path class="st2" d="M313.2,92.2c1.2,1.5,2.5,2.9,3.9,4.2l2.2,1.9c0.3,0.2,0.5,0.5,0.7,0.8l1.7,2.5"/>
<polyline class="st2" points="318.2,103.7 319.7,103.6 321.7,101.5 322.2,100.9 "/>
<line class="st2" x1="320.9" y1="107.4" x2="314.6" y2="115.3"/>
<path class="st2" d="M322.3,101.1l1.7,1.8c0.1,0.2,0.1,0.4,0,0.6l-2.1,2.6"/>
<path class="st2" d="M312.8,111.3c0.4-0.5,5.8-6.4,5.8-6.4l-1.1-0.5"/>
<polyline class="st2" points="317.6,104.3 318.8,104.4 320.4,105.8 321.9,106.1 319.7,103.6 "/>
<line class="st2" x1="320.9" y1="107.4" x2="318.7" y2="104.9"/>
<path class="st2" d="M324.4,30.6v34.2c-0.1-0.5-0.6-0.8-1.1-0.9c-0.8,0.2-1.3,1-1.1,1.8c0.1,0.6,0.6,1,1.1,1.1
	c0.5-0.1,0.9-0.4,1.1-0.9l0,0v2.3c0,0.6-0.4,1.2-1.1,1.3l-5,0.5c-1.2,0.1-2.3,0-3.4-0.4l-4.3-1.4V63l4.7-1.6
	c0.7-0.3,1.5-0.4,2.3-0.4V30.6H324.4z"/>
<path class="st2" d="M324.4,61L324.4,61z"/>
<line class="st2" x1="310.6" y1="63" x2="308.9" y2="63"/>
<line class="st2" x1="310.6" y1="68.2" x2="309.1" y2="68.2"/>
<path class="st2" d="M324.4,66.1v1.2c0,0.2-0.1,0.3-0.3,0.3c-2.5,0.3-4.3,0.3-4.9,0.3c-0.1,0-0.2-0.1-0.2-0.2c0,0,0,0,0,0v-7h-1.3
	V61"/>
<path class="st2" d="M324.5,65.4c0,0.2,0,0.4-0.1,0.6l0,0c-0.2,0.5-0.6,0.8-1.1,0.9c-0.8-0.2-1.3-1-1.1-1.8c0.1-0.6,0.6-1,1.1-1.1
	c0.5,0.1,0.9,0.4,1.1,0.9l0,0C324.5,65,324.5,65.2,324.5,65.4z"/>
<polyline class="st2" points="318.7,51.3 318.7,51.3 318.1,50.1 317.5,49.1 "/>
<polyline class="st2" points="317.5,46.6 318.1,47.6 318.7,48.9 319.3,50.1 319.9,51.3 319.9,51.3 "/>
<polyline class="st2" points="321.1,51.3 321.1,51.3 320.5,50.1 319.9,48.9 319.3,47.6 318.7,46.4 318.1,45.2 318.1,45.2 
	317.5,44.2 "/>
<polyline class="st2" points="322.4,51.3 322.3,51.3 321.7,50.1 321.7,50.1 321.1,48.9 320.5,47.6 320.5,47.6 319.9,46.4 
	319.9,46.4 319.3,45.2 318.7,43.9 318.1,42.7 317.5,41.7 "/>
<polyline class="st2" points="323.6,51.3 323.6,51.3 323,50.1 323,50.1 322.3,48.9 321.7,47.6 321.7,47.6 321.1,46.4 320.5,45.2 
	319.9,43.9 319.9,43.9 319.3,42.7 318.7,41.5 318.1,40.3 317.5,39.2 "/>
<polyline class="st2" points="317.5,36.8 318.1,37.8 318.7,39 319.3,40.3 319.9,41.5 320.5,42.7 321.1,43.9 321.7,45.2 321.7,45.2 
	322.3,46.4 323,47.6 323,47.6 323.6,48.9 324.2,50.1 324.4,50.5 "/>
<polyline class="st2" points="324.4,48.1 324.2,47.6 323.6,46.4 323,45.2 322.3,43.9 321.7,42.7 321.1,41.5 320.5,40.3 319.9,39 
	319.3,37.8 318.7,36.6 318.1,35.3 317.5,34.3 "/>
<polyline class="st2" points="324.4,45.6 324.2,45.2 323.6,43.9 323,42.7 322.3,41.5 321.7,40.3 321.1,39 320.5,37.8 319.9,36.6 
	319.3,35.3 318.7,34.1 318.1,32.9 317.5,31.9 "/>
<polyline class="st2" points="324.4,43.1 324.2,42.7 323.6,41.5 323,40.3 322.3,39 321.7,37.8 321.1,36.6 320.5,35.3 319.9,34.1 
	319.3,32.9 318.7,31.7 318.1,30.6 "/>
<polyline class="st2" points="324.4,40.7 324.2,40.3 323.6,39 323,37.8 323,37.8 322.3,36.6 321.7,35.3 321.1,34.1 320.5,32.9 
	319.9,31.7 319.9,31.7 319.4,30.6 "/>
<polyline class="st2" points="324.4,38.2 324.2,37.8 323.6,36.6 323,35.3 322.3,34.1 321.7,32.9 321.1,31.7 321.1,31.7 320.6,30.6 
	"/>
<polyline class="st2" points="321.8,30.6 322.3,31.7 323,32.9 323.6,34.1 324.2,35.3 324.4,35.8 324.4,35.8 "/>
<polyline class="st2" points="323.1,30.6 323.6,31.7 324.2,32.9 324.4,33.3 "/>
<line class="st2" x1="324.4" y1="30.9" x2="324.3" y2="30.6"/>
<polyline class="st2" points="323.6,51.3 323.6,51.3 324.2,50.1 324.4,49.7 "/>
<polyline class="st2" points="324.4,47.2 324.4,47.2 324.2,47.6 323.6,48.9 323,50.1 323,50.1 322.3,51.3 322.3,51.3 "/>
<polyline class="st2" points="324.4,44.7 324.2,45.2 323.6,46.4 323,47.6 323,47.6 322.3,48.9 321.7,50.1 321.7,50.1 321.1,51.3 
	321.1,51.3 321.1,51.3 "/>
<polyline class="st2" points="324.4,42.3 324.2,42.7 323.6,43.9 323,45.2 322.3,46.4 321.7,47.6 321.7,47.6 321.1,48.9 320.5,50.1 
	319.9,51.3 319.9,51.3 319.9,51.3 "/>
<polyline class="st2" points="324.4,39.8 324.2,40.3 323.6,41.5 323,42.7 322.3,43.9 321.7,45.2 321.7,45.2 321.1,46.4 320.5,47.6 
	320.5,47.6 319.9,48.9 319.3,50.1 318.7,51.3 318.7,51.3 318.7,51.3 "/>
<polyline class="st2" points="324.4,37.4 324.2,37.8 323.6,39 323,40.3 322.3,41.5 321.7,42.7 321.1,43.9 320.5,45.2 319.9,46.4 
	319.9,46.4 319.3,47.6 318.7,48.9 318.1,50.1 317.5,51.1 "/>
<polyline class="st2" points="324.4,34.9 324.4,34.9 324.4,34.9 324.2,35.3 323.6,36.6 323,37.8 323,37.8 322.3,39 321.7,40.3 
	321.1,41.5 320.5,42.7 319.9,43.9 319.9,43.9 319.3,45.2 318.7,46.4 318.1,47.6 317.5,48.6 "/>
<polyline class="st2" points="324.4,32.4 324.2,32.9 323.6,34.1 323,35.3 322.3,36.6 321.7,37.8 321.1,39 320.5,40.3 319.9,41.5 
	319.3,42.7 318.7,43.9 318.1,45.2 318.1,45.2 317.5,46.2 "/>
<polyline class="st2" points="324.1,30.6 323.6,31.7 323,32.9 322.3,34.1 321.7,35.3 321.1,36.6 320.5,37.8 319.9,39 319.3,40.3 
	318.7,41.5 318.1,42.7 317.5,43.7 "/>
<polyline class="st2" points="322.9,30.6 322.3,31.7 321.7,32.9 321.1,34.1 320.5,35.3 319.9,36.6 319.3,37.8 318.7,39 318.1,40.3 
	317.5,41.3 "/>
<polyline class="st2" points="321.6,30.6 321.1,31.7 321.1,31.7 320.5,32.9 319.9,34.1 319.3,35.3 318.7,36.6 318.1,37.8 
	317.5,38.8 "/>
<polyline class="st2" points="317.5,36.4 318.1,35.3 318.7,34.1 319.3,32.9 319.9,31.7 319.9,31.7 320.4,30.6 "/>
<polyline class="st2" points="317.5,33.9 318.1,32.9 318.7,31.7 319.2,30.6 "/>
<line class="st2" x1="317.9" y1="30.6" x2="317.5" y2="31.4"/>
<polyline class="st2" points="317.5,30.6 318,30.1 323.9,30.1 324.4,30.6 "/>
<line class="st2" x1="317.5" y1="61" x2="318.9" y2="61"/>
<line class="st2" x1="263.6" y1="86.7" x2="266.7" y2="87.5"/>
<line class="st2" x1="266.1" y1="79.4" x2="268.9" y2="80.8"/>
<line class="st2" x1="270.1" y1="73.1" x2="271.4" y2="74.2"/>
<path class="st2" d="M252,80.3l-10.8-11.6c-0.3-0.9-0.4-1.9-0.5-2.8c0-1.3,3.6-7.1,5.9-9.8l-0.1-0.2l3.4-3.5h0.3
	c2.2-2,4.7-3.8,7.2-5.3c0,0,1.7-0.7,1.8-0.7c0.6,0,1.1,0.1,1.7,0.2c0.1,0,10.6,11.9,10.6,11.9s-3.2,3.2-4.3,4.4
	c-1.1,1.2-1.9,2.5-3.9,4.7c-0.3,0.4-0.7,0.8-1,1.2l-0.1,0.1l-0.5,0.5l-1.1,1.3c-2.2,2.3-4.4,4.6-4.4,4.6"/>
<path class="st2" d="M259.3,46.4c-1.2,0.1-2.4,0.6-3.5,1.3c-3.1,1.7-5.9,3.8-8.4,6.3c-2.5,2.7-4.6,5.8-6.2,9.1
	c-0.2,0.9-0.4,1.8-0.5,2.7"/>
<line class="st2" x1="250.3" y1="52.4" x2="263.8" y2="67.2"/>
<line class="st2" x1="246.6" y1="56.1" x2="260.2" y2="71.2"/>
<path class="st2" d="M248.1,60.3l10,11l-4.5,5c-0.2,0.2-0.4,0.2-0.6,0.1c0,0,0,0-0.1-0.1l-8.2-9c-0.2-0.2-0.2-0.4-0.2-0.7
	c0.7-2.2,1.7-4.3,3-6.3c0.1-0.2,0.3-0.3,0.5-0.2C248.1,60.2,248.1,60.3,248.1,60.3z"/>
<path class="st2" d="M254,53.3c1.8-1.1,3.7-2.1,5.7-2.8c0.2-0.1,0.5,0,0.7,0.2l7.8,8.9l-4.9,5.4l-9.4-10.4
	C253.5,54.2,253.5,53.7,254,53.3C253.9,53.4,254,53.3,254,53.3z"/>
<path class="st2" d="M286,57.6c-1.1-0.8-2.2-1.6-3.3-2.3c-0.5-0.2-4.9,3.5-4.9,3.5"/>
<path class="st2" d="M281.9,55.7c0,0-1.6-1-1.9-1.1c-0.8,0-1.5,0.1-2.2,0.3"/>
<line class="st2" x1="272" y1="57.2" x2="271.1" y2="57.9"/>
<path class="st2" d="M263.4,67.6c-0.3,0.4-0.7,0.8-1,1.2l-0.1,0.1l-0.5,0.5l-1.1,1.3c-0.4-0.4-0.6-0.9-0.6-1.5c0-1.1,0.9-2.1,2-2.1
	c0,0,0,0,0,0C262.6,67.1,263.1,67.3,263.4,67.6z"/>
<path class="st2" d="M262.3,68.9l-0.5,0.5c0,0-0.1,0-0.1,0h-0.8c-0.1,0-0.2-0.1-0.2-0.2c0,0,0,0,0,0c0-0.1,0.1-0.2,0.2-0.2
	c0,0,0,0,0,0h0.8c0.1,0,0.3-0.1,0.3-0.3v-0.8c0-0.1,0-0.2,0.1-0.2c0.1,0,0.2,0,0.2,0.1c0,0,0,0.1,0,0.1v0.8
	C262.3,68.8,262.3,68.9,262.3,68.9z"/>
<path class="st2" d="M251.3,56.2l8.1,8.9c0.1,0.1,0.1,0.3,0,0.4l-1.3,1.5c-0.1,0.1-0.3,0.1-0.4,0c0,0,0,0,0,0l-8.1-9
	c-0.1-0.1-0.1-0.3,0-0.4l1.3-1.3C251,56.1,251.1,56,251.3,56.2C251.3,56.2,251.3,56.2,251.3,56.2z"/>
<polyline class="st2" points="261.5,64.7 258.3,68.4 260.4,70.9 "/>
<path class="st2" d="M274.4,55.3c-1.2,1.1-2.3,1.8-2.5,1.6s0.6-1.3,1.8-2.5s2.3-1.8,2.5-1.6C276.3,53.1,275.6,54.2,274.4,55.3z"/>
<path class="st2" d="M276.3,57.6c-1.2,1.1-2.3,1.8-2.5,1.6l-1.9-2.3c0.2,0.2,1.3-0.5,2.5-1.6s2-2.2,1.8-2.5l2,2.3
	C278.3,55.3,277.5,56.5,276.3,57.6z"/>
<polygon class="st2" points="274.5,54.1 273.3,55.3 272.8,56 273.5,55.5 274.7,54.3 275.2,53.6 "/>
<path class="st2" d="M254.5,77.6c-1.1,1.2-2.2,1.9-2.5,1.7c-0.3-0.2,0.5-1.4,1.7-2.5c1.1-1.1,2.2-1.9,2.4-1.7
	C256.3,75.3,255.6,76.4,254.5,77.6z"/>
<path class="st2" d="M256.6,79.8c-1.1,1.2-2.2,1.9-2.5,1.7l-2.1-2.2c0.2,0.2,1.3-0.5,2.5-1.7c1.2-1.2,1.9-2.3,1.7-2.5l2.1,2.2
	C258.4,77.5,257.7,78.6,256.6,79.8z"/>
<polygon class="st2" points="254.6,76.4 253.4,77.6 252.9,78.3 253.6,77.8 254.8,76.6 255.3,75.9 "/>
<polyline class="st2" points="249.2,84.1 252.2,84.4 251.8,83.1 253.9,83.4 254.2,84.7 256.1,84.8 "/>
<line class="st2" x1="251.8" y1="83.1" x2="253.7" y2="81"/>
<path class="st2" d="M253.9,83.4c0,0,6.4-6.9,4.3-6.2"/>
<path class="st2" d="M254.2,84.7c0,0,5.6-6.5,4.4-7.4"/>
<path class="st2" d="M280.1,54.6c0,0-3.4,4.3-5.6,4.8"/>
<path class="st2" d="M295.7,123.9c0,1.2-0.4,2.1-0.8,2.1c-0.1,0-0.2,0-0.2-0.1c-0.2-0.2-0.3-0.4-0.4-0.6h0.5c0.3,0,0.5-0.6,0.5-1.4
	s-0.2-1.4-0.5-1.4h-0.5c0-0.1,0.1-0.2,0.1-0.3c0.1-0.3,0.3-0.4,0.5-0.4C295.3,121.7,295.7,122.7,295.7,123.9z"/>
<path class="st2" d="M294.3,123.9c0,0.1,0,0.2,0,0.3c0,0.2,0,0.4-0.1,0.6c-0.1,0.3-0.2,0.6-0.4,0.6c-0.2,0-0.5-0.6-0.5-1.4
	s0.2-1.4,0.5-1.4c0.3,0,0.3,0.2,0.4,0.6l0,0C294.2,123.3,294.3,123.6,294.3,123.9z"/>
<path class="st2" d="M296.9,124.1l-0.7,2.6l-1.4-0.3l-0.1-0.4c0.1,0.1,0.1,0.1,0.2,0.1c0.4,0,0.8-1,0.8-2.1c0-1.2-0.4-2.1-0.8-2.1
	c-0.2,0-0.3,0.2-0.5,0.4l0.3-1.3l1.4,0.3L296.9,124.1z"/>
<line class="st2" x1="296.1" y1="121.1" x2="297.9" y2="121.1"/>
<line class="st2" x1="294.7" y1="120.8" x2="295.6" y2="120.8"/>
<line class="st2" x1="296.8" y1="124.1" x2="298.6" y2="124.1"/>
<polyline class="st2" points="296.1,126.7 297.9,126.7 298.6,124.1 297.9,121.1 297.5,121 "/>
<path class="st2" d="M295.3,123.9c0,0.8-0.2,1.4-0.5,1.4h-1c0.2,0,0.3-0.2,0.4-0.6c0-0.2,0.1-0.4,0.1-0.6c0-0.1,0-0.2,0-0.3
	c0-0.3,0-0.6-0.1-0.8l0,0c-0.1-0.3-0.2-0.6-0.4-0.6h1C295.1,122.4,295.3,123.1,295.3,123.9z"/>
<path class="st2" d="M255,93.5c-0.1,0.1-0.8-0.3-1.4-0.9c-0.6-0.7-1-1.3-0.9-1.5c0.1-0.2,0.4,0,0.7,0.3l-0.2,0.2
	c0,0.1,0.2,0.4,0.5,0.8c0.3,0.4,0.7,0.6,0.7,0.5l0.2-0.2C254.9,93.1,255.1,93.4,255,93.5z"/>
<path class="st2" d="M255,93.5l-1.1,1.1c-0.2,0.2-0.8-0.3-1.4-0.9c-0.6-0.7-1-1.3-0.9-1.5l1.1-1.1c-0.1,0.2,0.3,0.8,0.9,1.5
	C254.2,93.2,254.8,93.6,255,93.5z"/>
<path class="st2" d="M256.2,92.2l-0.8-0.4l-1.1-1.3l-0.4-0.8c0.4,0.5,0.8,0.9,0.9,1.1c0.2,0.2,0.8,0.7,1.3,1.2L256.2,92.2z"/>
<polyline class="st2" points="253.9,89.8 253.2,90.6 253.5,91.3 "/>
<polyline class="st2" points="256.2,92.2 255.5,93 254.7,92.6 "/>
<line class="st2" x1="254.3" y1="90.6" x2="253.5" y2="91.4"/>
<line class="st2" x1="255.4" y1="91.8" x2="254.7" y2="92.6"/>
<path class="st2" d="M254.7,92.6l-0.3,0.3c-0.1,0.1-0.4-0.1-0.7-0.5c-0.3-0.4-0.6-0.7-0.5-0.8l0.3-0.3l0,0L254.7,92.6L254.7,92.6z"
	/>
<line class="st2" x1="254.7" y1="92.6" x2="254.7" y2="92.6"/>
<path class="st2" d="M268.4,108.2c-0.1,0.1-0.8-0.3-1.4-0.9s-1-1.3-0.9-1.4s0.4,0,0.7,0.3l-0.2,0.2c-0.1,0.1,0.1,0.4,0.5,0.8
	c0.3,0.4,0.7,0.6,0.7,0.5l0.2-0.2C268.4,107.8,268.5,108.1,268.4,108.2z"/>
<path class="st2" d="M268.4,108.2l-1.1,1.1c-0.1,0.2-0.8-0.3-1.4-0.9c-0.6-0.7-1-1.3-0.9-1.4l1.1-1.1c-0.1,0.1,0.3,0.8,0.9,1.4
	C267.6,107.9,268.3,108.3,268.4,108.2z"/>
<polyline class="st2" points="267,106 266.6,105.2 267.1,104.8 "/>
<polyline class="st2" points="268.2,107.3 268.9,107.6 269.3,107.2 "/>
<line class="st2" x1="267.6" y1="105.4" x2="267" y2="106.1"/>
<polyline class="st2" points="268.1,107.3 268.1,107.3 268.7,106.6 "/>
<path class="st2" d="M268.2,107.3l-0.3,0.3c-0.1,0.1-0.4-0.2-0.7-0.5c-0.3-0.4-0.6-0.7-0.5-0.8l0.3-0.3l0,0L268.2,107.3L268.2,107.3
	z"/>
<line class="st2" x1="268.2" y1="107.3" x2="268.2" y2="107.3"/>
<line class="st5" x1="263.6" y1="38.7" x2="263.6" y2="69.6"/>
<circle class="st0" cx="263.6" cy="69.6" r="2.8"/>
<line class="st6" x1="263.6" y1="38.7" x2="263.6" y2="69.6"/>
<circle class="st7" cx="263.6" cy="69.6" r="1.9"/>
<text transform="matrix(0.95 0 0 1 261.5842 36.7922)" class="st7 st8 st10">3</text>
<line class="st5" x1="303.2" y1="50" x2="316.7" y2="64.1"/>
<path class="st0" d="M314.6,66.1c1.1,1.1,2.9,1.2,4,0.1c1.1-1.1,1.2-2.9,0.1-4s-2.9-1.2-4-0.1c0,0,0,0,0,0
	C313.6,63.1,313.5,64.9,314.6,66.1z"/>
<line class="st6" x1="303.2" y1="50" x2="316.7" y2="64.1"/>
<path class="st7" d="M315.3,65.4c0.7,0.7,1.9,0.7,2.7,0c0.7-0.7,0.7-1.9,0-2.7c-0.7-0.7-1.9-0.7-2.7,0
	C314.5,63.5,314.5,64.6,315.3,65.4C315.3,65.4,315.3,65.4,315.3,65.4z"/>
<line class="st5" x1="297.7" y1="93.9" x2="305.4" y2="93.9"/>
<path class="st0" d="M305.4,96.7c1.6,0,2.8-1.3,2.9-2.8c0-1.6-1.3-2.8-2.8-2.9c-1.6,0-2.8,1.3-2.9,2.8c0,0,0,0,0,0
	C302.6,95.4,303.9,96.7,305.4,96.7z"/>
<line class="st6" x1="297.7" y1="93.9" x2="305.4" y2="93.9"/>
<path class="st7" d="M305.4,95.8c1,0,1.9-0.8,1.9-1.9c0-1-0.8-1.9-1.9-1.9c-1,0-1.9,0.8-1.9,1.9c0,0,0,0,0,0
	C303.6,94.9,304.4,95.8,305.4,95.8z"/>
<line class="st5" x1="291.5" y1="93.9" x2="281.5" y2="93.9"/>
<circle class="st0" cx="281.5" cy="93.9" r="2.8"/>
<line class="st6" x1="291.5" y1="93.9" x2="281.5" y2="93.9"/>
<circle class="st7" cx="281.5" cy="93.9" r="1.9"/>
<line class="st5" x1="320" y1="137.7" x2="310" y2="137.7"/>
<circle class="st0" cx="310" cy="137.7" r="2.8"/>
<line class="st6" x1="320" y1="137.7" x2="310" y2="137.7"/>
<circle class="st7" cx="310" cy="137.7" r="1.9"/>
<line class="st5" x1="322.8" y1="123.2" x2="311.1" y2="123.2"/>
<circle class="st0" cx="311.1" cy="123.2" r="2.8"/>
<line class="st6" x1="322.8" y1="123.2" x2="311.1" y2="123.2"/>
<circle class="st7" cx="311.1" cy="123.2" r="1.9"/>
<text transform="matrix(0.95 0 0 1 298.1633 48.7922)" class="st7 st8 st10">4</text>
<line class="st5" x1="234.5" y1="83.9" x2="264.8" y2="83.9"/>
<path class="st0" d="M264.8,86.8c1.6,0,2.8-1.3,2.8-2.8s-1.3-2.8-2.8-2.8c-1.6,0-2.8,1.3-2.8,2.8l0,0
	C261.9,85.5,263.2,86.8,264.8,86.8z"/>
<line class="st6" x1="234.5" y1="83.9" x2="264.8" y2="83.9"/>
<path class="st7" d="M264.8,85.8c1,0,1.9-0.8,1.9-1.9c0-1-0.8-1.9-1.9-1.9s-1.9,0.8-1.9,1.9c0,0,0,0,0,0
	C262.9,84.9,263.7,85.8,264.8,85.8z"/>
<text transform="matrix(0.95 0 0 1 228.6916 85.9875)" class="st7 st8 st10">2</text>
<line class="st5" x1="282" y1="150.5" x2="290.3" y2="141.9"/>
<path class="st0" d="M292.3,143.8c1.1-1.1,1-2.9-0.1-4c-1.1-1.1-2.9-1-4,0.1c-1.1,1.1-1,2.9,0.1,4C289.4,145,291.2,145,292.3,143.8z
	"/>
<line class="st6" x1="282" y1="150.5" x2="290.3" y2="141.9"/>
<path class="st7" d="M291.6,143.2c0.7-0.7,0.7-1.9,0-2.7c-0.7-0.7-1.9-0.7-2.7,0c-0.7,0.7-0.7,1.9,0,2.7
	C289.7,143.9,290.9,143.9,291.6,143.2C291.6,143.2,291.6,143.2,291.6,143.2z"/>
<text transform="matrix(0.95 0 0 1 277.4963 157.2834)" class="st7 st8 st10">7</text>
<text transform="matrix(0.95 0 0 1 293.2189 96.1633)" class="st7 st8 st10">1</text>
<text transform="matrix(0.95 0 0 1 321.4836 140.2639)" class="st7 st8 st10">6</text>
<text transform="matrix(0.95 0 0 1 324.3264 125.8869)" class="st7 st8 st10">5</text>
<path class="st11" d="M249.2,38.2c-8.1,5.9-14.6,13.7-18.7,22.9"/>
<polygon class="st7" points="222.8,55.5 226.4,73.9 240.6,61.6 "/>
<g>
	<defs>
		<rect id="SVGID_1_" x="205" y="197.7" width="139.5" height="161.4"/>
	</defs>
	<clipPath id="SVGID_00000007424136407760725540000007329285319596967299_">
		<use xlink:href="#SVGID_1_"  style="overflow:visible;"/>
	</clipPath>
	<g style="clip-path:url(#SVGID_00000007424136407760725540000007329285319596967299_);">
		<path class="st2" d="M300.6,235.6c0,1-0.5,1.8-1.2,1.8c-0.3,0-0.6-0.2-0.7-0.4l0.7-0.1c0.5,0,0.8-0.6,0.8-1.3
			c0-0.7-0.4-1.3-0.8-1.3h-0.2l-0.7,0.1c0.2-0.4,0.5-0.6,0.9-0.7C300,233.8,300.6,234.6,300.6,235.6z"/>
		<path class="st2" d="M301.3,235.6c0,1.6-0.8,2.8-1.9,2.8c-0.2,0-0.5-0.1-0.7-0.2c-0.4-0.3-0.7-0.7-0.9-1.1l0.4-0.1l0.5-0.1
			c0.2,0.2,0.4,0.4,0.7,0.4c0.6,0,1.2-0.8,1.2-1.8s-0.5-1.8-1.2-1.8c-0.4,0-0.8,0.3-0.9,0.7l-0.5,0.1h-0.3c0.1-0.4,0.3-0.8,0.5-1.2
			c0.3-0.4,0.7-0.7,1.3-0.7C300.4,232.8,301.3,234,301.3,235.6z"/>
		<path class="st2" d="M300.6,235.6c0,1-0.5,1.8-1.2,1.8c-0.3,0-0.6-0.2-0.7-0.4l0.7-0.1c0.5,0,0.8-0.6,0.8-1.3
			c0-0.7-0.4-1.3-0.8-1.3h-0.2l-0.7,0.1c0.2-0.4,0.5-0.6,0.9-0.7C300,233.8,300.6,234.6,300.6,235.6z"/>
		<path class="st2" d="M297.6,234.6h0.3l0.5-0.1l0.7-0.1h0.2c0.5,0,0.8,0.6,0.8,1.3c0,0.7-0.4,1.3-0.8,1.3l-0.7,0.1l-0.5,0.1
			l-0.4,0.1"/>
		<path class="st2" d="M300.6,235.6c0,1-0.5,1.8-1.2,1.8c-0.3,0-0.6-0.2-0.7-0.4l0.7-0.1c0.5,0,0.8-0.6,0.8-1.3
			c0-0.7-0.4-1.3-0.8-1.3h-0.2l-0.7,0.1c0.2-0.4,0.5-0.6,0.9-0.7C300,233.8,300.6,234.6,300.6,235.6z"/>
		<path class="st2" d="M306.2,232.1c-0.5,0.1-0.9,0-0.9-0.3c-0.1-0.3,0.3-0.6,0.7-0.7c0.5-0.1,0.9,0,0.9,0.3S306.7,232,306.2,232.1z
			"/>
		<line class="st2" x1="297.6" y1="234.6" x2="294.6" y2="235.2"/>
		<line class="st2" x1="297.8" y1="237.1" x2="294.7" y2="237.7"/>
		<path class="st2" d="M306.2,232.1c-0.5,0.1-0.9,0-0.9-0.3c-0.1-0.3,0.3-0.6,0.7-0.7c0.5-0.1,0.9,0,0.9,0.3S306.7,232,306.2,232.1z
			"/>
		<path class="st2" d="M306.2,232.1c-0.5,0.1-0.9,0-0.9-0.3c-0.1-0.3,0.3-0.6,0.7-0.7c0.5-0.1,0.9,0,0.9,0.3S306.7,232,306.2,232.1z
			"/>
		<path class="st2" d="M303.8,235.2c0,0.8-0.1,1.5-0.4,2.3c-0.1,0.3-0.2,0.6-0.4,0.8c-0.4,0.7-1,1.1-1.7,1.3h-0.4
			c-0.9,0-1.7-0.6-2.1-1.4c0.2,0.1,0.4,0.2,0.7,0.2c1,0,1.9-1.3,1.9-2.8s-0.8-2.8-1.9-2.8c-0.5,0-1,0.3-1.3,0.7
			c0.4-1.6,1.5-2.7,2.7-2.7c0.7,0,1.3,0.3,1.7,0.8c0.2,0.2,0.3,0.4,0.5,0.6l0,0C303.5,233.1,303.8,234.2,303.8,235.2z"/>
		<path class="st2" d="M309.9,234.5c0,3-1.4,5.5-3.3,5.9h-0.2H306c-0.1,0-0.3,0-0.4,0l0,0c-0.7-0.2-1.4-0.5-1.8-1.1l2-0.2
			c1.7,0,3.1-2.1,3.1-4.7c0-2.6-1.4-4.7-3.1-4.7c-0.1,0-0.2,0-0.3,0h-0.2l-2,0.4c0.5-0.9,1.4-1.6,2.4-1.8l0,0h0.4
			C308.2,228.4,309.9,231.1,309.9,234.5z"/>
		<path class="st2" d="M307.4,228.1L307.4,228.1"/>
		<line class="st2" x1="303.2" y1="230.3" x2="300.6" y2="230.8"/>
		<path class="st2" d="M302.6,231.6c0.2,0.2,0.3,0.4,0.5,0.6l0,0c0.5,0.9,0.8,1.9,0.8,3c0,0.8-0.1,1.5-0.4,2.3
			c-0.1,0.3-0.2,0.6-0.4,0.8c-0.4,0.7-1,1.1-1.7,1.3l2.5-0.3l2-0.2c1.7,0,3.1-2.1,3.1-4.7c0-2.6-1.4-4.7-3.1-4.7c-0.1,0-0.2,0-0.3,0
			h-0.2l-2,0.4 M306.2,232c-0.5,0.1-0.9,0-0.9-0.3c-0.1-0.3,0.3-0.6,0.7-0.7c0.5-0.1,0.9,0,0.9,0.3C307,231.6,306.7,232,306.2,232
			L306.2,232z"/>
		<polyline class="st2" points="305.6,228.5 305.6,228.5 305.6,228.5 		"/>
		<line class="st2" x1="306.4" y1="240.4" x2="306.6" y2="240.4"/>
		<path class="st2" d="M326.5,236.7c-0.1,0.1-0.2,0.3-0.3,0.4c-0.4,0.6-1,1.1-1.7,1.4c-0.3,0.1-0.6,0.2-0.9,0.3h-0.2l-7.4,1.3
			c1.7-0.6,2.9-1.9,3.4-3.6c0.1-0.3,0.2-0.6,0.3-0.9l4,1l0.5-0.1l0,0l2.6-0.5"/>
		<polygon class="st2" points="323,230.4 323,230.8 321.7,230.6 		"/>
		<polyline class="st2" points="320.2,233.2 323.8,233.9 323.8,236.7 319.8,235.6 		"/>
		<path class="st2" d="M328.3,230.5v1.1h-0.3H328l-3.6,0.6v-0.4c0.4,0,0.8,0,1.2,0c0.8,0.1,1.7-0.1,2.4-0.4c0,0,0,0,0-0.1v-1
			L328.3,230.5z"/>
		<path class="st2" d="M311.3,234.2c0,0.2,0,0.3,0,0.5l0,0c0,0.6-0.1,1.1-0.3,1.7c-0.3,1.7-1.4,3.2-3.1,3.8l-1.4,0.3
			c1.9-0.4,3.3-2.9,3.3-5.9c0-3.3-1.7-6-3.9-6h-0.4l1.8-0.4l0,0c1.4,0.2,2.7,1.1,3.2,2.5c0.2,0.5,0.4,1,0.5,1.5
			C311.3,232.8,311.4,233.5,311.3,234.2z"/>
		<path class="st2" d="M319.2,232.6c0,0.9-0.1,1.7-0.4,2.5c-0.4,1.7-1.7,3.1-3.4,3.5l-1.3,0.3l-1.3,0.3l-4.8,1
			c1.6-0.6,2.8-2.1,3.1-3.8c0.1-0.5,0.2-1.1,0.3-1.7l0,0c0-0.2,0-0.3,0-0.5c0-0.7-0.1-1.3-0.2-2c-0.1-0.5-0.3-1-0.5-1.5
			c-0.5-1.4-1.7-2.3-3.2-2.5l0.4-0.1l4.1-0.8l1.3-0.3l1.5-0.3c0.2-0.1,0.4-0.1,0.6-0.1c1.4,0.2,2.7,1.1,3.1,2.5
			C319,230.2,319.2,231.4,319.2,232.6z"/>
		<path class="st2" d="M319.6,232.6c0,1-0.2,2.1-0.5,3c-0.7,2.1-2.1,3.5-3.8,3.5c-0.4,0-0.9-0.1-1.3-0.3l1.3-0.3
			c1.7-0.4,3-1.8,3.4-3.5c0.2-0.8,0.4-1.7,0.4-2.5c0-1.2-0.2-2.4-0.7-3.5c-0.5-1.4-1.7-2.4-3.1-2.5c-0.2,0-0.4,0-0.6,0.1l-1.5,0.3
			c0.1-0.1,0.3-0.2,0.4-0.3c0.5-0.4,1.1-0.6,1.7-0.6c1.5,0.1,2.7,1.1,3.3,2.4l0,0C319.2,229.7,319.6,231.1,319.6,232.6z"/>
		<path class="st2" d="M313.3,225.7c0.5-0.4,1.1-0.6,1.7-0.7h0.3c1.6,0.1,2.9,1.1,3.6,2.5c0.5,1,0.9,2,1.1,3.1"/>
		<path class="st2" d="M319.8,235.6c-0.1,0.3-0.2,0.6-0.3,0.9c-0.5,1.7-1.8,3-3.5,3.6l-0.4,0.1h-0.3c-0.9,0-1.8-0.4-2.5-1.1l1.3-0.3
			c0.4,0.2,0.8,0.3,1.3,0.3c1.6,0,3-1.4,3.8-3.5c0.3-1,0.5-2,0.5-3c0-1.4-0.3-2.8-0.9-4.1l0,0c-0.6-1.4-1.8-2.3-3.3-2.4
			c-0.6,0-1.2,0.2-1.7,0.6"/>
		<line class="st2" x1="320.2" y1="233.1" x2="320.2" y2="233.2"/>
		<path class="st2" d="M328,229.8c0,0.1,0,0.1-0.1,0.2c-0.8,0.3-1.6,0.4-2.4,0.3c-1.4,0-2.5-0.2-2.5-0.5c0-0.3,1.1-0.5,2.5-0.5
			c0.8,0,1.6,0.1,2.3,0.3C327.9,229.7,328,229.8,328,229.8z"/>
		<polygon class="st2" points="328.8,233 327.8,233.2 323.8,233.9 323.8,231.8 323.8,231.2 324.3,231.1 324.3,232.3 327.9,231.7 
			328,231.7 328.3,231.6 328.3,230.5 328.8,230.5 		"/>
		<polyline class="st2" points="320.1,230.5 323.5,231.2 323.8,231.2 323.8,231.8 323.8,233.9 320.2,233.2 319.6,233 		"/>
		<path class="st2" d="M323.1,223.9c2.3,0,4.2,2.5,4.7,5.8c-0.7-0.2-1.5-0.3-2.3-0.3c-1.4,0-2.5,0.2-2.5,0.5v0.6l-1.3,0.2l1.3,0.3
			l0,0l1.1,0.2h0.2l-0.6,0.1h-0.2l-3.5-0.6c-0.2-1.1-0.6-2.1-1.1-3.1"/>
		<path class="st2" d="M328,229.8v1.6c0,0,0,0,0,0.1c-0.8,0.3-1.6,0.5-2.4,0.4c-0.4,0-0.8,0-1.2,0v-0.8h-0.2l-1.1-0.2v-1
			c0,0.3,1.1,0.5,2.5,0.5c0.8,0,1.6-0.1,2.4-0.3C327.9,230,328,229.9,328,229.8z"/>
		<line class="st2" x1="328" y1="231.7" x2="328" y2="231.7"/>
		<line class="st2" x1="328.8" y1="230.5" x2="328" y2="230.3"/>
		<path class="st2" d="M320.5,242.3c0,0.4-2.4,0.7-5.4,0.7s-5.4-0.3-5.4-0.7c0-0.2,0.5-0.3,1.3-0.5v0.2l0,0c2.7,0.5,5.5,0.5,8.2,0
			v-0.3C320,242,320.5,242.2,320.5,242.3z"/>
		<path class="st2" d="M320.5,244.8c0,0.4-2.4,0.7-5.4,0.7s-5.4-0.3-5.4-0.7"/>
		<path class="st2" d="M319.2,250.3c0,0.3-1.8,0.5-4.1,0.5s-4.1-0.2-4.1-0.5"/>
		<path class="st2" d="M315.5,256c0,0.3-1.8,0.5-4.1,0.5c-2.3,0-4.1-0.2-4.1-0.5"/>
		<polyline class="st2" points="319.2,245.2 319.2,245.2 319.2,245.7 		"/>
		<line class="st2" x1="319.2" y1="250.4" x2="319.2" y2="248.1"/>
		<path class="st2" d="M319.2,240.8v1.4c-2.7,0.5-5.5,0.5-8.2,0l0,0v-0.3L319.2,240.8z"/>
		<line class="st2" x1="319.2" y1="240.8" x2="319.2" y2="240.8"/>
		<line class="st2" x1="311" y1="250.4" x2="311" y2="245.2"/>
		<line class="st2" x1="309.8" y1="244.8" x2="309.8" y2="242.3"/>
		<line class="st2" x1="320.5" y1="244.8" x2="320.5" y2="242.3"/>
		<path class="st2" d="M332.5,247.5c-0.5,2.4-2.9,3.9-5.3,3.4c-1.5-0.3-2.8-1.5-3.3-3l3.3-0.1c0.6-0.1,1-0.6,1-1.2
			c-0.1-0.5-0.5-0.9-1-1h-3.6c0.2-1.6,1.1-2.9,2.5-3.7c0.6,1.1,1.4,2.1,2.2,2.9C329.5,246.1,330.9,247,332.5,247.5z"/>
		<path class="st2" d="M328.3,246.7c0,0.6-0.4,1.1-1,1.1l-3.3,0.1l-4.6,0.2v-2.3l4.4-0.1h3.6C327.8,245.7,328.3,246.1,328.3,246.7z"
			/>
		<path class="st2" d="M298.7,214.4h-0.1c-0.1,0-0.3,0.1-0.4,0.2c-0.1,0.1-0.2,0.2-0.3,0.3l-0.1,0.1l0,0c-0.1,0.1-0.1,0.3-0.1,0.4
			v18.7"/>
		<path class="st2" d="M299.7,214.6c2.7,0.7,5.3,1.5,7.8,2.5c0.4,0.5,0.3,5,0.3,5l36.7-6.3"/>
		<polyline class="st2" points="319.7,211.2 331.3,209.4 344.4,210.4 		"/>
		<polyline class="st2" points="298.6,214.5 298.7,214.4 299.7,214.3 313.3,212.2 		"/>
		<polygon class="st2" points="328.8,233 328.8,235.7 328.3,235.8 328.3,234.7 327.4,234.8 324.3,235.4 324.3,236.6 323.8,236.7 
			323.8,233.9 327.8,233.2 		"/>
		<path class="st2" d="M313.6,226.6c-0.1,0.1-0.3,0.2-0.4,0.3"/>
		<path class="st2" d="M301.3,218.1c0,0.9-0.5,1.6-1,1.6s-1-0.6-1-1.4l-1.5-0.5v-0.5l1.5,0.5c0.1-0.7,0.5-1.3,1-1.3
			C300.8,216.5,301.3,217.3,301.3,218.1z"/>
		<path class="st2" d="M325.1,240l-5.9,0.8"/>
		<path class="st2" d="M311.1,241.8l-1.9,0.2c0,0-1-0.4-1.9-0.8l-1.7-0.8l0,0"/>
		<line class="st2" x1="311.1" y1="242.1" x2="311.1" y2="242.1"/>
		<path class="st2" d="M324,222.6l-0.1,0.1c-0.4,0.3-0.7,0.7-0.8,1.1l-8,1.2"/>
		<path class="st2" d="M342.5,239.9c-0.6,5-2.6,7.5-5.5,7.9c-0.9,0.2-1.8,0.2-2.7,0.1c-0.6-0.1-1.2-0.2-1.7-0.4
			c-1.6-0.5-3-1.4-4.1-2.6c-0.9-0.9-1.6-1.9-2.2-2.9c-0.7-1.1-1.2-2.2-1.6-3.5c0.7-0.3,1.2-0.8,1.7-1.4c0.4,0.3,0.8,0.5,1.3,0.5
			c0.8,0,2.5-0.9,2.3-7.3c-0.2-5.6-4-8.5-5.8-7.5c0.2-0.1,0.5-0.2,0.7-0.2c1.2-0.2,2.3-0.7,3.2-1.3c1.7-0.8,3.6-1.3,5.4-1.5
			c1-0.1,2-0.1,3,0.2c1.4,0.6,2.6,1.7,3.4,3.1c0,0,0.9-0.1,1.1,0c0.5,1.3,0.8,2.6,0.9,4c-0.1,0.5-0.5,0.8-0.5,0.9
			S343.1,234.9,342.5,239.9z"/>
		<line class="st2" x1="307.6" y1="217.3" x2="344.5" y2="211.3"/>
		<path class="st2" d="M322.1,211.6v1.7c0,0.3-2,0.5-4.4,0.5c-2.4,0-4.4-0.2-4.4-0.5v-1.7c0,0.1,0.5,0.3,1.3,0.3s1.9,0.1,3,0.1
			C320.1,212.1,322.1,211.9,322.1,211.6z"/>
		<ellipse class="st2" cx="317.2" cy="204.3" rx="4.4" ry="0.3"/>
		<line class="st2" x1="312.8" y1="204.3" x2="312.8" y2="205.2"/>
		<line class="st2" x1="321.6" y1="204.3" x2="321.6" y2="204.8"/>
		<path class="st2" d="M300.6,214.1c0,0,8.4,2.2,8.6,2.9c0.2,1.6,0.2,3.2,0.2,4.8"/>
		<path class="st2" d="M324,222.6l-0.1,0.1l-0.1,0.1"/>
		<path class="st2" d="M307,213.2v-6.6c3.7-1.2,7.5-1.8,11.3-1.9c3.3,0,6.6,0.3,9.8,1v4.1"/>
		<path class="st2" d="M328.2,205.8c-2.1-0.7-4.3-1.1-6.6-1.3"/>
		<path class="st2" d="M312.8,204.8c-3.7,0.3-7.4,0.9-11.1,1.8v0.2l0.3,2.8v0.1l2.1,4"/>
		<line class="st2" x1="307" y1="206.6" x2="301.8" y2="206.5"/>
		<polyline class="st2" points="302.1,209.5 302.3,209.5 307,209.7 		"/>
		<path class="st2" d="M317.7,205.2c3.4,0,6.7,0.4,10.1,1v3.8"/>
		<path class="st2" d="M307.4,213.1V207c3.1-0.9,6.3-1.5,9.6-1.8"/>
		<path class="st2" d="M297.8,208.3c0-0.1,0-0.2,0-0.2l0,0c0.1-0.2,0.3-0.3,0.5-0.3c0.3,0,0.5,0.3,0.5,0.7c0,0.3-0.2,0.5-0.5,0.5
			c-0.2,0-0.4-0.1-0.5-0.4l0,0C297.8,208.5,297.8,208.4,297.8,208.3z"/>
		<polyline class="st2" points="298.2,214.6 298.1,214.5 298.1,214.5 		"/>
		<polyline class="st2" points="297.8,215.1 297.8,215.1 297.6,214.5 297.6,214.5 		"/>
		<polyline class="st2" points="297,214.5 297,214.5 297.3,215.1 297.3,215.1 297.6,215.6 297.8,216 		"/>
		<polyline class="st2" points="297.8,217.1 297.6,216.7 297.3,216.2 297,215.6 296.8,215.1 296.7,214.9 		"/>
		<polyline class="st2" points="296.7,216 296.8,216.2 297,216.7 297.3,217.2 297.6,217.8 297.8,218.2 		"/>
		<polyline class="st2" points="296.7,217.1 296.8,217.2 297,217.8 297.3,218.3 297.6,218.9 297.8,219.3 		"/>
		<polyline class="st2" points="296.7,218.1 296.8,218.3 297,218.9 297.3,219.4 297.6,220 297.8,220.4 		"/>
		<polyline class="st2" points="297.8,221.4 297.6,221 297.3,220.5 297.3,220.5 297,220 296.8,219.4 296.7,219.2 		"/>
		<polyline class="st2" points="296.7,220.3 296.8,220.5 297,221 297.3,221.6 297.6,222.1 297.8,222.5 		"/>
		<polyline class="st2" points="297.8,223.6 297.6,223.2 297.3,222.7 297,222.1 296.8,221.6 296.7,221.4 		"/>
		<polyline class="st2" points="297.3,223.7 297,223.2 296.8,222.7 296.7,222.5 		"/>
		<line class="st2" x1="296.7" y1="223.6" x2="296.7" y2="223.7"/>
		<polyline class="st2" points="297,214.5 297,214.5 296.8,215.1 296.7,215.3 		"/>
		<polyline class="st2" points="296.7,216.4 296.7,216.4 296.8,216.2 297,215.6 297.3,215.1 297.3,215.1 297.6,214.5 297.6,214.5 		
			"/>
		<polyline class="st2" points="298.1,214.5 298.1,214.5 297.9,214.9 297.8,215.1 297.8,215.1 297.6,215.6 297.3,216.2 297,216.7 
			296.8,217.2 296.7,217.4 		"/>
		<polyline class="st2" points="296.7,218.5 296.8,218.3 297,217.8 297.3,217.2 297.6,216.7 297.8,216.3 		"/>
		<polyline class="st2" points="296.7,219.6 296.8,219.4 297,218.9 297.3,218.3 297.6,217.8 297.8,217.4 		"/>
		<polyline class="st2" points="297.8,218.5 297.6,218.9 297.3,219.4 297,220 296.8,220.5 296.7,220.7 		"/>
		<polyline class="st2" points="296.7,221.8 296.7,221.8 296.8,221.6 297,221 297.3,220.5 297.3,220.5 297.6,220 297.8,219.6 		"/>
		<polyline class="st2" points="297.8,220.7 297.6,221 297.3,221.6 297,222.1 296.8,222.7 296.7,222.9 		"/>
		<polyline class="st2" points="296.8,223.7 297,223.2 297.3,222.7 297.6,222.1 297.8,221.7 		"/>
		<polyline class="st2" points="297.3,223.7 297.6,223.2 297.8,222.8 		"/>
		<polyline class="st2" points="296.7,223.7 296.9,223.9 297.8,223.9 		"/>
		<polyline class="st2" points="296.7,210.3 297,210.3 297,207.3 299.7,207.3 299.7,210.3 		"/>
		<line class="st2" x1="299.7" y1="214.6" x2="298.8" y2="214.4"/>
		<path class="st2" d="M299.7,214.3v-4c0.3,0,0.7-0.1,1-0.2l1.4-0.5"/>
		<polyline class="st2" points="296.7,210.3 296.7,214.9 296.7,215.3 296.7,216 296.7,216.3 296.7,216.4 296.7,217.1 296.7,217.4 
			296.7,218.1 296.7,218.5 296.7,219.2 296.7,219.6 296.7,220.3 296.7,220.7 296.7,221.4 296.7,221.8 296.7,221.8 296.7,222.5 
			296.7,222.9 296.7,223.6 296.7,223.7 296.7,223.7 296.8,223.7 297.3,223.7 297.3,223.7 297.8,223.7 		"/>
		<path class="st2" d="M297,210.3L297,210.3c-0.2,0-0.3-0.1-0.3-0.3c0,0,0,0,0,0v-3c0-0.3,0.2-0.5,0.5-0.6l2.2-0.2
			c0.5-0.1,1,0,1.5,0.2l0.9,0.3"/>
		<path class="st2" d="M333.3,219.6c0,0,5.4-0.8,11.1-1.8"/>
		<path class="st2" d="M334.2,247.9c0,0,3.8,1.5,10.3-1.8"/>
		<polygon class="st2" points="328.3,234.7 328.3,235.8 326.9,236 324.3,236.6 324.3,235.4 327.4,234.8 		"/>
		<line class="st2" x1="328.3" y1="235.8" x2="328.3" y2="235.8"/>
		<line class="st2" x1="307.3" y1="241.2" x2="307.3" y2="256"/>
		<line class="st2" x1="315.5" y1="250.9" x2="315.5" y2="256"/>
		<line class="st2" x1="315.5" y1="261.8" x2="315.5" y2="295.1"/>
		<path class="st2" d="M315.5,255c1.5,0.2,2.4,0.6,2.4,1c0,0.7-2.9,1.3-6.5,1.3"/>
		<path class="st2" d="M317.9,260.8c0,0.7-2.9,1.3-6.5,1.3"/>
		<path class="st2" d="M311.4,257.3c-2.3,0-11.3-1.3-11.3-1.3l6-1.4l1.2,0.1"/>
		<path class="st2" d="M311.4,262.1c-2.3,0-11.3-1.3-11.3-1.3"/>
		<line class="st2" x1="300.1" y1="255.9" x2="300.1" y2="260.8"/>
		<line class="st2" x1="317.9" y1="256" x2="317.9" y2="260.8"/>
		<polygon class="st2" points="300.7,257.7 300.7,259 301.7,259.8 302.6,259.3 302.6,258.1 301.7,257.3 		"/>
		<path class="st2" d="M313.3,225.7l-4.7-1.4c-0.5-0.2-0.8-0.6-0.8-1.1v-1"/>
		<path class="st2" d="M313.2,227l-1.3,0.3l-4.1,0.8v-3.1l4.5,1.3c0.1,0.1,0.2,0.2,0.1,0.3c0,0,0,0,0,0.1c-0.1,0.2-0.3,0.4-0.3,0.6"
			/>
		<path class="st2" d="M318,206.9l3.3-0.2c0.3,0,0.6,0.2,0.6,0.6c0,0,0,0,0,0v3.6"/>
		<path class="st2" d="M313.2,212.2v-4.4c0-0.3,0.2-0.6,0.5-0.6l3.3-0.2"/>
		<path class="st2" d="M322.1,211.6c0,0.3-2,0.5-4.4,0.5c-1.2,0-2.3,0-3-0.1s-1.3-0.2-1.3-0.3s1.4-0.4,3.4-0.5h1c0.7,0,1.3,0,1.9,0
			C321.1,211.3,322.1,211.5,322.1,211.6z"/>
		<path class="st2" d="M318,205.2v6H317v-6h0.7L318,205.2z"/>
		<line class="st2" x1="307.4" y1="209.3" x2="312.6" y2="212.3"/>
		<line class="st2" x1="307.4" y1="209.9" x2="311.7" y2="212.4"/>
		<line class="st2" x1="327.8" y1="208.6" x2="324.9" y2="210.4"/>
		<line class="st2" x1="327.8" y1="209.2" x2="326.1" y2="210.2"/>
		<path class="st2" d="M324.2,236.6c0.4,0.1,0.8,0.2,1.3,0.2c0.5,0,1,0,1.4-0.2V236"/>
		<path class="st2" d="M334.1,225c0.6,0.8,0.9,1.8,0.7,2.8c0,0,3-0.1,2.4-2.4C336.6,224.1,334.1,225,334.1,225z"/>
		<path class="st2" d="M339.7,222.8c0,0-5.8,1.1-5.6,2.2"/>
		<path class="st2" d="M334.7,227.8c-0.1,0.5,0.5,1,6.5,0"/>
		<line class="st2" x1="307.4" y1="261.8" x2="307.3" y2="312.3"/>
		<line class="st2" x1="315.5" y1="261.8" x2="315.5" y2="312.3"/>
		<path class="st2" d="M307.3,312.3c0,0.8,1.8,1.5,4.1,1.5s4.1-0.7,4.1-1.5"/>
		<path class="st2" d="M307.3,310.7c-1.2,0.5-1.9,1.1-1.9,1.9c0,1.4,2.7,2.5,6.1,2.5s6.1-1.1,6.1-2.5c0-0.7-0.8-1.4-1.9-1.9"/>
		<path class="st2" d="M317.5,312.6v3.1c0,1.4-2.7,2.5-6.1,2.5s-6.1-1.1-6.1-2.5v-3.1"/>
		<path class="st2" d="M367,339v2.1c0,0.2-0.1,0.4-0.3,0.5l-7.7,4.3l-0.8-0.4l-18.5,9.9l-0.4,1.3l-10,5.1c-1.4,0.7-3.2,0.4-4.3-0.7
			l-7.7-8.1v-0.7l-12.5-12.6l-0.5,0.2l-5.3-5.3V332l3-5.5V322l3.3-6.4"/>
		<polyline class="st2" points="359.1,333.6 359.1,333.8 359.2,336.4 336,348.1 330.7,347.6 		"/>
		<polyline class="st2" points="305.6,328.2 304.8,330.4 321.8,346.6 326.8,347.1 		"/>
		<line class="st2" x1="359.1" y1="329.3" x2="359.1" y2="331.7"/>
		<polyline class="st2" points="326,350.1 325.5,350.1 320.7,349.5 302.6,332.4 302.6,335.7 299,331.9 		"/>
		<line class="st2" x1="320.7" y1="354" x2="336.2" y2="355.9"/>
		<path class="st2" d="M321.8,346.6l-1.1,2.9v4.4l4.8,4.5c1.1,1,2.7,1.3,4,0.6l6.8-3.2v-4.7l-0.3-3.1"/>
		<ellipse transform="matrix(0.1096 -0.994 0.994 0.1096 -63.268 643.9818)" class="st2" cx="327.8" cy="357.3" rx="1" ry="1.5"/>
		<path class="st2" d="M361.1,333.4l-2-1.7l-18.4-1.9h-0.1c-0.6,0-1,0.5-1,1.1c0,0.3,0.2,0.6,0.5,0.8c0.1,0.1,0.3,0.1,0.4,0.2
			l18.6,1.9l2.1,2"/>
		<path class="st2" d="M359.1,333.6l-18.5-1.9h-0.1c-0.1,0-0.3,0-0.4,0.1"/>
		<path class="st2" d="M361.4,338.8v3.9l5-2.8c0.5-0.3,0.6-0.9,0.4-1.4c-0.1-0.1-0.2-0.2-0.3-0.3l-5.4-3.8"/>
		<ellipse class="st2" cx="364.2" cy="338.6" rx="1.3" ry="0.8"/>
		<path class="st2" d="M328.6,329.7c0,0.6,0.4,1.2,1,1.5c1.5,0.8,3.2,0.8,4.7,0c0.6-0.3,0.9-0.9,1-1.5c0-1.2-1.5-2.1-3.3-2.1
			C330.1,327.6,328.6,328.6,328.6,329.7z"/>
		<path class="st2" d="M329.6,331.2c1.5,0.8,3.2,0.8,4.7,0C333,329.9,330.9,329.9,329.6,331.2C329.6,331.2,329.6,331.2,329.6,331.2z
			"/>
		<path class="st2" d="M304.7,329l0.9-0.8h0.4l0.4-0.3l17.1,1.6c0.1,0,0.2,0,0.3,0.1c0.3-0.2,0.5-0.5,0.6-0.8v-0.1
			c0-0.5-0.4-0.9-0.9-1l-17-1.6l-1.4,0.9L304.7,329z"/>
		<polyline class="st2" points="304.8,330.4 302.6,332.4 303.7,329.9 304.7,329 		"/>
		<path class="st2" d="M323.7,329.6c-0.1,0.1-0.3,0.1-0.5,0.1l-17.2-1.4"/>
		<polyline class="st2" points="307.3,323.6 305.7,325.1 305,327.1 		"/>
		<path class="st2" d="M306.3,326.2l1-2.5l21.5-7.5l3.8,0.3c0.2,0,0.4,0.2,0.4,0.5c0,0,0,0,0,0.1l-0.2,1.1l-0.2,1.4l-0.1,0.5
			l-0.3,1.5l-0.4,1.9c-0.2,0.9,0.4,1.8,1.3,2c0,0,0.1,0,0.1,0h0.2c0.8,0,1.5-0.6,1.6-1.4l0.4-2.3l0.3-1.6l0.1-0.5l0.3-1.4l0.2-1.3
			c0-0.2,0.2-0.4,0.4-0.4l3.2,0.3l19.5,12.4l1.9,1.5l0.1,2.6l0.1,1.1l0.1,1.3l0.2,3l-25.2,12.4l-4.9-0.5"/>
		<path class="st2" d="M325.4,352.9l5.9,0.6v-2.9v-1.8l-0.6-1.3l0,0l1.9-10.8l0,0c-0.2-0.5-0.7-0.9-1.3-1h-0.4
			c-0.8-0.1-1.6,0.4-1.8,1.3l-2.1,10.2v0.3l-0.9,0.8l-0.1,1.9l-0.1,1.3L325.4,352.9z"/>
		<polygon class="st2" points="325.4,352.9 325.9,351.4 326,350.1 326.1,348.2 327,347.5 326.8,347.1 325.6,348.1 325.5,350.1 		"/>
		<path class="st2" d="M326.8,347.2l0.2,0.3v-0.3l2.1-10.2c0.2-0.8,0.9-1.4,1.8-1.3h0.4c0.6,0.1,1.1,0.5,1.3,1l0.1-0.4
			c0.2-0.9-0.4-1.8-1.3-2c0,0-0.1,0-0.1,0h-0.3c-0.8-0.1-1.6,0.4-1.8,1.3L326.8,347.2z"/>
		<line class="st2" x1="331.3" y1="352" x2="325.9" y2="351.4"/>
		<path class="st2" d="M302,322l0.6,0.5c0.2,0.2,0.3,0.4,0.3,0.7c0,0.4,0.1,0.8,0.3,1.1c0.5,0.5,0.6-0.8,1.1-0.3
			c0.5,0.5,0.3,1.3,0.7,1.7l0.3,0.3"/>
		<path class="st2" d="M317.5,313.2c0,0,7.9,0.4,8.2,0.5c0.5,0.2,0.9,0.5,1.3,0.9l-24.2,8.1"/>
		<path class="st2" d="M327,314.6c0.1,0.2,0.2,0.4,0.2,0.6c0,0.2,0.1,0.3,0.3,0.4"/>
		<path class="st2" d="M329.1,316.2c-0.1-0.5-0.5-0.9-1-0.8c0,0,0,0,0,0l-23.8,8.5"/>
		<ellipse class="st2" cx="301.5" cy="331.8" rx="1.1" ry="0.6"/>
		<line class="st2" x1="332.7" y1="318.1" x2="335.8" y2="318.3"/>
		<line class="st2" x1="335.5" y1="320.2" x2="332.4" y2="320"/>
		<line class="st2" x1="335.6" y1="319.7" x2="332.5" y2="319.5"/>
		<line class="st2" x1="335.2" y1="321.8" x2="332" y2="321.6"/>
		<line class="st2" x1="302" y1="326.4" x2="304.7" y2="328.6"/>
		<path class="st2" d="M288.3,237.8c0.1,0.9-0.4,1.8-1.3,2.2h-0.1h-0.2c-0.6-0.1-1.1-0.5-1.3-1c0.8-0.2,1.3-0.2,1.4-0.3
			c0.5-0.1,0.7-0.6,0.6-1.3c-0.1-0.6-0.3-1-0.9-0.9c0,0-0.5,0.1-1.3,0.3c0.2-0.9,0.8-1.5,1.5-1.5
			C287.5,235.5,288.3,236.6,288.3,237.8z"/>
		<path class="st2" d="M292.4,300.1c-7.1-3.8-19.4-2.2-31.3,3c-4.2-6.6-7.1-16-7.1-29.1c0-26.6,25-33.5,31.3-34.9
			c0.8-0.2,1.3-0.2,1.4-0.3c0.5-0.1,0.7-0.6,0.6-1.3c-0.1-0.6-0.3-1-0.9-0.9c0,0-0.5,0.1-1.3,0.3c-6.3,1.4-33.1,8.9-33.1,36.9
			c0,13.4,2.9,23.1,7.2,30c-4.6,2.2-8.9,4.9-12.8,8c0.3,0.1,0.7,0.4,0.9,0.6c0.2,0.3,0.4,0.6,0.5,0.9c3.9-3.1,8.1-5.7,12.6-7.8
			c5.3,8,14.1,13,23.7,13.3h0.3c7.9,0,13.6-3.8,13.8-9.1C298.4,305.8,296.1,301.9,292.4,300.1z M284.3,317h-0.2
			c-6.4-0.1-15.4-3.1-21.9-12.1c11.8-5.2,23.3-6.1,29.3-2.9c3,1.5,4.8,4.6,4.6,8C296.1,314,291,317,284.3,317z"/>
		<path class="st2" d="M294.9,236.6c0.1,1-0.5,2-1.4,2.3l0,0l-6.4,1.3c0.8-0.4,1.3-1.3,1.3-2.2c0-1.3-0.7-2.3-1.6-2.3l6.2-1.2
			l0.4-0.1C294.2,234.3,294.9,235.3,294.9,236.6z"/>
		<line class="st2" x1="286.9" y1="240.1" x2="287" y2="240.1"/>
		<path class="st2" d="M261.1,303.1c0,0,0.7,1.1,1.1,1.7"/>
		<path class="st2" d="M259.2,304c0,0,0.8,1.3,1.1,1.7"/>
		<path class="st2" d="M286.5,238.9c0.7-0.1-0.2-2.3-0.8-2.2c-0.3,0,0.4,0.2,0.4,0.2"/>
		<path class="st2" d="M286.1,239c0,0-0.4,0.3-0.2,0.3c0.6-0.1-0.3-2.6-1.1-2.4c-0.4,0.1,0.4,0.2,0.4,0.2"/>
		<path class="st2" d="M284.1,237.3c0.2-1.1,1.7,1.5,1.1,2.1c-0.4,0.4-0.4-0.1-0.4-0.1"/>
		<path class="st2" d="M283.4,237.5c0.2-0.9,1.7,1.3,0.9,2.2c-0.1,0.1-0.3-0.2-0.3-0.2"/>
		<path class="st2" d="M282.5,237.7c0,0,0.6-1.1,1.3,0.7c0.7,1.8-0.4,1.3-0.4,1.3"/>
		<path class="st2" d="M282,237.9c0.6-1.3,2.1,2.3,0.7,1.9"/>
		<path class="st2" d="M281.4,238.1c0.3-1.5,2.1,2.9,0.9,1.8"/>
		<path class="st2" d="M280.7,238.3c0.2-1.5,2.5,2.5,0.8,1.9"/>
		<path class="st2" d="M251.6,310.8c0.6-0.4-1-2.1-1.5-1.8c-0.3,0.2,0.4,0,0.4,0"/>
		<path class="st2" d="M251.3,311c0,0-0.3,0.5-0.1,0.3c0.5-0.4-1.1-2.3-1.8-1.8c-0.3,0.3,0.4,0,0.4,0"/>
		<path class="st2" d="M248.9,310.2c-0.2-1.1,2.1,0.7,1.7,1.5c-0.2,0.5-0.5,0-0.5,0"/>
		<path class="st2" d="M248.3,310.6c-0.2-0.9,2,0.6,1.6,1.7c0,0.2-0.3-0.1-0.3-0.1"/>
		<path class="st2" d="M247.5,311.2c0,0,0.2-1.3,1.4,0.2s0.1,1.4,0,1.3"/>
		<path class="st2" d="M247.1,311.5c0.1-1.5,2.7,1.6,1.5,1.5"/>
		<path class="st2" d="M246.6,311.8c-0.2-1.5,2.9,2,1.5,1.4"/>
		<path class="st2" d="M247.5,315.2l-0.2,0.2l-5.9,4.7c0.4-0.8,0.2-1.7-0.4-2.3c-0.5-0.7-1.3-1-2.1-0.7l6.1-4.9
			c0.4-0.4,1-0.4,1.5-0.2c0.3,0.1,0.7,0.4,0.9,0.6c0.2,0.3,0.4,0.6,0.5,0.9C248,314.1,247.9,314.8,247.5,315.2z"/>
		<path class="st2" d="M241.3,320.1l-0.2,0.2l-0.1,0.1c-0.1-0.7-0.3-1.3-0.8-1.8c-0.4-0.6-1.1-0.9-1.8-1.1c0.1-0.1,0.1-0.2,0.2-0.2
			l0.2-0.1c0.8-0.3,1.7,0,2.1,0.7C241.5,318.4,241.7,319.3,241.3,320.1z"/>
		<path class="st2" d="M241,320.4c0,0.3,0,0.5-0.1,0.8l0,0v0.1l0,0c-0.1,0.2-0.2,0.3-0.3,0.5l-0.2,0.2l-10,8.1
			c0.7-1,0.6-2.4-0.3-3.2c-0.9-1.1-2.3-1.4-3-0.7l10.2-8.2c0.1-0.1,0.3-0.2,0.4-0.3h0.1h0.2c0.2,0,0.3,0,0.5,0
			c0.7,0.1,1.3,0.5,1.8,1.1C240.7,319.1,241,319.7,241,320.4z"/>
		<path class="st2" d="M230.3,330c-0.4,0.3-1,0.4-1.5,0.3l0.7-0.7c0.5-0.6,0.4-1.5-0.2-2.1c-0.6-0.7-1.4-0.9-1.9-0.5l-0.8,0.8
			c-0.2-0.6,0-1.3,0.4-1.8c0.8-0.7,2.1-0.4,3,0.7C230.9,327.6,231.1,329,230.3,330z"/>
		<path class="st2" d="M228.4,330.1c0,0.3-0.1,0.7-0.3,0.9c-0.3,0.3-0.8,0.3-1.2,0.1c0.1,0,0.2-0.1,0.3-0.1c0.3-0.4,0.2-1-0.1-1.3
			c-0.4-0.5-0.9-0.6-1.3-0.3c-0.1,0.1-0.1,0.1-0.2,0.2c-0.1-0.4,0-0.8,0.3-1.1c0.2-0.2,0.5-0.3,0.8-0.2c0.2,0,0.4,0.1,0.5,0.2
			c0.2,0.1,0.5,0.3,0.6,0.5c0.2,0.2,0.3,0.5,0.4,0.8C228.3,329.8,228.4,329.9,228.4,330.1z"/>
		<polyline class="st2" points="238.8,317.1 238.6,317.3 237.9,317.5 		"/>
		<line class="st2" x1="237.6" y1="317.6" x2="237.6" y2="317.6"/>
		<line class="st2" x1="241.3" y1="320.1" x2="240.9" y2="321.1"/>
		<path class="st2" d="M227.2,331c-0.1,0.1-0.2,0.1-0.3,0.1c-0.2,0-0.3,0-0.5-0.1l0.1-0.1l0.2-0.2c0.2-0.2,0.1-0.5-0.1-0.7
			s-0.5-0.3-0.7-0.2l-0.2,0.2l-0.2,0.1c-0.1-0.2-0.1-0.4,0-0.6l0,0c0-0.1,0.1-0.2,0.2-0.2c0.3-0.3,0.9-0.2,1.3,0.3
			C227.5,330,227.5,330.6,227.2,331z"/>
		<path class="st2" d="M229.6,329.6l-0.7,0.7l0,0l-0.8,0.7c0.2-0.2,0.3-0.6,0.3-0.9c0-0.1,0-0.3-0.1-0.4c-0.1-0.3-0.2-0.5-0.4-0.8
			c-0.2-0.2-0.4-0.4-0.6-0.5c-0.2-0.1-0.3-0.1-0.5-0.2c-0.3,0-0.5,0-0.8,0.2l0.6-0.6l0.8-0.8c0.5-0.4,1.3-0.2,1.9,0.5
			C230,328,230,328.9,229.6,329.6z"/>
		<path class="st2" d="M226.8,330.7l-0.2,0.2l-0.1,0.1l-0.1,0.1c0,0,0-0.1,0-0.1l0,0c0-0.1-0.1-0.3-0.2-0.4
			c-0.1-0.1-0.2-0.2-0.3-0.3h-0.1h-0.1l0.1-0.1l0.2-0.1l0.2-0.2c0.2-0.2,0.5-0.1,0.7,0.2C227,330.3,227,330.5,226.8,330.7z"/>
		<path class="st2" d="M226.3,331.1c0,0.2,0,0.4-0.2,0.5c0,0-0.1,0.1-0.2,0.1l-1.5,0.6c0.1-0.1,0.1-0.2,0-0.3
			c-0.1-0.1-0.2-0.1-0.3-0.1l0.8-1.5v-0.1l0.1-0.1c0.1-0.1,0.3-0.2,0.5-0.1h0.1h0.1c0.1,0.1,0.2,0.2,0.3,0.3
			c0.1,0.1,0.2,0.3,0.2,0.4l0,0C226.3,330.9,226.4,331,226.3,331.1z"/>
		<path class="st2" d="M224.5,332.3c0,0.1-0.2,0-0.3-0.1c-0.1-0.1-0.1-0.2,0-0.3c0.1,0,0.2,0,0.3,0.1
			C224.6,332.1,224.6,332.2,224.5,332.3z"/>
	</g>
</g>
</svg>
