<?xml version="1.0" encoding="utf-8"?>
<!-- Generator: Adobe Illustrator 26.0.1, SVG Export Plug-In . SVG Version: 6.00 Build 0)  -->
<svg version="1.1" id="Слой_1" xmlns="http://www.w3.org/2000/svg" xmlns:xlink="http://www.w3.org/1999/xlink" x="0px" y="0px"
	 viewBox="0 0 370 383.7" style="enable-background:new 0 0 370 383.7;" xml:space="preserve">
<style type="text/css">
	.st0{fill:#FFFFFF;}
	.st1{fill:none;stroke:#1D1D1B;stroke-width:1;stroke-miterlimit:10;}
	.st2{fill:none;stroke:#000000;stroke-width:0.25;stroke-linecap:round;stroke-linejoin:round;}
	.st3{clip-path:url(#SVGID_00000072280399242076550930000000675229325845035710_);}
	.st4{fill:none;stroke:#1D1D1B;stroke-width:0.25;stroke-linecap:round;stroke-linejoin:round;}
	.st5{fill:none;stroke:#1D1D1B;stroke-miterlimit:10;}
	.st6{fill:#1D1D1B;}
	.st7{font-family:'CeraPro-Medium';}
	.st8{font-size:8.2642px;}
</style>
<rect class="st0" width="370" height="383.7"/>
<rect x="19.9" y="31.6" transform="matrix(2.443451e-03 -1 1 2.443451e-03 -7.2779 376.3631)" class="st1" width="330.1" height="320.4"/>
<line class="st2" x1="285.9" y1="263.4" x2="286.2" y2="259.5"/>
<line class="st2" x1="157.4" y1="216.5" x2="210.7" y2="216.5"/>
<line class="st2" x1="212.3" y1="218.4" x2="155.8" y2="218.4"/>
<line class="st2" x1="163.3" y1="173.5" x2="163.3" y2="179.9"/>
<line class="st2" x1="163.3" y1="162.4" x2="163.3" y2="168.8"/>
<line class="st2" x1="261.5" y1="263.9" x2="262.8" y2="263.9"/>
<line class="st2" x1="234.2" y1="263.9" x2="259.9" y2="263.9"/>
<line class="st2" x1="259.4" y1="262.9" x2="235.1" y2="262.9"/>
<line class="st2" x1="262.8" y1="263.9" x2="264.3" y2="263.9"/>
<line class="st2" x1="174.1" y1="184.1" x2="174.1" y2="158.2"/>
<line class="st2" x1="174.6" y1="158.7" x2="174.6" y2="183.6"/>
<line class="st2" x1="176" y1="182.7" x2="176" y2="159.6"/>
<line class="st2" x1="196.3" y1="167.8" x2="202.9" y2="161.1"/>
<path class="st2" d="M220.5,151.6l8-2.3c0.3-0.1,0.7-0.1,1-0.3"/>
<line class="st2" x1="187" y1="251.4" x2="180.9" y2="251.4"/>
<line class="st2" x1="186.9" y1="246.2" x2="180.9" y2="246.2"/>
<line class="st2" x1="216.7" y1="154.9" x2="219.2" y2="152.2"/>
<line class="st2" x1="214.4" y1="162.9" x2="278.3" y2="144.6"/>
<line class="st2" x1="205" y1="165.6" x2="214.4" y2="162.9"/>
<line class="st2" x1="186.9" y1="240.9" x2="180.9" y2="240.9"/>
<line class="st2" x1="234.6" y1="259.5" x2="233.4" y2="258.7"/>
<line class="st2" x1="253.2" y1="154.7" x2="218.2" y2="164.7"/>
<line class="st2" x1="180.9" y1="235.5" x2="186.9" y2="235.5"/>
<line class="st2" x1="217.9" y1="173.1" x2="219.4" y2="171.9"/>
<line class="st2" x1="180.9" y1="230.3" x2="186.9" y2="230.3"/>
<line class="st2" x1="180.9" y1="224.9" x2="186.9" y2="224.9"/>
<line class="st2" x1="186.9" y1="219.6" x2="181" y2="219.6"/>
<line class="st2" x1="214.6" y1="199" x2="214.9" y2="191.6"/>
<line class="st2" x1="220.5" y1="150.6" x2="220.5" y2="150.8"/>
<line class="st2" x1="240.9" y1="174.1" x2="256.8" y2="161.6"/>
<line class="st2" x1="279.3" y1="146.5" x2="241.2" y2="175.2"/>
<line class="st2" x1="155.8" y1="218.4" x2="155.6" y2="218.4"/>
<line class="st2" x1="157.2" y1="216.5" x2="157.4" y2="216.5"/>
<line class="st2" x1="162.9" y1="214.4" x2="205" y2="214.4"/>
<line class="st2" x1="217.1" y1="199.5" x2="217.1" y2="200.6"/>
<line class="st2" x1="281.2" y1="148.2" x2="244.8" y2="175.6"/>
<line class="st2" x1="282.8" y1="150.8" x2="249" y2="176.2"/>
<line class="st2" x1="238.5" y1="186" x2="238" y2="186.6"/>
<line class="st2" x1="252.7" y1="176.8" x2="285" y2="152.6"/>
<line class="st2" x1="286.8" y1="154.1" x2="255.8" y2="177.3"/>
<line class="st2" x1="259.6" y1="177.9" x2="287.4" y2="157"/>
<line class="st2" x1="206" y1="202.3" x2="161.9" y2="202.3"/>
<line class="st2" x1="217.1" y1="199.7" x2="215.1" y2="199.7"/>
<line class="st2" x1="233.4" y1="258.7" x2="234.2" y2="263.9"/>
<line class="st2" x1="235.1" y1="262.9" x2="234.6" y2="259.5"/>
<line class="st2" x1="233.2" y1="149.2" x2="233.2" y2="150.5"/>
<line class="st2" x1="230.7" y1="149" x2="230.7" y2="147.7"/>
<line class="st2" x1="233.2" y1="147.9" x2="233.2" y2="149.2"/>
<line class="st2" x1="287.2" y1="160" x2="262.7" y2="178.4"/>
<line class="st2" x1="266.5" y1="179" x2="286.8" y2="163.7"/>
<line class="st2" x1="216.7" y1="191" x2="216.6" y2="191"/>
<line class="st2" x1="215.4" y1="191" x2="216.6" y2="191"/>
<line class="st2" x1="259" y1="182.1" x2="258.9" y2="182.1"/>
<line class="st2" x1="246.7" y1="181.6" x2="246.6" y2="181.6"/>
<line class="st2" x1="234" y1="181.1" x2="233.9" y2="181.1"/>
<line class="st2" x1="258.9" y1="182.1" x2="258.9" y2="182.1"/>
<line class="st2" x1="234" y1="181.1" x2="234.2" y2="181.1"/>
<line class="st2" x1="264.1" y1="262.9" x2="264.1" y2="262.9"/>
<path class="st2" d="M264.2,262.9c-0.2-0.8-0.4-1.7-0.5-2.5c-0.1-1.2-0.2-2.4-0.1-3.6"/>
<line class="st2" x1="246.3" y1="175.7" x2="241.2" y2="175.2"/>
<line class="st2" x1="249" y1="176.2" x2="252.7" y2="176.8"/>
<line class="st2" x1="255.8" y1="177.3" x2="259.6" y2="177.9"/>
<line class="st2" x1="262.7" y1="178.4" x2="266.5" y2="179"/>
<line class="st2" x1="241.2" y1="175.2" x2="240.5" y2="174.3"/>
<line class="st2" x1="264.1" y1="262.9" x2="264.1" y2="262.9"/>
<line class="st2" x1="263.5" y1="255.4" x2="263.3" y2="253.6"/>
<line class="st2" x1="278.3" y1="144.6" x2="277.9" y2="145.7"/>
<line class="st2" x1="289.4" y1="154.2" x2="287.5" y2="154.6"/>
<line class="st2" x1="297.1" y1="170.1" x2="302.8" y2="170.1"/>
<line class="st2" x1="297.1" y1="167.6" x2="302.8" y2="167.6"/>
<line class="st2" x1="219.9" y1="172.1" x2="240.2" y2="174.3"/>
<line class="st2" x1="297.1" y1="164.7" x2="302.8" y2="164.7"/>
<line class="st2" x1="297.1" y1="162.1" x2="302.8" y2="162.1"/>
<line class="st2" x1="234.2" y1="263.9" x2="235.1" y2="262.9"/>
<line class="st2" x1="297.1" y1="159.1" x2="302.8" y2="159.1"/>
<line class="st2" x1="297.1" y1="156.6" x2="302.8" y2="156.6"/>
<path class="st2" d="M219.2,151.5v0.7l5.5-1.6l3.9-1.1l1.4-0.4c0.2-0.1,0.4-0.1,0.6-0.2c0.1,0,0.2,0.1,0.2,0.1l0.9,0.5l1.5,0.9
	l-5.5,1.5l-8.9,2.3l-2.1,0.5v-1.4"/>
<line class="st2" x1="281.2" y1="148.2" x2="281.2" y2="149.5"/>
<line class="st2" x1="278.1" y1="189.6" x2="277" y2="187.7"/>
<line class="st2" x1="280.7" y1="168.3" x2="278.2" y2="166.8"/>
<line class="st2" x1="276.2" y1="165.5" x2="273.7" y2="163.9"/>
<line class="st2" x1="271.7" y1="162.6" x2="269.2" y2="161"/>
<line class="st2" x1="271.3" y1="159.4" x2="273.8" y2="161"/>
<line class="st2" x1="275.8" y1="162.3" x2="278.3" y2="163.8"/>
<line class="st2" x1="280.4" y1="165.1" x2="282.8" y2="166.7"/>
<line class="st2" x1="286.9" y1="174.1" x2="285.7" y2="173"/>
<line class="st2" x1="287.9" y1="135.5" x2="288" y2="135.5"/>
<line class="st2" x1="296.6" y1="189.7" x2="296" y2="189"/>
<line class="st2" x1="295.7" y1="188.1" x2="295.7" y2="150.8"/>
<line class="st2" x1="297" y1="156.7" x2="297" y2="159"/>
<line class="st2" x1="297" y1="162.3" x2="297" y2="164.5"/>
<line class="st2" x1="297" y1="167.7" x2="297" y2="170.1"/>
<line class="st2" x1="286.7" y1="153.9" x2="287.5" y2="154.6"/>
<line class="st2" x1="279.3" y1="146.5" x2="281.2" y2="148.2"/>
<line class="st2" x1="295.5" y1="149.5" x2="288.3" y2="135.5"/>
<path class="st2" d="M280.4,174.8c-0.8,0.3-1.5,0.6-2.3,0.8"/>
<path class="st2" d="M250.4,239.4c-0.2-0.8-0.4-1.6-0.6-2.4"/>
<path class="st2" d="M249.3,186c-1.6,0-3.2-0.1-4.8-0.1"/>
<path class="st2" d="M297.5,156.6c0-2,0-3.9,0-5.9"/>
<path class="st2" d="M242.3,208.5c-0.3-0.7-0.6-1.5-0.8-2.3"/>
<path class="st2" d="M241.8,209.1c-0.3-1-0.7-1.9-1-2.9"/>
<path class="st2" d="M245.4,218.6c-0.2-0.8-0.4-1.5-0.6-2.3"/>
<path class="st2" d="M244.8,219.2c-0.2-1-0.6-2-0.8-3"/>
<path class="st2" d="M256.7,248.5c0-0.3,0-0.5,0-0.8"/>
<path class="st2" d="M256.7,247.7c0-0.3,0-0.5,0-0.8"/>
<path class="st2" d="M216.3,188.2c-0.1-0.8-0.4-1.5-0.5-2.2"/>
<path class="st2" d="M216.8,191.3c-0.1-0.4-0.1-0.7-0.2-1.1"/>
<path class="st2" d="M177,180.3c0.1-0.2,0.3-0.4,0.4-0.6"/>
<path class="st2" d="M261.8,255.4c-0.9,0-1.9,0.1-2.8,0.1"/>
<path class="st2" d="M260.2,256.5c-0.5,0-1,0-1.5,0.1"/>
<path class="st2" d="M263.3,253.6c-1,0-2,0-3,0"/>
<path class="st2" d="M244.5,185.9c-0.4,0-0.8,0-1.2,0"/>
<line class="st2" x1="230.9" y1="257.4" x2="230.8" y2="257.4"/>
<path class="st2" d="M217.5,165.2c-0.1-0.1-0.2-0.2-0.3-0.3"/>
<path class="st2" d="M219,171.4c0.2,0.4,0.5,0.6,0.9,0.7"/>
<path class="st2" d="M287.4,157c0,1-0.1,2-0.2,3"/>
<path class="st2" d="M218.2,164.8c-0.5,0.2-0.8,0.7-0.7,1.3"/>
<line class="st2" x1="247.5" y1="207.4" x2="247.7" y2="207.3"/>
<line class="st2" x1="233.4" y1="194.4" x2="233.4" y2="194.5"/>
<line class="st2" x1="238.7" y1="185.9" x2="238.7" y2="185.9"/>
<line class="st2" x1="238.7" y1="185.9" x2="238.5" y2="186"/>
<line class="st2" x1="247.7" y1="207.3" x2="247.9" y2="207.2"/>
<line class="st2" x1="250" y1="213.3" x2="250.1" y2="213.4"/>
<line class="st2" x1="253.6" y1="226.9" x2="253.6" y2="227"/>
<line class="st2" x1="253.6" y1="227.1" x2="253.7" y2="227.1"/>
<line class="st2" x1="253.6" y1="227" x2="253.6" y2="227"/>
<line class="st2" x1="253.6" y1="227" x2="253.6" y2="227"/>
<line class="st2" x1="253.6" y1="227" x2="253.6" y2="227.1"/>
<line class="st2" x1="258.7" y1="253.8" x2="258.6" y2="253.8"/>
<path class="st2" d="M276.9,187.5c-0.2-0.2-0.5-0.4-0.7-0.5"/>
<path class="st2" d="M281,188.4c-0.1-0.1-0.3-0.2-0.4-0.3"/>
<line class="st2" x1="234.4" y1="190.8" x2="234.3" y2="190.9"/>
<path class="st2" d="M234.3,190.9c-0.1,0.1-0.2,0.3-0.3,0.4"/>
<line class="st2" x1="233.4" y1="194.5" x2="233.5" y2="194.7"/>
<line class="st2" x1="238" y1="186.6" x2="237.9" y2="186.6"/>
<line class="st2" x1="247" y1="203" x2="247" y2="203.1"/>
<line class="st2" x1="247" y1="203.1" x2="247" y2="203.2"/>
<path class="st2" d="M240.2,174.3c0.3,0,0.5-0.1,0.7-0.2"/>
<path class="st2" d="M254.4,155.2c-0.3-0.4-0.7-0.6-1.2-0.5"/>
<line class="st2" x1="197.3" y1="173.4" x2="197.3" y2="173.6"/>
<path class="st2" d="M256.8,161.6c0.3-0.3,0.4-0.8,0.3-1.3"/>
<path class="st2" d="M249.7,212.7l-0.5,0.2"/>
<line class="st2" x1="246.3" y1="202.7" x2="246.1" y2="202.8"/>
<line class="st2" x1="246.6" y1="202.6" x2="246.3" y2="202.7"/>
<path class="st2" d="M247.1,241.5c0,0.1,0,0.2,0.1,0.3"/>
<path class="st2" d="M247.2,241.8c0,0.2,0.1,0.4,0.1,0.6"/>
<path class="st2" d="M279.2,146.5c-0.2,0.1-0.5,0.1-0.7,0.2"/>
<path class="st2" d="M297.5,150.8c-0.1-0.6-0.2-1.3-0.5-1.9"/>
<path class="st2" d="M295.7,150.8c0-0.4-0.1-0.9-0.3-1.3"/>
<path class="st2" d="M205,165.6c0.2,0.9,0.5,1.8,0.8,2.6"/>
<path class="st2" d="M296,189c0-0.3-0.1-0.6-0.3-0.9"/>
<path class="st2" d="M297,159c0,0,0.1,0.1,0.1,0.1"/>
<path class="st2" d="M297.1,167.6c-0.1,0-0.1,0-0.1,0.1"/>
<path class="st2" d="M297,170.1c0,0.1,0.1,0.1,0.1,0.1"/>
<path class="st2" d="M297.1,162.1c-0.1,0-0.1,0.1-0.1,0.1"/>
<path class="st2" d="M297,164.5c0,0.1,0.1,0.1,0.1,0.1"/>
<path class="st2" d="M297.1,156.6C297.1,156.6,297,156.6,297.1,156.6"/>
<path class="st2" d="M214.4,162.9c0.3,0.9,0.6,1.7,0.9,2.6"/>
<line class="st2" x1="282.6" y1="150.7" x2="282.8" y2="150.8"/>
<path class="st2" d="M257.2,161.1c0.1,0,0.2,0,0.3,0"/>
<path class="st2" d="M285.1,152.7c0.5,0.4,1,0.9,1.6,1.3"/>
<path class="st2" d="M252.5,223c-0.2,0.1-0.4,0.2-0.5,0.3"/>
<path class="st2" d="M201.9,184.6l7.2,0.7l2.1,0.2"/>
<path class="st2" d="M215.1,199.7c-0.4-0.1-0.4-0.3-0.5-0.7"/>
<path class="st2" d="M215.4,191c-0.4,0-0.5,0.4-0.5,0.7"/>
<path class="st2" d="M297,148.9c-1.8-3.6-3.5-7.1-5.3-10.7c-0.5-1-1.1-2-1.5-3.1"/>
<line class="st2" x1="297.5" y1="167.6" x2="297.5" y2="164.7"/>
<path class="st2" d="M291,135.2l2.7,5.3c0.8,1.6,1.7,3.3,2.5,4.9l1.6,3.1"/>
<line class="st2" x1="298.4" y1="167.6" x2="298.4" y2="164.7"/>
<path class="st2" d="M298.4,150.8c-0.1-0.8-0.2-1.5-0.5-2.2"/>
<path class="st2" d="M298.4,150.8c0,1.9,0,3.9,0,5.8"/>
<line class="st2" x1="298.4" y1="162.1" x2="298.4" y2="159.1"/>
<path class="st2" d="M297.5,170.1c0,4.5,0,8.9-0.1,13.4c0,2.1-0.1,4.1-0.1,6.2"/>
<line class="st2" x1="297.5" y1="159.1" x2="297.5" y2="162.1"/>
<path class="st2" d="M298.4,170.1c0,4.4,0,8.8,0,13.1c0,2,0,4,0,6"/>
<path class="st2" d="M254.2,227.5c0-0.1-0.1-0.1-0.2-0.2"/>
<line class="st2" x1="255" y1="234.5" x2="255" y2="234.2"/>
<line class="st2" x1="255.7" y1="237.8" x2="255.5" y2="237.6"/>
<line class="st2" x1="256.1" y1="238.2" x2="256" y2="238"/>
<path class="st2" d="M243,209.5c-0.4,0.2-0.9,0.1-1.2-0.3c0,0-0.1-0.1-0.1-0.1"/>
<path class="st2" d="M248.6,206.9c-0.2,0.1-0.5,0.2-0.7,0.3"/>
<path class="st2" d="M247.5,207.4c-1.5,0.7-3,1.4-4.5,2.1"/>
<line class="st2" x1="247.3" y1="229.6" x2="246.6" y2="226.5"/>
<path class="st2" d="M248.6,230.1c-0.6,0.2-1.1,0.2-1.3-0.5"/>
<path class="st2" d="M249.8,240.1c-0.2-1-0.5-2.1-0.7-3.1"/>
<path class="st2" d="M251.1,240.5c-0.2,0.1-0.5,0.2-0.8,0.1c-0.3,0-0.4-0.3-0.5-0.6"/>
<path class="st2" d="M242.3,208.5c0.1,0.2,0.3,0.4,0.5,0.3c0,0,0.1,0,0.1-0.1c0.3-0.1,0.5-0.3,0.8-0.4s0.9-0.4,1.3-0.6
	c1-0.4,1.9-0.9,2.9-1.4"/>
<path class="st2" d="M247,203.2c-1.2,0.6-2.4,1.1-3.6,1.7l-1.2,0.6c-0.3,0.2-0.8,0.3-0.7,0.8"/>
<path class="st2" d="M247.2,202.3l-0.6,0.3"/>
<path class="st2" d="M246.1,202.8c-1.6,0.8-3.2,1.5-4.8,2.3"/>
<path class="st2" d="M241.3,205c-0.2,0.1-0.4,0.2-0.5,0.4c-0.1,0.2-0.1,0.5,0,0.7"/>
<path class="st2" d="M245.4,218.6c0.3,0.6,1,0.1,1.4-0.1l1.3-0.6c0.5-0.2,0.9-0.5,1.4-0.7c0.5-0.2,0.9-0.5,1.4-0.6"/>
<path class="st2" d="M250,213.4c-1.2,0.5-2.3,1.1-3.5,1.7l-1.1,0.5c-0.3,0.1-0.8,0.3-0.7,0.7"/>
<path class="st2" d="M250.3,212.4c-0.2,0.1-0.4,0.2-0.6,0.3"/>
<path class="st2" d="M249.2,212.9c-0.4,0.2-0.7,0.4-1.1,0.5L247,214l-2.5,1.2"/>
<path class="st2" d="M244.5,215.1c-0.4,0.2-0.6,0.6-0.5,1"/>
<path class="st2" d="M244.8,219.2c0.3,0.5,0.5,0.7,1.1,0.5c0.5-0.2,1-0.4,1.4-0.6l3-1.4c0.4-0.2,0.9-0.4,1.3-0.6"/>
<path class="st2" d="M247.4,226.6l0.5,1.9c0.1,0.5,0.2,0.9,0.8,0.7c1.1-0.5,2.1-1,3.2-1.5c0.6-0.3,1.2-0.5,1.7-0.8"/>
<path class="st2" d="M252.8,223.7c-1.3,0.5-2.4,1.1-3.6,1.7l-1.1,0.5c-0.4,0.2-0.8,0.2-0.8,0.7"/>
<path class="st2" d="M251.1,240.5c1.7-0.8,3.3-1.5,5-2.3"/>
<path class="st2" d="M249.6,236c-0.4,0.2-0.6,0.6-0.5,1"/>
<path class="st2" d="M255.3,233.3c-0.8,0.3-1.6,0.7-2.4,1.1l-3.3,1.5"/>
<path class="st2" d="M250.1,236.5c-0.2,0.1-0.3,0.3-0.3,0.5"/>
<path class="st2" d="M255,234.2c-0.8,0.4-1.5,0.8-2.3,1.1l-2.6,1.3"/>
<path class="st2" d="M251,239.7l4.5-2.1"/>
<path class="st2" d="M250.4,239.4c0.1,0.3,0.3,0.4,0.6,0.2"/>
<path class="st2" d="M248.6,230.1c1.9-0.9,3.8-1.8,5.6-2.6"/>
<path class="st2" d="M247.1,225.5c-0.4,0.2-0.6,0.6-0.5,1"/>
<line class="st2" x1="253.1" y1="222.7" x2="252.5" y2="223"/>
<path class="st2" d="M251.9,223.3c-1.6,0.7-3.2,1.5-4.8,2.2"/>
<path class="st2" d="M177,182.7c0,0,0.1-0.1,0.1-0.2"/>
<line class="st2" x1="174.8" y1="201.9" x2="173.7" y2="201.8"/>
<line class="st2" x1="176.2" y1="201.9" x2="174.8" y2="201.9"/>
<path class="st2" d="M191.2,201.9h-6.6c-1.8,0-3.6,0-5.4,0h-3"/>
<path class="st2" d="M192.5,201.9h-1.3"/>
<line class="st2" x1="194.8" y1="201.8" x2="192.5" y2="201.9"/>
<path class="st2" d="M191.8,181.1c-0.5-0.5-1-1-1.5-1.6"/>
<path class="st2" d="M189.6,179.2c0.3,0.1,0.5,0.2,0.8,0.3"/>
<path class="st2" d="M178.2,179.3c2.9-0.3,5.8-0.5,8.7-0.3l2.7,0.2"/>
<path class="st2" d="M177.4,179.7c0.2-0.2,0.5-0.4,0.8-0.4"/>
<line class="st2" x1="278.2" y1="189.6" x2="278.2" y2="189.6"/>
<line class="st2" x1="278.1" y1="189.6" x2="278.1" y2="189.6"/>
<path class="st2" d="M243.3,185.9c-1,0-1.9,0-2.9,0"/>
<path class="st2" d="M274.3,186.6c-3.1,0-6.2-0.2-9.3-0.3l-10.3-0.2l-5.4-0.1"/>
<path class="st2" d="M238.7,185.9c0.6-0.1,1.1-0.1,1.7-0.1"/>
<path class="st2" d="M234.4,190.8c1.1-1.5,2.3-2.9,3.6-4.2"/>
<path class="st2" d="M235.7,200.5c0.6,1.8,1.3,3.6,2,5.4c1.1,3,2.1,6,3,9.1c1.8,6.1,3.2,12.2,4.6,18.4c0.6,2.7,1.2,5.4,1.9,8.2"/>
<path class="st2" d="M247.3,242.3c0.2,0.9,0.6,1.7,1.2,2.3c0.6,0.5,1.4,0.8,2.2,0.9l4.2,0.9c0.5,0.1,1.1,0.2,1.6,0.3"/>
<path class="st2" d="M235.2,199.2c0.1,0.4,0.3,0.8,0.5,1.3"/>
<path class="st2" d="M233.5,194.7c0.6,1.5,1.2,3,1.7,4.5"/>
<line class="st2" x1="257.1" y1="160.3" x2="254.4" y2="155.2"/>
<path class="st2" d="M217.5,165.9c0.6,1.8,1,3.6,1.6,5.5"/>
<line class="st2" x1="287.5" y1="154.6" x2="287.4" y2="157"/>
<path class="st2" d="M287.2,160c-0.3,2.3-0.6,4.6-0.8,6.9l-0.6,5l-0.1,0.7c0,0,0,0.2,0,0.3s-0.3,0.1-0.4,0.1l-0.5,0.2
	c-0.3,0.1-0.5,0.2-0.8,0.3c-1.3,0.4-2.5,0.9-3.7,1.3"/>
<path class="st2" d="M282.8,150.8l1.3,1c0.4,0.2,0.7,0.5,1,0.8"/>
<path class="st2" d="M196.2,167.8c-0.1,0.1-0.2,0.2-0.3,0.4c0,0.4,0,0.7,0.1,1.1c0.1,0.5,0.2,0.9,0.4,1.4c0.3,0.9,0.5,1.8,0.8,2.8"
	/>
<path class="st2" d="M256.6,246.9c0,0-0.1-0.1-0.1-0.1"/>
<path class="st2" d="M233.4,194.4c-0.2-0.5-0.2-1-0.1-1.5c0.2-0.6,0.4-1.1,0.7-1.6"/>
<path class="st2" d="M278.1,189.6c0,0,0.1,0.1,0.1,0.1"/>
<line class="st2" x1="214" y1="185.8" x2="211.2" y2="185.5"/>
<path class="st2" d="M214,185.8c1.4,0.2,2.9,0.3,4.4,0.5c1.2,0.1,2.4,0.3,3.6,0.6c0.7,0.2,1.4,0.5,1.9,1c0.4,0.3,0.7,0.8,0.8,1.3"/>
<line class="st2" x1="264.2" y1="263.3" x2="264.2" y2="263.4"/>
<path class="st2" d="M229.5,257.7l-2.2,0.5"/>
<path class="st2" d="M230.8,257.4l-1.3,0.3"/>
<path class="st2" d="M233.4,258.7l5.6-1c1.5-0.3,3-0.5,4.5-0.7c1.5-0.2,2.9-0.4,4.3-0.5c1.4-0.2,3.2-0.4,4.9-0.5l6.2-0.4"/>
<path class="st2" d="M258.6,253.8l-6.1,0.4c-1.6,0.1-3.3,0.3-5,0.5c-1.7,0.2-3.1,0.4-4.7,0.6c-1.8,0.3-3.5,0.5-5.3,0.9l-6.4,1.3
	h-0.2"/>
<path class="st2" d="M294.8,188.4c0.2,0.1,0.4,0.2,0.6,0.3"/>
<path class="st2" d="M292.1,189.7c0-0.6,0.6-1,1.1-1.3c0.5-0.2,1.1-0.2,1.6-0.1"/>
<path class="st2" d="M274.5,184.6c1.7,0.7,3.4,1.5,4.9,2.6c0.4,0.3,0.8,0.6,1.2,0.9"/>
<path class="st2" d="M281,188.4l1.3,1.3"/>
<path class="st2" d="M200.6,181.4l9.1,0.8c2.9,0.3,5.8,0.5,8.7,0.7c7.1,0.6,14.2,1,21.4,1.4c6,0.3,11.9,0.5,17.9,0.6
	c3.5,0,7,0.1,10.5,0c1.8,0,3.6-0.2,5.5-0.2h1"/>
<line class="st2" x1="246.6" y1="181.6" x2="234.2" y2="181.1"/>
<line class="st2" x1="258.9" y1="182.1" x2="246.7" y2="181.6"/>
<path class="st2" d="M286.9,174.1l-4.7,1.4l-7.5,2.2l-3.6,1c-1.8,0.5-3.6,1-5.4,1.5l-6.5,1.9h-0.2"/>
<line class="st2" x1="289.4" y1="154.2" x2="286.9" y2="174.1"/>
<line class="st2" x1="278.3" y1="144.6" x2="289.4" y2="154.2"/>
<line class="st2" x1="209.4" y1="180.1" x2="205.8" y2="168.3"/>
<line class="st2" x1="214" y1="180.3" x2="209.4" y2="180.1"/>
<line class="st2" x1="227.1" y1="180.9" x2="214" y2="180.3"/>
<line class="st2" x1="233.9" y1="181.1" x2="227.1" y2="180.9"/>
<line class="st2" x1="259.9" y1="263.9" x2="261.5" y2="263.9"/>
<line class="st2" x1="259.4" y1="262.9" x2="261" y2="262.9"/>
<path class="st2" d="M258.7,256.6c-3.2,0.2-6.4,0.4-9.6,0.7c-2.9,0.3-5.9,0.6-8.8,1.2l-5.8,1.1"/>
<path class="st2" d="M260.3,253.7c-0.5,0-1,0.1-1.6,0.1"/>
<path class="st2" d="M295.3,188.7c0.2,0,0.1-0.1,0.2-0.2c0.1,0,0.3,0,0.4,0"/>
<line class="st2" x1="274.3" y1="186.6" x2="274.3" y2="186.6"/>
<line class="st2" x1="269.5" y1="186.5" x2="269.5" y2="186.5"/>
<path class="st2" d="M261.8,255.4c0.6,0,1.1,0,1.7,0"/>
<path class="st2" d="M263.5,256.4c-0.2,0-0.5,0-0.7,0h-1.5h-1.2"/>
<path class="st2" d="M264.2,262.9H261"/>
<line class="st2" x1="240.4" y1="185.9" x2="240.4" y2="185.9"/>
<path class="st2" d="M277.9,145.7c0.2,0.3,0.4,0.7,0.7,1"/>
<path class="st2" d="M281.2,149.5l1.4,1.3"/>
<path class="st2" d="M200.1,181.1c-0.8-1.8-1.6-3.8-2.2-5.7l-0.6-1.8"/>
<path class="st2" d="M255.7,151.8c1,2.4,2,4.8,3,7.1l0.8,1.8"/>
<path class="st2" d="M278.6,146.7l-9,6.6c-2.3,1.7-4.7,3.4-7,5.1l-2.9,2.2c-0.2,0.2-0.4,0.2-0.6,0.3l-1.6,0.3"/>
<line class="st2" x1="238.6" y1="186" x2="238.5" y2="186"/>
<path class="st2" d="M253.7,154.7c0.5-0.5,0.9-1,1.3-1.6c0.2-0.4,0.4-0.7,0.7-1.1c0.1-0.1,0.1-0.2,0.2-0.2c0.3-0.1,0.6-0.2,1-0.3
	l1.7-0.4l4.4-1.1c3.2-0.8,6.4-1.6,9.6-2.5c1.8-0.5,3.7-1.1,5.5-1.7"/>
<path class="st2" d="M214.4,162.9c0.9,0.7,1.8,1.4,2.8,2.1"/>
<path class="st2" d="M259,182.1c2.6-0.8,5.2-1.7,7.7-2.6l7.7-2.6l2.6-0.9c0.4-0.2,0.8-0.3,1.2-0.4"/>
<line class="st2" x1="243.3" y1="185.9" x2="243.4" y2="185.9"/>
<line class="st2" x1="281.2" y1="149.5" x2="246.3" y2="175.7"/>
<path class="st2" d="M241.2,175.2l-5.8-0.5l-5.3-0.5l-8.7-0.8l-2.8-0.2c-0.2,0-0.4,0-0.5,0c-0.1-0.1-0.1-0.1-0.1-0.2l-0.4-1
	c-0.7-2-1.4-4.1-2.1-6.2l-0.1-0.3"/>
<path class="st2" d="M200.2,181.2c0.1,0.1,0.2,0.1,0.4,0.2"/>
<path class="st2" d="M276.2,186.9c-0.3-0.1-0.7-0.2-1-0.2c-0.3-0.1-0.6-0.1-0.8-0.1"/>
<line class="st2" x1="277" y1="187.7" x2="276.9" y2="187.5"/>
<path class="st2" d="M218.4,190.4c0,0.3,0,0.6,0,0.9v1.5l-0.3,6.9c0,0.3,0,0.5,0,0.8"/>
<path class="st2" d="M218.4,191.3l-2.9-0.1l-0.2,4.5l-0.1,2.9c0,0.2,0,0.5,0,0.7c0,0.2,0,0.1,0.2,0.2l2.7,0.1"/>
<line class="st2" x1="215.4" y1="192.2" x2="218.3" y2="192.3"/>
<line class="st2" x1="218.2" y1="194.8" x2="215.3" y2="194.6"/>
<line class="st2" x1="215.2" y1="195.9" x2="218.2" y2="196.1"/>
<line class="st2" x1="218.1" y1="198.6" x2="215.1" y2="198.5"/>
<line class="st2" x1="177" y1="161.1" x2="177" y2="182.6"/>
<line class="st2" x1="206.1" y1="158" x2="206.1" y2="158"/>
<path class="st2" d="M222.5,150.1L222.5,150.1"/>
<path class="st2" d="M227,148.6L227,148.6"/>
<path class="st2" d="M164,159.5v0.8c0.4-0.2,0.8-0.4,1.3-0.5l2.2-0.2l5.3-0.5c0.1,0,0.5,0,0.6,0s0-0.8,0-0.9"/>
<path class="st2" d="M164.9,159.9c0,0.4,0,0.8,0,1.3c-0.1,0.3-0.5,0.4-0.7,0.7c0,0.1,0,0.2,0,0.3v2.5c0,0.2-0.1,0.7,0,0.8
	c0.1,0.1,0.5,0,0.6,0.2s0,0.3,0,0.3v1.7c0,0.2,0,0.4,0,0.6c0,0.1-0.1,0.2-0.3,0.3c-0.1,0.1-0.4,0.3-0.4,0.6v3.2c0,0.4,0,0.8,0,1.1
	c0.1,0.3,0.5,0.4,0.7,0.7c0.1,0.4,0.1,0.7,0,1.1v0.8c0,0.1,0,0.4,0,0.5s-0.4,0.2-0.5,0.2s-0.1,0-0.1,0.2c0,0.5,0,1.1,0,1.6
	c0,0.5,0,1.1,0,1.6c0,0.5,0.5,0.6,0.6,0.9c0,0.2,0,0.4,0,0.6v0.6"/>
<path class="st2" d="M164,182.8v-0.8c0.4,0.2,0.8,0.4,1.3,0.4l2.2,0.2l5.3,0.5c0.1,0,0.5,0,0.6,0s0,0.7,0,0.9"/>
<path class="st2" d="M164.9,161.3l7.4-0.1h1v3.3c0,0,0,0.3,0,0.3s-0.3,0-0.4,0l-6.1,0.6l-2,0.2"/>
<path class="st2" d="M164.9,168.3l4.3,0.2l2.9,0.1h0.9c0,0,0.3,0,0.3,0s0,0.5,0,0.6v1.4c0,0.9,0,1.8,0,2.6v0.2c-0.2,0-0.5,0-0.7,0
	l-2.7,0.2l-5,0.3"/>
<path class="st2" d="M164.9,176.5l3.9,0.4l2.8,0.3l1.1,0.1c0.2,0,0.4,0,0.6,0c0.1,0,0,0.1,0,0.2v2.6c0,0.1,0.1,0.7,0,0.8
	s-0.2,0-0.3,0h-0.8h-2.7h-4.7"/>
<path class="st2" d="M164.2,161.9l8,0.4c0,0,0.2,0,0.3,0s0,0.7,0,0.8v1.2c0,0.2,0,0.2-0.1,0.2c-0.2,0.1-0.4,0.1-0.6,0.1l-0.9,0.1
	l-2.5,0.3l-4.1,0.5"/>
<path class="st2" d="M164.3,168.9l3.6,0.4l2.7,0.3c0.6,0,1.2,0.1,1.8,0.2c0.2,0,0.1,0,0.2,0.1c0,0.1,0,0.2,0,0.4v2
	c0,0.1,0,0.4,0,0.5s-0.4,0-0.4,0l-0.9,0.1l-2.5,0.3l-4.3,0.5"/>
<path class="st2" d="M164.2,176.8l8,0.9c0,0,0.3,0,0.3,0s0,0.6,0,0.8v1.3c0,0.2,0,0.2-0.1,0.2c-0.2,0-0.4,0-0.6,0h-1l-2.5,0.1
	l-4.1,0.2"/>
<line class="st2" x1="172.4" y1="162.3" x2="173.3" y2="161.2"/>
<line class="st2" x1="172.4" y1="164.6" x2="173.3" y2="164.8"/>
<line class="st2" x1="172.5" y1="169.7" x2="173.3" y2="168.7"/>
<line class="st2" x1="172.5" y1="172.6" x2="173.3" y2="173.6"/>
<line class="st2" x1="172.5" y1="177.8" x2="173.2" y2="177.4"/>
<line class="st2" x1="172.5" y1="180" x2="173.3" y2="181.1"/>
<path class="st2" d="M155.3,256c0-0.9,0-1.8,0.1-2.7c0-0.4,0.1-0.7,0.2-1.1s0-0.5,0.3-0.6c0.5-0.2,0.6,0.7,0.6,1
	c0.2,1.2,0.3,2.4,0.5,3.5c0.1,0.5,0.2,1,0.2,1.5c0.1,0.5,0.4,1.3,0,1.6c-0.4,0.2-0.9-0.9-1.1-1.2c-0.2-0.3-0.3-0.7-0.5-1
	C155.5,256.7,155.4,256.4,155.3,256z"/>
<path class="st2" d="M212.5,256c0-0.9,0-1.8-0.1-2.7c0-0.4-0.1-0.7-0.2-1.1s0-0.5-0.3-0.6c-0.5-0.2-0.6,0.7-0.6,1
	c-0.2,1.2-0.3,2.4-0.5,3.5c-0.1,0.5-0.2,1-0.3,1.5s-0.4,1.3,0,1.6c0.4,0.2,0.9-0.9,1.1-1.2s0.4-0.7,0.5-1
	C212.3,256.7,212.4,256.4,212.5,256z"/>
<path class="st2" d="M188.3,255.4c0.2-0.7,0.5-1.4,0.8-2.1c0.2-0.7,0.7-1.3,1.3-1.7c1.1-0.6,2.5-0.2,3.1,1c0,0,0,0,0,0.1
	c0.4,0.8,0.7,1.6,1,2.5c0.2,0.8,0,1.7-0.4,2.4c-0.5,1.2-1.8,2-3.2,1.8c-0.7-0.1-1.3-0.5-1.7-1C188.4,257.5,188.1,256.4,188.3,255.4z
	"/>
<path class="st2" d="M201.9,255.9c0.2-1.2,0.6-2.3,1.1-3.3c0.3-0.6,0.6-1.1,1.3-1.1c0.5,0,1,0.3,1.3,0.8c0.4,0.7,0.6,1.4,0.8,2.1
	c0.3,0.7,0.3,1.5,0,2.2c-0.3,0.7-0.7,1.3-1.2,2c-0.3,0.5-0.8,0.7-1.4,0.7c-0.6,0-1.2-0.3-1.5-0.8
	C201.9,257.7,201.8,256.8,201.9,255.9z"/>
<path class="st2" d="M179.7,255.4c-0.2-0.7-0.5-1.4-0.8-2.1c-0.2-0.7-0.7-1.3-1.3-1.7c-1.1-0.6-2.5-0.2-3.1,1c0,0,0,0,0,0
	c-0.4,0.8-0.7,1.6-1,2.5c-0.2,0.8,0,1.7,0.4,2.4c0.5,1.2,1.8,2,3.2,1.8c0.7-0.1,1.3-0.5,1.7-1C179.6,257.5,179.9,256.4,179.7,255.4z
	"/>
<path class="st2" d="M166,255.9c-0.2-1.2-0.6-2.3-1.1-3.3c-0.3-0.6-0.6-1.1-1.3-1.1c-0.5,0-1,0.3-1.3,0.8c-0.3,0.7-0.6,1.4-0.8,2.1
	c-0.3,0.7-0.3,1.5,0,2.2c0.3,0.7,0.7,1.3,1.2,2c0.3,0.5,0.8,0.7,1.4,0.7c0.6,0,1.2-0.3,1.5-0.8C166,257.7,166.1,256.8,166,255.9z"/>
<line class="st2" x1="212.5" y1="256" x2="212.9" y2="256"/>
<line class="st2" x1="206.6" y1="256" x2="210.7" y2="256"/>
<line class="st2" x1="194.5" y1="256" x2="201.9" y2="256"/>
<line class="st2" x1="179.8" y1="256" x2="188.2" y2="256"/>
<line class="st2" x1="166.1" y1="256" x2="173.4" y2="256"/>
<line class="st2" x1="157" y1="256" x2="161.3" y2="256"/>
<line class="st2" x1="155" y1="256" x2="155.3" y2="256"/>
<path class="st2" d="M345,256.4c-17,3.9-59,6.9-59,6.9v0.5l-21.8-1l0,0v0.1v0.2v0.1v0.1l0.1,0.5c0,0.6,0,1.3,0.1,1.9l0,0v0.2
	l-0.1,0.1l0,0h-0.1h-35.5h-0.1l0,0c-0.1,0-0.1-0.1-0.1-0.2l-1.1-7.5v-0.1l0.2-0.2c0.7-0.4,1.4-0.7,2.1-1.1c1.9-1,3.7-2.2,5.5-3.5
	c1.3-0.9,2.4-2.1,3.1-3.4c0.3-0.7,0.5-1.4,0.4-2.1c-0.1-0.5-0.2-1-0.4-1.5c-0.2-0.5-0.3-0.9-0.5-1.4c-0.7-1.7-1.3-3.4-1.9-5
	c-0.1-0.3-0.2-0.6-0.3-0.9c-0.2-0.6-0.4-1.3-0.7-1.9c-0.7-1.8-1.3-3.7-1.9-5.5l-0.1-0.3c-0.2-0.6-0.4-1.1-0.5-1.7
	c-0.3-1-0.6-2.1-0.9-3.1c-0.2-0.5-0.3-1-0.4-1.5c-0.2-0.5-0.3-1-0.4-1.5c-0.1-0.5-0.3-1.3-0.5-1.8c-0.6-2.1-1.1-4.2-1.5-6.3
	c0-0.2-0.1-0.4-0.2-0.6l-0.3-1.4c-0.5-2.5-1-5-1.3-7.5c-0.1-0.6-0.4-1.2-0.8-1.7c-1.3-1.3-3.3-1.3-5-1.3c-1,0-2,0-3.1,0h-0.1l0,0
	c0,0-0.1-0.1-0.1-0.1v-0.1c0-0.2,0-0.4-0.1-0.5l0,0v-0.1l0.1-0.1l0.1-0.1h0.1l4.2-0.6l-4.2,0.6l0,0l4.2-0.6c0.7-0.1,1.5-0.3,2.2-0.4
	c0.6-0.1,1.2-0.3,1.7-0.8c0.4-0.6,0.6-1.4,0.4-2.2c-0.5-2.6-0.9-5.2-1.3-7.8l-0.2-1h-0.8l-1.8-0.9h-5.9c0,0.1,0,0.2,0,0.4
	c0.1,0.5,0.2,1,0.2,1.6l0,0l1.4,0.1c0.3,0,0.3-0.1,0.4,0.2l0,0c0.2,1.7,0.2,3.4,0.1,5.2c0,1.6-0.2,3.2-0.5,4.8c0,0,0,0.1,0,0.1
	c0,0.1,0,0-0.1,0.1c-0.3,0-0.5,0-0.8,0l0,0v0.9L212,202c-0.3,0-0.6,0-0.8,0c-1,0-2-0.1-3.1-0.1c-1,0-1.8-0.1-2.7-0.2
	c-0.4,0-0.9-0.1-1.3-0.1c-0.4,0-1.3,0.1-1.5-0.3c-0.2-0.3,0.3-0.8,0.6-0.9c0.3-0.1,0.6-0.1,0.8-0.2c0.9-0.2,1.6-0.6,2.2-1.3
	c0.8-1.2,1.3-2.6,1.3-4.1l0.1-1.7c0.1-1.7,0-3.5-0.3-5.2l0,0c-0.1-0.3-0.4-0.6-0.8-0.6c-0.8-0.1-1.5-0.1-2.3-0.2
	c-0.7-0.2-1.4-0.7-1.7-1.4c-0.2-0.4-0.3-0.7-0.5-1c-0.2,0-0.3-0.1-0.4-0.3c-0.5-1-1-2.2-1.4-3.2H192c-0.3,0.1-0.5,0.2-0.5,0.6
	l2,18.9c0.1,0.7,0.7,1.3,1.4,1.3l11.2,0.5c0.5,0.1,0.9,0.5,1,1v10.8c0,0.2-0.1,0.2-0.2,0.2h-1.7v0.3c0,0.4,0.2,0.7,0.6,0.8l0,0
	l5.2,1c0.4,0.1,0.8,0.4,1.1,0.7c0.3,0.4,0.4,0.8,0.5,1.3l0,0l0.6,37.6l-1.9,5c-0.2,0.5-0.4,1-0.6,1.5c-0.4,0.9-1,1.8-1.7,2.5
	c-0.4,0.3-0.8,0.5-1.3,0.7c-0.4,0.1-0.8,0.2-1.3,0.2h-19.3c-0.2,0-0.4-0.1-0.5-0.2l-1.3-0.8c-0.6-0.3-1.3-0.3-1.9,0l-1.3,0.8
	c-0.2,0.1-0.3,0.1-0.5,0.2h-19.3c-0.6,0-1.2-0.1-1.8-0.4c-0.5-0.3-0.9-0.7-1.3-1.2l-0.4-0.4l-0.2-0.3c-0.1-0.2-0.2-0.4-0.4-0.6
	c-0.1-0.1-0.1-0.1-0.2-0.2c-0.1-0.2-0.3-0.5-0.4-0.7L155,256l0.6-37.6c0.1-0.9,0.7-1.7,1.6-1.9l5.1-1c0.3-0.1,0.6-0.4,0.6-0.8v-0.3
	h-1.8c-0.1-0.1-0.2-0.1-0.2-0.2v-10.8c0-0.5,0.4-1,1-1l11.8-0.5c0.7,0,1.3-0.6,1.4-1.3l1.9-17.8h-1v0.6c0,0.1-0.1,0.2-0.3,0.3h-0.9
	h-0.2l-0.5,0.5c-0.4,0.1-0.9,0.1-1.3,0l-3-0.2l-3.2-0.3l-1.1-0.1c-0.2,0-0.4,0-0.6,0c-0.3-0.2-0.6-0.4-0.8-0.6
	c-0.3-0.2-0.7-0.4-0.7-0.8v-2.2l-4.4-0.1c-0.1,0-0.2-0.1-0.2-0.2l-0.5-1.5c-0.1-0.1-0.1-0.2,0-0.3l5.2-4.3v-4.8l-5.2-4.3
	c-0.2-0.2,0.1-0.7,0.2-0.8l0.3-1c0-0.1,0.1-0.2,0.2-0.2l4.4-0.1v-2.1c0-0.4,0.5-0.6,0.8-0.9c0.2-0.2,0.5-0.4,0.7-0.6
	c0.2,0,0.4,0,0.6,0l1.2-0.1l3.3-0.3l3-0.2c0.4-0.1,0.9-0.1,1.3,0l0.5,0.5l0.2,0.1h1c0.1,0,0.2,0.1,0.3,0.2v0.6h1v1.5h4.5V161h1.7
	v0.2h6.6V161h10.5v0.2h2.5l2.9-2.9l0.1-0.1h0.1c0.6-0.2,1.2-0.5,1.7-0.8l0.2-0.1l0,0c0,0,0.1,0,0.1-0.1l0,0v-0.5
	c0.9-0.5,1.9-0.8,2.8-1.1l0.2-0.1c0.9-0.3,1.7-0.6,2.5-0.9l0.3-0.1l1.3-0.5c0.4-0.2,0.9-0.3,1.3-0.5l2.5-1.9
	c0.3-0.1,0.5-0.2,0.8-0.3c0.3,0,0.3,0.2,0.3,0.5h0.2v-1v-0.1l0,0l0,0l0,0l0,0l-0.1,0.2v-0.1h0.1l0,0l0,0l0,0l0.6-0.2h0.2h0.4
	c0.4,0.1,0.7,0.1,1.1-0.1l0,0c-0.1-0.2,0.5-0.3,0.6-0.3l1.5-0.5l2.4-0.8v0.2c0.2,0,0.4-0.1,0.6-0.2l0,0l0.2-0.1
	c0.1,0,0.1-0.1,0.2-0.1c0,0,0,0,0.1,0c0,0,0.1-0.1,0.1-0.1l0.1-0.1l0,0l0,0l0,0l0.4-0.1l0.4-0.1c0.2-0.1,0.4,0.1,0.4,0.3v1.1l0,0
	c0.1,0,0.1,0,0.2-0.1l0,0v-0.8l0,0v-0.1l0,0l0.1-0.1h0.1l0.9-0.3l2.5,0.2h0.2l8-2.4c2.1-0.6,4.2-1.3,6.3-1.8
	c1.9-0.5,3.8-1.1,5.7-1.5c2-0.5,4.2-1.1,6.3-1.6l7.5-1.7c0.6-0.1,1.3-0.2,1.8-0.4l0.5-0.1c1.4-0.3,2.8-0.5,4.2-0.8
	c0.7-0.1,1.3-0.2,2-0.4c0.9-0.1,1.7-0.3,2.5-0.5c1.5-0.2,3-0.5,4.5-0.7l5.2-0.5h0.4l-5.6,0.5l0,0l5.6-0.5c-0.1-0.1,0-0.2,0.1-0.2
	l1.7-0.2c0.3,0,0.6,0,0.9,0.2l0,0c0.8,0.5,1.7,0.9,2.5,1.4l9.1,4.8c0.2,0.2,0.4,0.4,0.4,0.7l0,0v14.6h-0.3v2.5h0.3v3h-0.3v2.5h0.3v3
	h-0.3v2.5h0.2v13.7c0,0.2-0.1,0.4-0.2,0.5l0,0l-4.4,4.9c-0.3,0.3-0.7,0.5-1.1,0.5l0,0h-0.3H296c-0.3,0-0.3,0-0.4,0.3
	c-0.2,0.4-0.5,0.8-1,0.9c-0.5,0.2-1.1,0.2-1.6,0c-0.5-0.3-0.9-0.7-1.1-1.3h-0.8v0.1h-5.4c-1.2,0-2.3,0-3.5-0.1c-1.4,0-2.8,0-4.1,0
	l0,0c0,0.4-0.6,0.2-0.8,0.2l0,0c-1.5,0-25.9-0.9-27.4-0.9c-1.5-0.2-3,0.2-4.3,1.1c-0.6,0.6-1,1.4-1.1,2.2c0,0.6,0,1.2,0.1,1.8
	l0.3,1.1l0.5,1.5c0.5,1.7,1.1,3.4,1.6,5c0.1,0.2,0.1,0.4,0.2,0.6v0.1v0.1l-0.2,0.5v0.1v0.1v0.1c0.1,0.5,0.3,1,0.5,1.5s0.3,1,0.5,1.5
	v0.1l0.1,0.2l0.4,0.2l0.2,0.2c0.5,1.6,0.9,3.2,1.4,4.7l0.2,0.8v0.1v0.1l-0.2,0.5v0.2l0,0c0.1,0.5,0.3,1,0.4,1.5s0.3,1.1,0.5,1.7
	l0.2,0.2l0.4,0.1l0.2,0.2c0.3,0.9,0.5,1.8,0.7,2.7c0.2,0.9,0.5,1.8,0.7,2.7v0.3l0,0v0.2l0,0l-0.2,0.5v0.2l0,0
	c0.1,0.2,0.1,0.5,0.2,0.7c0.2,0.9,0.4,1.7,0.6,2.5v0.1l0,0l0,0l0,0v0.1l0,0l0.3,0.2c0.1,0.1,0.1,0.1,0.2,0.2
	c0.4,1.9,0.7,3.9,1.1,5.8v0.1l0,0l-0.3,0.6v0.1v0.1v0.3c0,0.4,0.2,0.9,0.2,1.3c0,0.5,0.1,0.9,0.2,1.3c0,0.1,0,0.3,0,0.4v0.1l0.2,0.2
	l0.3,0.2l0.1,0.1l0.1,0.2c0,0.5,0.2,1,0.2,1.6c0.1,0.9,0.2,1.9,0.3,2.8c0.1,0.9,0.2,1.9,0.2,2.8c0,0.3,0.2,1.5-0.2,1.5l0,0
	c0,0.5,0.1,1,0.1,1.5c0.1,0.5,0.2,1,0.4,1.5c0.2,0.4,0.5,0.9,0.8,1.3c0.2,0.2,0.4,0.4,0.6,0.6c0.1,0.1,0.2,0.2,0.3,0.2l0.4,0.3
	c0.5,0.3,1.1,0.5,1.7,0.7l0.4,0.1l1.7,0.3h0.1h0.1v0.1c0,0.6,0.1,1.2,0.2,1.8l0.1,0.9v0.1l0,0v0.2v0.1l0,0l22.7,2.2v0.6
	c0,0,41.8-3.1,58.8-7"/>
<g>
	<defs>
		<rect id="SVGID_1_" x="55" y="139.6" width="74.3" height="63.2"/>
	</defs>
	<clipPath id="SVGID_00000076587436532870254880000018087682256163983803_">
		<use xlink:href="#SVGID_1_"  style="overflow:visible;"/>
	</clipPath>
	<g style="clip-path:url(#SVGID_00000076587436532870254880000018087682256163983803_);">
		<path class="st4" d="M79.6,157.6c1.7-0.4,4.7,6.8,6.5,15.9c1.9,9.1,1.9,16.8,0.2,17.2"/>
		<path class="st4" d="M78.5,159.7c0.2-1.3,0.6-2.1,1.1-2.2c1.7-0.4,4.7,6.8,6.5,15.9c1.9,9.1,1.9,16.8,0.2,17.2
			c-0.6,0.1-1.3-0.6-2-1.9"/>
		<path class="st4" d="M80.5,177.7c-0.2-0.9-0.4-1.9-0.6-2.9c-0.4-2-0.7-3.9-1-5.7"/>
		<path class="st4" d="M76.6,160.2c0.2-3.7,0.9-6.1,2.3-6.4c2.7-0.6,6.7,8.1,9,19.3s1.9,20.7-0.8,21.3c-1.3,0.3-3-1.7-4.6-5.2"/>
		<path class="st4" d="M79,179.3c-0.4-1.3-0.7-2.8-1-4.2c-0.5-2.4-0.9-4.8-1.1-7"/>
		<path class="st4" d="M77.8,154.6l1.8-3.1l17.3-5c3-0.6,7.5,9.6,10.2,22.7c2.7,13.1,2.4,24.3-0.6,24.9l-17.9,1.7l-2.5-1.6"/>
		<path class="st4" d="M98.8,147.3c3.6-0.9,7.8,8.8,10.4,21.2c2.5,12.4,2.2,23-0.8,23.6"/>
		<path class="st4" d="M101.2,148c3.5-0.8,7.7,8.3,10.1,19.9s1.9,21.6-1.1,22.3"/>
		<path class="st4" d="M212.8,167.2c3-0.6,3.6-9.7,1.5-20.4c-2.2-10.7-6.4-18.9-9.3-18.2l-25.3,5c3-0.6,7.2,7.5,9.3,18.2
			c2.2,10.7,1.5,19.8-1.5,20.5L212.8,167.2z"/>
		<polyline class="st4" points="81.5,159.2 73.7,160.8 73,163.9 75.1,167.1 84.6,171.9 84.4,166.5 		"/>
		<polyline class="st4" points="83.3,163.3 76.1,164.2 75.1,167.1 		"/>
		<line class="st4" x1="73.7" y1="160.8" x2="76.1" y2="164.2"/>
		<polygon class="st4" points="82,176.3 73.7,184.7 76.8,190.4 85,188.6 85,179.8 		"/>
		<line class="st4" x1="85" y1="179.8" x2="75.9" y2="188.7"/>
		<ellipse transform="matrix(0.9937 -0.1116 0.1116 0.9937 -18.9469 10.3843)" class="st4" cx="83.2" cy="174.4" rx="1.3" ry="3"/>
		<polygon class="st4" points="83,155 84,153.6 99.3,150.2 102.3,156.2 86,161.3 		"/>
		<polygon class="st4" points="87.6,166 89.2,164.7 103.9,162.5 106.5,171.7 91.5,175.9 89.5,175.2 		"/>
		<polygon class="st4" points="90.5,181.2 92.2,180 107.2,178.5 107.6,186.7 92.2,190.1 90.5,188.9 		"/>
		<polyline class="st4" points="83,155 98.4,152.6 100.5,156.7 		"/>
		<line class="st4" x1="99.3" y1="150.2" x2="98.4" y2="152.6"/>
		<polyline class="st4" points="87.7,166.8 102.8,165.2 104.1,170.4 89.5,175.2 		"/>
		<line class="st4" x1="103.9" y1="162.5" x2="102.8" y2="165.2"/>
		<line class="st4" x1="106.5" y1="171.7" x2="104.1" y2="170.4"/>
		<polyline class="st4" points="90.5,188.9 105.7,184.5 105.5,179.8 90.5,181.2 		"/>
		<line class="st4" x1="107.6" y1="186.7" x2="105.7" y2="184.5"/>
		<line class="st4" x1="107.2" y1="178.5" x2="105.5" y2="179.8"/>
		<polyline class="st4" points="79.6,151.5 81.1,153.1 83,151.5 97.3,147.7 96.3,146.6 		"/>
		<line class="st4" x1="87.6" y1="160.8" x2="88.8" y2="165"/>
		<line class="st4" x1="92.2" y1="180" x2="91.5" y2="175.9"/>
		<polyline class="st4" points="88.7,195.8 90.2,192.4 107.2,190.7 106.4,194.1 		"/>
		<polyline class="st4" points="88.9,195.1 104.1,192.4 105.5,190.9 		"/>
		<line class="st4" x1="105.9" y1="194.2" x2="104.1" y2="192.4"/>
		<line class="st4" x1="92.2" y1="190.1" x2="91.8" y2="192.2"/>
		<path class="st4" d="M105,150.4l41.9-8.8l5.6-6.6c1-1.1,2.3-1.9,3.8-2.2l12.6-2.5l2.7,4.1"/>
		<line class="st4" x1="189" y1="170.9" x2="112.2" y2="187.2"/>
		<path class="st4" d="M176.7,148.5v-5.3l-1.1-1.7l-11.8,2.3c-1.4,0.3-2.6,1-3.6,2l-7,7.5l2.2-0.3l6.2-6.9c0.3-0.4,0.7-0.6,1.2-0.7
			l8-1.5v6L176.7,148.5z"/>
		<line class="st4" x1="170.8" y1="149.9" x2="168.4" y2="144.4"/>
		<path class="st4" d="M146.9,141.6c0,0,4.3-0.3,5.5,1.7c1.2,2.1,1.2,3.5,0.7,10.1"/>
		<line class="st4" x1="152.8" y1="134.7" x2="159.1" y2="145.5"/>
		<line class="st4" x1="162.4" y1="144" x2="156.5" y2="133.8"/>
		<polyline class="st4" points="174.3,139.4 174.4,137.5 173.4,136.1 170,136.1 168.8,137.5 162.7,138.6 161.1,136.6 168.8,135.1 		
			"/>
		<polyline class="st4" points="175.6,141.5 172.5,136.9 169.3,136.9 		"/>
		<polyline class="st4" points="166.6,137.9 169.4,134.4 171.9,134.4 173.4,136.1 		"/>
		<line class="st4" x1="169.2" y1="134.7" x2="166.8" y2="130.7"/>
		<line class="st4" x1="173.4" y1="141.9" x2="170.5" y2="137"/>
		<line class="st4" x1="173.1" y1="135.7" x2="181.4" y2="134.2"/>
		<path class="st4" d="M179.6,133.7c-0.4,0.2-0.7,0.6-0.8,1"/>
		<path class="st4" d="M187.4,172.3c0,0-0.5,0-1.2-0.8"/>
		<polygon class="st4" points="194.6,155.9 194.9,167.1 201.2,166.1 200.6,154.3 		"/>
		<polyline class="st4" points="200.8,158.6 209.3,157.2 209.3,162.1 204.1,163.9 202,164.1 201.1,163.8 		"/>
		<polyline class="st4" points="200.9,160.1 201.9,160.3 203.9,160.2 209.3,158.2 		"/>
		<line class="st4" x1="204.1" y1="163.9" x2="203.9" y2="160.2"/>
		<line class="st4" x1="202" y1="164.1" x2="201.9" y2="160.3"/>
		<polyline class="st4" points="215.4,155.9 211.8,157.2 211.8,160.7 215.5,159.4 		"/>
		<path class="st4" d="M199.7,129.7c2.4-0.5,6.2,7.7,8.3,18.4c2.2,10.7,1.9,19.7-0.5,20.2"/>
		<path class="st4" d="M201.9,129.3c2.4-0.5,6.2,7.7,8.3,18.4s1.9,19.7-0.5,20.2"/>
		<ellipse transform="matrix(0.8542 -0.52 0.52 0.8542 -61.8887 82.6118)" class="st4" cx="116.4" cy="151.7" rx="1.1" ry="2.8"/>
		<polygon class="st4" points="111.6,151 107.9,153.1 113.2,153.5 		"/>
		<polygon class="st4" points="146.1,149 148.6,144.4 142.8,143.4 143.3,144.1 132.1,146.5 131.8,145.8 129.3,148.6 134.6,151.4 
			133.6,149.3 144.7,146.7 		"/>
		<polyline class="st4" points="174.3,138.3 180,137.2 181.5,139 174.9,140.5 		"/>
		<circle class="st4" cx="173.6" cy="144.4" r="1"/>
		<circle class="st4" cx="173.6" cy="144.4" r="1.8"/>
		<path class="st4" d="M146.9,170.7l34.5-7.5c1.3-0.3,3.2,0.3,3.6,1.6l0,0c0.4,1.4-1.1,3.1-2.5,3.4l-33.3,7L146.9,170.7z"/>
		<path class="st4" d="M146.9,170.7l-0.2-1.7l34.5-7.4c0,0,3.6,0.6,3.8,3.2"/>
		<path class="st4" d="M150,173.4l31.9-6.6c0,0,2.1-0.6,1.9-1.3c-0.2-0.8-0.9-0.9-2.5-0.5s-32.2,6.7-32.2,6.7L150,173.4z"/>
		<polyline class="st4" points="153.4,178.5 156.3,180.6 178.6,176.8 176.1,173.7 		"/>
		<path class="st4" d="M153.1,178.5c0.8,1.4,1.8,2.7,2.8,4c1.2,1.1,2.7,2,4.2,2.7l6.4-0.3h1.4c0.9,2.8,1.4,5.6,1.3,8.6
			c0,5.5-1.7,10.9-4.6,13c-2.4,1.8-5.7,2-8.3,0.3c-1.9-1.3-1.8-4.6-1-5.6c0.7-1,6.7-3.1,7.1-6.1c0.5-3,0.8-10.1,0.8-10.1"/>
		<path class="st4" d="M178.6,176.8c0,0,2.3,3.3,3.4,12.1l-3.3,0.6v13.5l4.6-1v2.4c-4.5,1.6-9.1,2.8-13.7,3.5
			c-6.1,0.7-10.1,0.6-11.8-0.4"/>
		<path class="st4" d="M166,184.9c1.1,3.7,1.5,7.6,1.3,11.4c-0.6,5.6-1.8,9.3-5.5,9.8c-3.7,0.5-6.5-0.9-6.9-3.1"/>
		<path class="st4" d="M156.3,180.6c1.4,2.1,3.4,3.7,5.7,4.6"/>
		<polyline class="st4" points="156.1,177.9 157.3,179.5 176,177.3 		"/>
		<line class="st4" x1="165.2" y1="176" x2="165.2" y2="178.6"/>
		<line class="st4" x1="168.1" y1="175.4" x2="168.1" y2="178.2"/>
		<line class="st4" x1="172.5" y1="174.4" x2="172.5" y2="177.8"/>
		<polygon class="st4" points="171.9,189.5 176.7,189.1 176.4,198.7 		"/>
		<path class="st4" d="M178.8,197.1l3.8-0.9c0-2.4-0.2-4.9-0.7-7.3"/>
		<line class="st4" x1="181.9" y1="202.3" x2="179.2" y2="197"/>
		<path class="st4" d="M185.5,186.9c0-3.6,0.7-6.3,1.7-6.3c1.3-0.1,2.6,4.1,3,9.5c0.4,5.3-0.3,9.7-1.5,9.8c-0.9,0.1-1.9-2.1-2.5-5.3
			"/>
		<path class="st4" d="M187.2,180.6l4.5-0.8c1.3-0.1,2.6,4.3,3.1,9.7c0.4,5.5-0.3,10.1-1.5,10.1l-4.6,0.2"/>
		<line class="st4" x1="181.8" y1="187.2" x2="189.8" y2="186.7"/>
		<line class="st4" x1="188.9" y1="182.9" x2="193.5" y2="182.4"/>
		<line class="st4" x1="182.5" y1="194.7" x2="190.3" y2="194.3"/>
		<line class="st4" x1="188.2" y1="181.3" x2="192.9" y2="180.9"/>
		<line class="st4" x1="189.9" y1="187.1" x2="194.5" y2="186.7"/>
		<line class="st4" x1="190.2" y1="189.1" x2="194.7" y2="188.8"/>
		<line class="st4" x1="190.2" y1="196.1" x2="194.7" y2="196"/>
		<line class="st4" x1="190.3" y1="194.7" x2="194.9" y2="194.6"/>
		<path class="st4" d="M105.3,194.2l-1.4,14.2c0.2,2.6,1.1,5.1,2.6,7.2c1.7,2.2,3.6,4.3,5.7,6.1c0,0,7-0.6,15.6-2.2s10.9-3,10.9-3
			l-5-33.9"/>
		<path class="st4" d="M113,187l-0.8,34.9l-1.9,2.7c0,0-5-4-6.6-7.3c-1.1-2.6-1.8-5.4-2.1-8.2l2.4-1.5"/>
		<path class="st4" d="M134.8,182.4L139,207c0,0,1.3,6.6-0.2,9.5l2.8,2.3"/>
		<path class="st4" d="M139,207.4c1.5,1.4,2.5,3.1,3.1,5c0.5,2.1,0.3,4.3-0.5,6.3l-2.5,1.5c-3.8,1.6-7.8,2.8-11.9,3.5
			c-4.1,0.8-8.4,1.3-12.6,1.4c-1.4,0.1-2.8-0.1-4.2-0.5"/>
		<path class="st4" d="M102,194.5c-12.6,4.3-20.9,12.2-20.7,20.9c0.4,12.8,18.9,22.6,41.4,21.9c22.5-0.7,40.4-11.5,40-24.3
			c0-1.6-0.3-3.2-0.7-4.7"/>
		<path class="st4" d="M163.4,208.4c0.9,1.9,1.4,3.9,1.5,5.9c0.4,13.5-18.4,25-42.1,25.7c-23.6,0.7-43.1-9.7-43.5-23.2
			c-0.3-9.4,8.7-17.7,22.1-22.3l0.2-0.1"/>
		<path class="st4" d="M136.5,192.3l0.5,0.1c7,1.2,13.6,3.9,19.5,7.9"/>
		<path class="st4" d="M165.4,220.6c4.5,3.9,7.1,8.5,7.3,13.6c0.4,15-21.6,27.8-49.2,28.6c-27.6,0.8-50.3-10.7-50.8-25.7
			c-0.2-5,2.2-9.8,6.5-14"/>
		<path class="st4" d="M165,219.5c6.4,4.7,10.1,10.4,10.3,16.8c0.5,16.3-22.6,30.1-51.7,31c-29,0.9-52.9-11.6-53.4-27.9
			c-0.2-6.3,3.2-12.2,9-17.2"/>
		<path class="st4" d="M79.2,216.8l0.2,16.8c0.4,13.5,20,23.9,43.8,23.2c23.8-0.7,42.8-12.2,42.4-25.7l-0.5-10.8l-0.2-5.1"/>
		<line class="st4" x1="175.3" y1="235.8" x2="178.6" y2="286.3"/>
		<line class="st4" x1="70.2" y1="238.7" x2="71.8" y2="288.6"/>
		<line class="st4" x1="172.2" y1="201.8" x2="176.7" y2="201.4"/>
		<line class="st4" x1="174.9" y1="184.3" x2="174.9" y2="188.3"/>
		<line class="st4" x1="176.9" y1="186.3" x2="172.9" y2="186.3"/>
		<line class="st4" x1="182.8" y1="187.1" x2="183.5" y2="194.6"/>
		<line class="st4" x1="183.9" y1="187.1" x2="184.5" y2="194.6"/>
		<line class="st4" x1="185" y1="187.1" x2="185.6" y2="194.6"/>
		<line class="st4" x1="186" y1="187.1" x2="186.6" y2="194.6"/>
		<line class="st4" x1="187.1" y1="187.1" x2="187.7" y2="194.4"/>
		<line class="st4" x1="188.1" y1="187.1" x2="188.7" y2="194.4"/>
		<line class="st4" x1="189.2" y1="187.1" x2="189.8" y2="194.3"/>
	</g>
</g>
<rect x="55" y="139.6" class="st5" width="74.3" height="63.2"/>
<line class="st5" x1="155.8" y1="171.2" x2="129.3" y2="171.2"/>
<rect x="155.7" y="152.7" class="st5" width="23.3" height="37"/>
<polyline class="st5" points="273.1,258.8 299.9,240.1 321.5,240.1 "/>
<path class="st6" d="M274.2,260.3c-0.9,0.6-2,0.4-2.6-0.5c-0.6-0.9-0.4-2,0.5-2.6c0.9-0.6,2-0.4,2.6,0.5
	C275.3,258.5,275.1,259.7,274.2,260.3z"/>
<polyline class="st5" points="208.4,200 251.9,205.9 266.2,205.9 "/>
<path class="st6" d="M208.2,201.9c-1-0.1-1.8-1.1-1.6-2.1c0.1-1,1.1-1.8,2.1-1.6c1,0.1,1.8,1.1,1.6,2.1
	C210.2,201.3,209.3,202,208.2,201.9C208.2,201.9,208.2,201.9,208.2,201.9z"/>
<line class="st5" x1="218" y1="194.4" x2="266.2" y2="194.4"/>
<circle class="st6" cx="218.1" cy="194.4" r="1.9"/>
<line class="st5" x1="299.7" y1="151.6" x2="321.5" y2="151.6"/>
<path class="st6" d="M299.8,153.5c-1,0-1.9-0.8-1.9-1.9s0.8-1.9,1.9-1.9s1.9,0.8,1.9,1.9C301.7,152.7,300.9,153.5,299.8,153.5z"/>
<polyline class="st5" points="249.8,151.9 309.1,141.9 321.5,141.9 "/>
<path class="st6" d="M250.2,153.8c-1,0.2-2-0.5-2.2-1.6c-0.2-1,0.5-2,1.6-2.2c1-0.2,2,0.5,2.2,1.5
	C251.9,152.6,251.2,153.6,250.2,153.8C250.2,153.8,250.2,153.8,250.2,153.8z"/>
<text transform="matrix(1 0 0 1 325.8107 144.5026)" class="st6 st7 st8">7</text>
<text transform="matrix(1 0 0 1 221.1945 132.591)" class="st6 st7 st8">6</text>
<text transform="matrix(1 0 0 1 189.5471 132.591)" class="st6 st7 st8">4</text>
<text transform="matrix(1 0 0 1 126.113 236.5402)" class="st6 st7 st8">11</text>
<text transform="matrix(1 0 0 1 40.2766 177.7228)" class="st6 st7 st8">2</text>
<text transform="matrix(1 0 0 1 89.924 126.4777)" class="st6 st7 st8">3</text>
<text transform="matrix(1 0 0 1 41.031 161.0812)" class="st6 st7 st8">1</text>
<text transform="matrix(1 0 0 1 325.5217 153.9367)" class="st6 st7 st8">8</text>
<text transform="matrix(1 0 0 1 323.7355 242.3264)" class="st6 st7 st8">10</text>
<text transform="matrix(1 0 0 1 269.4084 196.968)" class="st6 st7 st8">9</text>
<text transform="matrix(1 0 0 1 269.3957 208.5021)" class="st6 st7 st8">5</text>
<line class="st5" x1="223.5" y1="148.4" x2="223.5" y2="135.1"/>
<circle class="st6" cx="223.5" cy="148.3" r="1.9"/>
<line class="st5" x1="191.8" y1="165.7" x2="191.8" y2="135.1"/>
<path class="st6" d="M193.7,165.6c-0.1,1-1.1,1.8-2.1,1.7c-0.9-0.1-1.6-0.8-1.7-1.7c-0.1-1,0.6-2,1.7-2.1c1-0.1,2,0.6,2.1,1.7
	C193.7,165.3,193.7,165.4,193.7,165.6z"/>
<text transform="matrix(1 0 0 1 167.5344 132.591)" class="st6 st7 st8">3</text>
<line class="st5" x1="169.7" y1="165.7" x2="169.7" y2="135.1"/>
<path class="st6" d="M171.6,165.6c-0.1,1-1.1,1.8-2.1,1.7c-0.9-0.1-1.6-0.8-1.7-1.7c-0.1-1,0.6-2,1.7-2.1c1-0.1,2,0.6,2.1,1.7
	C171.6,165.3,171.6,165.4,171.6,165.6z"/>
<line class="st5" x1="92.2" y1="149.9" x2="92.2" y2="129.7"/>
<path class="st6" d="M94.1,149.8c-0.1,1-1.1,1.8-2.1,1.7c-0.9-0.1-1.6-0.8-1.7-1.7c-0.1-1,0.6-2,1.7-2.1c1-0.1,2,0.6,2.1,1.7
	C94.1,149.5,94.1,149.7,94.1,149.8z"/>
<line class="st5" x1="82.1" y1="175.1" x2="48.6" y2="175.1"/>
<circle class="st6" cx="81.9" cy="175.1" r="1.9"/>
<line class="st5" x1="160.5" y1="234.6" x2="135.9" y2="234.6"/>
<path class="st6" d="M160.4,232.7c1,0.1,1.8,1.1,1.7,2.1c-0.1,0.9-0.8,1.6-1.7,1.7c-1,0.1-2-0.6-2.1-1.7c-0.1-1,0.6-2,1.7-2.1
	C160.1,232.7,160.3,232.7,160.4,232.7z"/>
<line class="st5" x1="79.2" y1="158.8" x2="48.6" y2="158.8"/>
<circle class="st6" cx="79.1" cy="158.8" r="1.9"/>
</svg>
